<?xml version="1.0" encoding="utf-8"?>
<!-- Generator: Adobe Illustrator 27.2.0, SVG Export Plug-In . SVG Version: 6.00 Build 0)  -->
<svg version="1.1" id="Capa_1" xmlns="http://www.w3.org/2000/svg" xmlns:xlink="http://www.w3.org/1999/xlink" x="0px" y="0px"
	 viewBox="0 0 766.3 254.6" style="enable-background:new 0 0 766.3 254.6;" xml:space="preserve">
<style type="text/css">
	.st0{fill:none;stroke:#BA7830;stroke-width:4;stroke-miterlimit:10;}
	.st1{fill:#020203;stroke:#FFFFFF;stroke-miterlimit:10;}
	.st2{font-family:'Neuton-ExtraLight';}
	.st3{font-size:162.9562px;}
	.st4{fill:#020203;}
	.st5{font-size:51.1667px;}
	.st6{fill:none;stroke:#D5AB7D;stroke-miterlimit:10;}
	.st7{fill:#BA7830;}
</style>
<ellipse class="st0" cx="130.1" cy="130.3" rx="100.7" ry="100.8"/>
<text transform="matrix(1 0 0 1 248.0049 167.4122)" class="st1 st2 st3">FinixDS</text>
<text transform="matrix(1 0 0 1 334.458 219.1376)" class="st4 st2 st5">Graphic Design</text>
<g>
	<g>
		<g>
			<path class="st6" d="M60.2,224.2"/>
		</g>
	</g>
	<g>
		<g>
			<g>
				<path class="st7" d="M75.2,113.6c0.4,0.3-4.4,2.3-9.7,7.8c-1.3,1.4-2.6,3-3.5,4.9c-1,1.9-1.7,4.1-1.8,6.4
					c-0.3,4.7,2,9.7,5.5,14.1c0.6,0.7,1.3,1.5,1.8,2l-2.9,2.5c-0.9-1.3-1.6-2.6-2.2-4c-0.6-1.4-1.1-2.8-1.3-4.3
					c-0.2-1.5-0.2-3.1,0.2-4.6c0.4-1.5,1.4-2.9,2.5-3.8c1.1-0.9,2.3-1.6,3.5-2c0.3-0.1,0.6-0.2,0.9-0.3c0.3-0.1,0.6-0.1,0.9-0.2
					c0.3-0.1,0.6-0.1,0.9-0.2c0.3,0,0.6-0.1,0.8-0.1c1.1-0.2,2.2-0.2,3.2-0.3c1,0,2,0,2.9,0.1c3.7,0.2,6.6,0.7,8.6,1.1
					c2,0.4,3.1,0.7,3.1,0.7s-1.1,0-3.1-0.1c-2,0-4.9-0.1-8.5,0.1c-0.9,0-1.8,0.2-2.8,0.3c-0.9,0.2-1.9,0.3-2.9,0.6
					c-1.9,0.5-4,1.3-5.4,2.6c-1.4,1.3-1.8,3.3-1.3,5.5c0.5,2.2,1.7,4.6,3.1,6.6l-2.9,2.5c-0.7-0.7-1.4-1.5-2.1-2.3
					c-2-2.5-3.6-5.2-4.6-8c-0.5-1.4-0.9-2.9-1.1-4.4c-0.2-1.5-0.2-2.9,0-4.4c0.3-2.8,1.4-5.4,2.7-7.4c1.3-2.1,2.9-3.7,4.5-5
					C70.5,115,75.5,114,75.2,113.6z"/>
			</g>
		</g>
	</g>
	<g>
		<g>
			<g>
				<path class="st7" d="M199.9,114.8c0,0-0.9,0.3-2.4,0.8c-1.6,0.5-3.8,1.2-6.7,1.9c-2.9,0.6-6.4,1.2-10.5,0.8
					c-4.1-0.4-8.3-1.9-12.4-3.7c-2-0.9-4-1.8-5.8-2.5c-1.9-0.8-3.7-1.4-5.5-2.1c-3.5-1.2-6.8-2.1-9.6-2.7c-2.8-0.6-5.1-1-6.7-1.3
					c-1.6-0.2-2.5-0.4-2.5-0.4s0.2,0,0.7-0.1c0.4,0,1.1-0.1,1.9-0.2c1.6-0.1,4-0.2,7-0.1c2.9,0.2,6.4,0.6,10.3,1.5
					c1.9,0.5,3.9,1,5.9,1.7c2,0.7,4.1,1.6,6.1,2.5c4,1.8,7.7,3.4,11.3,4c3.6,0.7,6.9,0.6,9.8,0.5c2.9-0.2,5.2-0.4,6.8-0.6
					C199,114.9,199.9,114.8,199.9,114.8z"/>
			</g>
		</g>
	</g>
	<g>
		<g>
			<g>
				<path class="st7" d="M209.5,127.9c0,0-0.8,0.3-2.3,0.8c-1.5,0.5-3.6,1.4-6.3,2.4c-2.7,1-6,2.2-9.9,2.7c-2,0.2-4.1,0.3-6.4-0.1
					c-2.2-0.4-4.5-1.3-6.5-2.5c-2-1.2-3.7-2.6-5.3-3.9c-1.6-1.3-3-2.6-4.5-3.7c-2.9-2.2-5.8-4-8.2-5.3c-2.5-1.3-4.6-2.3-6-2.9
					c-0.7-0.3-1.3-0.5-1.7-0.7c-0.4-0.2-0.6-0.2-0.6-0.2s0.2,0,0.6,0.1c0.4,0.1,1,0.1,1.8,0.3c1.6,0.3,3.9,0.8,6.6,1.7
					c2.8,0.9,6,2.3,9.3,4.4c3.4,2,6.5,4.9,9.9,7c1.7,1,3.4,1.8,5.2,2.2c1.8,0.4,3.6,0.5,5.4,0.5c3.6-0.1,6.9-0.8,9.6-1.3
					c2.8-0.6,5.1-1,6.7-1.2C208.6,127.9,209.5,127.9,209.5,127.9z"/>
			</g>
		</g>
	</g>
	<g>
		<g>
			<g>
				<path class="st7" d="M207.5,144.8c0,0-0.1,0.1-0.4,0.2c-0.3,0.1-0.7,0.3-1.3,0.5c-1.1,0.4-2.8,0.8-4.9,1.1
					c-2.1,0.3-4.7,0.2-7.6-0.2c-2.8-0.5-5.9-1.4-8.8-3c-5.9-3.1-10-7.5-12.5-10.8c-1.3-1.7-2.2-3.1-2.8-4.1c-0.6-1-0.9-1.6-0.9-1.6
					s0.5,0.4,1.4,1.2c0.9,0.8,2.1,1.9,3.7,3.2c3.2,2.6,7.6,6,12.9,8.7c5.3,2.8,10.6,4.3,14.6,4.7c2,0.2,3.7,0.3,4.8,0.2
					c0.6,0,1,0,1.3-0.1C207.3,144.8,207.5,144.8,207.5,144.8z"/>
			</g>
		</g>
	</g>
	<g>
		<g>
			<g>
				<path class="st7" d="M166.7,136.1c0,0-0.4-0.4-1.2-1.2c-0.8-0.7-1.9-1.7-3.4-2.8c-3-2.2-7.4-4.6-12.7-6.4
					c-5.2-1.9-10.3-3.2-13.9-4.3c-3.7-1-5.9-1.8-5.9-1.8s2.4-0.2,6.2-0.1c3.8,0.1,9.2,0.5,14.9,2.6c5.7,2.1,10.2,5.6,12.7,8.7
					c1.3,1.5,2.1,2.9,2.6,3.9C166.5,135.5,166.7,136.1,166.7,136.1z"/>
			</g>
		</g>
	</g>
	<g>
		<g>
			<g>
				<path class="st7" d="M175.2,159.1c0,0-0.6-0.1-1.6-0.6c-1-0.4-2.4-1.3-3.7-2.8c-1.4-1.4-2.7-3.5-3.8-5.7
					c-1.1-2.3-2.2-4.6-3.5-6.9c-2.7-4.6-6-8.3-8.7-10.7c-1.3-1.2-2.5-2.2-3.4-2.8c-0.8-0.6-1.3-1-1.3-1s0.6,0.1,1.6,0.4
					c1,0.3,2.5,0.9,4.2,1.7c3.4,1.7,7.9,5.2,10.9,10.4c0.8,1.3,1.4,2.6,1.9,3.9c0.5,1.3,0.9,2.5,1.3,3.7c0.8,2.3,1.5,4.3,2.3,5.8
					c0.8,1.6,1.8,2.7,2.5,3.4C174.7,158.8,175.2,159.1,175.2,159.1z"/>
			</g>
		</g>
	</g>
	<g>
		<g>
			<g>
				<path class="st7" d="M193.5,153.1c0,0-0.1,0.1-0.3,0.2c-0.2,0.1-0.4,0.4-0.8,0.6c-0.7,0.5-1.8,1.1-3.3,1.4
					c-1.5,0.4-3.4,0.4-5.5,0.1c-2-0.4-4.2-1.3-6.2-2.7c-1.9-1.4-3.4-3.1-4.5-4.7c-1.1-1.6-1.9-3.2-2.5-4.5c-0.6-1.3-1-2.4-1.3-3.2
					c-0.3-0.8-0.4-1.2-0.4-1.2s0.3,0.3,0.9,0.9c0.6,0.6,1.4,1.4,2.4,2.5c2,2.1,4.6,4.9,7.7,7.2c3.1,2.3,6.5,3.6,9.2,3.8
					c1.3,0.1,2.5,0.1,3.2-0.1c0.4,0,0.7-0.1,0.9-0.2C193.4,153.2,193.5,153.1,193.5,153.1z"/>
			</g>
		</g>
	</g>
	<g>
		<g>
			<g>
				<path class="st7" d="M107.4,205.2c0,0-0.1-0.2-0.4-0.7c-0.3-0.4-0.6-1.1-1-2.1c-0.8-1.8-1.6-4.7-1.7-8.3
					c-0.2-3.6,0.3-7.9,1.2-12.5c0.9-4.6,2.1-9.5,2.7-14.6c0.3-2.5,0.4-5,0.2-7.4c-0.2-2.3-0.7-4.5-1.5-6.6
					c-1.5-4.2-3.7-7.6-5.8-10.2c-2.2-2.6-4.3-4.5-5.9-5.6c-0.8-0.6-1.4-1-1.8-1.3c-0.4-0.3-0.7-0.4-0.7-0.4s0.3,0.1,0.7,0.3
					c0.5,0.2,1.2,0.5,2.1,0.9c1.8,0.9,4.3,2.4,7,4.8c2.6,2.4,5.5,5.9,7.4,10.3c1,2.2,1.8,4.7,2.1,7.4c0.4,2.7,0.3,5.5,0,8.2
					c-0.7,5.5-2.2,10.5-3.4,14.9c-1.2,4.4-2.2,8.4-2.5,11.8c-0.3,3.4-0.1,6.2,0.3,8.1c0.2,0.9,0.4,1.7,0.6,2.2
					C107.4,204.9,107.4,205.2,107.4,205.2z"/>
			</g>
		</g>
	</g>
	<g>
		<g>
			<g>
				<path class="st7" d="M179.2,95.7c0,0-0.1,0.2-0.3,0.5c-0.2,0.3-0.5,0.7-0.9,1.3c-0.8,1.1-2.1,2.6-4.1,4c-2,1.4-4.9,2.6-8.2,3
					c-3.4,0.4-7,0-10.6-1c-3.6-0.9-6.8-2.2-9.7-3.1c-2.9-1-5.5-1.7-7.7-2.1c-2.2-0.4-4.1-0.4-5.4-0.3c-0.6,0.1-1.2,0.1-1.5,0.2
					c-0.3,0-0.5,0.1-0.5,0.1s0.2-0.1,0.5-0.2c0.3-0.2,0.8-0.4,1.4-0.6c1.3-0.5,3.2-0.9,5.7-1c2.4-0.1,5.4,0.2,8.5,0.8
					c3.1,0.7,6.4,1.6,9.8,2.5c3.4,0.9,6.5,1.5,9.4,1.5c2.9,0,5.5-0.6,7.5-1.5c2.1-0.9,3.6-2,4.6-2.7c0.5-0.4,0.9-0.7,1.2-1
					C179.1,95.8,179.2,95.7,179.2,95.7z"/>
			</g>
		</g>
	</g>
	<g>
		<g>
			<g>
				<path class="st7" d="M176.8,198c0,0-0.2-0.1-0.5-0.2c-0.2-0.1-0.4-0.1-0.7-0.2c-0.3-0.1-0.5-0.3-0.9-0.4
					c-1.3-0.7-3.1-1.9-4.7-4.1c-1.7-2.1-3.2-5-4.2-8.3c-1.1-3.4-1.6-7.2-2-11c-0.3-3.9-0.5-7.6-0.7-10.8c-0.2-3.3-0.6-6.2-1.1-8.6
					c-0.5-2.4-1.2-4.3-1.8-5.6c-0.6-1.3-0.9-2-0.9-2s0.5,0.6,1.5,1.7c0.9,1.2,2.1,2.9,3.1,5.4c1,2.4,1.9,5.4,2.5,8.8
					c0.6,3.4,1,7.1,1.3,10.9c0.3,3.8,0.6,7.4,1.3,10.5c0.6,3.2,1.6,5.9,2.7,8.1c1.1,2.2,2.4,3.7,3.5,4.6c0.3,0.2,0.5,0.4,0.7,0.6
					c0.2,0.2,0.4,0.3,0.6,0.4C176.7,197.9,176.8,198,176.8,198z"/>
			</g>
		</g>
	</g>
	<g>
		<g>
			<g>
				<path class="st7" d="M160.9,157c0,0-0.6-0.1-1.6-0.6c-1-0.4-2.4-1.3-3.7-2.8c-1.4-1.4-2.7-3.5-3.8-5.7c-1.1-2.3-2.2-4.6-3.5-6.9
					c-2.7-4.6-6-8.3-8.7-10.7c-1.3-1.2-2.5-2.2-3.4-2.8c-0.8-0.6-1.3-1-1.3-1s0.6,0.1,1.6,0.4c1,0.3,2.5,0.9,4.2,1.7
					c3.4,1.7,7.9,5.2,10.9,10.4c0.8,1.3,1.4,2.6,1.9,3.9c0.5,1.3,0.9,2.5,1.3,3.7c0.8,2.3,1.5,4.3,2.3,5.8c0.8,1.6,1.8,2.7,2.5,3.4
					C160.4,156.6,160.9,157,160.9,157z"/>
			</g>
		</g>
	</g>
	<g>
		<g>
			<g>
				<path class="st7" d="M131.9,63.2c0,0-0.2,0.9-0.7,2.4c-0.5,1.6-1.1,3.8-2.2,6.6c-1.1,2.7-2.7,6-5.3,9.1c-2.6,3.2-6.3,5.8-10,8.1
					c-1.9,1.2-3.7,2.3-5.4,3.4c-1.7,1.1-3.3,2.2-4.8,3.4c-3,2.2-5.6,4.5-7.7,6.4c-2.1,2-3.7,3.6-4.8,4.8c-1.1,1.2-1.7,1.9-1.7,1.9
					s0.1-0.2,0.3-0.6c0.2-0.4,0.5-0.9,0.9-1.6c0.8-1.4,2.1-3.4,3.9-5.8c1.8-2.3,4.1-5,7-7.6c1.5-1.3,3-2.6,4.8-3.9
					c1.7-1.3,3.6-2.4,5.5-3.6c3.7-2.3,7.1-4.5,9.7-7c2.6-2.6,4.5-5.4,6-7.8c1.5-2.4,2.6-4.5,3.4-5.9C131.4,64,131.9,63.2,131.9,63.2
					z"/>
			</g>
		</g>
	</g>
	<g>
		<g>
			<g>
				<path class="st7" d="M158.5,47c0,0-0.4,1.1-1,3c-0.6,2-1.4,4.8-2.5,8.4c-1.1,3.5-2.3,7.8-4.6,12.3c-1.1,2.2-2.5,4.5-4.3,6.7
					c-1.8,2.2-4,4.2-6.6,5.7c-2.5,1.6-5.2,2.7-7.6,3.7c-2.5,1-4.8,1.9-6.9,2.9c-4.3,2-8.1,4.1-11.1,6.1c-3.1,2-5.4,3.7-7.1,5
					c-0.8,0.6-1.4,1.1-1.9,1.5c-0.4,0.3-0.6,0.5-0.6,0.5s0.2-0.2,0.5-0.6c0.3-0.4,0.9-1,1.6-1.8c1.4-1.5,3.5-3.7,6.3-6.1
					c2.8-2.4,6.4-5.1,10.8-7.5c4.4-2.5,9.5-4.2,14-6.9c4.5-2.7,7.6-6.7,10.1-10.7c2.4-4,4.1-8,5.6-11.4c1.5-3.4,2.7-6.1,3.7-7.9
					C157.9,48,158.5,47,158.5,47z"/>
			</g>
		</g>
	</g>
	<g>
		<g>
			<g>
				<path class="st7" d="M97,80.1c0,0,0.1,0.1,0.2,0.3c0.1,0.2,0.4,0.5,0.6,1c0.5,0.9,1.2,2.2,1.7,4.1c0.4,1.9,0.5,4.4-0.5,7
					c-0.5,1.3-1.3,2.5-2.2,3.6c-0.9,1.1-2,2.1-3.2,2.9c-2.3,1.7-4.7,3-6.6,4.1c-2,1.2-3.7,2.3-4.9,3.4c-1.3,1.1-2.1,2.3-2.6,3.2
					c-0.2,0.4-0.4,0.8-0.5,1c-0.1,0.2-0.2,0.4-0.2,0.4s0-0.1,0-0.4c0-0.3,0-0.7,0.1-1.2c0.2-1,0.6-2.6,1.6-4.2
					c1-1.6,2.6-3.3,4.6-4.9c1.9-1.6,4.1-3,6.2-4.5c2.1-1.5,3.8-3.1,4.8-4.9c1.1-1.7,1.5-3.7,1.6-5.3c0.1-1.7-0.1-3.1-0.3-4.1
					c-0.1-0.5-0.2-0.9-0.2-1.1C97,80.2,97,80.1,97,80.1z"/>
			</g>
		</g>
	</g>
	<g>
		<g>
			<g>
				<path class="st7" d="M168.9,81.3c0,0-0.5,0.6-1.5,1.6c-1,1-2.4,2.5-4.4,4.2c-2,1.7-4.5,3.5-7.9,4.7c-3.4,1.2-7.4,1.5-11.3,1.3
					c-3.9-0.1-7.4-0.4-10.5,0c-3.1,0.3-5.9,1.1-8.2,2c-2.3,0.9-4,1.9-5.2,2.6c-0.6,0.4-1.1,0.7-1.4,0.9c-0.3,0.2-0.5,0.3-0.5,0.3
					s0.1-0.2,0.4-0.4c0.2-0.3,0.6-0.7,1.1-1.2c1-1,2.5-2.5,4.7-3.9c2.2-1.4,5.1-2.8,8.5-3.5c3.5-0.8,7.3-0.7,11.1-0.6
					c3.8,0.1,7.2,0.1,10.2-0.6c3-0.7,5.6-2,7.8-3.2c2.2-1.2,3.9-2.3,5.1-3.1C168.3,81.7,168.9,81.3,168.9,81.3z"/>
			</g>
		</g>
	</g>
</g>
</svg>
