<?xml version="1.0" encoding="utf-8"?>
<!-- Generator: Adobe Illustrator 27.2.0, SVG Export Plug-In . SVG Version: 6.00 Build 0)  -->
<svg version="1.1" id="Capa_1" xmlns="http://www.w3.org/2000/svg" xmlns:xlink="http://www.w3.org/1999/xlink" x="0px" y="0px"
	 viewBox="0 0 256.3 254.6" style="enable-background:new 0 0 256.3 254.6;" xml:space="preserve">
<style type="text/css">
	.st0{fill:none;stroke:#BA7830;stroke-width:4;stroke-miterlimit:10;}
	.st1{fill:none;stroke:#D5AB7D;stroke-miterlimit:10;}
	.st2{fill:#BA7830;}
</style>
<ellipse class="st0" cx="128.1" cy="127.3" rx="126.3" ry="126.4"/>
<g>
	<g>
		<g>
			<path class="st1" d="M40.5,245.1"/>
		</g>
	</g>
	<g>
		<g>
			<g>
				<path class="st2" d="M59.3,106.4c0.5,0.4-5.5,2.9-12.2,9.8c-1.6,1.8-3.3,3.8-4.4,6.1c-1.3,2.4-2.1,5.1-2.3,8
					c-0.4,5.9,2.5,12.2,6.9,17.7c0.8,0.9,1.6,1.9,2.3,2.5l-3.6,3.1c-1.1-1.6-2-3.3-2.8-5c-0.8-1.8-1.4-3.5-1.6-5.4
					c-0.3-1.9-0.3-3.9,0.3-5.8s1.8-3.6,3.1-4.8c1.4-1.1,2.9-2,4.4-2.5c0.4-0.1,0.8-0.3,1.1-0.4c0.4-0.1,0.8-0.1,1.1-0.3
					c0.4-0.1,0.8-0.1,1.1-0.3c0.4,0,0.8-0.1,1-0.1c1.4-0.3,2.8-0.3,4-0.4c1.3,0,2.5,0,3.6,0.1c4.6,0.3,8.3,0.9,10.8,1.4
					c2.5,0.5,3.9,0.9,3.9,0.9s-1.4,0-3.9-0.1c-2.5,0-6.1-0.1-10.7,0.1c-1.1,0-2.3,0.3-3.5,0.4c-1.1,0.3-2.4,0.4-3.6,0.8
					c-2.4,0.6-5,1.6-6.8,3.3c-1.8,1.6-2.3,4.1-1.6,6.9c0.6,2.8,2.1,5.8,3.9,8.3l-3.6,3.1c-0.9-0.9-1.8-1.9-2.6-2.9
					c-2.5-3.1-4.5-6.5-5.8-10c-0.6-1.8-1.1-3.6-1.4-5.5c-0.3-1.9-0.3-3.6,0-5.5c0.4-3.5,1.8-6.8,3.4-9.3c1.6-2.6,3.6-4.6,5.6-6.3
					C53.4,108.1,59.7,106.9,59.3,106.4z"/>
			</g>
		</g>
	</g>
	<g>
		<g>
			<g>
				<path class="st2" d="M215.7,107.9c0,0-1.1,0.4-3,1c-2,0.6-4.8,1.5-8.4,2.4c-3.6,0.8-8,1.5-13.2,1c-5.1-0.5-10.4-2.4-15.6-4.6
					c-2.5-1.1-5-2.3-7.3-3.1c-2.4-1-4.6-1.8-6.9-2.6c-4.4-1.5-8.5-2.6-12-3.4c-3.5-0.8-6.4-1.3-8.4-1.6c-2-0.3-3.1-0.5-3.1-0.5
					s0.3,0,0.9-0.1c0.5,0,1.4-0.1,2.4-0.3c2-0.1,5-0.3,8.8-0.1c3.6,0.3,8,0.8,12.9,1.9c2.4,0.6,4.9,1.3,7.4,2.1
					c2.5,0.9,5.1,2,7.7,3.1c5,2.3,9.7,4.3,14.2,5c4.5,0.9,8.7,0.8,12.3,0.6c3.6-0.3,6.5-0.5,8.5-0.8
					C214.6,108,215.7,107.9,215.7,107.9z"/>
			</g>
		</g>
	</g>
	<g>
		<g>
			<g>
				<path class="st2" d="M227.7,124.3c0,0-1,0.4-2.9,1c-1.9,0.6-4.5,1.8-7.9,3c-3.4,1.3-7.5,2.8-12.4,3.4c-2.5,0.3-5.1,0.4-8-0.1
					c-2.8-0.5-5.6-1.6-8.2-3.1c-2.5-1.5-4.6-3.3-6.6-4.9c-2-1.6-3.8-3.3-5.6-4.6c-3.6-2.8-7.3-5-10.3-6.6c-3.1-1.6-5.8-2.9-7.5-3.6
					c-0.9-0.4-1.6-0.6-2.1-0.9s-0.8-0.3-0.8-0.3s0.3,0,0.8,0.1c0.5,0.1,1.3,0.1,2.3,0.4c2,0.4,4.9,1,8.3,2.1
					c3.5,1.1,7.5,2.9,11.7,5.5c4.3,2.5,8.2,6.1,12.4,8.8c2.1,1.3,4.3,2.3,6.5,2.8s4.5,0.6,6.8,0.6c4.5-0.1,8.7-1,12-1.6
					c3.5-0.8,6.4-1.3,8.4-1.5C226.6,124.3,227.7,124.3,227.7,124.3z"/>
			</g>
		</g>
	</g>
	<g>
		<g>
			<g>
				<path class="st2" d="M225.2,145.5c0,0-0.1,0.1-0.5,0.3c-0.4,0.1-0.9,0.4-1.6,0.6c-1.4,0.5-3.5,1-6.1,1.4
					c-2.6,0.4-5.9,0.3-9.5-0.3c-3.5-0.6-7.4-1.8-11-3.8c-7.4-3.9-12.5-9.4-15.7-13.5c-1.6-2.1-2.8-3.9-3.5-5.1s-1.1-2-1.1-2
					s0.6,0.5,1.8,1.5c1.1,1,2.6,2.4,4.6,4c4,3.3,9.5,7.5,16.2,10.9c6.6,3.5,13.3,5.4,18.3,5.9c2.5,0.3,4.6,0.4,6,0.3
					c0.8,0,1.3,0,1.6-0.1C225,145.5,225.2,145.5,225.2,145.5z"/>
			</g>
		</g>
	</g>
	<g>
		<g>
			<g>
				<path class="st2" d="M174.1,134.6c0,0-0.5-0.5-1.5-1.5c-1-0.9-2.4-2.1-4.3-3.5c-3.8-2.8-9.3-5.8-15.9-8
					c-6.5-2.4-12.9-4-17.4-5.4c-4.6-1.3-7.4-2.3-7.4-2.3s3-0.3,7.8-0.1c4.8,0.1,11.5,0.6,18.7,3.3c7.1,2.6,12.8,7,15.9,10.9
					c1.6,1.9,2.6,3.6,3.3,4.9C173.8,133.8,174.1,134.6,174.1,134.6z"/>
			</g>
		</g>
	</g>
	<g>
		<g>
			<g>
				<path class="st2" d="M184.7,163.4c0,0-0.8-0.1-2-0.8c-1.3-0.5-3-1.6-4.6-3.5c-1.8-1.8-3.4-4.4-4.8-7.1c-1.4-2.9-2.8-5.8-4.4-8.7
					c-3.4-5.8-7.5-10.4-10.9-13.4c-1.6-1.5-3.1-2.8-4.3-3.5c-1-0.8-1.6-1.3-1.6-1.3s0.8,0.1,2,0.5c1.3,0.4,3.1,1.1,5.3,2.1
					c4.3,2.1,9.9,6.5,13.7,13c1,1.6,1.8,3.3,2.4,4.9c0.6,1.6,1.1,3.1,1.6,4.6c1,2.9,1.9,5.4,2.9,7.3c1,2,2.3,3.4,3.1,4.3
					C184.1,163,184.7,163.4,184.7,163.4z"/>
			</g>
		</g>
	</g>
	<g>
		<g>
			<g>
				<path class="st2" d="M207.7,155.9c0,0-0.1,0.1-0.4,0.3c-0.3,0.1-0.5,0.5-1,0.8c-0.9,0.6-2.3,1.4-4.1,1.8
					c-1.9,0.5-4.3,0.5-6.9,0.1c-2.5-0.5-5.3-1.6-7.8-3.4c-2.4-1.8-4.3-3.9-5.6-5.9c-1.4-2-2.4-4-3.1-5.6c-0.8-1.6-1.3-3-1.6-4
					c-0.4-1-0.5-1.5-0.5-1.5s0.4,0.4,1.1,1.1c0.8,0.8,1.8,1.8,3,3.1c2.5,2.6,5.8,6.1,9.7,9c3.9,2.9,8.2,4.5,11.5,4.8
					c1.6,0.1,3.1,0.1,4-0.1c0.5,0,0.9-0.1,1.1-0.3C207.5,156,207.7,155.9,207.7,155.9z"/>
			</g>
		</g>
	</g>
	<g>
		<g>
			<g>
				<path class="st2" d="M99.7,221.2c0,0-0.1-0.3-0.5-0.9c-0.4-0.5-0.8-1.4-1.3-2.6c-1-2.3-2-5.9-2.1-10.4
					c-0.3-4.5,0.4-9.9,1.5-15.7c1.1-5.8,2.6-11.9,3.4-18.3c0.4-3.1,0.5-6.3,0.3-9.3c-0.3-2.9-0.9-5.6-1.9-8.3
					c-1.9-5.3-4.6-9.5-7.3-12.8c-2.8-3.3-5.4-5.6-7.4-7c-1-0.8-1.8-1.3-2.3-1.6c-0.5-0.4-0.9-0.5-0.9-0.5s0.4,0.1,0.9,0.4
					c0.6,0.3,1.5,0.6,2.6,1.1c2.3,1.1,5.4,3,8.8,6c3.3,3,6.9,7.4,9.3,12.9c1.3,2.8,2.3,5.9,2.6,9.3c0.5,3.4,0.4,6.9,0,10.3
					c-0.9,6.9-2.8,13.2-4.3,18.7c-1.5,5.5-2.8,10.5-3.1,14.8c-0.4,4.3-0.1,7.8,0.4,10.2c0.3,1.1,0.5,2.1,0.8,2.8
					C99.7,220.9,99.7,221.2,99.7,221.2z"/>
			</g>
		</g>
	</g>
	<g>
		<g>
			<g>
				<path class="st2" d="M189.7,83.9c0,0-0.1,0.3-0.4,0.6c-0.3,0.4-0.6,0.9-1.1,1.6c-1,1.4-2.6,3.3-5.1,5s-6.1,3.3-10.3,3.8
					c-4.3,0.5-8.8,0-13.3-1.3c-4.5-1.1-8.5-2.8-12.2-3.9c-3.6-1.3-6.9-2.1-9.7-2.6c-2.8-0.5-5.1-0.5-6.8-0.4
					c-0.8,0.1-1.5,0.1-1.9,0.3c-0.4,0-0.6,0.1-0.6,0.1s0.3-0.1,0.6-0.3c0.4-0.3,1-0.5,1.8-0.8c1.6-0.6,4-1.1,7.1-1.3
					c3-0.1,6.8,0.3,10.7,1c3.9,0.9,8,2,12.3,3.1c4.3,1.1,8.2,1.9,11.8,1.9c3.6,0,6.9-0.8,9.4-1.9c2.6-1.1,4.5-2.5,5.8-3.4
					c0.6-0.5,1.1-0.9,1.5-1.3C189.6,84,189.7,83.9,189.7,83.9z"/>
			</g>
		</g>
	</g>
	<g>
		<g>
			<g>
				<path class="st2" d="M186.7,212.2c0,0-0.3-0.1-0.6-0.3c-0.3-0.1-0.5-0.1-0.9-0.3c-0.4-0.1-0.6-0.4-1.1-0.5
					c-1.6-0.9-3.9-2.4-5.9-5.1c-2.1-2.6-4-6.3-5.3-10.4c-1.4-4.3-2-9-2.5-13.8c-0.4-4.9-0.6-9.5-0.9-13.5c-0.3-4.1-0.8-7.8-1.4-10.8
					c-0.6-3-1.5-5.4-2.3-7c-0.8-1.6-1.1-2.5-1.1-2.5s0.6,0.8,1.9,2.1c1.1,1.5,2.6,3.6,3.9,6.8c1.3,3,2.4,6.8,3.1,11
					c0.8,4.3,1.3,8.9,1.6,13.7c0.4,4.8,0.8,9.3,1.6,13.2c0.8,4,2,7.4,3.4,10.2c1.4,2.8,3,4.6,4.4,5.8c0.4,0.3,0.6,0.5,0.9,0.8
					c0.3,0.3,0.5,0.4,0.8,0.5C186.6,212.1,186.7,212.2,186.7,212.2z"/>
			</g>
		</g>
	</g>
	<g>
		<g>
			<g>
				<path class="st2" d="M166.8,160.8c0,0-0.8-0.1-2-0.8c-1.3-0.5-3-1.6-4.6-3.5c-1.8-1.8-3.4-4.4-4.8-7.1c-1.4-2.9-2.8-5.8-4.4-8.7
					c-3.4-5.8-7.5-10.4-10.9-13.4c-1.6-1.5-3.1-2.8-4.3-3.5c-1-0.8-1.6-1.3-1.6-1.3s0.8,0.1,2,0.5c1.3,0.4,3.1,1.1,5.3,2.1
					c4.3,2.1,9.9,6.5,13.7,13c1,1.6,1.8,3.3,2.4,4.9c0.6,1.6,1.1,3.1,1.6,4.6c1,2.9,1.9,5.4,2.9,7.3c1,2,2.3,3.4,3.1,4.3
					C166.2,160.3,166.8,160.8,166.8,160.8z"/>
			</g>
		</g>
	</g>
	<g>
		<g>
			<g>
				<path class="st2" d="M130.4,43.1c0,0-0.3,1.1-0.9,3c-0.6,2-1.4,4.8-2.8,8.3c-1.4,3.4-3.4,7.5-6.6,11.4c-3.3,4-7.9,7.3-12.5,10.2
					c-2.4,1.5-4.6,2.9-6.8,4.3c-2.1,1.4-4.1,2.8-6,4.3c-3.8,2.8-7,5.6-9.7,8c-2.6,2.5-4.6,4.5-6,6c-1.4,1.5-2.1,2.4-2.1,2.4
					s0.1-0.3,0.4-0.8c0.3-0.5,0.6-1.1,1.1-2c1-1.8,2.6-4.3,4.9-7.3c2.3-2.9,5.1-6.3,8.8-9.5c1.9-1.6,3.8-3.3,6-4.9
					c2.1-1.6,4.5-3,6.9-4.5c4.6-2.9,8.9-5.6,12.2-8.8c3.3-3.3,5.6-6.8,7.5-9.8c1.9-3,3.3-5.6,4.3-7.4
					C129.8,44.1,130.4,43.1,130.4,43.1z"/>
			</g>
		</g>
	</g>
	<g>
		<g>
			<g>
				<path class="st2" d="M163.8,22.8c0,0-0.5,1.4-1.3,3.8c-0.8,2.5-1.8,6-3.1,10.5c-1.4,4.4-2.9,9.8-5.8,15.4
					c-1.4,2.8-3.1,5.6-5.4,8.4s-5,5.3-8.3,7.1c-3.1,2-6.5,3.4-9.5,4.6c-3.1,1.3-6,2.4-8.7,3.6c-5.4,2.5-10.2,5.1-13.9,7.7
					c-3.9,2.5-6.8,4.6-8.9,6.3c-1,0.8-1.8,1.4-2.4,1.9c-0.5,0.4-0.8,0.6-0.8,0.6s0.3-0.3,0.6-0.8c0.4-0.5,1.1-1.3,2-2.3
					c1.8-1.9,4.4-4.6,7.9-7.7c3.5-3,8-6.4,13.5-9.4c5.5-3.1,11.9-5.3,17.6-8.7c5.6-3.4,9.5-8.4,12.7-13.4c3-5,5.1-10,7-14.3
					c1.9-4.3,3.4-7.7,4.6-9.9C163,24.1,163.8,22.8,163.8,22.8z"/>
			</g>
		</g>
	</g>
	<g>
		<g>
			<g>
				<path class="st2" d="M86.6,64.3c0,0,0.1,0.1,0.3,0.4c0.1,0.3,0.5,0.6,0.8,1.3c0.6,1.1,1.5,2.8,2.1,5.1c0.5,2.4,0.6,5.5-0.6,8.8
					c-0.6,1.6-1.6,3.1-2.8,4.5c-1.1,1.4-2.5,2.6-4,3.6c-2.9,2.1-5.9,3.8-8.3,5.1c-2.5,1.5-4.6,2.9-6.1,4.3c-1.6,1.4-2.6,2.9-3.3,4
					c-0.3,0.5-0.5,1-0.6,1.3c-0.1,0.3-0.3,0.5-0.3,0.5s0-0.1,0-0.5c0-0.4,0-0.9,0.1-1.5c0.3-1.3,0.8-3.3,2-5.3
					c1.3-2,3.3-4.1,5.8-6.1c2.4-2,5.1-3.8,7.8-5.6c2.6-1.9,4.8-3.9,6-6.1c1.4-2.1,1.9-4.6,2-6.6c0.1-2.1-0.1-3.9-0.4-5.1
					c-0.1-0.6-0.3-1.1-0.3-1.4C86.6,64.5,86.6,64.3,86.6,64.3z"/>
			</g>
		</g>
	</g>
	<g>
		<g>
			<g>
				<path class="st2" d="M176.8,65.8c0,0-0.6,0.8-1.9,2c-1.3,1.3-3,3.1-5.5,5.3c-2.5,2.1-5.6,4.4-9.9,5.9c-4.3,1.5-9.3,1.9-14.2,1.6
					c-4.9-0.1-9.3-0.5-13.2,0c-3.9,0.4-7.4,1.4-10.3,2.5c-2.9,1.1-5,2.4-6.5,3.3c-0.8,0.5-1.4,0.9-1.8,1.1c-0.4,0.3-0.6,0.4-0.6,0.4
					s0.1-0.3,0.5-0.5c0.3-0.4,0.8-0.9,1.4-1.5c1.3-1.3,3.1-3.1,5.9-4.9c2.8-1.8,6.4-3.5,10.7-4.4c4.4-1,9.2-0.9,13.9-0.8
					c4.8,0.1,9,0.1,12.8-0.8c3.8-0.9,7-2.5,9.8-4s4.9-2.9,6.4-3.9C176.1,66.3,176.8,65.8,176.8,65.8z"/>
			</g>
		</g>
	</g>
</g>
</svg>
