<?xml version="1.0" encoding="utf-8"?>
<!-- Generator: Adobe Illustrator 27.2.0, SVG Export Plug-In . SVG Version: 6.00 Build 0)  -->
<svg version="1.1" xmlns="http://www.w3.org/2000/svg" xmlns:xlink="http://www.w3.org/1999/xlink" x="0px" y="0px"
	 viewBox="0 0 6114.4 4997.1" style="enable-background:new 0 0 6114.4 4997.1;" xml:space="preserve">

<g id="CLOSET">
	<g id="MARCO">
		<rect id="EXTREMO-INFERIOR" x="143.8" y="4739.7" class="st0" width="5840.1" height="85"/>
		<rect id="EXTREMO-SUPERIOR" x="144" y="119" class="st0" width="5839.9" height="85"/>
		<rect id="EXTREMO-DERECHO" x="5898.6" y="204.2" class="st0" width="85" height="4535.4"/>
		<rect id="EXTREMO-IZQUIERDO" x="143.7" y="204.1" class="st0" width="85" height="4535.4"/>
	</g>
	<g id="TORNILLOSMAD">
		<rect x="2332.7" y="4173.2" class="st0" width="1469" height="608"/>
		<rect x="2332.7" y="3587.2" class="st0" width="1469" height="586"/>
		<rect x="2329.7" y="2998.2" class="st0" width="1469" height="589"/>
	</g>
</g>
<g id="COLGADORES">
	<rect id="PUERTA-EXTREMO-IZQUIERDA" x="196.7" y="156.2" class="st0" width="1054" height="4624"/>
	<rect id="PUERTA-INTERNA-IZQUIERDA" x="1250.7" y="157.2" class="st0" width="1081" height="4624"/>
	<rect id="PUERTA-CENTRAL" x="2331.7" y="161.2" class="st0" width="1469" height="2837"/>
	<rect id="PUERTA-INTERNA-DERECHA" x="3800.7" y="162.2" class="st0" width="1054" height="4619"/>
	<rect id="PUERTA-EXTREMO-DERECHA" x="4854.7" y="163.2" class="st0" width="1081" height="4618"/>
	
		<rect id="COLGADOR-PUERTA-CENTRAL" x="2492.2" y="1653.1" transform="matrix(-1 5.272932e-03 -5.272932e-03 -1 5126.0479 4009.7024)" class="st0" width="131" height="717"/>
	<rect id="COLGADOR-PUERTA-EXTREMA-DERECHA" x="943.7" y="1903.2" class="st0" width="131" height="717"/>
	
		<rect id="COLGADOR-PUERTA-INTERNA-IZQUIERDA" x="1426.7" y="1901.9" transform="matrix(-1 5.272932e-03 -5.272932e-03 -1 2996.3838 4512.9131)" class="st0" width="131" height="717"/>
	<rect id="COLGADOR-PUERTA-INTERNA-DERECHA" x="4546.3" y="1904.4" class="st0" width="131" height="717"/>
	
		<rect id="COLGADOR-PUERTA-EXTREMO-DERECHA" x="5029.3" y="1903.1" transform="matrix(-1 5.272932e-03 -5.272932e-03 -1 10201.5518 4496.2817)" class="st0" width="131" height="717"/>
	
		<rect id="COLGADOR-CAJON-SUPERIOR" x="3014.9" y="3004" transform="matrix(6.123234e-17 -1 1 6.123234e-17 -225.2437 6360.7202)" class="st0" width="105.6" height="578"/>
	
		<rect id="COLGADOR-CAJON-CENTRAL" x="3014.7" y="3610.3" transform="matrix(6.123234e-17 -1 1 6.123234e-17 -831.8703 6966.7754)" class="st0" width="105.6" height="578"/>
	
		<rect id="COLGADOR-CAJON-INFERIOR" x="3014.2" y="4187.8" transform="matrix(6.123234e-17 -1 1 6.123234e-17 -1409.8704 7543.7754)" class="st0" width="105.6" height="578"/>
</g>
<g id="CERRADURA">
	<circle class="st0" cx="2560.7" cy="2530.2" r="70"/>
	<circle class="st1" cx="2560.7" cy="2530.2" r="47"/>
	<path d="M2553.3,2568.8c0,0,9.6-4.1,0-13.2c-9.6-9.1,4.3-24.3,4.3-24.3v-24h4.7v23.9c0,0,7.1-0.7,7.1,8.9c-6.4,3.2-6.4,12.8,0,16
		c6.4,3.2-3.2,19.2-3.2,19.2s-3.2-6.4-9.6-3.2C2556.5,2572,2553.3,2568.8,2553.3,2568.8z"/>
</g>
<g id="TACOS">
	<polygon id="EXTREMO-IZQUIERDO_00000179613568780841531500000018268648914898734740_" points="162.8,4824.7 162.8,4896.8 
		339.7,4897.2 339.7,4824.7 	"/>
	<polygon id="INTERNO-IZQUIERDO" points="2152.9,4824.3 2152.9,4896.4 2329.8,4896.8 2329.8,4824.3 	"/>
	<polygon id="INTERNO-DERECHO" points="3801.4,4825.5 3801.4,4897.6 3978.4,4898 3978.4,4825.5 	"/>
	<polygon id="EXTREMO-DERECHO_00000052090783585065775730000014019552278459271040_" points="5791.5,4825.1 5791.5,4897.2 
		5968.5,4897.6 5968.5,4825.1 	"/>
</g>
<g id="MEDIDAS">
	<g>
		<g id="COLGADOR-IZQUIERDO_00000075866710811138280810000008596678863946697860_">
			<line class="st2" x1="314.8" y1="233.6" x2="1159.6" y2="233.6"/>
			<polygon points="315,219.5 315,248.3 297.7,233.9 			"/>
			<polygon points="1160,247.9 1160.1,219.1 1177.7,233.6 			"/>
		</g>
		<polygon points="1159.7,196 1159.7,271 1214.7,233.5 		"/>
		<polygon points="326.7,273.1 326.7,194 268.7,233.5 		"/>
		<g id="EXTREMO-IZQUIERDO_00000006679452686526400640000000211754847781462716_">
			<g>
				<line class="st3" x1="280.7" y1="4627.6" x2="280.7" y2="371.2"/>
			</g>
			<polygon points="322.7,4622.2 237.8,4622.2 280.3,4684.5 			"/>
		</g>
		<polygon points="241.7,394.2 319.5,394.2 280.6,337.2 		"/>
		<g>
			<path d="M563.8,358.2c-3,0-5.8-0.4-8.5-1.1c-2.7-0.7-5-1.7-7-3c-1.9-1.3-3.3-2.6-4.2-4l3-17.3l4.4,0.7l0.7,13.4
				c1,1.8,2.7,3.3,5.1,4.7c2.4,1.4,5,2,7.7,2c3.3,0,6.3-0.7,8.8-2.1c2.5-1.4,4.5-3.4,5.9-5.9c1.4-2.5,2.1-5.5,2.1-8.9
				c0-3.3-1-6.2-2.9-8.8c-1.9-2.6-4.6-4.6-7.9-6.1c-3.4-1.5-7.2-2.3-11.3-2.4l-0.4-3.3c5.1-2.2,9.6-5,13.5-8.4c4-3.3,5.9-7.7,5.9-13
				c0-2.3-0.5-4.5-1.4-6.6c-0.9-2.1-2.3-3.8-4.1-5.1c-1.8-1.3-4-2-6.6-2c-4.4,0-8.1,1.8-11.1,5.3l-2.8,14.8l-4.2-0.7l-0.5-16.3
				c2-1.9,5-3.7,8.9-5.4c3.9-1.6,8.3-2.5,13.1-2.5c3.7,0,7,0.7,10,2c3,1.4,5.3,3.3,7.1,5.8s2.6,5.4,2.6,8.8c0,3.3-0.9,6.4-2.6,9.2
				c-1.8,2.8-4,5.2-6.7,7.1c-2.7,1.9-5.5,3.5-8.4,4.5v0.7c4,0.6,7.5,1.7,10.6,3.4c3.1,1.7,5.6,3.8,7.4,6.5c1.8,2.7,2.7,5.7,2.7,9.1
				c0,4.7-1.4,8.9-4.1,12.7c-2.7,3.8-6.3,6.8-10.7,9C573.6,357.1,568.8,358.2,563.8,358.2z"/>
			<path d="M599.1,301.4l1.8-23.3h50.3v3.4l-28.5,76.7l-10.5-1.1l31.2-70.1h-36.3l-4.5,15L599.1,301.4z"/>
			<path d="M664.2,358.1c-1.8,0-3.3-0.7-4.4-2.1c-1.1-1.4-1.6-3.2-1.6-5.4c0-2.1,0.5-3.8,1.6-5c1.1-1.3,2.5-1.9,4.3-1.9
				c1.8,0,3.3,0.6,4.4,1.9c1.1,1.3,1.7,3,1.7,5.1c0,2.2-0.5,4-1.6,5.3C667.5,357.5,666.1,358.1,664.2,358.1z"/>
			<path d="M695.9,357.1c-3.6,0-7-0.5-10-1.6c-3-1.1-5.8-2.8-8.3-5.2l1.8-18.5l4.4,0.9l1.2,13.2c1.8,2.2,3.8,3.8,6.1,4.8
				c2.3,1.1,4.9,1.6,7.6,1.6c3.1,0,5.8-0.7,8.1-2c2.3-1.4,4.1-3.3,5.3-5.8c1.3-2.5,1.9-5.4,1.9-8.7c0-6.5-2.7-11.6-8.1-15.3
				c-5.4-3.7-12.9-5.9-22.4-6.5l7.6-35.1l29.6-1.8l-1.4,9.8L694,288l-2.9,17.2c7.5,0.5,13.7,1.9,18.6,4.4c4.9,2.4,8.5,5.5,10.7,9.3
				c2.3,3.8,3.4,8.1,3.4,12.9c0,4.5-1.2,8.7-3.6,12.6c-2.4,3.9-5.8,7-10,9.3C705.9,355.9,701.2,357.1,695.9,357.1z"/>
			<path d="M787.6,357.7c-6.8,0-12.9-1.6-18.4-4.9c-5.5-3.3-9.9-8.1-13.1-14.3c-3.2-6.2-4.8-13.5-4.8-21.9c0-6.9,1.5-13.8,4.4-20.6
				c2.9-6.8,7.4-12.4,13.3-16.9c6-4.5,13.3-6.7,22-6.7c9.7,0,17.4,2.2,23.1,6.5l-2,22.1l-4.5-0.7l-2.4-15.8
				c-3.7-4.8-9.6-7.2-17.7-7.2c-4.7,0-8.9,1.5-12.9,4.5c-3.9,3-7,7.2-9.3,12.7c-2.3,5.4-3.4,11.7-3.4,18.7c0,7.9,1.3,14.6,3.9,20.2
				c2.6,5.6,6.1,9.9,10.6,12.8c4.5,2.9,9.7,4.4,15.6,4.4c4.4,0,8.6-1.1,12.7-3.2s7.7-4.7,10.8-7.9l1.9,3.8c-1.7,2.3-4.1,4.5-7.1,6.8
				c-3,2.2-6.5,4.1-10.4,5.5C796.1,356.9,791.9,357.7,787.6,357.7z"/>
			<path d="M823.2,356l0.5-3.6l11.1-2.5l5.1-69.8l-12.1-2.4l0.6-3.7H852l4.9,12.6l18.9,51.7l22-54.3l4.4-10h23.7l-0.5,3.7l-11.3,2.2
				l3.6,70.4l11.9,1.7l-0.4,4h-32.9l0.5-3.6l11.1-2.5l-3.8-65.6l-27.9,68l-5.9,0.9l-24.8-67.1l-4.7,64.1l12.1,1.7l-0.7,4H823.2z"/>
		</g>
		<g>
			<path d="M423.8,2799.4l-4-0.3l-2.8-18.1H354v17.1l-4-0.3l-4.2-25.4v-1.8h71.7l1.8-17.7l4.5,0.6V2799.4z"/>
			<path d="M425.2,2722.5c0,5.5-1.3,10.1-4,13.7s-6.2,6.2-10.5,7.8c-4.4,1.6-9.3,2.5-14.7,2.5c-7.3,0-14.4-1.7-21.6-5
				c-7.1-3.4-13.4-7.9-18.9-13.7c-5.4-5.8-9.4-12.1-11.7-19.1l3.3-1.9c3.8,8.5,8.9,14.9,15.4,19.4s13.5,7.4,21.2,9v-0.6
				c-4.4-4.7-6.6-10.3-6.6-16.8c0-4.2,1-7.9,2.9-11.1c2-3.2,4.7-5.6,8.1-7.3c3.5-1.7,7.4-2.6,11.8-2.6c4.8,0,9.1,1.1,13,3.4
				c3.8,2.3,6.9,5.4,9,9.3C424.1,2713.4,425.2,2717.8,425.2,2722.5z M388.2,2735.3c2.1,0.3,5,0.5,8.8,0.5c4.5,0,8.5-0.6,12.2-1.9
				c3.6-1.3,6.5-3,8.6-5.1c2.1-2.2,3.1-4.6,3.1-7.3c0-5-1.6-8.5-4.8-10.7c-3.2-2.2-7.8-3.3-13.8-3.3c-3.5,0-6.7,0.6-9.7,1.7
				c-2.9,1.1-5.3,2.8-7,5.1c-1.7,2.3-2.6,5-2.6,8.2c0,2.8,0.5,5.4,1.6,7.8C385.7,2732.7,386.9,2734.4,388.2,2735.3z"/>
			<path d="M423.8,2689.9l-4.9,0.4l-13.4-15.7c-4.7-5.5-8.9-9.9-12.7-13.3c-3.8-3.4-7.7-6-11.6-7.8c-4-1.8-8.3-2.7-12.8-2.7
				c-5.4,0-9.9,1.1-13.5,3.4c-3.6,2.3-5.4,5.8-5.4,10.7c0,3.3,0.7,6.1,2,8.5c1.4,2.4,3,4.1,5,5.1l15.9,2.7l-0.5,3.8l-17.7,0.7
				c-1.6-1.2-3.2-3.1-4.8-5.6c-1.6-2.5-2.8-5.3-3.8-8.5c-1-3.2-1.5-6.4-1.5-9.6c0-6.9,2-12.4,5.9-16.5c3.9-4,9.6-6.1,17.1-6.1
				c5.5,0,10.7,1.5,15.6,4.5c4.9,3,9.4,6.8,13.5,11.3c4.1,4.5,9.3,10.7,15.7,18.7l4.1,5.2v-32.9l-16-6.3l0.5-3.6l23.3,3.1V2689.9z"
				/>
			<path d="M425.5,2572.9c0,6.8-1.6,12.9-4.9,18.4c-3.3,5.5-8.1,9.9-14.3,13.1c-6.2,3.2-13.5,4.8-21.9,4.8c-6.9,0-13.8-1.5-20.6-4.4
				c-6.8-2.9-12.4-7.4-16.9-13.3c-4.5-6-6.7-13.3-6.7-22c0-9.7,2.2-17.4,6.5-23.1l22.1,2l-0.7,4.5l-15.8,2.4
				c-4.8,3.7-7.2,9.6-7.2,17.7c0,4.7,1.5,8.9,4.5,12.9c3,3.9,7.2,7,12.7,9.3c5.4,2.3,11.7,3.4,18.7,3.4c7.9,0,14.6-1.3,20.2-3.9
				c5.6-2.6,9.9-6.1,12.8-10.6c2.9-4.5,4.4-9.7,4.4-15.6c0-4.4-1.1-8.6-3.2-12.7c-2.1-4.1-4.7-7.7-7.9-10.8l3.8-1.9
				c2.3,1.7,4.5,4.1,6.8,7.1c2.2,3,4.1,6.5,5.5,10.4C424.8,2564.4,425.5,2568.6,425.5,2572.9z"/>
			<path d="M423.8,2537.3l-3.6-0.5l-2.5-11.1l-69.8-5.1l-2.4,12.1l-3.7-0.6v-23.7l12.6-4.9l51.7-18.9l-54.3-22l-10-4.4v-23.7
				l3.7,0.5l2.2,11.3l70.4-3.6l1.7-11.9l4,0.4v32.9l-3.6-0.5l-2.5-11.1l-65.6,3.8l68,27.9l0.9,5.9l-67.1,24.8l64.1,4.7l1.7-12.1
				l4,0.7V2537.3z"/>
		</g>
		<g>
			<path d="M2211.3,2799.3l-4-0.3l-2.8-18.1h-63.1v17.1l-4-0.3l-4.2-25.4v-1.8h71.7l1.8-17.7l4.5,0.6V2799.3z"/>
			<path d="M2212.8,2722.5c0,5.5-1.3,10.1-4,13.7s-6.2,6.2-10.5,7.8c-4.4,1.6-9.3,2.5-14.7,2.5c-7.3,0-14.4-1.7-21.6-5
				c-7.1-3.4-13.4-7.9-18.9-13.7c-5.4-5.8-9.4-12.1-11.7-19.1l3.3-1.9c3.8,8.5,8.9,14.9,15.4,19.4s13.5,7.4,21.2,9v-0.6
				c-4.4-4.7-6.6-10.3-6.6-16.8c0-4.2,1-7.9,2.9-11.1c2-3.2,4.7-5.6,8.1-7.3c3.5-1.7,7.4-2.6,11.8-2.6c4.8,0,9.1,1.1,13,3.4
				c3.8,2.3,6.9,5.4,9,9.3C2211.7,2713.4,2212.8,2717.7,2212.8,2722.5z M2175.8,2735.3c2.1,0.3,5,0.5,8.8,0.5
				c4.5,0,8.5-0.6,12.2-1.9c3.6-1.3,6.5-3,8.6-5.1c2.1-2.2,3.1-4.6,3.1-7.3c0-5-1.6-8.5-4.8-10.7c-3.2-2.2-7.8-3.3-13.8-3.3
				c-3.5,0-6.7,0.6-9.7,1.7c-2.9,1.1-5.3,2.8-7,5.1c-1.7,2.3-2.6,5-2.6,8.2c0,2.8,0.5,5.4,1.6,7.8
				C2173.3,2732.7,2174.5,2734.3,2175.8,2735.3z"/>
			<path d="M2211.4,2689.9l-4.9,0.4l-13.4-15.7c-4.7-5.5-8.9-9.9-12.7-13.3c-3.8-3.4-7.7-6-11.6-7.8c-4-1.8-8.3-2.7-12.8-2.7
				c-5.4,0-9.9,1.1-13.5,3.4c-3.6,2.3-5.4,5.8-5.4,10.7c0,3.3,0.7,6.1,2,8.5c1.4,2.4,3,4.1,5,5.1l15.9,2.7l-0.5,3.8l-17.7,0.7
				c-1.6-1.2-3.2-3.1-4.8-5.6c-1.6-2.5-2.8-5.3-3.8-8.5c-1-3.2-1.5-6.4-1.5-9.6c0-6.9,2-12.4,5.9-16.5c3.9-4,9.6-6.1,17.1-6.1
				c5.5,0,10.7,1.5,15.6,4.5c4.9,3,9.4,6.8,13.5,11.3c4.1,4.5,9.3,10.7,15.7,18.7l4.1,5.2v-32.9l-16-6.3l0.5-3.6l23.3,3.1V2689.9z"
				/>
			<path d="M2213,2572.9c0,6.8-1.6,12.9-4.9,18.4c-3.3,5.5-8.1,9.9-14.3,13.1c-6.2,3.2-13.5,4.8-21.9,4.8c-6.9,0-13.8-1.5-20.6-4.4
				c-6.8-2.9-12.4-7.4-16.9-13.3c-4.5-6-6.7-13.3-6.7-22c0-9.7,2.2-17.4,6.5-23.1l22.1,2l-0.7,4.5l-15.8,2.4
				c-4.8,3.7-7.2,9.6-7.2,17.7c0,4.7,1.5,8.9,4.5,12.9c3,3.9,7.2,7,12.7,9.3c5.4,2.3,11.7,3.4,18.7,3.4c7.9,0,14.6-1.3,20.2-3.9
				c5.6-2.6,9.9-6.1,12.8-10.6c2.9-4.5,4.4-9.7,4.4-15.6c0-4.4-1.1-8.6-3.2-12.7c-2.1-4.1-4.7-7.7-7.9-10.8l3.8-1.9
				c2.3,1.7,4.5,4.1,6.8,7.1c2.2,3,4.1,6.5,5.5,10.4C2212.3,2564.4,2213,2568.6,2213,2572.9z"/>
			<path d="M2211.4,2537.3l-3.6-0.5l-2.5-11.1l-69.8-5.1l-2.4,12.1l-3.7-0.6v-23.7l12.6-4.9l51.7-18.9l-54.3-22l-10-4.4v-23.7
				l3.7,0.5l2.2,11.3l70.4-3.6l1.7-11.9l4,0.4v32.9l-3.6-0.5l-2.5-11.1l-65.6,3.8l68,27.9l0.9,5.9l-67.1,24.8l64.1,4.7l1.7-12.1
				l4,0.7V2537.3z"/>
		</g>
		<g>
			<path d="M4021.3,2827.4l-4-0.3l-2.8-18.1h-63.1v17.1l-4-0.3l-4.2-25.4v-1.8h71.7l1.8-17.7l4.5,0.6V2827.4z"/>
			<path d="M4022.7,2750.5c0,5.5-1.3,10.1-4,13.7s-6.2,6.2-10.5,7.8c-4.4,1.6-9.3,2.5-14.7,2.5c-7.3,0-14.4-1.7-21.6-5
				c-7.1-3.4-13.4-7.9-18.9-13.7c-5.4-5.8-9.4-12.1-11.7-19.1l3.3-1.9c3.8,8.5,8.9,14.9,15.4,19.4c6.5,4.4,13.5,7.4,21.2,9v-0.6
				c-4.4-4.7-6.6-10.3-6.6-16.8c0-4.2,1-7.9,2.9-11.1c2-3.2,4.7-5.6,8.1-7.3s7.4-2.6,11.8-2.6c4.8,0,9.1,1.1,13,3.4
				c3.8,2.3,6.9,5.4,9,9.3C4021.6,2741.4,4022.7,2745.7,4022.7,2750.5z M3985.7,2763.3c2.1,0.3,5,0.5,8.8,0.5
				c4.5,0,8.5-0.6,12.2-1.9c3.6-1.3,6.5-3,8.6-5.1s3.1-4.6,3.1-7.3c0-5-1.6-8.5-4.8-10.7c-3.2-2.2-7.8-3.3-13.8-3.3
				c-3.5,0-6.7,0.6-9.7,1.7c-2.9,1.1-5.3,2.8-7,5.1c-1.7,2.3-2.6,5-2.6,8.2c0,2.8,0.5,5.4,1.6,7.8
				C3983.2,2760.7,3984.4,2762.4,3985.7,2763.3z"/>
			<path d="M4021.3,2717.9l-4.9,0.4l-13.4-15.7c-4.7-5.5-8.9-9.9-12.7-13.3c-3.8-3.4-7.7-6-11.6-7.8c-4-1.8-8.3-2.7-12.8-2.7
				c-5.4,0-9.9,1.1-13.5,3.4c-3.6,2.3-5.4,5.8-5.4,10.7c0,3.3,0.7,6.1,2,8.5c1.4,2.4,3,4.1,5,5.1l15.9,2.7l-0.5,3.8l-17.7,0.7
				c-1.6-1.2-3.2-3.1-4.8-5.6c-1.6-2.5-2.8-5.3-3.8-8.5c-1-3.2-1.4-6.4-1.4-9.6c0-6.9,2-12.4,5.9-16.5s9.6-6.1,17.1-6.1
				c5.5,0,10.7,1.5,15.6,4.5c4.9,3,9.4,6.8,13.5,11.3s9.3,10.7,15.7,18.7l4.1,5.2v-32.9l-16-6.3l0.5-3.6l23.3,3.1V2717.9z"/>
			<path d="M4023,2600.9c0,6.8-1.6,12.9-4.9,18.4c-3.3,5.5-8.1,9.9-14.3,13.1c-6.2,3.2-13.5,4.8-21.9,4.8c-6.9,0-13.8-1.5-20.6-4.4
				c-6.8-2.9-12.4-7.4-16.9-13.3c-4.5-6-6.7-13.3-6.7-22c0-9.7,2.2-17.4,6.5-23.1l22.1,2l-0.7,4.5l-15.8,2.4
				c-4.8,3.7-7.2,9.6-7.2,17.7c0,4.7,1.5,8.9,4.5,12.9c3,3.9,7.2,7,12.7,9.3s11.7,3.4,18.7,3.4c7.9,0,14.6-1.3,20.2-3.9
				c5.6-2.6,9.9-6.1,12.8-10.6c2.9-4.5,4.4-9.7,4.4-15.6c0-4.4-1.1-8.6-3.2-12.7c-2.1-4.1-4.7-7.7-7.9-10.8l3.8-1.9
				c2.3,1.7,4.5,4.1,6.8,7.1c2.2,3,4.1,6.5,5.5,10.4C4022.2,2592.4,4023,2596.6,4023,2600.9z"/>
			<path d="M4021.3,2565.3l-3.6-0.5l-2.5-11.1l-69.8-5.1l-2.4,12.1l-3.7-0.6v-23.7l12.6-4.9l51.7-18.9l-54.3-22l-10-4.4v-23.7
				l3.7,0.5l2.2,11.3l70.4-3.6l1.7-11.9l4,0.4v32.9l-3.6-0.5l-2.5-11.1l-65.6,3.8l68,27.9l0.9,5.9l-67.1,24.8l64.1,4.7l1.7-12.1
				l4,0.7V2565.3z"/>
		</g>
		<g>
			<path d="M5808.8,2827.3l-4-0.3l-2.8-18.1H5739v17.1l-4-0.3l-4.2-25.4v-1.8h71.7l1.8-17.7l4.5,0.6V2827.3z"/>
			<path d="M5810.3,2750.5c0,5.5-1.3,10.1-4,13.7s-6.2,6.2-10.5,7.8s-9.3,2.5-14.7,2.5c-7.3,0-14.4-1.7-21.6-5
				c-7.1-3.4-13.4-7.9-18.9-13.7c-5.4-5.8-9.4-12.1-11.7-19.1l3.3-1.9c3.8,8.5,8.9,14.9,15.4,19.4c6.5,4.4,13.5,7.4,21.2,9v-0.6
				c-4.4-4.7-6.6-10.3-6.6-16.8c0-4.2,1-7.9,2.9-11.1c2-3.2,4.7-5.6,8.1-7.3c3.5-1.7,7.4-2.6,11.8-2.6c4.8,0,9.1,1.1,13,3.4
				c3.8,2.3,6.9,5.4,9,9.3C5809.2,2741.4,5810.3,2745.7,5810.3,2750.5z M5773.3,2763.3c2.1,0.3,5,0.5,8.8,0.5
				c4.5,0,8.5-0.6,12.2-1.9c3.6-1.3,6.5-3,8.6-5.1c2.1-2.2,3.1-4.6,3.1-7.3c0-5-1.6-8.5-4.8-10.7c-3.2-2.2-7.8-3.3-13.8-3.3
				c-3.5,0-6.7,0.6-9.7,1.7s-5.3,2.8-7,5.1s-2.6,5-2.6,8.2c0,2.8,0.5,5.4,1.6,7.8C5770.8,2760.7,5772,2762.3,5773.3,2763.3z"/>
			<path d="M5808.9,2717.9l-4.9,0.4l-13.4-15.7c-4.7-5.5-8.9-9.9-12.7-13.3s-7.7-6-11.6-7.8c-4-1.8-8.2-2.7-12.8-2.7
				c-5.4,0-9.9,1.1-13.5,3.4c-3.6,2.3-5.4,5.8-5.4,10.7c0,3.3,0.7,6.1,2,8.5c1.4,2.4,3,4.1,5,5.1l15.9,2.7l-0.5,3.8l-17.7,0.7
				c-1.6-1.2-3.2-3.1-4.8-5.6c-1.6-2.5-2.8-5.3-3.8-8.5s-1.5-6.4-1.5-9.6c0-6.9,2-12.4,5.9-16.5c3.9-4,9.6-6.1,17.1-6.1
				c5.5,0,10.7,1.5,15.6,4.5s9.4,6.8,13.5,11.3c4.1,4.5,9.3,10.7,15.7,18.7l4.1,5.2v-32.9l-16-6.3l0.5-3.6l23.3,3.1V2717.9z"/>
			<path d="M5810.5,2600.9c0,6.8-1.6,12.9-4.9,18.4c-3.3,5.5-8.1,9.9-14.3,13.1c-6.2,3.2-13.5,4.8-21.9,4.8
				c-6.9,0-13.8-1.5-20.6-4.4c-6.8-2.9-12.4-7.4-16.9-13.3c-4.5-6-6.7-13.3-6.7-22c0-9.7,2.2-17.4,6.5-23.1l22.1,2l-0.7,4.5
				l-15.8,2.4c-4.8,3.7-7.2,9.6-7.2,17.7c0,4.7,1.5,8.9,4.5,12.9c3,3.9,7.2,7,12.7,9.3c5.5,2.3,11.7,3.4,18.7,3.4
				c7.9,0,14.6-1.3,20.2-3.9c5.6-2.6,9.9-6.1,12.8-10.6c2.9-4.5,4.4-9.7,4.4-15.6c0-4.4-1.1-8.6-3.2-12.7c-2.1-4.1-4.7-7.7-7.9-10.8
				l3.8-1.9c2.3,1.7,4.5,4.1,6.8,7.1c2.2,3,4.1,6.5,5.5,10.4C5809.8,2592.4,5810.5,2596.5,5810.5,2600.9z"/>
			<path d="M5808.9,2565.3l-3.6-0.5l-2.5-11.1l-69.8-5.1l-2.4,12.1l-3.7-0.6v-23.7l12.6-4.9l51.7-18.9l-54.3-22l-10-4.4v-23.7
				l3.7,0.5l2.2,11.3l70.4-3.6l1.7-11.9l4,0.4v32.9l-3.6-0.5l-2.5-11.1l-65.6,3.8l68,27.9l0.9,5.9l-67.1,24.8l64.1,4.7l1.7-12.1
				l4,0.7V2565.3z"/>
		</g>
	</g>
	<g>
		<g>
			<g id="EXTREMO-IZQUIERDO_00000163033159732633167790000014346583357138720437_">
				<g>
					<line class="st3" x1="2252.3" y1="4628" x2="2252.3" y2="371.6"/>
				</g>
				<polygon points="2294.4,4622.6 2209.4,4622.6 2251.9,4684.9 				"/>
			</g>
			<polygon points="2213.4,394.6 2291.1,394.6 2252.2,337.6 			"/>
		</g>
	</g>
	<g>
		<g>
			<g id="COLGADOR-IZQUIERDO_00000042735034635724822700000009614926256230722747_">
				<line class="st2" x1="1379.4" y1="244" x2="2224.2" y2="244"/>
				<polygon points="1379.6,229.9 1379.6,258.6 1362.3,244.3 				"/>
				<polygon points="2224.6,258.3 2224.7,229.5 2242.4,243.9 				"/>
			</g>
			<polygon points="2224.4,206.4 2224.4,281.4 2279.4,243.9 			"/>
			<polygon points="1391.3,283.4 1391.3,204.4 1333.3,243.9 			"/>
		</g>
		<g>
			<path d="M1628.4,368.6c-3,0-5.8-0.4-8.5-1.1c-2.7-0.7-5-1.7-7-3c-1.9-1.3-3.3-2.6-4.2-4l3-17.3l4.4,0.7l0.7,13.4
				c1,1.8,2.7,3.3,5.1,4.7c2.4,1.4,5,2,7.7,2c3.3,0,6.3-0.7,8.8-2.1c2.5-1.4,4.5-3.4,5.9-5.9c1.4-2.5,2.1-5.5,2.1-8.9
				c0-3.3-1-6.2-2.9-8.8c-1.9-2.6-4.6-4.6-7.9-6.1c-3.4-1.5-7.2-2.3-11.3-2.4l-0.4-3.3c5.1-2.2,9.6-5,13.5-8.4s5.9-7.7,5.9-13
				c0-2.3-0.5-4.5-1.4-6.6c-0.9-2.1-2.3-3.8-4.1-5.1c-1.8-1.3-4-2-6.6-2c-4.4,0-8.1,1.8-11.1,5.3l-2.8,14.8l-4.2-0.7l-0.5-16.3
				c2-1.9,5-3.7,8.9-5.4c3.9-1.6,8.3-2.5,13.1-2.5c3.7,0,7,0.7,10,2c3,1.4,5.3,3.3,7.1,5.8s2.6,5.4,2.6,8.8c0,3.3-0.9,6.4-2.6,9.2
				c-1.8,2.8-4,5.2-6.7,7.1c-2.7,1.9-5.5,3.5-8.4,4.5v0.7c4,0.6,7.5,1.7,10.6,3.4c3.1,1.7,5.6,3.8,7.4,6.5c1.8,2.7,2.7,5.7,2.7,9.1
				c0,4.7-1.4,8.9-4.1,12.7c-2.7,3.8-6.3,6.8-10.7,9C1638.2,367.5,1633.4,368.6,1628.4,368.6z"/>
			<path d="M1663.7,311.8l1.8-23.3h50.3v3.4l-28.5,76.7l-10.5-1.1l31.2-70.1h-36.3l-4.5,15L1663.7,311.8z"/>
			<path d="M1728.8,368.5c-1.8,0-3.3-0.7-4.4-2.1c-1.1-1.4-1.6-3.2-1.6-5.4c0-2.1,0.5-3.8,1.6-5c1.1-1.3,2.5-1.9,4.3-1.9
				c1.8,0,3.3,0.6,4.4,1.9c1.1,1.3,1.7,3,1.7,5.1c0,2.2-0.5,4-1.6,5.3C1732.2,367.8,1730.7,368.5,1728.8,368.5z"/>
			<path d="M1760.5,367.5c-3.6,0-7-0.5-10-1.6s-5.8-2.8-8.3-5.2l1.8-18.5l4.4,0.9l1.2,13.2c1.8,2.2,3.8,3.8,6.1,4.8
				c2.3,1.1,4.9,1.6,7.6,1.6c3.1,0,5.8-0.7,8.1-2c2.3-1.4,4.1-3.3,5.3-5.8c1.3-2.5,1.9-5.4,1.9-8.7c0-6.5-2.7-11.6-8.1-15.3
				c-5.4-3.7-12.9-5.9-22.4-6.5l7.6-35.1l29.6-1.8l-1.4,9.8l-25.4,1.1l-2.9,17.2c7.5,0.5,13.7,1.9,18.6,4.4
				c4.9,2.4,8.5,5.5,10.7,9.3c2.3,3.8,3.4,8.1,3.4,12.9c0,4.5-1.2,8.7-3.6,12.6c-2.4,3.9-5.8,7-10,9.3
				C1770.5,366.3,1765.8,367.5,1760.5,367.5z"/>
			<path d="M1852.2,368.1c-6.8,0-12.9-1.6-18.4-4.9c-5.5-3.3-9.9-8.1-13.1-14.3c-3.2-6.2-4.8-13.5-4.8-21.9c0-6.9,1.5-13.8,4.4-20.6
				c2.9-6.8,7.4-12.4,13.3-16.9c6-4.5,13.3-6.7,22-6.7c9.7,0,17.4,2.2,23.1,6.5l-2,22.1l-4.5-0.7l-2.4-15.8
				c-3.7-4.8-9.6-7.2-17.7-7.2c-4.7,0-8.9,1.5-12.9,4.5c-3.9,3-7,7.2-9.3,12.7c-2.3,5.4-3.4,11.7-3.4,18.7c0,7.9,1.3,14.6,3.9,20.2
				c2.6,5.6,6.1,9.9,10.6,12.8c4.5,2.9,9.7,4.4,15.6,4.4c4.4,0,8.6-1.1,12.7-3.2s7.7-4.7,10.8-7.9l1.9,3.8c-1.7,2.3-4.1,4.5-7.1,6.8
				c-3,2.2-6.5,4.1-10.4,5.5C1860.7,367.3,1856.5,368.1,1852.2,368.1z"/>
			<path d="M1887.8,366.4l0.5-3.6l11.1-2.5l5.1-69.8l-12.1-2.4l0.6-3.7h23.7l4.9,12.6l18.9,51.7l22-54.3l4.4-10h23.7l-0.5,3.7
				l-11.3,2.2l3.6,70.4l11.9,1.7l-0.4,4h-32.9l0.5-3.6l11.1-2.5l-3.8-65.6l-27.9,68l-5.9,0.9l-24.8-67.1l-4.7,64.1l12.1,1.7l-0.7,4
				H1887.8z"/>
		</g>
	</g>
	<g>
		<g>
			<g id="EXTREMO-IZQUIERDO_00000027593832539319639580000016499371303883880594_">
				<g>
					<line class="st3" x1="5856.9" y1="4646.2" x2="5856.9" y2="389.8"/>
				</g>
				<polygon points="5899,4640.8 5814,4640.8 5856.5,4703.1 				"/>
			</g>
			<polygon points="5818,412.8 5895.7,412.8 5856.8,355.8 			"/>
		</g>
	</g>
	<g>
		<g>
			<g id="COLGADOR-IZQUIERDO_00000023996558117132909030000008560588674581841083_">
				<line class="st2" x1="4984" y1="262.3" x2="5828.8" y2="262.3"/>
				<polygon points="4984.2,248.1 4984.2,276.9 4967,262.5 				"/>
				<polygon points="5829.2,276.6 5829.3,247.8 5847,262.2 				"/>
			</g>
			<polygon points="5829,224.7 5829,299.6 5884,262.2 			"/>
			<polygon points="4996,301.7 4996,222.7 4938,262.2 			"/>
		</g>
		<g>
			<path d="M5233,386.9c-3,0-5.8-0.4-8.5-1.1c-2.7-0.7-5-1.7-7-3c-1.9-1.3-3.3-2.6-4.2-4l3-17.3l4.4,0.7l0.7,13.4
				c1,1.8,2.7,3.3,5.1,4.7c2.4,1.4,5,2,7.7,2c3.3,0,6.3-0.7,8.8-2.1c2.5-1.4,4.5-3.4,5.9-5.9c1.4-2.5,2.1-5.5,2.1-8.9
				c0-3.3-1-6.2-2.9-8.8c-1.9-2.6-4.6-4.6-7.9-6.1c-3.4-1.5-7.2-2.3-11.3-2.4l-0.4-3.3c5.1-2.2,9.6-5,13.5-8.4c4-3.3,5.9-7.7,5.9-13
				c0-2.3-0.5-4.5-1.4-6.6c-0.9-2.1-2.3-3.8-4.1-5.1s-4-2-6.6-2c-4.3,0-8.1,1.8-11.1,5.3l-2.8,14.8l-4.2-0.7l-0.5-16.3
				c2-1.9,5-3.7,8.9-5.4c3.9-1.6,8.3-2.5,13.1-2.5c3.7,0,7,0.7,10,2c3,1.4,5.3,3.3,7.1,5.8c1.7,2.5,2.6,5.4,2.6,8.8
				c0,3.3-0.9,6.4-2.6,9.2c-1.8,2.8-4,5.2-6.7,7.1c-2.7,1.9-5.5,3.5-8.4,4.5v0.7c4,0.6,7.5,1.7,10.6,3.4c3.1,1.7,5.6,3.8,7.4,6.5
				c1.8,2.7,2.7,5.7,2.7,9.1c0,4.7-1.4,8.9-4.1,12.7c-2.7,3.8-6.3,6.8-10.7,9C5242.8,385.8,5238,386.9,5233,386.9z"/>
			<path d="M5268.3,330l1.8-23.3h50.3v3.4l-28.5,76.7l-10.5-1.1l31.2-70.1h-36.3l-4.5,15L5268.3,330z"/>
			<path d="M5333.4,386.8c-1.8,0-3.3-0.7-4.4-2.1c-1.1-1.4-1.6-3.2-1.6-5.4c0-2.1,0.5-3.8,1.6-5c1.1-1.3,2.5-1.9,4.3-1.9
				c1.8,0,3.3,0.6,4.4,1.9c1.1,1.3,1.7,3,1.7,5.1c0,2.2-0.6,4-1.6,5.3C5336.8,386.1,5335.3,386.8,5333.4,386.8z"/>
			<path d="M5365.1,385.7c-3.6,0-7-0.5-10-1.6c-3-1.1-5.8-2.8-8.3-5.2l1.8-18.5l4.4,0.9l1.2,13.2c1.8,2.2,3.8,3.8,6.1,4.8
				s4.9,1.6,7.6,1.6c3.1,0,5.8-0.7,8.1-2c2.3-1.4,4.1-3.3,5.3-5.8c1.3-2.5,1.9-5.4,1.9-8.7c0-6.5-2.7-11.6-8.1-15.3
				c-5.4-3.7-12.9-5.9-22.4-6.5l7.6-35.1l29.6-1.8l-1.4,9.8l-25.4,1.1l-2.9,17.2c7.5,0.5,13.7,1.9,18.6,4.4
				c4.9,2.4,8.5,5.5,10.7,9.3c2.3,3.8,3.4,8.1,3.4,12.9c0,4.5-1.2,8.7-3.6,12.6c-2.4,3.9-5.8,7-10,9.3
				C5375.1,384.6,5370.4,385.7,5365.1,385.7z"/>
			<path d="M5456.8,386.3c-6.8,0-12.9-1.6-18.4-4.9c-5.5-3.3-9.9-8.1-13.1-14.3c-3.2-6.2-4.8-13.5-4.8-21.9c0-6.9,1.5-13.8,4.4-20.6
				c2.9-6.8,7.4-12.4,13.3-16.9c6-4.5,13.3-6.7,22-6.7c9.7,0,17.4,2.2,23.1,6.5l-2,22.1l-4.5-0.7l-2.4-15.8
				c-3.7-4.8-9.6-7.2-17.7-7.2c-4.7,0-8.9,1.5-12.9,4.5c-3.9,3-7,7.2-9.3,12.7c-2.3,5.4-3.4,11.7-3.4,18.7c0,7.9,1.3,14.6,3.9,20.2
				c2.6,5.6,6.1,9.9,10.6,12.8c4.5,2.9,9.7,4.4,15.6,4.4c4.4,0,8.6-1.1,12.7-3.2s7.7-4.7,10.8-7.9l1.9,3.8c-1.7,2.3-4.1,4.5-7.1,6.8
				c-3,2.2-6.5,4.1-10.4,5.5C5465.3,385.6,5461.1,386.3,5456.8,386.3z"/>
			<path d="M5492.4,384.7l0.5-3.6l11.1-2.5l5.1-69.8l-12.1-2.4l0.6-3.7h23.7l4.9,12.6l18.9,51.7l22-54.3l4.4-10h23.7l-0.5,3.7
				l-11.3,2.2l3.6,70.4l11.9,1.7l-0.4,4h-32.9l0.5-3.6l11.1-2.5l-3.8-65.6l-27.9,68l-5.9,0.9l-24.8-67.1l-4.7,64.1l12.1,1.7l-0.7,4
				H5492.4z"/>
		</g>
	</g>
	<g>
		<g id="COLGADOR-IZQUIERDO_00000114051833203775738720000013016826254564567452_">
			<line class="st2" x1="3916.3" y1="264.6" x2="4761.1" y2="264.6"/>
			<polygon points="3916.5,250.5 3916.5,279.3 3899.3,264.9 			"/>
			<polygon points="4761.5,278.9 4761.6,250.1 4779.3,264.6 			"/>
		</g>
		<polygon points="4761.3,227 4761.3,302 4816.3,264.5 		"/>
		<polygon points="3928.3,304.1 3928.3,225 3870.3,264.5 		"/>
		<g id="EXTREMO-IZQUIERDO_00000065794714504879491940000013581101856827449732_">
			<g>
				<line class="st3" x1="3882.2" y1="4658.6" x2="3882.2" y2="402.2"/>
			</g>
			<polygon points="3924.3,4653.2 3839.3,4653.2 3881.8,4715.5 			"/>
			<g>
				<line class="st3" x1="3707.3" y1="2913.2" x2="3707.3" y2="403.1"/>
			</g>
		</g>
		<polygon points="3843.3,425.2 3921,425.2 3882.1,368.2 		"/>
		<g>
			<path d="M4165.3,389.2c-3,0-5.8-0.4-8.5-1.1c-2.7-0.7-5-1.7-7-3c-1.9-1.3-3.3-2.6-4.2-4l3-17.3l4.4,0.7l0.7,13.4
				c1,1.8,2.7,3.3,5.1,4.7c2.4,1.4,5,2,7.7,2c3.3,0,6.3-0.7,8.8-2.1c2.5-1.4,4.5-3.4,5.9-5.9c1.4-2.5,2.1-5.5,2.1-8.9
				c0-3.3-1-6.2-2.9-8.8c-1.9-2.6-4.6-4.6-7.9-6.1c-3.4-1.5-7.2-2.3-11.3-2.4l-0.4-3.3c5.1-2.2,9.6-5,13.5-8.4c4-3.3,5.9-7.7,5.9-13
				c0-2.3-0.5-4.5-1.4-6.6c-0.9-2.1-2.3-3.8-4.1-5.1s-4-2-6.6-2c-4.4,0-8.1,1.8-11.1,5.3l-2.8,14.8l-4.2-0.7l-0.5-16.3
				c2-1.9,5-3.7,8.9-5.4c3.9-1.6,8.3-2.5,13.1-2.5c3.7,0,7,0.7,10,2c3,1.4,5.3,3.3,7.1,5.8s2.6,5.4,2.6,8.8s-0.9,6.4-2.6,9.2
				c-1.8,2.8-4,5.2-6.7,7.1c-2.7,1.9-5.5,3.5-8.4,4.5v0.7c4,0.6,7.5,1.7,10.6,3.4c3.1,1.7,5.6,3.8,7.4,6.5c1.8,2.7,2.7,5.7,2.7,9.1
				c0,4.7-1.4,8.9-4.1,12.7c-2.7,3.8-6.3,6.8-10.7,9C4175.1,388.1,4170.4,389.2,4165.3,389.2z"/>
			<path d="M4200.6,332.4l1.8-23.3h50.3v3.4l-28.5,76.7l-10.5-1.1L4245,318h-36.3l-4.5,15L4200.6,332.4z"/>
			<path d="M4265.8,389.2c-1.8,0-3.3-0.7-4.4-2.1c-1.1-1.4-1.6-3.2-1.6-5.4c0-2.1,0.5-3.8,1.6-5c1.1-1.3,2.5-1.9,4.3-1.9
				c1.8,0,3.3,0.6,4.4,1.9s1.7,3,1.7,5.1c0,2.2-0.5,4-1.6,5.3C4269.1,388.5,4267.6,389.2,4265.8,389.2z"/>
			<path d="M4297.5,388.1c-3.6,0-7-0.5-10-1.6c-3-1.1-5.8-2.8-8.3-5.2l1.8-18.5l4.4,0.9l1.2,13.2c1.8,2.2,3.8,3.8,6.1,4.8
				c2.3,1.1,4.9,1.6,7.6,1.6c3.1,0,5.8-0.7,8.1-2c2.3-1.4,4.1-3.3,5.3-5.8c1.3-2.5,1.9-5.4,1.9-8.7c0-6.5-2.7-11.6-8.1-15.3
				c-5.4-3.7-12.9-5.9-22.4-6.5l7.6-35.1l29.6-1.8l-1.4,9.8l-25.4,1.1l-2.9,17.2c7.5,0.5,13.7,1.9,18.6,4.4s8.5,5.5,10.7,9.3
				c2.3,3.8,3.4,8.1,3.4,12.9c0,4.5-1.2,8.7-3.6,12.6c-2.4,3.9-5.8,7-10,9.3C4307.4,387,4302.7,388.1,4297.5,388.1z"/>
			<path d="M4389.1,388.7c-6.8,0-12.9-1.6-18.4-4.9c-5.5-3.3-9.9-8.1-13.1-14.3c-3.2-6.2-4.8-13.5-4.8-21.9c0-6.9,1.5-13.8,4.4-20.6
				c2.9-6.8,7.4-12.4,13.3-16.9c6-4.5,13.3-6.7,22-6.7c9.7,0,17.4,2.2,23.1,6.5l-2,22.1l-4.5-0.7l-2.4-15.8
				c-3.7-4.8-9.6-7.2-17.7-7.2c-4.7,0-8.9,1.5-12.9,4.5c-3.9,3-7,7.2-9.3,12.7c-2.3,5.5-3.4,11.7-3.4,18.7c0,7.9,1.3,14.6,3.9,20.2
				c2.6,5.6,6.1,9.9,10.6,12.8s9.7,4.4,15.6,4.4c4.4,0,8.6-1.1,12.7-3.2s7.7-4.7,10.8-7.9l1.9,3.8c-1.7,2.3-4.1,4.5-7.1,6.8
				c-3,2.2-6.5,4.1-10.4,5.5C4397.6,388,4393.4,388.7,4389.1,388.7z"/>
			<path d="M4424.7,387.1l0.5-3.6l11.1-2.5l5.1-69.8l-12.1-2.4l0.6-3.7h23.7l4.9,12.6l18.9,51.7l22-54.3l4.4-10h23.7l-0.5,3.7
				l-11.3,2.2l3.6,70.4l11.9,1.7l-0.4,4h-32.9l0.5-3.6l11.1-2.5l-3.8-65.6l-27.9,68l-5.9,0.9l-24.8-67.1l-4.7,64.1l12.1,1.7l-0.7,4
				H4424.7z"/>
		</g>
		<polygon points="3667,428.2 3744.7,428.2 3705.8,371.2 		"/>
		<polygon points="3750.2,2892.2 3665.2,2892.2 3707.7,2954.5 		"/>
	</g>
	<g>
		<g>
			<g id="COLGADOR-IZQUIERDO_00000056402382565659415980000001251177966754490262_">
				<line class="st2" x1="2442.7" y1="262.8" x2="3680" y2="262.8"/>
				<polygon points="2443,248.7 2443,277.5 2417.7,263.1 				"/>
				<polygon points="3680.6,277.1 3680.7,248.3 3706.6,262.8 				"/>
			</g>
			<polygon points="3679.7,226.2 3679.7,301.2 3734.7,263.7 			"/>
			<polygon points="2442.7,301.4 2442.7,222.4 2384.7,261.9 			"/>
		</g>
		<g>
			<path d="M2863.1,363.4l-1.3-3.6l40.7-51.2l3.2,1c-0.4,7.8-0.6,18.7-0.6,32.5v14.6h16.8l-1.1,6.9h-15.8v17.7l13.6,1.6l-0.7,4.2
				h-39l0.5-3.8l16.3-2.5v-17.5H2863.1z M2871.6,356.8h23.9v-32L2871.6,356.8z"/>
			<path d="M2949.9,389c-4,0-7.6-0.9-10.9-2.6s-5.9-4.1-7.8-7.2c-1.9-3.1-2.9-6.6-2.9-10.5c0-7.6,5.1-14.4,15.2-20.4v-0.5
				c-3.9-2.7-6.9-5.6-9-8.8c-2.1-3.2-3.1-6.8-3.1-11c0-3.6,0.9-6.9,2.8-10c1.9-3.1,4.4-5.5,7.7-7.4c3.3-1.8,7-2.7,11.1-2.7
				c4,0,7.5,0.8,10.5,2.4c2.9,1.6,5.2,3.8,6.7,6.5c1.5,2.7,2.3,5.8,2.3,9.2c0,4.3-1.2,8.2-3.7,11.7c-2.4,3.6-5.5,6.3-9.1,8.2
				l-0.2,0.4c3.7,2.5,6.7,4.8,8.9,6.9c2.2,2.1,3.9,4.3,5.1,6.7c1.2,2.4,1.7,5.1,1.7,8c0,4-1.1,7.6-3.2,10.8c-2.2,3.2-5.2,5.7-9,7.5
				C2959.2,388.1,2954.8,389,2949.9,389z M2946.9,350.5c-3,2.2-5.4,4.6-7,7c-1.6,2.4-2.4,5.5-2.4,9.2c0,3.6,0.8,6.7,2.4,9.3
				c1.6,2.7,3.7,4.7,6.1,6.1c2.5,1.4,4.9,2.1,7.4,2.1c4,0,7.3-1.1,9.7-3.3c2.4-2.2,3.6-5.2,3.6-9c0-3.5-1.6-6.9-4.7-10.1
				C2958.8,358.6,2953.8,354.8,2946.9,350.5z M2951.3,312c-2.5,0-4.6,0.5-6.4,1.6c-1.8,1.1-3.2,2.5-4.2,4.4c-1,1.9-1.5,3.9-1.5,6.2
				c0,3.3,1.3,6.4,3.9,9.4c2.6,3,6.9,6.4,12.9,10.3c2.6-1.7,4.6-3.8,6.1-6.3c1.5-2.5,2.2-5.5,2.2-9.2c0-3-0.6-5.8-1.8-8.3
				c-1.2-2.5-2.8-4.5-4.8-6C2955.7,312.8,2953.6,312,2951.3,312z"/>
			<path d="M3038.8,388.9c-6.8,0-12.9-1.6-18.4-4.9c-5.5-3.3-9.9-8.1-13.1-14.3c-3.2-6.2-4.8-13.5-4.8-21.9c0-6.9,1.5-13.8,4.4-20.6
				c2.9-6.8,7.4-12.4,13.3-16.9c6-4.5,13.3-6.7,22-6.7c9.7,0,17.4,2.2,23.1,6.5l-2,22.1l-4.5-0.7l-2.4-15.8
				c-3.7-4.8-9.6-7.2-17.7-7.2c-4.7,0-8.9,1.5-12.9,4.5c-3.9,3-7,7.2-9.3,12.7c-2.3,5.4-3.4,11.7-3.4,18.7c0,7.9,1.3,14.6,3.9,20.2
				c2.6,5.6,6.1,9.9,10.6,12.8c4.5,2.9,9.7,4.4,15.6,4.4c4.4,0,8.6-1.1,12.7-3.2s7.7-4.7,10.8-7.9l1.9,3.8c-1.7,2.3-4.1,4.5-7.1,6.8
				c-3,2.2-6.5,4.1-10.4,5.5C3047.4,388.2,3043.2,388.9,3038.8,388.9z"/>
			<path d="M3074.4,387.2l0.5-3.6l11.1-2.5l5.1-69.8l-12.1-2.4l0.6-3.7h23.7l4.9,12.6l18.9,51.7l22-54.3l4.4-10h23.7l-0.5,3.7
				l-11.3,2.2l3.6,70.4l11.9,1.7l-0.4,4h-32.9l0.5-3.6l11.1-2.5l-3.8-65.6l-27.9,68l-5.9,0.9l-24.8-67.1l-4.7,64.1l12.1,1.7l-0.7,4
				H3074.4z"/>
		</g>
		<g>
			<path d="M3636.3,1839.9c0,4.1-1,7.7-2.9,10.7c-2,3-4.7,5.3-8.1,6.8c-3.5,1.6-7.4,2.3-11.8,2.3c-4.8,0-9.2-1.2-13.2-3.5
				c-3.9-2.3-7-5.4-9.3-9.3c-2.2-3.9-3.4-8-3.4-12.5c0-5.4,1.4-10,4.1-13.5c2.7-3.6,6.3-6.2,10.7-7.8c4.5-1.7,9.4-2.5,14.8-2.5
				c8.1,0,15.9,1.7,23.3,5c7.4,3.3,13.6,8.1,18.7,14.2c5.1,6.2,8.4,13.2,9.9,21.2l-3.8,1.3c-2.9-9.9-7.6-17.1-13.8-21.7
				c-6.3-4.6-13.6-7.4-22.1-8.6v0.7C3634,1827.6,3636.3,1833.3,3636.3,1839.9z M3592,1835.5c0,4.8,1.6,8.3,4.9,10.5
				c3.3,2.2,8,3.3,14.3,3.3c3.5,0,6.7-0.5,9.6-1.6c2.9-1.1,5.2-2.8,6.9-5c1.7-2.2,2.5-4.9,2.5-8.1c0-2.8-0.6-5.3-1.7-7.6
				c-1.1-2.3-2.4-4-4-5c-2.2-0.4-5.4-0.6-9.4-0.6c-4.4,0-8.3,0.6-11.9,1.9c-3.5,1.3-6.3,3-8.3,5.1
				C3593,1830.5,3592,1832.9,3592,1835.5z"/>
			<path d="M3668.8,1779.6c0,5.5-1.3,10.1-4,13.7c-2.6,3.6-6.2,6.2-10.5,7.8c-4.4,1.6-9.3,2.5-14.7,2.5c-7.3,0-14.4-1.7-21.6-5
				c-7.1-3.4-13.4-7.9-18.9-13.7c-5.4-5.8-9.4-12.1-11.7-19.1l3.3-1.9c3.8,8.5,8.9,14.9,15.4,19.4c6.5,4.4,13.5,7.4,21.2,9v-0.6
				c-4.4-4.7-6.6-10.3-6.6-16.8c0-4.2,1-7.9,2.9-11.1c2-3.2,4.7-5.6,8.1-7.3s7.4-2.6,11.8-2.6c4.8,0,9.1,1.1,13,3.4
				c3.8,2.3,6.9,5.4,9,9.3C3667.7,1770.5,3668.8,1774.8,3668.8,1779.6z M3631.8,1792.3c2.1,0.3,5,0.5,8.8,0.5
				c4.5,0,8.5-0.6,12.2-1.9c3.6-1.3,6.5-3,8.6-5.1c2.1-2.2,3.1-4.6,3.1-7.3c0-5-1.6-8.5-4.8-10.7c-3.2-2.2-7.8-3.3-13.8-3.3
				c-3.5,0-6.7,0.6-9.7,1.7c-2.9,1.1-5.3,2.8-7,5.1c-1.7,2.3-2.6,5-2.6,8.2c0,2.8,0.5,5.4,1.6,7.8
				C3629.3,1789.8,3630.5,1791.4,3631.8,1792.3z"/>
			<path d="M3669.5,1740.1c0,1.8-0.7,3.3-2.1,4.4c-1.4,1.1-3.2,1.6-5.4,1.6c-2.1,0-3.8-0.5-5-1.6c-1.3-1.1-1.9-2.5-1.9-4.3
				c0-1.8,0.6-3.3,1.9-4.4c1.3-1.1,3-1.7,5.1-1.7c2.2,0,4,0.5,5.3,1.6C3668.8,1736.8,3669.5,1738.3,3669.5,1740.1z"/>
			<path d="M3668.4,1708.4c0,3.6-0.5,7-1.6,10c-1.1,3-2.8,5.8-5.2,8.3l-18.5-1.8l0.9-4.4l13.2-1.2c2.2-1.8,3.8-3.8,4.8-6.1
				c1.1-2.3,1.6-4.9,1.6-7.6c0-3.1-0.7-5.8-2-8.1c-1.4-2.3-3.3-4.1-5.8-5.3c-2.5-1.3-5.4-1.9-8.7-1.9c-6.5,0-11.6,2.7-15.3,8.1
				c-3.7,5.4-5.9,12.9-6.5,22.4l-35.1-7.6l-1.8-29.6l9.8,1.4l1.1,25.4l17.2,2.9c0.5-7.5,1.9-13.7,4.4-18.6s5.5-8.5,9.3-10.7
				c3.8-2.3,8.1-3.4,12.9-3.4c4.5,0,8.7,1.2,12.6,3.6c3.9,2.4,7,5.8,9.3,10C3667.3,1698.5,3668.4,1703.2,3668.4,1708.4z"/>
			<path d="M3669,1616.8c0,6.8-1.6,12.9-4.9,18.4c-3.3,5.5-8.1,9.9-14.3,13.1c-6.2,3.2-13.5,4.8-21.9,4.8c-6.9,0-13.8-1.5-20.6-4.4
				c-6.8-2.9-12.4-7.4-16.9-13.3c-4.5-6-6.7-13.3-6.7-22c0-9.7,2.2-17.4,6.5-23.1l22.1,2l-0.7,4.5l-15.8,2.4
				c-4.8,3.7-7.2,9.6-7.2,17.7c0,4.7,1.5,8.9,4.5,12.9c3,3.9,7.2,7,12.7,9.3c5.4,2.3,11.7,3.4,18.7,3.4c7.9,0,14.6-1.3,20.2-3.9
				c5.6-2.6,9.9-6.1,12.8-10.6c2.9-4.5,4.4-9.7,4.4-15.6c0-4.4-1.1-8.6-3.2-12.7s-4.7-7.7-7.9-10.8l3.8-1.9c2.3,1.7,4.5,4.1,6.8,7.1
				c2.2,3,4.1,6.5,5.5,10.4C3668.3,1608.3,3669,1612.5,3669,1616.8z"/>
			<path d="M3667.4,1581.2l-3.6-0.5l-2.5-11.1l-69.8-5.1l-2.4,12.1l-3.7-0.6v-23.7l12.6-4.9l51.7-18.9l-54.3-22l-10-4.4v-23.7
				l3.7,0.5l2.2,11.3l70.4-3.6l1.7-11.9l4,0.4v32.9l-3.6-0.5l-2.5-11.1l-65.6,3.8l68,27.9l0.9,5.9l-67.1,24.8l64.1,4.7l1.7-12.1
				l4,0.7V1581.2z"/>
		</g>
	</g>
	<g>
		<g>
			<g id="COLGADOR-IZQUIERDO_00000183952778656665917940000007696299492704064187_">
				<line class="st2" x1="1398.9" y1="1848.7" x2="1585.7" y2="1848.7"/>
				<polygon points="1404.7,1833.6 1404.7,1862.4 1387.5,1848 				"/>
				<polygon points="1576.7,1863 1576.8,1834.3 1594.5,1848.7 				"/>
				<line class="st2" x1="1607.5" y1="2639.2" x2="1603.6" y2="1899.2"/>
				<polygon points="1617.7,1904.2 1588.9,1904.3 1603.2,1886.6 				"/>
				<polygon points="1592.8,2628.2 1621.6,2628 1607.3,2645.3 				"/>
			</g>
		</g>
		<g>
			<path d="M1363.7,1809.8l-0.3-3.7l12-10.3c4.2-3.6,7.6-6.8,10.2-9.7c2.6-2.9,4.6-5.9,6-8.9c1.4-3,2.1-6.3,2.1-9.8
				c0-4.1-0.9-7.6-2.6-10.3c-1.7-2.7-4.5-4.1-8.2-4.1c-2.5,0-4.7,0.5-6.5,1.6c-1.8,1-3.1,2.3-3.9,3.8l-2.1,12.2l-2.9-0.4l-0.5-13.6
				c0.9-1.2,2.4-2.5,4.3-3.7c1.9-1.2,4.1-2.2,6.5-2.9c2.5-0.7,4.9-1.1,7.4-1.1c5.3,0,9.5,1.5,12.6,4.5c3.1,3,4.6,7.4,4.6,13.1
				c0,4.2-1.2,8.2-3.5,12c-2.3,3.8-5.2,7.2-8.6,10.4s-8.2,7.1-14.3,12l-4,3.1h25.2l4.8-12.3l2.8,0.4l-2.4,17.8H1363.7z"/>
			<path d="M1414.9,1811.4c-1.4,0-2.5-0.5-3.3-1.6c-0.8-1.1-1.3-2.4-1.3-4.1c0-1.6,0.4-2.9,1.2-3.9c0.8-1,1.9-1.4,3.3-1.4
				c1.4,0,2.5,0.5,3.4,1.5c0.9,1,1.3,2.3,1.3,3.9c0,1.7-0.4,3-1.3,4.1C1417.4,1810.9,1416.3,1811.4,1414.9,1811.4z"/>
			<path d="M1439.1,1810.6c-2.8,0-5.4-0.4-7.7-1.2s-4.4-2.2-6.4-4l1.4-14.2l3.4,0.7l0.9,10.1c1.3,1.6,2.9,2.9,4.7,3.7
				c1.8,0.8,3.7,1.2,5.8,1.2c2.4,0,4.5-0.5,6.2-1.6c1.8-1,3.1-2.5,4.1-4.4c1-1.9,1.4-4.1,1.4-6.6c0-5-2.1-8.9-6.2-11.7
				c-4.2-2.8-9.9-4.5-17.2-5l5.8-26.9l22.7-1.4l-1.1,7.5l-19.4,0.9l-2.2,13.2c5.8,0.4,10.5,1.5,14.2,3.3c3.7,1.9,6.5,4.2,8.2,7.1
				c1.7,2.9,2.6,6.2,2.6,9.9c0,3.4-0.9,6.6-2.8,9.6c-1.9,3-4.4,5.4-7.7,7.1C1446.8,1809.7,1443.1,1810.6,1439.1,1810.6z"/>
			<path d="M1509.3,1811c-5.2,0-9.9-1.3-14.1-3.8c-4.2-2.5-7.6-6.2-10-10.9c-2.4-4.8-3.7-10.4-3.7-16.8c0-5.3,1.1-10.6,3.4-15.8
				c2.2-5.2,5.6-9.5,10.2-12.9c4.6-3.4,10.2-5.1,16.9-5.1c7.4,0,13.3,1.7,17.7,5l-1.6,16.9l-3.4-0.5l-1.8-12.1
				c-2.8-3.7-7.3-5.5-13.5-5.5c-3.6,0-6.8,1.2-9.8,3.5c-3,2.3-5.4,5.5-7.1,9.7c-1.8,4.2-2.6,8.9-2.6,14.3c0,6,1,11.2,3,15.5
				c2,4.3,4.7,7.6,8.2,9.8c3.5,2.2,7.4,3.3,11.9,3.3c3.4,0,6.6-0.8,9.7-2.4c3.1-1.6,5.9-3.6,8.3-6.1l1.5,2.9
				c-1.3,1.8-3.1,3.5-5.4,5.2c-2.3,1.7-5,3.1-8,4.2C1515.8,1810.5,1512.7,1811,1509.3,1811z"/>
			<path d="M1536.6,1809.8l0.4-2.7l8.5-1.9l3.9-53.5l-9.3-1.9l0.5-2.8h18.2l3.8,9.6l14.5,39.6l16.9-41.6l3.4-7.7h18.2l-0.4,2.8
				l-8.6,1.7l2.7,53.9l9.1,1.3l-0.3,3h-25.2l0.4-2.7l8.5-1.9l-2.9-50.2l-21.4,52.1l-4.5,0.7l-19-51.4l-3.6,49.1l9.2,1.3l-0.5,3
				H1536.6z"/>
		</g>
		<g>
			<path d="M1699.7,2389.9l-3-0.2l-2.1-13.8h-48.3v13.1l-3.1-0.3l-3.2-19.5v-1.4h54.9l1.4-13.5l3.5,0.5V2389.9z"/>
			<path d="M1700.6,2335.7c0,2.8-0.4,5.4-1.2,7.7s-2.2,4.4-4,6.4l-14.2-1.4l0.7-3.4l10.1-0.9c1.6-1.3,2.9-2.9,3.7-4.7
				c0.8-1.8,1.2-3.7,1.2-5.8c0-2.4-0.5-4.5-1.6-6.2c-1-1.8-2.5-3.1-4.4-4.1c-1.9-1-4.1-1.4-6.6-1.4c-5,0-8.9,2.1-11.7,6.2
				c-2.8,4.2-4.5,9.9-5,17.2l-26.9-5.8l-1.4-22.7l7.5,1.1l0.9,19.4l13.2,2.2c0.4-5.8,1.5-10.5,3.3-14.2c1.9-3.7,4.2-6.5,7.1-8.2
				c2.9-1.7,6.2-2.6,9.9-2.6c3.4,0,6.6,0.9,9.6,2.8c3,1.9,5.4,4.4,7.1,7.7C1699.7,2328,1700.6,2331.6,1700.6,2335.7z"/>
			<path d="M1701,2265.5c0,5.2-1.3,9.9-3.8,14.1c-2.5,4.2-6.2,7.6-10.9,10c-4.8,2.4-10.4,3.7-16.8,3.7c-5.3,0-10.6-1.1-15.8-3.4
				c-5.2-2.2-9.5-5.6-12.9-10.2c-3.4-4.6-5.1-10.2-5.1-16.9c0-7.4,1.7-13.3,5-17.7l16.9,1.6l-0.5,3.4l-12.1,1.8
				c-3.7,2.8-5.5,7.3-5.5,13.5c0,3.6,1.2,6.8,3.5,9.8c2.3,3,5.5,5.4,9.7,7.1c4.2,1.8,8.9,2.6,14.3,2.6c6,0,11.2-1,15.5-3
				c4.3-2,7.6-4.7,9.8-8.2c2.2-3.5,3.3-7.4,3.3-11.9c0-3.4-0.8-6.6-2.4-9.7c-1.6-3.1-3.6-5.9-6.1-8.3l2.9-1.5
				c1.8,1.3,3.5,3.1,5.2,5.4c1.7,2.3,3.1,5,4.2,8C1700.5,2259,1701,2262.1,1701,2265.5z"/>
			<path d="M1699.8,2238.2l-2.7-0.4l-1.9-8.5l-53.5-3.9l-1.9,9.3l-2.8-0.5v-18.2l9.6-3.8l39.6-14.5l-41.6-16.9l-7.7-3.4v-18.2
				l2.8,0.4l1.7,8.6l53.9-2.7l1.3-9.1l3,0.3v25.2l-2.7-0.4l-1.9-8.5l-50.2,2.9l52.1,21.4l0.7,4.5l-51.4,19l49.1,3.6l1.3-9.2l3,0.5
				V2238.2z"/>
		</g>
	</g>
	<g>
		<g>
			<g id="COLGADOR-IZQUIERDO_00000075843759613291055920000000466590292930245534_">
				<line class="st2" x1="913.5" y1="1850.5" x2="1100.4" y2="1850.5"/>
				<polygon points="919.4,1835.4 919.4,1864.2 902.1,1849.8 				"/>
				<polygon points="1091.4,1864.9 1091.4,1836.1 1109.1,1850.5 				"/>
				<line class="st2" x1="1122.2" y1="2641" x2="1118.3" y2="1901"/>
				<polygon points="1132.4,1906 1103.6,1906.2 1117.9,1888.4 				"/>
				<polygon points="1107.5,2630 1136.3,2629.8 1121.9,2647.2 				"/>
			</g>
		</g>
		<g>
			<path d="M878.3,1811.6l-0.3-3.7l12-10.3c4.2-3.6,7.6-6.8,10.2-9.7c2.6-2.9,4.6-5.9,6-8.9c1.4-3,2.1-6.3,2.1-9.8
				c0-4.1-0.9-7.6-2.6-10.3c-1.7-2.7-4.5-4.1-8.2-4.1c-2.5,0-4.7,0.5-6.5,1.6c-1.8,1-3.1,2.3-3.9,3.8l-2.1,12.2l-2.9-0.4l-0.5-13.6
				c0.9-1.2,2.4-2.5,4.3-3.7c1.9-1.2,4.1-2.2,6.5-2.9c2.5-0.7,4.9-1.1,7.4-1.1c5.3,0,9.5,1.5,12.6,4.5c3.1,3,4.6,7.4,4.6,13.1
				c0,4.2-1.2,8.2-3.5,12c-2.3,3.8-5.2,7.2-8.6,10.4s-8.2,7.1-14.3,12l-4,3.1h25.2l4.8-12.3l2.8,0.4l-2.4,17.8H878.3z"/>
			<path d="M929.5,1813.2c-1.4,0-2.5-0.5-3.3-1.6c-0.8-1.1-1.3-2.4-1.3-4.1c0-1.6,0.4-2.9,1.2-3.9c0.8-1,1.9-1.4,3.3-1.4
				c1.4,0,2.5,0.5,3.4,1.5c0.9,1,1.3,2.3,1.3,3.9c0,1.7-0.4,3-1.3,4.1C932,1812.7,930.9,1813.2,929.5,1813.2z"/>
			<path d="M953.8,1812.4c-2.8,0-5.4-0.4-7.7-1.2s-4.4-2.2-6.4-4l1.4-14.2l3.4,0.7l0.9,10.1c1.3,1.6,2.9,2.9,4.7,3.7
				c1.8,0.8,3.7,1.2,5.8,1.2c2.4,0,4.5-0.5,6.2-1.6c1.8-1,3.1-2.5,4.1-4.4c1-1.9,1.4-4.1,1.4-6.6c0-5-2.1-8.9-6.2-11.7
				c-4.2-2.8-9.9-4.5-17.2-5l5.8-26.9l22.7-1.4l-1.1,7.5l-19.4,0.9l-2.2,13.2c5.8,0.4,10.5,1.5,14.2,3.3c3.7,1.9,6.5,4.2,8.2,7.1
				c1.7,2.9,2.6,6.2,2.6,9.9c0,3.4-0.9,6.6-2.8,9.6c-1.9,3-4.4,5.4-7.7,7.1C961.4,1811.5,957.8,1812.4,953.8,1812.4z"/>
			<path d="M1023.9,1812.8c-5.2,0-9.9-1.3-14.1-3.8c-4.2-2.5-7.6-6.2-10-10.9c-2.4-4.8-3.7-10.4-3.7-16.8c0-5.3,1.1-10.6,3.4-15.8
				c2.2-5.2,5.6-9.5,10.2-12.9c4.6-3.4,10.2-5.1,16.9-5.1c7.4,0,13.3,1.7,17.7,5l-1.6,16.9l-3.4-0.5l-1.8-12.1
				c-2.8-3.7-7.3-5.5-13.5-5.5c-3.6,0-6.8,1.2-9.8,3.5c-3,2.3-5.4,5.5-7.1,9.7c-1.8,4.2-2.6,8.9-2.6,14.3c0,6,1,11.2,3,15.5
				c2,4.3,4.7,7.6,8.2,9.8c3.5,2.2,7.4,3.3,11.9,3.3c3.4,0,6.6-0.8,9.7-2.4c3.1-1.6,5.9-3.6,8.3-6.1l1.5,2.9
				c-1.3,1.8-3.1,3.5-5.4,5.2c-2.3,1.7-5,3.1-8,4.2C1030.5,1812.3,1027.3,1812.8,1023.9,1812.8z"/>
			<path d="M1051.2,1811.6l0.4-2.7l8.5-1.9l3.9-53.5l-9.3-1.9l0.5-2.8h18.2l3.8,9.6l14.5,39.6l16.9-41.6l3.4-7.7h18.2l-0.4,2.8
				l-8.6,1.7l2.7,53.9l9.1,1.3l-0.3,3h-25.2l0.4-2.7l8.5-1.9l-2.9-50.2l-21.4,52.1l-4.5,0.7l-19-51.4l-3.6,49.1l9.2,1.3l-0.5,3
				H1051.2z"/>
		</g>
		<g>
			<path d="M1214.4,2391.7l-3-0.2l-2.1-13.8h-48.3v13.1l-3.1-0.3l-3.2-19.5v-1.4h54.9l1.4-13.5l3.5,0.5V2391.7z"/>
			<path d="M1215.2,2337.5c0,2.8-0.4,5.4-1.2,7.7s-2.2,4.4-4,6.4l-14.2-1.4l0.7-3.4l10.1-0.9c1.6-1.3,2.9-2.9,3.7-4.7
				c0.8-1.8,1.2-3.7,1.2-5.8c0-2.4-0.5-4.5-1.6-6.2c-1-1.8-2.5-3.1-4.4-4.1c-1.9-1-4.1-1.4-6.6-1.4c-5,0-8.9,2.1-11.7,6.2
				c-2.8,4.2-4.5,9.9-5,17.2l-26.9-5.8l-1.4-22.7l7.5,1.1l0.9,19.4l13.2,2.2c0.4-5.8,1.5-10.5,3.3-14.2c1.9-3.7,4.2-6.5,7.1-8.2
				c2.9-1.7,6.2-2.6,9.9-2.6c3.4,0,6.6,0.9,9.6,2.8c3,1.9,5.4,4.4,7.1,7.7C1214.3,2329.8,1215.2,2333.5,1215.2,2337.5z"/>
			<path d="M1215.7,2267.3c0,5.2-1.3,9.9-3.8,14.1c-2.5,4.2-6.2,7.6-10.9,10c-4.8,2.4-10.4,3.7-16.8,3.7c-5.3,0-10.6-1.1-15.8-3.4
				c-5.2-2.2-9.5-5.6-12.9-10.2c-3.4-4.6-5.1-10.2-5.1-16.9c0-7.4,1.7-13.3,5-17.7l16.9,1.6l-0.5,3.4l-12.1,1.8
				c-3.7,2.8-5.5,7.3-5.5,13.5c0,3.6,1.2,6.8,3.5,9.8c2.3,3,5.5,5.4,9.7,7.1c4.2,1.8,8.9,2.6,14.3,2.6c6,0,11.2-1,15.5-3
				c4.3-2,7.6-4.7,9.8-8.2c2.2-3.5,3.3-7.4,3.3-11.9c0-3.4-0.8-6.6-2.4-9.7c-1.6-3.1-3.6-5.9-6.1-8.3l2.9-1.5
				c1.8,1.3,3.5,3.1,5.2,5.4c1.7,2.3,3.1,5,4.2,8C1215.1,2260.8,1215.7,2264,1215.7,2267.3z"/>
			<path d="M1214.4,2240l-2.7-0.4l-1.9-8.5l-53.5-3.9l-1.9,9.3l-2.8-0.5v-18.2l9.6-3.8l39.6-14.5l-41.6-16.9l-7.7-3.4v-18.2l2.8,0.4
				l1.7,8.6l53.9-2.7l1.3-9.1l3,0.3v25.2l-2.7-0.4l-1.9-8.5l-50.2,2.9l52.1,21.4l0.7,4.5l-51.4,19l49.1,3.6l1.3-9.2l3,0.5V2240z"/>
		</g>
	</g>
	<g>
		<g>
			<g id="COLGADOR-IZQUIERDO_00000034066838502712696930000018038751000036012961_">
				<line class="st2" x1="5001.5" y1="1851" x2="5188.4" y2="1851"/>
				<polygon points="5007.4,1835.9 5007.4,1864.7 4990.2,1850.3 				"/>
				<polygon points="5179.4,1865.3 5179.5,1836.5 5197.1,1851 				"/>
				<line class="st2" x1="5210.2" y1="2641.5" x2="5206.3" y2="1901.4"/>
				<polygon points="5220.4,1906.4 5191.6,1906.6 5205.9,1888.8 				"/>
				<polygon points="5195.5,2630.4 5224.3,2630.3 5210,2647.6 				"/>
			</g>
		</g>
		<g>
			<path d="M4966.3,1812l-0.3-3.7l12-10.3c4.2-3.6,7.6-6.8,10.2-9.7c2.6-2.9,4.6-5.9,6-8.9c1.4-3,2.1-6.3,2.1-9.8
				c0-4.1-0.9-7.6-2.6-10.3c-1.7-2.7-4.5-4.1-8.2-4.1c-2.5,0-4.7,0.5-6.5,1.6c-1.8,1-3.1,2.3-3.9,3.8l-2.1,12.2l-2.9-0.4l-0.5-13.6
				c0.9-1.2,2.4-2.5,4.3-3.7c1.9-1.2,4.1-2.2,6.5-2.9c2.5-0.7,4.9-1.1,7.4-1.1c5.3,0,9.5,1.5,12.6,4.5c3.1,3,4.6,7.4,4.6,13.1
				c0,4.2-1.2,8.2-3.5,12c-2.3,3.8-5.2,7.2-8.6,10.4s-8.2,7.1-14.3,12l-4,3.1h25.2l4.8-12.3l2.8,0.4l-2.4,17.8H4966.3z"/>
			<path d="M5017.5,1813.6c-1.4,0-2.5-0.5-3.3-1.6c-0.8-1.1-1.3-2.4-1.3-4.1c0-1.6,0.4-2.9,1.2-3.9c0.8-1,1.9-1.4,3.3-1.4
				c1.4,0,2.5,0.5,3.4,1.5c0.9,1,1.3,2.3,1.3,3.9c0,1.7-0.4,3-1.3,4.1C5020.1,1813.1,5018.9,1813.6,5017.5,1813.6z"/>
			<path d="M5041.8,1812.8c-2.8,0-5.4-0.4-7.7-1.2s-4.4-2.2-6.4-4l1.4-14.2l3.4,0.7l0.9,10.1c1.3,1.6,2.9,2.9,4.7,3.7
				c1.8,0.8,3.7,1.2,5.8,1.2c2.4,0,4.5-0.5,6.2-1.6c1.8-1,3.1-2.5,4.1-4.4c1-1.9,1.4-4.1,1.4-6.6c0-5-2.1-8.9-6.2-11.7
				c-4.2-2.8-9.9-4.5-17.2-5l5.8-26.9l22.7-1.4l-1.1,7.5l-19.4,0.9l-2.2,13.2c5.8,0.4,10.5,1.5,14.2,3.3c3.7,1.9,6.5,4.2,8.2,7.1
				c1.7,2.9,2.6,6.2,2.6,9.9c0,3.4-0.9,6.6-2.8,9.6s-4.4,5.4-7.7,7.1C5049.5,1812,5045.8,1812.8,5041.8,1812.8z"/>
			<path d="M5112,1813.3c-5.2,0-9.9-1.3-14.1-3.8c-4.2-2.5-7.6-6.2-10-10.9c-2.4-4.8-3.7-10.4-3.7-16.8c0-5.3,1.1-10.6,3.4-15.8
				c2.2-5.2,5.6-9.5,10.2-12.9s10.2-5.1,16.9-5.1c7.4,0,13.3,1.7,17.7,5l-1.6,16.9l-3.4-0.5l-1.8-12.1c-2.8-3.7-7.3-5.5-13.5-5.5
				c-3.6,0-6.8,1.2-9.8,3.5c-3,2.3-5.4,5.5-7.1,9.7c-1.8,4.2-2.6,8.9-2.6,14.3c0,6,1,11.2,3,15.5c2,4.3,4.7,7.6,8.2,9.8
				s7.4,3.3,11.9,3.3c3.4,0,6.6-0.8,9.7-2.4c3.1-1.6,5.9-3.6,8.3-6.1l1.5,2.9c-1.3,1.8-3.1,3.5-5.4,5.2c-2.3,1.7-5,3.1-8,4.2
				C5118.5,1812.7,5115.3,1813.3,5112,1813.3z"/>
			<path d="M5139.3,1812l0.4-2.7l8.5-1.9l3.9-53.5l-9.3-1.9l0.5-2.8h18.2l3.8,9.6l14.5,39.6l16.9-41.6l3.4-7.7h18.2l-0.4,2.8
				l-8.6,1.7l2.7,53.9l9.1,1.3l-0.3,3h-25.2l0.4-2.7l8.5-1.9l-2.9-50.2l-21.4,52.1l-4.5,0.7l-19-51.4l-3.6,49.1l9.2,1.3l-0.5,3
				H5139.3z"/>
		</g>
		<g>
			<path d="M5302.4,2392.1l-3-0.2l-2.1-13.8h-48.3v13.1l-3.1-0.3l-3.2-19.5v-1.4h54.9l1.4-13.5l3.5,0.5V2392.1z"/>
			<path d="M5303.3,2337.9c0,2.8-0.4,5.4-1.2,7.7s-2.2,4.4-4,6.4l-14.2-1.4l0.7-3.4l10.1-0.9c1.6-1.3,2.9-2.9,3.7-4.7
				c0.8-1.8,1.2-3.7,1.2-5.8c0-2.4-0.5-4.5-1.6-6.2c-1-1.8-2.5-3.1-4.4-4.1c-1.9-1-4.1-1.4-6.6-1.4c-5,0-8.9,2.1-11.7,6.2
				c-2.8,4.2-4.5,9.9-5,17.2l-26.9-5.8l-1.4-22.7l7.5,1.1l0.9,19.4l13.2,2.2c0.4-5.8,1.5-10.5,3.3-14.2c1.9-3.7,4.2-6.5,7.1-8.2
				c2.9-1.7,6.2-2.6,9.9-2.6c3.4,0,6.6,0.9,9.6,2.8c3,1.9,5.4,4.4,7.1,7.7C5302.4,2330.3,5303.3,2333.9,5303.3,2337.9z"/>
			<path d="M5303.7,2267.7c0,5.2-1.3,9.9-3.8,14.1c-2.5,4.2-6.2,7.6-10.9,10c-4.8,2.4-10.4,3.7-16.8,3.7c-5.3,0-10.6-1.1-15.8-3.4
				c-5.2-2.2-9.5-5.6-12.9-10.2c-3.4-4.6-5.1-10.2-5.1-16.9c0-7.4,1.7-13.3,5-17.7l16.9,1.6l-0.5,3.4l-12.1,1.8
				c-3.7,2.8-5.5,7.3-5.5,13.5c0,3.6,1.2,6.8,3.5,9.8c2.3,3,5.5,5.4,9.7,7.1c4.2,1.8,8.9,2.6,14.3,2.6c6,0,11.2-1,15.5-3
				c4.3-2,7.6-4.7,9.8-8.2c2.2-3.5,3.3-7.4,3.3-11.9c0-3.4-0.8-6.6-2.4-9.7c-1.6-3.1-3.6-5.9-6.1-8.3l2.9-1.5
				c1.8,1.3,3.5,3.1,5.2,5.4c1.7,2.3,3.1,5,4.2,8C5303.2,2261.2,5303.7,2264.4,5303.7,2267.7z"/>
			<path d="M5302.5,2240.5l-2.7-0.4l-1.9-8.5l-53.5-3.9l-1.9,9.3l-2.8-0.5v-18.2l9.6-3.8l39.6-14.5l-41.6-16.9l-7.7-3.4v-18.2
				l2.8,0.4l1.7,8.6l53.9-2.7l1.3-9.1l3,0.3v25.2l-2.7-0.4l-1.9-8.5l-50.2,2.9l52.1,21.4l0.7,4.5l-51.4,19l49.1,3.6l1.3-9.2l3,0.5
				V2240.5z"/>
		</g>
	</g>
	<g>
		<g>
			<g id="COLGADOR-IZQUIERDO_00000073695245832980605330000008985710929422616971_">
				<line class="st2" x1="4516.2" y1="1852.8" x2="4703" y2="1852.8"/>
				<polygon points="4522,1837.7 4522,1866.5 4504.8,1852.1 				"/>
				<polygon points="4694,1867.1 4694.1,1838.3 4711.8,1852.8 				"/>
				<line class="st2" x1="4724.8" y1="2643.3" x2="4720.9" y2="1903.3"/>
				<polygon points="4735,1908.3 4706.2,1908.4 4720.5,1890.6 				"/>
				<polygon points="4710.1,2632.3 4738.9,2632.1 4724.6,2649.4 				"/>
			</g>
		</g>
		<g>
			<path d="M4481,1813.8l-0.3-3.7l12-10.3c4.2-3.6,7.6-6.8,10.2-9.7c2.6-2.9,4.6-5.9,6-8.9c1.4-3,2.1-6.3,2.1-9.8
				c0-4.1-0.9-7.6-2.6-10.3c-1.7-2.7-4.5-4.1-8.2-4.1c-2.5,0-4.7,0.5-6.5,1.6c-1.8,1-3.1,2.3-3.9,3.8l-2.1,12.2l-2.9-0.4l-0.5-13.6
				c0.9-1.2,2.4-2.5,4.3-3.7c1.9-1.2,4.1-2.2,6.5-2.9c2.5-0.7,4.9-1.1,7.4-1.1c5.3,0,9.5,1.5,12.6,4.5c3.1,3,4.6,7.4,4.6,13.1
				c0,4.2-1.2,8.2-3.5,12c-2.3,3.8-5.2,7.2-8.6,10.4c-3.4,3.1-8.2,7.1-14.3,12l-4,3.1h25.2l4.8-12.3l2.8,0.4l-2.4,17.8H4481z"/>
			<path d="M4532.2,1815.5c-1.4,0-2.5-0.5-3.3-1.6c-0.8-1.1-1.3-2.4-1.3-4.1c0-1.6,0.4-2.9,1.2-3.9c0.8-1,1.9-1.4,3.3-1.4
				c1.4,0,2.5,0.5,3.4,1.5c0.9,1,1.3,2.3,1.3,3.9c0,1.7-0.4,3-1.3,4.1C4534.7,1814.9,4533.6,1815.5,4532.2,1815.5z"/>
			<path d="M4556.4,1814.7c-2.8,0-5.4-0.4-7.7-1.2s-4.4-2.2-6.4-4l1.4-14.2l3.4,0.7l0.9,10.1c1.3,1.6,2.9,2.9,4.7,3.7
				c1.8,0.8,3.7,1.2,5.8,1.2c2.4,0,4.5-0.5,6.2-1.6c1.8-1,3.1-2.5,4.1-4.4c1-1.9,1.4-4.1,1.4-6.6c0-5-2.1-8.9-6.2-11.7
				c-4.2-2.8-9.9-4.5-17.2-5l5.8-26.9l22.7-1.4l-1.1,7.5l-19.4,0.9l-2.2,13.2c5.8,0.4,10.5,1.5,14.2,3.3c3.7,1.9,6.5,4.2,8.2,7.1
				c1.7,2.9,2.6,6.2,2.6,9.9c0,3.4-0.9,6.6-2.8,9.6c-1.9,3-4.4,5.4-7.7,7.1C4564.1,1813.8,4560.4,1814.7,4556.4,1814.7z"/>
			<path d="M4626.6,1815.1c-5.2,0-9.9-1.3-14.1-3.8c-4.2-2.5-7.6-6.2-10-10.9c-2.4-4.8-3.7-10.4-3.7-16.8c0-5.3,1.1-10.6,3.4-15.8
				c2.2-5.2,5.6-9.5,10.2-12.9s10.2-5.1,16.9-5.1c7.4,0,13.3,1.7,17.7,5l-1.6,16.9l-3.4-0.5l-1.8-12.1c-2.8-3.7-7.3-5.5-13.5-5.5
				c-3.6,0-6.8,1.2-9.8,3.5c-3,2.3-5.4,5.5-7.1,9.7c-1.8,4.2-2.6,8.9-2.6,14.3c0,6,1,11.2,3,15.5c2,4.3,4.7,7.6,8.2,9.8
				s7.4,3.3,11.9,3.3c3.4,0,6.6-0.8,9.7-2.4c3.1-1.6,5.9-3.6,8.3-6.1l1.5,2.9c-1.3,1.8-3.1,3.5-5.4,5.2c-2.3,1.7-5,3.1-8,4.2
				C4633.1,1814.5,4630,1815.1,4626.6,1815.1z"/>
			<path d="M4653.9,1813.8l0.4-2.7l8.5-1.9l3.9-53.5l-9.3-1.9l0.5-2.8h18.2l3.8,9.6l14.5,39.6l16.9-41.6l3.4-7.7h18.2l-0.4,2.8
				l-8.6,1.7l2.7,53.9l9.1,1.3l-0.3,3h-25.2l0.4-2.7l8.5-1.9l-2.9-50.2l-21.4,52.1l-4.5,0.7l-19-51.4l-3.6,49.1l9.2,1.3l-0.5,3
				H4653.9z"/>
		</g>
		<g>
			<path d="M4817,2393.9l-3-0.2l-2.1-13.8h-48.3v13.1l-3.1-0.3l-3.2-19.5v-1.4h54.9l1.4-13.5l3.5,0.5V2393.9z"/>
			<path d="M4817.9,2339.7c0,2.8-0.4,5.4-1.2,7.7s-2.2,4.4-4,6.4l-14.2-1.4l0.7-3.4l10.1-0.9c1.6-1.3,2.9-2.9,3.7-4.7
				c0.8-1.8,1.2-3.7,1.2-5.8c0-2.4-0.5-4.5-1.6-6.2c-1-1.8-2.5-3.1-4.4-4.1c-1.9-1-4.1-1.4-6.6-1.4c-5,0-8.9,2.1-11.7,6.2
				c-2.8,4.2-4.5,9.9-5,17.2l-26.9-5.8l-1.4-22.7l7.5,1.1l0.9,19.4l13.2,2.2c0.4-5.8,1.5-10.5,3.3-14.2c1.9-3.7,4.2-6.5,7.1-8.2
				c2.9-1.7,6.2-2.6,9.9-2.6c3.4,0,6.6,0.9,9.6,2.8c3,1.9,5.4,4.4,7.1,7.7C4817,2332.1,4817.9,2335.7,4817.9,2339.7z"/>
			<path d="M4818.3,2269.6c0,5.2-1.3,9.9-3.8,14.1c-2.5,4.2-6.2,7.6-10.9,10c-4.8,2.4-10.4,3.7-16.8,3.7c-5.3,0-10.6-1.1-15.8-3.4
				c-5.2-2.2-9.5-5.6-12.9-10.2c-3.4-4.6-5.1-10.2-5.1-16.9c0-7.4,1.7-13.3,5-17.7l16.9,1.6l-0.5,3.4l-12.1,1.8
				c-3.7,2.8-5.5,7.3-5.5,13.5c0,3.6,1.2,6.8,3.5,9.8c2.3,3,5.5,5.4,9.7,7.1c4.2,1.8,8.9,2.6,14.3,2.6c6,0,11.2-1,15.5-3
				c4.3-2,7.6-4.7,9.8-8.2c2.2-3.5,3.3-7.4,3.3-11.9c0-3.4-0.8-6.6-2.4-9.7c-1.6-3.1-3.6-5.9-6.1-8.3l2.9-1.5
				c1.8,1.3,3.5,3.1,5.2,5.4c1.7,2.3,3.1,5,4.2,8C4817.8,2263,4818.3,2266.2,4818.3,2269.6z"/>
			<path d="M4817.1,2242.3l-2.7-0.4l-1.9-8.5l-53.5-3.9l-1.9,9.3l-2.8-0.5v-18.2l9.6-3.8l39.6-14.5L4762,2185l-7.7-3.4v-18.2
				l2.8,0.4l1.7,8.6l53.9-2.7l1.3-9.1l3,0.3v25.2l-2.7-0.4l-1.9-8.5l-50.2,2.9l52.1,21.4l0.7,4.5l-51.4,19l49.1,3.6l1.3-9.2l3,0.5
				V2242.3z"/>
		</g>
	</g>
	<g>
		<g>
			<g id="COLGADOR-IZQUIERDO_00000154419305688039222180000005649487301205341369_">
				<line class="st2" x1="2464.2" y1="1603.5" x2="2651.1" y2="1603.5"/>
				<polygon points="2470.1,1588.3 2470.1,1617.1 2452.9,1602.7 				"/>
				<polygon points="2642.1,1617.8 2642.2,1589 2659.8,1603.4 				"/>
				<line class="st2" x1="2672.9" y1="2393.9" x2="2669" y2="1653.9"/>
				<polygon points="2683.1,1658.9 2654.3,1659.1 2668.6,1641.3 				"/>
				<polygon points="2658.2,2382.9 2687,2382.7 2672.7,2400.1 				"/>
			</g>
		</g>
		<g>
			<path d="M2429,1564.5l-0.3-3.7l12-10.3c4.2-3.6,7.6-6.8,10.2-9.7c2.6-2.9,4.6-5.9,6-8.9c1.4-3,2.1-6.3,2.1-9.8
				c0-4.1-0.9-7.6-2.6-10.3c-1.7-2.7-4.5-4.1-8.2-4.1c-2.5,0-4.7,0.5-6.5,1.6c-1.8,1-3.1,2.3-3.9,3.8l-2.1,12.2l-2.9-0.4l-0.5-13.6
				c0.9-1.2,2.4-2.5,4.3-3.7c1.9-1.2,4.1-2.2,6.5-2.9c2.5-0.7,4.9-1.1,7.4-1.1c5.3,0,9.5,1.5,12.6,4.5c3.1,3,4.6,7.4,4.6,13.1
				c0,4.2-1.2,8.2-3.5,12c-2.3,3.8-5.2,7.2-8.6,10.4s-8.2,7.1-14.3,12l-4,3.1h25.2l4.8-12.3l2.8,0.4l-2.4,17.8H2429z"/>
			<path d="M2480.2,1566.1c-1.4,0-2.5-0.5-3.3-1.6c-0.8-1.1-1.3-2.4-1.3-4.1c0-1.6,0.4-2.9,1.2-3.9c0.8-1,1.9-1.4,3.3-1.4
				c1.4,0,2.5,0.5,3.4,1.5c0.9,1,1.3,2.3,1.3,3.9c0,1.7-0.4,3-1.3,4.1C2482.8,1565.6,2481.6,1566.1,2480.2,1566.1z"/>
			<path d="M2504.5,1565.3c-2.8,0-5.4-0.4-7.7-1.2s-4.4-2.2-6.4-4l1.4-14.2l3.4,0.7l0.9,10.1c1.3,1.6,2.9,2.9,4.7,3.7
				c1.8,0.8,3.7,1.2,5.8,1.2c2.4,0,4.5-0.5,6.2-1.6c1.8-1,3.1-2.5,4.1-4.4c1-1.9,1.4-4.1,1.4-6.6c0-5-2.1-8.9-6.2-11.7
				c-4.2-2.8-9.9-4.5-17.2-5l5.8-26.9l22.7-1.4l-1.1,7.5l-19.4,0.9l-2.2,13.2c5.8,0.4,10.5,1.5,14.2,3.3c3.7,1.9,6.5,4.2,8.2,7.1
				c1.7,2.9,2.6,6.2,2.6,9.9c0,3.4-0.9,6.6-2.8,9.6c-1.9,3-4.4,5.4-7.7,7.1C2512.2,1564.4,2508.5,1565.3,2504.5,1565.3z"/>
			<path d="M2574.7,1565.8c-5.2,0-9.9-1.3-14.1-3.8c-4.2-2.5-7.6-6.2-10-10.9c-2.4-4.8-3.7-10.4-3.7-16.8c0-5.3,1.1-10.6,3.4-15.8
				c2.2-5.2,5.6-9.5,10.2-12.9c4.6-3.4,10.2-5.1,16.9-5.1c7.4,0,13.3,1.7,17.7,5l-1.6,16.9l-3.4-0.5l-1.8-12.1
				c-2.8-3.7-7.3-5.5-13.5-5.5c-3.6,0-6.8,1.2-9.8,3.5c-3,2.3-5.4,5.5-7.1,9.7c-1.8,4.2-2.6,8.9-2.6,14.3c0,6,1,11.2,3,15.5
				c2,4.3,4.7,7.6,8.2,9.8c3.5,2.2,7.4,3.3,11.9,3.3c3.4,0,6.6-0.8,9.7-2.4c3.1-1.6,5.9-3.6,8.3-6.1l1.5,2.9
				c-1.3,1.8-3.1,3.5-5.4,5.2c-2.3,1.7-5,3.1-8,4.2C2581.2,1565.2,2578,1565.8,2574.7,1565.8z"/>
			<path d="M2602,1564.5l0.4-2.7l8.5-1.9l3.9-53.5l-9.3-1.9l0.5-2.8h18.2l3.8,9.6l14.5,39.6l16.9-41.6l3.4-7.7h18.2l-0.4,2.8
				l-8.6,1.7l2.7,53.9l9.1,1.3l-0.3,3h-25.2l0.4-2.7l8.5-1.9l-2.9-50.2l-21.4,52.1l-4.5,0.7l-19-51.4l-3.6,49.1l9.2,1.3l-0.5,3H2602
				z"/>
		</g>
		<g>
			<path d="M2765.1,2144.6l-3-0.2l-2.1-13.8h-48.3v13.1l-3.1-0.3l-3.2-19.5v-1.4h54.9l1.4-13.5l3.5,0.5V2144.6z"/>
			<path d="M2766,2090.4c0,2.8-0.4,5.4-1.2,7.7s-2.2,4.4-4,6.4l-14.2-1.4l0.7-3.4l10.1-0.9c1.6-1.3,2.9-2.9,3.7-4.7
				c0.8-1.8,1.2-3.7,1.2-5.8c0-2.4-0.5-4.5-1.6-6.2c-1-1.8-2.5-3.1-4.4-4.1c-1.9-1-4.1-1.4-6.6-1.4c-5,0-8.9,2.1-11.7,6.2
				c-2.8,4.2-4.5,9.9-5,17.2l-26.9-5.8l-1.4-22.7l7.5,1.1l0.9,19.4l13.2,2.2c0.4-5.8,1.5-10.5,3.3-14.2c1.9-3.7,4.2-6.5,7.1-8.2
				c2.9-1.7,6.2-2.6,9.9-2.6c3.4,0,6.6,0.9,9.6,2.8c3,1.9,5.4,4.4,7.1,7.7C2765.1,2082.7,2766,2086.4,2766,2090.4z"/>
			<path d="M2766.4,2020.2c0,5.2-1.3,9.9-3.8,14.1c-2.5,4.2-6.2,7.6-10.9,10c-4.8,2.4-10.4,3.7-16.8,3.7c-5.3,0-10.6-1.1-15.8-3.4
				c-5.2-2.2-9.5-5.6-12.9-10.2c-3.4-4.6-5.1-10.2-5.1-16.9c0-7.4,1.7-13.3,5-17.7l16.9,1.6l-0.5,3.4l-12.1,1.8
				c-3.7,2.8-5.5,7.3-5.5,13.5c0,3.6,1.2,6.8,3.5,9.8c2.3,3,5.5,5.4,9.7,7.1c4.2,1.8,8.9,2.6,14.3,2.6c6,0,11.2-1,15.5-3
				c4.3-2,7.6-4.7,9.8-8.2c2.2-3.5,3.3-7.4,3.3-11.9c0-3.4-0.8-6.6-2.4-9.7c-1.6-3.1-3.6-5.9-6.1-8.3l2.9-1.5
				c1.8,1.3,3.5,3.1,5.2,5.4c1.7,2.3,3.1,5,4.2,8C2765.9,2013.7,2766.4,2016.9,2766.4,2020.2z"/>
			<path d="M2765.2,1992.9l-2.7-0.4l-1.9-8.5l-53.5-3.9l-1.9,9.3l-2.8-0.5v-18.2l9.6-3.8l39.6-14.5l-41.6-16.9l-7.7-3.4v-18.2
				l2.8,0.4l1.7,8.6l53.9-2.7l1.3-9.1l3,0.3v25.2l-2.7-0.4l-1.9-8.5l-50.2,2.9l52.1,21.4l0.7,4.5l-51.4,19l49.1,3.6l1.3-9.2l3,0.5
				V1992.9z"/>
		</g>
	</g>
	<g>
		<g>
			<g id="COLGADOR-IZQUIERDO_00000059298080156794589870000001777045391816297874_">
				<line class="st2" x1="3393" y1="3205.2" x2="3394" y2="3392.1"/>
				<polygon points="3408.1,3211 3379.3,3211.2 3393.6,3193.9 				"/>
				<polygon points="3379.6,3383.2 3408.4,3383.1 3394,3400.8 				"/>
				<line class="st2" x1="2770.7" y1="3387.8" x2="3352.6" y2="3387.8"/>
				<polygon points="3345.7,3402.4 3345.4,3373.6 3363.3,3387.8 				"/>
				<polygon points="2778.7,3373.3 2779,3402.1 2761.6,3387.9 				"/>
			</g>
		</g>
		<g>
			<path d="M3431.8,3169.8l3.7-0.3l10.4,12c3.6,4.2,6.9,7.6,9.8,10.1c2.9,2.6,5.9,4.5,8.9,5.9c3.1,1.4,6.3,2,9.8,2
				c4.1,0,7.6-0.9,10.3-2.7c2.7-1.7,4.1-4.5,4.1-8.2c0-2.5-0.5-4.7-1.6-6.5c-1.1-1.8-2.3-3.1-3.9-3.9l-12.2-2l0.4-2.9l13.6-0.6
				c1.2,0.9,2.5,2.4,3.7,4.2c1.2,1.9,2.2,4.1,2.9,6.5c0.8,2.5,1.1,4.9,1.1,7.4c0,5.3-1.4,9.5-4.4,12.6c-3,3.1-7.3,4.7-13.1,4.7
				c-4.2,0-8.2-1.1-12-3.4c-3.8-2.3-7.3-5.2-10.4-8.6s-7.2-8.2-12.1-14.2l-3.2-4l0.1,25.2l12.3,4.7l-0.4,2.8l-17.8-2.3
				L3431.8,3169.8z"/>
			<path d="M3430.4,3221c0-1.4,0.5-2.5,1.6-3.3c1.1-0.8,2.4-1.3,4.1-1.3c1.6,0,2.9,0.4,3.9,1.2c1,0.8,1.4,1.9,1.5,3.3
				c0,1.4-0.5,2.5-1.4,3.4c-1,0.9-2.3,1.3-3.9,1.3c-1.7,0-3-0.4-4.1-1.2C3430.9,3223.6,3430.4,3222.4,3430.4,3221z"/>
			<path d="M3431.3,3245.3c0-2.8,0.4-5.4,1.2-7.7c0.8-2.3,2.1-4.5,4-6.4l14.2,1.3l-0.7,3.4l-10.1,1c-1.6,1.4-2.9,2.9-3.7,4.7
				c-0.8,1.8-1.2,3.7-1.2,5.8c0,2.4,0.5,4.5,1.6,6.2c1.1,1.8,2.5,3.1,4.4,4.1s4.1,1.4,6.6,1.4c5,0,8.9-2.1,11.7-6.3
				c2.8-4.2,4.4-9.9,4.9-17.2l26.9,5.7l1.5,22.7l-7.5-1l-1-19.4l-13.2-2.2c-0.3,5.8-1.4,10.5-3.3,14.3c-1.8,3.7-4.2,6.5-7.1,8.3
				c-2.9,1.8-6.2,2.7-9.9,2.7c-3.4,0-6.6-0.9-9.6-2.7c-3-1.8-5.4-4.4-7.2-7.6C3432.3,3252.9,3431.4,3249.3,3431.3,3245.3z"/>
			<path d="M3431.3,3315.5c0-5.2,1.2-9.9,3.7-14.1c2.5-4.2,6.1-7.6,10.9-10.1c4.7-2.5,10.3-3.7,16.8-3.7c5.3,0,10.6,1.1,15.8,3.3
				c5.2,2.2,9.6,5.6,13,10.2c3.4,4.6,5.2,10.2,5.2,16.8c0,7.4-1.6,13.4-4.9,17.7l-16.9-1.5l0.5-3.4l12.1-1.9
				c3.7-2.8,5.5-7.4,5.4-13.6c0-3.6-1.2-6.8-3.5-9.8c-2.3-3-5.6-5.3-9.8-7.1c-4.2-1.7-9-2.6-14.3-2.6c-6,0-11.2,1-15.5,3
				c-4.3,2-7.5,4.7-9.8,8.2c-2.2,3.5-3.3,7.5-3.3,11.9c0,3.4,0.8,6.6,2.5,9.7c1.6,3.1,3.7,5.9,6.1,8.2l-2.9,1.5
				c-1.8-1.3-3.5-3.1-5.2-5.4c-1.7-2.3-3.1-4.9-4.3-8C3431.9,3322,3431.3,3318.8,3431.3,3315.5z"/>
			<path d="M3432.7,3342.7l2.7,0.4l2,8.5l53.5,3.6l1.8-9.3l2.8,0.4l0.1,18.2l-9.6,3.8l-39.6,14.7l41.7,16.6l7.7,3.3l0.1,18.2
				l-2.8-0.3l-1.8-8.6l-53.9,3l-1.3,9.1l-3-0.3l-0.1-25.2l2.7,0.4l2,8.5l50.2-3.1l-52.2-21.1l-0.7-4.5l51.3-19.3l-49.1-3.3l-1.3,9.2
				l-3-0.5L3432.7,3342.7z"/>
		</g>
		<g>
			<path d="M2966.1,3487.3l0.2-3l13.8-2.2l-0.3-48.3l-13.1,0.1l0.2-3.1l19.5-3.3l1.4,0l0.3,54.9l13.5,1.3l-0.4,3.5L2966.1,3487.3z"
				/>
			<path d="M3020.4,3487.9c-2.8,0-5.4-0.4-7.7-1.2s-4.5-2.1-6.4-4l1.3-14.2l3.4,0.7l1,10.1c1.4,1.6,2.9,2.9,4.7,3.7
				c1.8,0.8,3.7,1.2,5.8,1.2c2.4,0,4.5-0.5,6.2-1.6c1.8-1.1,3.1-2.5,4.1-4.4c0.9-1.9,1.4-4.1,1.4-6.6c0-5-2.1-8.9-6.3-11.7
				c-4.2-2.8-9.9-4.4-17.2-4.9l5.7-26.9l22.7-1.5l-1,7.5l-19.4,1l-2.2,13.2c5.8,0.3,10.5,1.4,14.3,3.3c3.7,1.8,6.5,4.2,8.3,7.1
				c1.8,2.9,2.7,6.2,2.7,9.9c0,3.4-0.9,6.6-2.7,9.6c-1.8,3-4.4,5.4-7.6,7.2C3028,3487,3024.4,3487.9,3020.4,3487.9z"/>
			<path d="M3090.5,3488c-5.2,0-9.9-1.2-14.1-3.7c-4.2-2.5-7.6-6.1-10.1-10.9c-2.5-4.8-3.7-10.3-3.7-16.8c0-5.3,1.1-10.6,3.3-15.8
				c2.2-5.2,5.6-9.6,10.2-13c4.6-3.4,10.2-5.2,16.8-5.2c7.4,0,13.4,1.6,17.7,4.9l-1.5,16.9l-3.4-0.5l-1.9-12.1
				c-2.8-3.7-7.4-5.5-13.6-5.4c-3.6,0-6.8,1.2-9.8,3.5c-3,2.3-5.3,5.6-7.1,9.8c-1.7,4.2-2.6,8.9-2.5,14.3c0,6,1,11.2,3,15.5
				c2,4.3,4.7,7.5,8.2,9.8c3.5,2.2,7.5,3.3,11.9,3.3c3.4,0,6.6-0.8,9.7-2.5c3.1-1.6,5.9-3.7,8.2-6.1l1.5,2.9
				c-1.3,1.8-3.1,3.5-5.4,5.2c-2.3,1.7-4.9,3.1-8,4.3C3097.1,3487.4,3093.9,3487.9,3090.5,3488z"/>
			<path d="M3117.8,3486.6l0.4-2.7l8.5-2l3.6-53.5l-9.3-1.8l0.4-2.8l18.2-0.1l3.8,9.6l14.7,39.6l16.6-41.7l3.3-7.7l18.2-0.1
				l-0.3,2.8l-8.6,1.8l3,53.9l9.1,1.3l-0.3,3l-25.2,0.1l0.4-2.7l8.5-2l-3.1-50.2l-21.1,52.2l-4.5,0.7l-19.3-51.3l-3.3,49.1l9.2,1.3
				l-0.5,3L3117.8,3486.6z"/>
		</g>
	</g>
	<g>
		<g>
			<g id="COLGADOR-IZQUIERDO_00000153692515453273662470000003021994231342023071_">
				<line class="st2" x1="3392.7" y1="3812.2" x2="3393.7" y2="3999.1"/>
				<polygon points="3407.9,3818 3379.1,3818.2 3393.4,3800.8 				"/>
				<polygon points="3379.4,3990.2 3408.2,3990.1 3393.8,4007.8 				"/>
				<line class="st2" x1="2770.5" y1="3994.8" x2="3352.4" y2="3994.8"/>
				<polygon points="3345.5,4009.4 3345.2,3980.6 3363,3994.8 				"/>
				<polygon points="2778.5,3980.3 2778.8,4009.1 2761.4,3994.9 				"/>
			</g>
		</g>
		<g>
			<path d="M3431.5,3776.8l3.7-0.3l10.4,12c3.6,4.2,6.9,7.6,9.8,10.1c2.9,2.6,5.9,4.5,8.9,5.9c3.1,1.4,6.3,2,9.8,2
				c4.1,0,7.6-0.9,10.3-2.7c2.7-1.7,4.1-4.5,4.1-8.2c0-2.5-0.5-4.7-1.6-6.5c-1.1-1.8-2.3-3.1-3.9-3.9l-12.2-2l0.4-2.9l13.6-0.6
				c1.2,0.9,2.5,2.4,3.7,4.2c1.2,1.9,2.2,4.1,2.9,6.5c0.8,2.5,1.1,4.9,1.1,7.4c0,5.3-1.4,9.5-4.4,12.6c-3,3.1-7.3,4.7-13.1,4.7
				c-4.2,0-8.2-1.1-12-3.4c-3.8-2.3-7.3-5.2-10.4-8.6c-3.2-3.4-7.2-8.2-12.1-14.2l-3.2-4l0.1,25.2l12.3,4.7l-0.4,2.8l-17.8-2.3
				L3431.5,3776.8z"/>
			<path d="M3430.2,3828c0-1.4,0.5-2.5,1.6-3.3s2.4-1.3,4.1-1.3c1.6,0,2.9,0.4,3.9,1.2s1.4,1.9,1.5,3.3c0,1.4-0.5,2.5-1.4,3.4
				c-1,0.9-2.3,1.3-3.9,1.3c-1.7,0-3-0.4-4.1-1.2C3430.7,3830.6,3430.2,3829.4,3430.2,3828z"/>
			<path d="M3431.1,3852.3c0-2.8,0.4-5.4,1.2-7.7c0.8-2.3,2.1-4.5,4-6.4l14.2,1.3l-0.7,3.4l-10.1,1c-1.6,1.4-2.9,2.9-3.7,4.7
				c-0.8,1.8-1.2,3.7-1.2,5.8c0,2.4,0.5,4.5,1.6,6.2c1.1,1.8,2.5,3.1,4.4,4.1s4.1,1.4,6.6,1.4c5,0,8.9-2.1,11.7-6.3
				c2.8-4.2,4.4-9.9,4.9-17.2l26.9,5.7l1.5,22.7l-7.5-1l-1-19.4l-13.2-2.2c-0.3,5.8-1.4,10.5-3.3,14.3c-1.8,3.7-4.2,6.5-7.1,8.3
				c-2.9,1.8-6.2,2.7-9.9,2.7c-3.4,0-6.6-0.9-9.6-2.7c-3-1.8-5.4-4.4-7.2-7.6S3431.1,3856.3,3431.1,3852.3z"/>
			<path d="M3431,3922.5c0-5.2,1.2-9.9,3.7-14.1s6.1-7.6,10.9-10.1c4.7-2.5,10.3-3.7,16.8-3.7c5.3,0,10.6,1.1,15.8,3.3
				c5.2,2.2,9.6,5.6,13,10.2c3.4,4.6,5.2,10.2,5.2,16.8c0,7.4-1.6,13.4-4.9,17.7l-16.9-1.5l0.5-3.4l12.1-1.9
				c3.7-2.8,5.5-7.4,5.4-13.6c0-3.6-1.2-6.8-3.5-9.8c-2.3-3-5.6-5.3-9.8-7.1c-4.2-1.7-9-2.6-14.3-2.5c-6,0-11.2,1-15.5,3
				c-4.3,2-7.5,4.7-9.8,8.2c-2.2,3.5-3.3,7.5-3.3,11.9c0,3.4,0.8,6.6,2.5,9.7c1.6,3.1,3.7,5.9,6.1,8.2l-2.9,1.5
				c-1.8-1.3-3.5-3.1-5.2-5.4c-1.7-2.3-3.1-4.9-4.3-8C3431.6,3929,3431,3925.8,3431,3922.5z"/>
			<path d="M3432.4,3949.7l2.7,0.4l2,8.5l53.5,3.6l1.8-9.3l2.8,0.4l0.1,18.2l-9.6,3.8l-39.6,14.7l41.7,16.6l7.7,3.3l0.1,18.2
				l-2.8-0.3l-1.8-8.6l-53.9,3l-1.3,9.1l-3-0.3l-0.1-25.2l2.7,0.4l2,8.5l50.2-3.1l-52.2-21.1l-0.7-4.5l51.3-19.3l-49.1-3.3l-1.3,9.2
				l-3-0.5L3432.4,3949.7z"/>
		</g>
		<g>
			<path d="M2965.9,4094.3l0.2-3l13.8-2.2l-0.3-48.3l-13.1,0.1l0.2-3.1l19.5-3.3l1.4,0l0.3,54.9l13.5,1.3l-0.4,3.5L2965.9,4094.3z"
				/>
			<path d="M3020.1,4094.9c-2.8,0-5.4-0.4-7.7-1.2s-4.5-2.1-6.4-4l1.3-14.2l3.4,0.7l1,10.1c1.4,1.6,2.9,2.9,4.7,3.7s3.7,1.2,5.8,1.2
				c2.4,0,4.5-0.5,6.2-1.6c1.8-1.1,3.1-2.5,4.1-4.4c0.9-1.9,1.4-4.1,1.4-6.6c0-5-2.1-8.9-6.3-11.7c-4.2-2.8-9.9-4.4-17.2-4.9
				l5.7-26.9l22.7-1.5l-1,7.5l-19.4,1l-2.2,13.2c5.8,0.3,10.5,1.4,14.3,3.3c3.7,1.8,6.5,4.2,8.3,7.1c1.8,2.9,2.7,6.2,2.7,9.9
				c0,3.4-0.9,6.6-2.7,9.6c-1.8,3-4.4,5.4-7.6,7.2C3027.8,4093.9,3024.1,4094.8,3020.1,4094.9z"/>
			<path d="M3090.3,4095c-5.2,0-9.9-1.2-14.1-3.7c-4.2-2.5-7.6-6.1-10.1-10.9c-2.5-4.7-3.7-10.3-3.7-16.8c0-5.3,1.1-10.6,3.3-15.8
				c2.2-5.2,5.6-9.6,10.2-13c4.6-3.4,10.2-5.2,16.8-5.2c7.4,0,13.4,1.6,17.7,4.9l-1.5,16.9l-3.4-0.5l-1.9-12.1
				c-2.8-3.7-7.4-5.5-13.6-5.4c-3.6,0-6.8,1.2-9.8,3.5c-3,2.3-5.3,5.6-7.1,9.8c-1.7,4.2-2.6,9-2.5,14.3c0,6,1,11.2,3,15.5
				c2,4.3,4.7,7.5,8.2,9.8s7.5,3.3,11.9,3.3c3.4,0,6.6-0.8,9.7-2.5c3.1-1.6,5.9-3.7,8.2-6.1l1.5,2.9c-1.3,1.8-3.1,3.5-5.4,5.2
				c-2.3,1.7-4.9,3.1-8,4.3C3096.8,4094.4,3093.6,4094.9,3090.3,4095z"/>
			<path d="M3117.6,4093.5l0.4-2.7l8.5-2l3.6-53.5l-9.3-1.8l0.4-2.8l18.2-0.1l3.8,9.6l14.7,39.6l16.6-41.7l3.3-7.7l18.2-0.1
				l-0.3,2.8l-8.6,1.8l3,53.9l9.1,1.3l-0.3,3l-25.2,0.1l0.4-2.7l8.5-2l-3.1-50.2l-21.1,52.2l-4.5,0.7l-19.3-51.3l-3.3,49.1l9.2,1.3
				l-0.5,3L3117.6,4093.5z"/>
		</g>
	</g>
	<g>
		<g>
			<g id="COLGADOR-IZQUIERDO_00000176743656124780671610000012492724412050105252_">
				<line class="st2" x1="3392.7" y1="4389.5" x2="3393.7" y2="4576.4"/>
				<polygon points="3407.9,4395.3 3379.1,4395.5 3393.4,4378.1 				"/>
				<polygon points="3379.4,4567.5 3408.2,4567.3 3393.8,4585.1 				"/>
				<line class="st2" x1="2770.5" y1="4572.1" x2="3352.4" y2="4572.1"/>
				<polygon points="3345.5,4586.7 3345.2,4557.9 3363,4572.1 				"/>
				<polygon points="2778.5,4557.6 2778.8,4586.4 2761.4,4572.2 				"/>
			</g>
		</g>
		<g>
			<path d="M3431.5,4354.1l3.7-0.3l10.4,12c3.6,4.2,6.9,7.6,9.8,10.1c2.9,2.6,5.9,4.5,8.9,5.9c3.1,1.4,6.3,2,9.8,2
				c4.1,0,7.6-0.9,10.3-2.7c2.7-1.7,4.1-4.5,4.1-8.2c0-2.5-0.5-4.7-1.6-6.5c-1.1-1.8-2.3-3.1-3.9-3.9l-12.2-2l0.4-2.9l13.6-0.6
				c1.2,0.9,2.5,2.4,3.7,4.2c1.2,1.9,2.2,4.1,2.9,6.5c0.8,2.5,1.1,4.9,1.1,7.4c0,5.3-1.4,9.5-4.4,12.6c-3,3.1-7.3,4.7-13.1,4.7
				c-4.2,0-8.2-1.1-12-3.4c-3.8-2.3-7.3-5.2-10.4-8.6c-3.2-3.4-7.2-8.2-12.1-14.2l-3.2-4l0.1,25.2l12.3,4.7l-0.4,2.8l-17.8-2.3
				L3431.5,4354.1z"/>
			<path d="M3430.2,4405.3c0-1.4,0.5-2.5,1.6-3.3c1.1-0.8,2.4-1.3,4.1-1.3c1.6,0,2.9,0.4,3.9,1.2c1,0.8,1.4,1.9,1.5,3.3
				c0,1.4-0.5,2.5-1.4,3.4c-1,0.9-2.3,1.3-3.9,1.3c-1.7,0-3-0.4-4.1-1.2C3430.7,4407.8,3430.2,4406.7,3430.2,4405.3z"/>
			<path d="M3431.1,4429.6c0-2.8,0.4-5.4,1.2-7.7c0.8-2.3,2.1-4.5,4-6.4l14.2,1.3l-0.7,3.4l-10.1,1c-1.6,1.4-2.9,2.9-3.7,4.7
				c-0.8,1.8-1.2,3.7-1.2,5.8c0,2.4,0.5,4.5,1.6,6.2c1.1,1.8,2.5,3.1,4.4,4.1s4.1,1.4,6.6,1.4c5,0,8.9-2.1,11.7-6.3
				c2.8-4.2,4.4-9.9,4.9-17.2l26.9,5.7l1.5,22.7l-7.5-1l-1-19.4l-13.2-2.2c-0.3,5.8-1.4,10.5-3.3,14.3c-1.8,3.7-4.2,6.5-7.1,8.3
				c-2.9,1.8-6.2,2.7-9.9,2.7c-3.4,0-6.6-0.9-9.6-2.7c-3-1.8-5.4-4.4-7.2-7.6C3432,4437.2,3431.1,4433.6,3431.1,4429.6z"/>
			<path d="M3431,4499.8c0-5.2,1.2-9.9,3.7-14.1c2.5-4.2,6.1-7.6,10.9-10.1c4.7-2.5,10.3-3.7,16.8-3.7c5.3,0,10.6,1.1,15.8,3.3
				c5.2,2.2,9.6,5.6,13,10.2c3.4,4.6,5.2,10.2,5.2,16.8c0,7.4-1.6,13.4-4.9,17.7l-16.9-1.5l0.5-3.4l12.1-1.9
				c3.7-2.8,5.5-7.4,5.4-13.6c0-3.6-1.2-6.8-3.5-9.8s-5.6-5.3-9.8-7.1c-4.2-1.7-9-2.6-14.3-2.5c-6,0-11.2,1-15.5,3
				c-4.3,2-7.5,4.7-9.8,8.2c-2.2,3.5-3.3,7.5-3.3,11.9c0,3.4,0.8,6.6,2.5,9.7c1.6,3.1,3.7,5.9,6.1,8.2l-2.9,1.5
				c-1.8-1.3-3.5-3.1-5.2-5.4c-1.7-2.3-3.1-4.9-4.3-8S3431,4503.1,3431,4499.8z"/>
			<path d="M3432.4,4527l2.7,0.4l2,8.5l53.5,3.6l1.8-9.3l2.8,0.4l0.1,18.2l-9.6,3.8l-39.6,14.7l41.7,16.6l7.7,3.3l0.1,18.2l-2.8-0.3
				l-1.8-8.6l-53.9,3l-1.3,9.1l-3-0.3l-0.1-25.2l2.7,0.4l2,8.5l50.2-3.1l-52.2-21.1l-0.7-4.5l51.3-19.3l-49.1-3.3l-1.3,9.2l-3-0.5
				L3432.4,4527z"/>
		</g>
		<g>
			<path d="M2965.9,4671.6l0.2-3l13.8-2.2l-0.3-48.3l-13.1,0.1l0.2-3.1l19.5-3.3l1.4,0l0.3,54.9l13.5,1.3l-0.4,3.5L2965.9,4671.6z"
				/>
			<path d="M3020.1,4672.2c-2.8,0-5.4-0.4-7.7-1.2c-2.3-0.8-4.5-2.1-6.4-4l1.3-14.2l3.4,0.7l1,10.1c1.4,1.6,2.9,2.9,4.7,3.7
				c1.8,0.8,3.7,1.2,5.8,1.2c2.4,0,4.5-0.5,6.2-1.6c1.8-1.1,3.1-2.5,4.1-4.4c0.9-1.9,1.4-4.1,1.4-6.6c0-5-2.1-8.9-6.3-11.7
				c-4.2-2.8-9.9-4.4-17.2-4.9l5.7-26.9l22.7-1.5l-1,7.5l-19.4,1l-2.2,13.2c5.8,0.3,10.5,1.4,14.3,3.3c3.7,1.8,6.5,4.2,8.3,7.1
				c1.8,2.9,2.7,6.2,2.7,9.9c0,3.4-0.9,6.6-2.7,9.6c-1.8,3-4.4,5.4-7.6,7.2C3027.8,4671.2,3024.1,4672.1,3020.1,4672.2z"/>
			<path d="M3090.3,4672.2c-5.2,0-9.9-1.2-14.1-3.7c-4.2-2.5-7.6-6.1-10.1-10.9c-2.5-4.7-3.7-10.3-3.7-16.8c0-5.3,1.1-10.6,3.3-15.8
				c2.2-5.2,5.6-9.6,10.2-13c4.6-3.4,10.2-5.2,16.8-5.2c7.4,0,13.4,1.6,17.7,4.9l-1.5,16.9l-3.4-0.5l-1.9-12.1
				c-2.8-3.7-7.4-5.5-13.6-5.4c-3.6,0-6.8,1.2-9.8,3.5c-3,2.3-5.3,5.6-7.1,9.8s-2.6,9-2.5,14.3c0,6,1,11.2,3,15.5
				c2,4.3,4.7,7.5,8.2,9.8c3.5,2.2,7.5,3.3,11.9,3.3c3.4,0,6.6-0.8,9.7-2.5c3.1-1.6,5.9-3.7,8.2-6.1l1.5,2.9
				c-1.3,1.8-3.1,3.5-5.4,5.2c-2.3,1.7-4.9,3.1-8,4.3C3096.8,4671.6,3093.6,4672.2,3090.3,4672.2z"/>
			<path d="M3117.6,4670.8l0.4-2.7l8.5-2l3.6-53.5l-9.3-1.8l0.4-2.8l18.2-0.1l3.8,9.6l14.7,39.6l16.6-41.7l3.3-7.7l18.2-0.1
				l-0.3,2.8l-8.6,1.8l3,53.9l9.1,1.3l-0.3,3l-25.2,0.1l0.4-2.7l8.5-2l-3.1-50.2l-21.1,52.2l-4.5,0.7l-19.3-51.3l-3.3,49.1l9.2,1.3
				l-0.5,3L3117.6,4670.8z"/>
		</g>
	</g>
</g>
</svg>
