<?xml version="1.0" encoding="utf-8"?>
<!-- Generator: Adobe Illustrator 26.5.0, SVG Export Plug-In . SVG Version: 6.00 Build 0)  -->
<svg version="1.1" id="Capa_1" xmlns="http://www.w3.org/2000/svg" xmlns:xlink="http://www.w3.org/1999/xlink" x="0px" y="0px"
	 viewBox="0 0 6114.4 4997.1" style="enable-background:new 0 0 6114.4 4997.1;" xml:space="preserve">
<style type="text/css">
	.st0{fill:#F7F7F7;stroke:#000000;stroke-width:14;stroke-miterlimit:10;}
	.st1{fill:none;stroke:#000000;stroke-width:19.9254;stroke-miterlimit:10;}
	.st2{fill:#FFFFFF;}
	.st3{fill:none;stroke:#000000;stroke-width:16.3832;stroke-miterlimit:10;}
	.st4{fill:none;stroke:#000000;stroke-width:12;stroke-miterlimit:10;}
	.st5{fill:none;stroke:#000000;stroke-width:14;stroke-miterlimit:10;}
	.st6{fill:#F7F7F7;stroke:#000000;stroke-width:20;stroke-miterlimit:10;}
</style>
<g id="CLOSET">
	<g id="MARCO">
		<rect id="EXTREMO-INFERIOR" x="143.8" y="4739.7" class="st0" width="5840.1" height="85"/>
		<rect id="EXTREMO-SUPERIOR" x="144" y="119" class="st0" width="5839.9" height="85"/>
		<rect id="EXTREMO-DERECHO" x="5898.6" y="204.2" class="st0" width="85" height="4535.4"/>
		<rect id="EXTREMO-IZQUIERDO" x="143.7" y="204.1" class="st0" width="85" height="4535.4"/>
	</g>
	<g id="CONTORNO">
		<rect id="CONTORNO-DERECHO" x="196.7" y="157.2" class="st1" width="2135" height="4624"/>
		<rect id="CONTORNO-IZQUIERDO" x="3801.4" y="146.9" class="st1" width="2135" height="4624"/>
		
			<rect id="CONTORNO-IZQUIERDO_00000170989951074554206130000009644434086150472857_" x="206.8" y="167.1" class="st2" width="2114.7" height="4601.8"/>
		
			<rect id="CONTORNO-IZQUIERDO_00000181068879484984276150000006216154639734520219_" x="3811.2" y="157" class="st2" width="2114.7" height="4601.8"/>
		
			<rect id="CONTORNO-IZQUIERDO_00000120535320119645588410000012213352191132349112_" x="2341.6" y="210.9" class="st2" width="1449.4" height="4521.9"/>
		
			<rect id="CONTORNO-DERECHO_00000121970266461775108810000005489042698172474775_" x="2331.7" y="204" class="st3" width="1469.7" height="4541.2"/>
	</g>
</g>
<g id="TACOS">
	<polygon id="EXTREMO-IZQUIERDO_00000179613568780841531500000018268648914898734740_" points="162.8,4824.7 162.8,4896.8 
		339.7,4897.2 339.7,4824.7 	"/>
	<polygon id="INTERNO-IZQUIERDO" points="2152.9,4824.3 2152.9,4896.4 2329.8,4896.8 2329.8,4824.3 	"/>
	<polygon id="INTERNO-DERECHO" points="3801.4,4825.5 3801.4,4897.6 3978.4,4898 3978.4,4825.5 	"/>
	<polygon id="EXTREMO-DERECHO_00000052090783585065775730000014019552278459271040_" points="5791.5,4825.1 5791.5,4897.2 
		5968.5,4897.6 5968.5,4825.1 	"/>
</g>
<g id="MEDIDAS">
	<g>
		<g>
			<path d="M4171.3,2842.4l-4-0.3l-2.8-18.1h-63.1v17.1l-4-0.3l-4.2-25.4v-1.8h71.7l1.8-17.7l4.5,0.6v45.9H4171.3z"/>
			<path d="M4172.7,2765.5c0,5.5-1.3,10.1-4,13.7s-6.2,6.2-10.5,7.8c-4.4,1.6-9.3,2.5-14.7,2.5c-7.3,0-14.4-1.7-21.6-5
				c-7.1-3.4-13.4-7.9-18.9-13.7c-5.4-5.8-9.4-12.1-11.7-19.1l3.3-1.9c3.8,8.5,8.9,14.9,15.4,19.4c6.5,4.4,13.5,7.4,21.2,9v-0.6
				c-4.4-4.7-6.6-10.3-6.6-16.8c0-4.2,1-7.9,2.9-11.1c2-3.2,4.7-5.6,8.1-7.3s7.4-2.6,11.8-2.6c4.8,0,9.1,1.1,13,3.4
				c3.8,2.3,6.9,5.4,9,9.3C4171.6,2756.4,4172.7,2760.7,4172.7,2765.5z M4135.7,2778.3c2.1,0.3,5,0.5,8.8,0.5
				c4.5,0,8.5-0.6,12.2-1.9c3.6-1.3,6.5-3,8.6-5.1s3.1-4.6,3.1-7.3c0-5-1.6-8.5-4.8-10.7c-3.2-2.2-7.8-3.3-13.8-3.3
				c-3.5,0-6.7,0.6-9.7,1.7c-2.9,1.1-5.3,2.8-7,5.1s-2.6,5-2.6,8.2c0,2.8,0.5,5.4,1.6,7.8
				C4133.2,2775.7,4134.4,2777.4,4135.7,2778.3z"/>
			<path d="M4171.3,2732.9l-4.9,0.4l-13.4-15.7c-4.7-5.5-8.9-9.9-12.7-13.3c-3.8-3.4-7.7-6-11.6-7.8c-4-1.8-8.3-2.7-12.8-2.7
				c-5.4,0-9.9,1.1-13.5,3.4c-3.6,2.3-5.4,5.8-5.4,10.7c0,3.3,0.7,6.1,2,8.5c1.4,2.4,3,4.1,5,5.1l15.9,2.7l-0.5,3.8l-17.7,0.7
				c-1.6-1.2-3.2-3.1-4.8-5.6c-1.6-2.5-2.8-5.3-3.8-8.5s-1.4-6.4-1.4-9.6c0-6.9,2-12.4,5.9-16.5c3.9-4.1,9.6-6.1,17.1-6.1
				c5.5,0,10.7,1.5,15.6,4.5s9.4,6.8,13.5,11.3s9.3,10.7,15.7,18.7l4.1,5.2v-32.9l-16-6.3l0.5-3.6l23.3,3.1v50.5H4171.3z"/>
			<path d="M4173,2615.9c0,6.8-1.6,12.9-4.9,18.4s-8.1,9.9-14.3,13.1c-6.2,3.2-13.5,4.8-21.9,4.8c-6.9,0-13.8-1.5-20.6-4.4
				c-6.8-2.9-12.4-7.4-16.9-13.3c-4.5-6-6.7-13.3-6.7-22c0-9.7,2.2-17.4,6.5-23.1l22.1,2l-0.7,4.5l-15.8,2.4
				c-4.8,3.7-7.2,9.6-7.2,17.7c0,4.7,1.5,8.9,4.5,12.9c3,3.9,7.2,7,12.7,9.3s11.7,3.4,18.7,3.4c7.9,0,14.6-1.3,20.2-3.9
				c5.6-2.6,9.9-6.1,12.8-10.6s4.4-9.7,4.4-15.6c0-4.4-1.1-8.6-3.2-12.7c-2.1-4.1-4.7-7.7-7.9-10.8l3.8-1.9c2.3,1.7,4.5,4.1,6.8,7.1
				c2.2,3,4.1,6.5,5.5,10.4C4172.2,2607.4,4173,2611.6,4173,2615.9z"/>
			<path d="M4171.3,2580.3l-3.6-0.5l-2.5-11.1l-69.8-5.1l-2.4,12.1l-3.7-0.6v-23.7l12.6-4.9l51.7-18.9l-54.3-22l-10-4.4v-23.7
				l3.7,0.5l2.2,11.3l70.4-3.6l1.7-11.9l4,0.4v32.9l-3.6-0.5l-2.5-11.1l-65.6,3.8l68,27.9l0.9,5.9l-67.1,24.8l64.1,4.7l1.7-12.1
				l4,0.7L4171.3,2580.3L4171.3,2580.3z"/>
		</g>
	</g>
	<g>
		<g id="EXTREMO-IZQUIERDO_00000065794714504879491940000013581101856827449732_">
			<g>
				<line class="st4" x1="4045.2" y1="4653.6" x2="4045.2" y2="397.2"/>
			</g>
			<polygon points="4087.3,4648.2 4002.3,4648.2 4044.8,4710.5 			"/>
		</g>
		<polygon points="4006.3,420.2 4084,420.2 4045.1,363.2 		"/>
	</g>
	<g>
		<g>
			<g id="COLGADOR-IZQUIERDO_00000056402382565659415980000001251177966754490262_">
				<line class="st4" x1="2602.6" y1="370.8" x2="3603.5" y2="370.8"/>
				<polygon points="2602.9,356.7 2602.9,385.5 2582.4,371.1 				"/>
				<polygon points="3604,385.1 3604,356.3 3625,370.8 				"/>
			</g>
			<polygon points="3603.2,334.2 3603.2,409.2 3647.7,371.7 			"/>
			<polygon points="2602.7,409.4 2602.7,330.4 2555.7,369.9 			"/>
		</g>
	</g>
	<g id="EXTREMO-IZQUIERDO_00000083771384123256128210000005100546193736999592_">
		<g>
			<line class="st4" x1="2555.9" y1="4562.6" x2="2555.9" y2="407.9"/>
		</g>
		<polygon points="2597.9,4557.4 2513,4557.4 2555.5,4618.2 		"/>
	</g>
	<polygon points="2516.9,455.2 2594.6,455.2 2555.8,398.2 	"/>
	<g>
		<path d="M2686.8,2764.7l-4-0.3l-2.8-18.1h-63v17.1l-4-0.3l-4.2-25.4v-1.8h71.7l1.8-17.7l4.5,0.6V2764.7z"/>
		<path d="M2688.3,2687.8c0,5.5-1.3,10.1-4,13.7s-6.2,6.2-10.5,7.8c-4.4,1.6-9.3,2.5-14.7,2.5c-7.3,0-14.4-1.7-21.6-5
			c-7.1-3.4-13.4-7.9-18.9-13.7c-5.4-5.8-9.4-12.1-11.7-19.1l3.3-1.9c3.8,8.5,8.9,14.9,15.4,19.4c6.5,4.4,13.5,7.4,21.2,9v-0.6
			c-4.4-4.7-6.6-10.3-6.6-16.8c0-4.2,1-7.9,2.9-11.1c2-3.2,4.7-5.6,8.1-7.3s7.4-2.6,11.8-2.6c4.8,0,9.1,1.1,13,3.4
			c3.8,2.3,6.9,5.4,9,9.3C2687.2,2678.7,2688.3,2683.1,2688.3,2687.8z M2651.3,2700.6c2.1,0.3,5,0.5,8.8,0.5c4.5,0,8.5-0.6,12.2-1.9
			c3.6-1.3,6.5-3,8.6-5.1s3.1-4.6,3.1-7.3c0-5-1.6-8.5-4.8-10.7s-7.8-3.3-13.8-3.3c-3.5,0-6.7,0.6-9.7,1.7c-2.9,1.1-5.3,2.8-7,5.1
			s-2.6,5-2.6,8.2c0,2.8,0.5,5.4,1.6,7.8C2648.8,2698,2650,2699.7,2651.3,2700.6z"/>
		<path d="M2686.9,2655.2l-4.9,0.4l-13.4-15.7c-4.7-5.5-8.9-9.9-12.7-13.3c-3.8-3.4-7.7-6-11.6-7.8c-4-1.8-8.3-2.7-12.8-2.7
			c-5.4,0-9.9,1.1-13.5,3.4c-3.6,2.3-5.4,5.8-5.4,10.7c0,3.3,0.7,6.1,2,8.5c1.4,2.4,3,4.1,5,5.1l15.9,2.7l-0.5,3.8l-17.7,0.7
			c-1.6-1.2-3.2-3.1-4.8-5.6s-2.8-5.3-3.8-8.5s-1.4-6.4-1.4-9.6c0-6.9,2-12.4,5.9-16.5s9.6-6.1,17.1-6.1c5.5,0,10.7,1.5,15.6,4.5
			c4.9,3,9.4,6.8,13.5,11.3s9.3,10.7,15.7,18.7l4.1,5.2v-32.9l-16-6.3l0.5-3.6l23.3,3.1v50.5H2686.9z"/>
		<path d="M2688.6,2538.2c0,6.8-1.6,12.9-4.9,18.4c-3.3,5.5-8.1,9.9-14.3,13.1c-6.2,3.2-13.5,4.8-21.9,4.8c-6.9,0-13.8-1.5-20.6-4.4
			s-12.4-7.4-16.9-13.3c-4.5-6-6.7-13.3-6.7-22c0-9.7,2.2-17.4,6.5-23.1l22.1,2l-0.7,4.5l-15.8,2.4c-4.8,3.7-7.2,9.6-7.2,17.7
			c0,4.7,1.5,8.9,4.5,12.9c3,3.9,7.2,7,12.7,9.3s11.7,3.4,18.7,3.4c7.9,0,14.6-1.3,20.2-3.9c5.6-2.6,9.9-6.1,12.8-10.6
			c2.9-4.5,4.4-9.7,4.4-15.6c0-4.4-1.1-8.6-3.2-12.7c-2.1-4.1-4.7-7.7-7.9-10.8l3.8-1.9c2.3,1.7,4.5,4.1,6.8,7.1
			c2.2,3,4.1,6.5,5.5,10.4C2687.8,2529.7,2688.6,2533.9,2688.6,2538.2z"/>
		<path d="M2686.9,2502.6l-3.6-0.5l-2.5-11.1l-69.8-5.1l-2.4,12.1l-3.7-0.6v-23.7l12.6-4.9l51.7-18.9l-54.3-22l-10-4.4v-23.7
			l3.7,0.5l2.2,11.3l70.4-3.6l1.7-11.9l4,0.4v32.9l-3.6-0.5l-2.5-11.1l-65.6,3.8l68,27.9l0.9,5.9l-67.1,24.8l64.1,4.7l1.7-12.1
			l4,0.7v29.1H2686.9z"/>
	</g>
	<g id="COLGADOR-IZQUIERDO_00000172406392849471792560000009174453483719330452_">
		<line class="st4" x1="4065.3" y1="284.2" x2="5826.7" y2="284.2"/>
		<polygon class="st4" points="4065.7,270.1 4065.7,298.9 4029.7,284.5 		"/>
		<polygon class="st4" points="5827.5,298.5 5827.6,269.7 5864.5,284.2 		"/>
	</g>
	<polygon points="4074.7,323.7 4074.7,244.6 4016.7,284.2 	"/>
	<polygon points="5815.5,244.9 5815.5,324 5873.5,284.5 	"/>
	<g>
		<path d="M4788.6,356l2.1-25.9h55.9v3.8l-31.7,85.2l-11.6-1.2L4838,340h-40.4l-5,16.6L4788.6,356z"/>
		<path d="M4873.6,417.9c-4.1,0-7.8-0.6-11.1-1.8s-6.4-3.1-9.2-5.8l2.1-20.6l4.9,1l1.3,14.6c2,2.4,4.2,4.2,6.8,5.3
			c2.6,1.2,5.4,1.8,8.4,1.8c3.5,0,6.5-0.8,9-2.3c2.6-1.5,4.5-3.6,5.9-6.4s2.1-6,2.1-9.6c0-7.2-3-12.9-9-17s-14.3-6.5-24.9-7.2
			l8.4-39l32.9-2l-1.5,10.9l-28.2,1.2l-3.2,19.1c8.3,0.5,15.2,2.1,20.7,4.8c5.4,2.7,9.4,6.1,11.9,10.4c2.5,4.2,3.8,9,3.8,14.3
			c0,5-1.3,9.6-4,14c-2.7,4.3-6.4,7.8-11.1,10.3C4884.7,416.6,4879.4,417.9,4873.6,417.9z"/>
		<path d="M4975.4,418.5c-7.5,0-14.3-1.8-20.5-5.5c-6.1-3.7-11-8.9-14.5-15.9c-3.5-6.9-5.3-15-5.3-24.4c0-7.7,1.6-15.4,4.9-22.9
			c3.2-7.6,8.2-13.8,14.8-18.8c6.6-5,14.8-7.4,24.5-7.4c10.8,0,19.4,2.4,25.7,7.3l-2.3,24.5l-5-0.7l-2.6-17.6
			c-4.1-5.3-10.6-8-19.6-8c-5.2,0-9.9,1.7-14.3,5c-4.3,3.3-7.8,8-10.3,14.1s-3.8,13-3.8,20.7c0,8.7,1.4,16.2,4.3,22.5
			s6.8,11,11.8,14.2s10.8,4.8,17.3,4.8c4.9,0,9.6-1.2,14.1-3.5s8.5-5.3,12-8.8l2.1,4.2c-1.9,2.5-4.5,5-7.8,7.5s-7.2,4.5-11.6,6.2
			C4984.9,417.7,4980.2,418.5,4975.4,418.5z"/>
		<path d="M5015,416.7l0.6-4l12.3-2.8l5.6-77.6l-13.5-2.7l0.7-4.1h26.4l5.5,14l21,57.5l24.5-60.4l4.9-11.1h26.4l-0.5,4.1l-12.5,2.5
			l4,78.2l13.3,1.9l-0.4,4.4h-36.5l0.6-4l12.4-2.8l-4.2-72.9l-31,75.6l-6.5,1l-27.5-74.6l-5.2,71.3l13.4,1.9l-0.7,4.4H5015V416.7z"
			/>
	</g>
	<g>
		<path d="M2976.7,488.8l-1.4-4l45.2-56.8l3.6,1.1c-0.4,8.7-0.7,20.7-0.7,36.1v16.2h18.7l-1.2,7.7h-17.5v19.6l15.1,1.8l-0.8,4.7
			h-43.4l0.5-4.2l18.1-2.8v-19.5L2976.7,488.8L2976.7,488.8z M2986.1,481.4h26.5v-35.6L2986.1,481.4z"/>
		<path d="M3073.1,517.2c-4.4,0-8.5-1-12.2-2.9s-6.6-4.6-8.7-8s-3.2-7.3-3.2-11.7c0-8.4,5.6-16,16.8-22.6v-0.5
			c-4.3-3-7.7-6.2-10-9.8c-2.3-3.5-3.5-7.6-3.5-12.2c0-4,1-7.7,3.1-11.1s4.9-6.1,8.6-8.2c3.7-2,7.8-3,12.4-3c4.5,0,8.4,0.9,11.6,2.7
			c3.3,1.8,5.8,4.2,7.5,7.3c1.7,3.1,2.6,6.5,2.6,10.2c0,4.7-1.4,9.1-4.1,13s-6.1,7-10.1,9.1l-0.2,0.4c4.1,2.8,7.4,5.3,9.9,7.7
			c2.5,2.3,4.4,4.8,5.7,7.4s1.9,5.6,1.9,8.9c0,4.4-1.2,8.4-3.6,12c-2.4,3.5-5.7,6.3-10,8.3C3083.5,516.2,3078.6,517.2,3073.1,517.2z
			 M3069.8,474.5c-3.4,2.5-6,5.1-7.8,7.7c-1.8,2.7-2.7,6.1-2.7,10.2c0,4,0.9,7.4,2.7,10.4s4.1,5.2,6.8,6.7s5.5,2.3,8.2,2.3
			c4.5,0,8.1-1.2,10.7-3.6c2.7-2.4,4-5.7,4-10c0-3.9-1.8-7.6-5.3-11.2C3083,483.4,3077.5,479.2,3069.8,474.5z M3074.7,431.7
			c-2.7,0-5.1,0.6-7.1,1.8c-2,1.2-3.6,2.8-4.7,4.9c-1.1,2.1-1.6,4.4-1.6,6.9c0,3.7,1.4,7.2,4.3,10.5c2.9,3.3,7.6,7.1,14.3,11.4
			c2.9-1.9,5.2-4.2,6.8-7c1.7-2.7,2.5-6.1,2.5-10.2c0-3.4-0.7-6.5-2-9.3s-3.1-5-5.3-6.7C3079.6,432.5,3077.2,431.7,3074.7,431.7z"/>
		<path d="M3171.9,517.1c-7.5,0-14.3-1.8-20.5-5.5c-6.1-3.7-11-8.9-14.5-15.9c-3.5-6.9-5.3-15-5.3-24.4c0-7.7,1.6-15.4,4.9-22.9
			c3.2-7.6,8.2-13.8,14.8-18.8s14.8-7.4,24.5-7.4c10.8,0,19.4,2.4,25.7,7.3l-2.3,24.5l-5-0.7l-2.6-17.6c-4.1-5.3-10.6-8-19.6-8
			c-5.2,0-9.9,1.7-14.3,5c-4.3,3.3-7.8,8-10.3,14.1s-3.8,13-3.8,20.7c0,8.7,1.4,16.2,4.3,22.5c2.9,6.3,6.8,11,11.8,14.2
			s10.8,4.8,17.3,4.8c4.9,0,9.6-1.2,14.1-3.5s8.5-5.3,12-8.8l2.1,4.2c-1.9,2.5-4.5,5-7.8,7.5s-7.2,4.5-11.6,6.2
			C3181.4,516.3,3176.8,517.1,3171.9,517.1z"/>
		<path d="M3211.5,515.3l0.6-4l12.3-2.8l5.6-77.6l-13.5-2.7l0.7-4.1h26.4l5.5,14l21,57.5l24.5-60.4l4.9-11.1h26.4l-0.5,4.1
			l-12.5,2.5l4,78.2l13.3,1.9l-0.4,4.4H3293l0.6-4l12.4-2.8l-4.2-72.9l-31,75.6l-6.5,1l-27.5-74.6l-5.2,71.3l13.4,1.9l-0.7,4.4
			h-32.8V515.3z"/>
	</g>
	<g>
		<g>
			<path d="M566.5,2856.6l-4-0.3l-2.8-18.1h-63.1v17.1l-4-0.3l-4.2-25.4v-1.8h71.7l1.8-17.7l4.5,0.6v45.9H566.5z"/>
			<path d="M568,2779.8c0,5.5-1.3,10.1-4,13.7s-6.2,6.2-10.5,7.8c-4.4,1.6-9.3,2.5-14.7,2.5c-7.3,0-14.4-1.7-21.6-5
				c-7.1-3.4-13.4-7.9-18.9-13.7c-5.4-5.8-9.4-12.1-11.7-19.1l3.3-1.9c3.8,8.5,8.9,14.9,15.4,19.4c6.5,4.4,13.5,7.4,21.2,9v-0.6
				c-4.4-4.7-6.6-10.3-6.6-16.8c0-4.2,1-7.9,2.9-11.1c2-3.2,4.7-5.6,8.1-7.3s7.4-2.6,11.8-2.6c4.8,0,9.1,1.1,13,3.4
				c3.8,2.3,6.9,5.4,9,9.3C566.9,2770.7,568,2775,568,2779.8z M531,2792.6c2.1,0.3,5,0.5,8.8,0.5c4.5,0,8.5-0.6,12.2-1.9
				c3.6-1.3,6.5-3,8.6-5.1s3.1-4.6,3.1-7.3c0-5-1.6-8.5-4.8-10.7s-7.8-3.3-13.8-3.3c-3.5,0-6.7,0.6-9.7,1.7c-2.9,1.1-5.3,2.8-7,5.1
				s-2.6,5-2.6,8.2c0,2.8,0.5,5.4,1.6,7.8C528.5,2790,529.7,2791.6,531,2792.6z"/>
			<path d="M566.6,2747.2l-4.9,0.4l-13.4-15.7c-4.7-5.5-8.9-9.9-12.7-13.3c-3.8-3.4-7.7-6-11.6-7.8c-4-1.8-8.3-2.7-12.8-2.7
				c-5.4,0-9.9,1.1-13.5,3.4c-3.6,2.3-5.4,5.8-5.4,10.7c0,3.3,0.7,6.1,2,8.5c1.4,2.4,3,4.1,5,5.1l15.9,2.7l-0.5,3.8L497,2743
				c-1.6-1.2-3.2-3.1-4.8-5.6c-1.6-2.5-2.8-5.3-3.8-8.5s-1.4-6.4-1.4-9.6c0-6.9,2-12.4,5.9-16.5s9.6-6.1,17.1-6.1
				c5.5,0,10.7,1.5,15.6,4.5s9.4,6.8,13.5,11.3s9.3,10.7,15.7,18.7l4.1,5.2v-32.9l-16-6.3l0.5-3.6l23.3,3.1L566.6,2747.2
				L566.6,2747.2z"/>
			<path d="M568.3,2630.2c0,6.8-1.6,12.9-4.9,18.4c-3.3,5.5-8.1,9.9-14.3,13.1c-6.2,3.2-13.5,4.8-21.9,4.8c-6.9,0-13.8-1.5-20.6-4.4
				c-6.8-2.9-12.4-7.4-16.9-13.3c-4.5-6-6.7-13.3-6.7-22c0-9.7,2.2-17.4,6.5-23.1l22.1,2l-0.7,4.5l-15.8,2.4
				c-4.8,3.7-7.2,9.6-7.2,17.7c0,4.7,1.5,8.9,4.5,12.9c3,3.9,7.2,7,12.7,9.3s11.7,3.4,18.7,3.4c7.9,0,14.6-1.3,20.2-3.9
				c5.6-2.6,9.9-6.1,12.8-10.6c2.9-4.5,4.4-9.7,4.4-15.6c0-4.4-1.1-8.6-3.2-12.7c-2.1-4.1-4.7-7.7-7.9-10.8l3.8-1.9
				c2.3,1.7,4.5,4.1,6.8,7.1c2.2,3,4.1,6.5,5.5,10.4C567.5,2621.7,568.3,2625.9,568.3,2630.2z"/>
			<path d="M566.6,2594.6l-3.6-0.5l-2.5-11.1l-69.8-5.1l-2.4,12.1l-3.7-0.6v-23.7l12.6-4.9l51.7-18.9l-54.3-22l-10-4.4v-23.7
				l3.7,0.5l2.2,11.3l70.4-3.6l1.7-11.9l4,0.4v32.9l-3.6-0.5l-2.5-11.1l-65.6,3.8l68,27.9l0.9,5.9l-67.1,24.8l64.1,4.7l1.7-12.1
				l4,0.7L566.6,2594.6L566.6,2594.6z"/>
		</g>
	</g>
	<g>
		<g id="EXTREMO-IZQUIERDO_1_">
			<g>
				<line class="st4" x1="440.5" y1="4667.9" x2="440.5" y2="411.5"/>
			</g>
			<polygon points="482.6,4662.5 397.6,4662.5 440.1,4724.8 			"/>
		</g>
		<polygon points="401.6,434.5 479.3,434.5 440.4,377.5 		"/>
	</g>
	<g id="COLGADOR-IZQUIERDO_1_">
		<line class="st4" x1="460.6" y1="298.5" x2="2221.9" y2="298.5"/>
		<polygon class="st4" points="461,284.4 461,313.2 425,298.8 		"/>
		<polygon class="st4" points="2222.8,312.8 2222.9,284 2259.8,298.5 		"/>
	</g>
	<polygon points="470,338 470,258.9 412,298.4 	"/>
	<g>
		<path d="M1183.9,370.3l2.1-25.9h55.9v3.8l-31.7,85.2l-11.6-1.2l34.7-77.9h-40.4l-5,16.6L1183.9,370.3z"/>
		<path d="M1268.9,432.1c-4.1,0-7.8-0.6-11.1-1.8s-6.4-3.1-9.2-5.8l2.1-20.6l4.9,1l1.3,14.6c2,2.4,4.2,4.2,6.8,5.3
			c2.6,1.2,5.4,1.8,8.4,1.8c3.5,0,6.5-0.8,9-2.3c2.6-1.5,4.5-3.6,5.9-6.4s2.1-6,2.1-9.6c0-7.2-3-12.9-9-17s-14.3-6.5-24.9-7.2
			l8.4-39l32.9-2L1295,354l-28.2,1.2l-3.2,19.1c8.3,0.5,15.2,2.1,20.7,4.8c5.4,2.7,9.4,6.1,11.9,10.4c2.5,4.2,3.8,9,3.8,14.3
			c0,5-1.3,9.6-4,14c-2.7,4.3-6.4,7.8-11.1,10.3C1280,430.9,1274.7,432.1,1268.9,432.1z"/>
		<path d="M1370.7,432.8c-7.5,0-14.3-1.8-20.5-5.5c-6.1-3.7-11-8.9-14.5-15.9c-3.5-6.9-5.3-15-5.3-24.4c0-7.7,1.6-15.4,4.9-22.9
			c3.2-7.6,8.2-13.8,14.8-18.8c6.6-5,14.8-7.4,24.5-7.4c10.8,0,19.4,2.4,25.7,7.3l-2.3,24.5l-5-0.7l-2.6-17.6
			c-4.1-5.3-10.6-8-19.6-8c-5.2,0-9.9,1.7-14.3,5c-4.3,3.3-7.8,8-10.3,14.1s-3.8,13-3.8,20.7c0,8.7,1.4,16.2,4.3,22.5
			s6.8,11,11.8,14.2s10.8,4.8,17.3,4.8c4.9,0,9.6-1.2,14.1-3.5s8.5-5.3,12-8.8l2.1,4.2c-1.9,2.5-4.5,5-7.8,7.5s-7.2,4.5-11.6,6.2
			C1380.2,432,1375.5,432.8,1370.7,432.8z"/>
		<path d="M1410.2,431l0.6-4l12.3-2.8l5.6-77.6l-13.5-2.7l0.7-4.1h26.4l5.5,14l21,57.5l24.5-60.4l4.9-11.1h26.4l-0.5,4.1l-12.5,2.5
			l4,78.2l13.3,1.9l-0.4,4.4H1492l0.6-4l12.4-2.8l-4.2-72.9l-31,75.6l-6.5,1l-27.5-74.6l-5.2,71.3l13.4,1.9l-0.7,4.4h-33.1V431z"/>
	</g>
	<polygon points="2212.7,261.7 2212.7,340.8 2270.7,301.2 	"/>
	<circle cx="252.7" cy="245.2" r="18"/>
	<ellipse transform="matrix(0.1602 -0.9871 0.9871 0.1602 -739.5278 1059.1893)" cx="252.7" cy="964.2" rx="18" ry="18"/>
	<ellipse transform="matrix(0.1602 -0.9871 0.9871 0.1602 -1358.2843 1583.9281)" cx="251.7" cy="1590.2" rx="18" ry="18"/>
	<ellipse transform="matrix(0.1602 -0.9871 0.9871 0.1602 -2086.7549 2203.7136)" cx="251.7" cy="2328.2" rx="18" ry="18"/>
	<ellipse transform="matrix(0.1602 -0.9871 0.9871 0.1602 -3697.6816 3574.2964)" cx="251.7" cy="3960.2" rx="18" ry="18"/>
	<ellipse transform="matrix(0.1602 -0.9871 0.9871 0.1602 -4448.8555 4213.3979)" cx="251.7" cy="4721.2" rx="18" ry="18"/>
	<ellipse transform="matrix(0.1602 -0.9871 0.9871 0.1602 -2935.6501 2925.957)" cx="251.7" cy="3188.2" rx="18" ry="18"/>
	<circle cx="2377.7" cy="260.2" r="18"/>
	<circle cx="2376.7" cy="915.2" r="18"/>
	<circle cx="2377.7" cy="1641.2" r="18"/>
	<circle cx="2377.7" cy="2454.2" r="18"/>
	<circle cx="2377.7" cy="4006.2" r="18"/>
	<circle cx="2377.7" cy="4694.2" r="18"/>
	<circle cx="2377.7" cy="3203.2" r="18"/>
	<circle cx="2270.7" cy="227.2" r="18"/>
	<circle cx="2270.7" cy="979.2" r="18"/>
	<circle cx="2269.7" cy="1605.2" r="18"/>
	<circle cx="2269.7" cy="2343.2" r="18"/>
	<circle cx="2269.7" cy="3975.2" r="18"/>
	<circle cx="2269.7" cy="4725.2" r="18"/>
	<circle cx="2269.7" cy="3203.2" r="18"/>
	<circle cx="3754.7" cy="263.2" r="18"/>
	<circle cx="3753.7" cy="918.2" r="18"/>
	<circle cx="3754.7" cy="1644.2" r="18"/>
	<circle cx="3754.7" cy="2457.2" r="18"/>
	<circle cx="3754.7" cy="4009.2" r="18"/>
	<circle cx="3754.7" cy="4697.2" r="18"/>
	<circle cx="3754.7" cy="3206.2" r="18"/>
	<circle cx="3855.7" cy="956.2" r="18"/>
	<circle cx="3854.7" cy="1582.2" r="18"/>
	<circle cx="3854.7" cy="2320.2" r="18"/>
	<circle cx="3854.7" cy="3952.2" r="18"/>
	<circle cx="3854.7" cy="3180.2" r="18"/>
	<circle cx="5880.7" cy="237.2" r="18"/>
	<circle cx="5880.7" cy="956.2" r="18"/>
	<circle cx="5879.7" cy="1582.2" r="18"/>
	<circle cx="5879.7" cy="2320.2" r="18"/>
	<circle cx="5879.7" cy="3952.2" r="18"/>
	<circle cx="5879.7" cy="4713.2" r="18"/>
	<circle cx="5879.7" cy="3180.2" r="18"/>
	<circle cx="984.7" cy="227.2" r="18"/>
	<circle cx="1658.7" cy="227.2" r="18"/>
	<circle cx="894.7" cy="4721.2" r="18"/>
	<circle cx="1657.7" cy="4725.2" r="18"/>
	<circle cx="5229.7" cy="4727.2" r="18"/>
	<circle cx="3854.7" cy="4723.2" r="18"/>
	<circle cx="4617.7" cy="4727.2" r="18"/>
	<circle cx="5230.7" cy="221.2" r="18"/>
	<circle cx="3855.7" cy="217.2" r="18"/>
	<circle cx="4618.7" cy="221.2" r="18"/>
	<circle cx="3084.7" cy="4694.2" r="18"/>
	<circle cx="3091.7" cy="255.2" r="18"/>
	<circle class="st0" cx="1330.7" cy="1827.2" r="475"/>
	<polyline class="st5" points="2252.7,3203.2 1301.7,3203.2 1302.3,2295.2 	"/>
	<path class="st6" d="M1042.3,1577.8c0,0,53.7-21.2,69.6,19.8c16,41,374.2,550.8,374.2,550.8s26.1,45.2,101.5,50.8
		c11.6-52.3-34.8-110.2-34.8-110.2l-381.4-581.9c0,0,94.3-74.9-17.4-43.8c-95.7,60.7-113.1,81.9-120.4,100.3
		C1026.4,1582,1042.3,1577.8,1042.3,1577.8z"/>
	<path class="st1" d="M1074.6,1572.4c0,0,86.7-56.7,96.8-65.2"/>
	<g>
		<g>
			<path d="M1587.6,2191.7c-3.8-2.8-7.4-5.9-10.9-9.1c-7.3-6.8-14.1-14.3-19.5-22.7c-3.2-5-5.8-10.4-7.3-16.2c0.1,0.5,0,1.8-0.1,2.2
				c0,1.8,0,3.5,0,5.3s0,3.5,0,5.3c0,0.7-0.1,1.5,0.1,2.2c2.7,10.2,8.8,19.3,15.6,27.3c5.5,6.4,11.6,12.3,18.2,17.7
				c1.3,1,2.6,2.1,3.9,3.1c-0.1,0,0.1-2.5,0.1-2.2c0-1.8,0-3.5,0-5.3s0-3.5,0-5.3C1587.7,2193.5,1587.9,2191.8,1587.6,2191.7
				L1587.6,2191.7z"/>
		</g>
	</g>
	<g>
		<g>
			<path d="M1115.9,1604.1c8.2,0.3,15.9-3.2,22-8.4c6.6-5.6,11.3-13,15.4-20.5c2.4-4.3,5.3-8.7,6.3-13.5c0.1-0.6,0-1.6,0.1-2.2
				c0-1.8,0-3.5,0-5.3s0-3.5,0-5.3c0-0.7-0.2-1.6-0.1-2.2c-0.9,4.3-3.3,8.1-5.4,11.9s-4.2,7.5-6.7,11.1c-4.7,6.9-10.7,13-18.3,16.5
				c-4.2,1.9-8.7,3-13.3,2.8C1116,1589.1,1115.6,1604.1,1115.9,1604.1L1115.9,1604.1z"/>
		</g>
	</g>
	<g>
		<g>
			<path d="M1122.7,1619.7c7.4-2.2,14.3-6.1,19.9-11.4c0.1-0.1,0-1.5,0-1.5c0-1.2,0-2.4,0-3.5c0-1.2,0-2.4,0-3.5
				c0-0.2-0.2-1.4,0-1.5c-5.6,5.3-12.5,9.2-19.9,11.4c-0.1,0,0,1.7,0,1.5c0,1.2,0,2.4,0,3.5c0,1.2,0,2.4,0,3.5
				C1122.7,1618.3,1122.7,1619.7,1122.7,1619.7L1122.7,1619.7z"/>
		</g>
	</g>
	<g>
		<g>
			<path d="M1139.5,1643.1c17.5-1,29.9-14.8,38.6-28.8c0.2-0.3,0.1-2.1,0.1-2.2c0-1.8,0-3.5,0-5.3s0-3.5,0-5.3
				c0-0.5-0.3-1.9-0.1-2.2c-8.6,14-21.1,27.8-38.6,28.8C1139.1,1628.2,1139.7,1643.1,1139.5,1643.1L1139.5,1643.1z"/>
		</g>
	</g>
	<g>
		<g>
			<path d="M1154.4,1661.6c6.8-0.5,13.2-3.8,17.5-9.1c0.1-0.2,0-1.5,0-1.5c0-1.2,0-2.4,0-3.5c0-1.2,0-2.4,0-3.5c0-0.3-0.2-1.3,0-1.5
				c-4.2,5.3-10.7,8.6-17.5,9.1C1154.1,1651.6,1154.6,1661.6,1154.4,1661.6L1154.4,1661.6z"/>
		</g>
	</g>
	<g>
		<g>
			<path d="M1165.1,1682.7c1.3,1,3,0.6,4.4,0c1.7-0.7,3.3-1.7,4.9-2.6c3.1-1.8,6.2-3.8,9.1-6c5.8-4.4,11.1-9.5,15.7-15.2
				c2.6-3.2,5-6.6,7.1-10.2c0.2-0.3,0.1-2.1,0.1-2.2c0-1.8,0-3.5,0-5.3s0-3.5,0-5.3c0-0.5-0.3-1.8-0.1-2.2
				c-7.5,12.6-18.1,23.2-30.7,30.7c-1.7,1-3.5,2-5.3,3c-1.6,0.8-3.6,1.6-5.2,0.4c0.1,0.1-0.1,2.5-0.1,2.2c0,1.8,0,3.5,0,5.3
				s0,3.5,0,5.3C1165.1,1680.8,1164.9,1682.5,1165.1,1682.7L1165.1,1682.7z"/>
		</g>
	</g>
	<circle class="st0" cx="4971.7" cy="3867.2" r="475"/>
	<path class="st6" d="M4683.3,3617.8c0,0,53.7-21.2,69.6,19.8c16,41,374.2,550.8,374.2,550.8s26.1,45.2,101.5,50.8
		c11.6-52.3-34.8-110.2-34.8-110.2l-381.4-581.9c0,0,94.3-74.9-17.4-43.8c-95.7,60.7-113.1,81.9-120.4,100.3
		S4683.3,3617.8,4683.3,3617.8z"/>
	<path class="st1" d="M4715.6,3612.4c0,0,86.7-56.7,96.8-65.2"/>
	<g>
		<g>
			<path d="M4756.9,3644.1c8.2,0.3,15.9-3.2,22-8.4c6.6-5.6,11.3-13,15.4-20.5c2.4-4.3,5.3-8.7,6.3-13.5c0.1-0.6,0-1.6,0.1-2.2
				c0-1.8,0-3.5,0-5.3s0-3.5,0-5.3c0-0.7-0.2-1.6-0.1-2.2c-0.9,4.3-3.3,8.1-5.4,11.9c-2.1,3.8-4.2,7.5-6.7,11.1
				c-4.7,6.9-10.7,13-18.3,16.5c-4.2,1.9-8.7,3-13.3,2.8C4757,3629.1,4756.6,3644.1,4756.9,3644.1L4756.9,3644.1z"/>
		</g>
	</g>
	<g>
		<g>
			<path d="M4763.7,3659.7c7.4-2.2,14.3-6.1,19.9-11.4c0.1-0.1,0-1.5,0-1.5c0-1.2,0-2.4,0-3.5s0-2.4,0-3.5c0-0.2-0.2-1.4,0-1.5
				c-5.6,5.3-12.5,9.2-19.9,11.4c-0.1,0,0,1.7,0,1.5c0,1.2,0,2.4,0,3.5c0,1.2,0,2.4,0,3.5
				C4763.7,3658.3,4763.7,3659.7,4763.7,3659.7L4763.7,3659.7z"/>
		</g>
	</g>
	<g>
		<g>
			<path d="M4780.5,3683.1c17.5-1,29.9-14.8,38.6-28.8c0.2-0.3,0.1-2.1,0.1-2.2c0-1.8,0-3.5,0-5.3s0-3.5,0-5.3
				c0-0.5-0.3-1.9-0.1-2.2c-8.6,14-21.1,27.8-38.6,28.8C4780.1,3668.2,4780.7,3683.1,4780.5,3683.1L4780.5,3683.1z"/>
		</g>
	</g>
	<g>
		<g>
			<path d="M4795.4,3701.6c6.8-0.5,13.2-3.8,17.5-9.1c0.1-0.2,0-1.5,0-1.5c0-1.2,0-2.4,0-3.5s0-2.4,0-3.5c0-0.3-0.2-1.3,0-1.5
				c-4.2,5.3-10.7,8.6-17.5,9.1C4795.1,3691.6,4795.6,3701.6,4795.4,3701.6L4795.4,3701.6z"/>
		</g>
	</g>
	<g>
		<g>
			<path d="M4806.1,3722.7c1.3,1,3,0.6,4.4,0c1.7-0.7,3.3-1.7,4.9-2.6c3.1-1.8,6.2-3.8,9.1-6c5.8-4.4,11.1-9.5,15.7-15.2
				c2.6-3.2,5-6.6,7.1-10.2c0.2-0.3,0.1-2.1,0.1-2.2c0-1.8,0-3.5,0-5.3s0-3.5,0-5.3c0-0.5-0.3-1.8-0.1-2.2
				c-7.5,12.6-18.1,23.2-30.7,30.7c-1.7,1-3.5,2-5.3,3c-1.6,0.8-3.6,1.6-5.2,0.4c0.1,0.1-0.1,2.5-0.1,2.2c0,1.8,0,3.5,0,5.3
				s0,3.5,0,5.3C4806.1,3720.8,4805.9,3722.5,4806.1,3722.7L4806.1,3722.7z"/>
		</g>
	</g>
	<polyline class="st5" points="4971.7,3392.2 4971.7,2320.2 5879.7,2320.2 	"/>
	<circle class="st0" cx="3169.2" cy="3258.7" r="330.5"/>
	<path class="st6" d="M2968.6,3085.1c0,0,37.3-14.7,48.4,13.8c11.1,28.5,260.3,383.2,260.3,383.2s18.2,31.4,70.6,35.4
		c8.1-36.4-24.2-76.6-24.2-76.6L3058.4,3036c0,0,65.6-52.1-12.1-30.5c-66.6,42.3-78.7,57-83.8,69.8
		C2957.5,3088.1,2968.6,3085.1,2968.6,3085.1z"/>
	<path class="st1" d="M2991,3081.4c0,0,60.3-39.5,67.4-45.4"/>
	<g>
		<g>
			<path d="M3019.8,3105.7c7.5,0.2,14.2-3.9,18.9-9.4c2.5-2.9,4.6-6.2,6.5-9.5s4.2-6.8,5-10.5c0.1-0.6,0-1.6,0.1-2.2
				c0-1.8,0-3.5,0-5.3s0-3.5,0-5.3c0-0.7-0.2-1.6-0.1-2.2c-0.8,3.7-3.1,7.2-5,10.5c-1.9,3.4-4,6.6-6.5,9.5
				c-4.8,5.5-11.5,9.7-18.9,9.4C3019.8,3090.7,3019.5,3105.7,3019.8,3105.7L3019.8,3105.7z"/>
		</g>
	</g>
	<g>
		<g>
			<path d="M3024.5,3115.8c5.2-1.5,10-4.2,13.9-7.9c0.1-0.1,0-1.5,0-1.5c0-1.2,0-2.4,0-3.5s0-2.4,0-3.5c0-0.2-0.2-1.4,0-1.5
				c-3.9,3.7-8.7,6.4-13.9,7.9c-0.1,0,0,1.7,0,1.5c0,1.2,0,2.4,0,3.5s0,2.4,0,3.5C3024.5,3114.5,3024.5,3115.8,3024.5,3115.8
				L3024.5,3115.8z"/>
		</g>
	</g>
	<g>
		<g>
			<path d="M3036.2,3132.9c12.2-0.8,20.8-10.3,26.8-20c0.2-0.3,0.1-2.1,0.1-2.2c0-1.8,0-3.5,0-5.3s0-3.5,0-5.3
				c0-0.5-0.3-1.9-0.1-2.2c-6,9.7-14.6,19.3-26.8,20C3035.7,3117.9,3036.4,3132.9,3036.2,3132.9L3036.2,3132.9z"/>
		</g>
	</g>
	<g>
		<g>
			<path d="M3046.6,3145c4.7-0.3,9.2-2.6,12.2-6.3c0.1-0.2,0-1.5,0-1.5c0-1.2,0-2.4,0-3.5s0-2.4,0-3.5c0-0.3,0-0.5,0-0.8
				c0-0.2,0-0.5,0-0.7c-3,3.7-7.4,6-12.2,6.3c-0.1,0-0.1,4.6,0,5C3046.5,3140.3,3046.6,3145,3046.6,3145L3046.6,3145z"/>
		</g>
	</g>
	<g>
		<g>
			<path d="M3054,3160.4c1.3,1,2.9,0.1,4.2-0.5c1.4-0.7,2.8-1.5,4.2-2.4c2.8-1.7,5.4-3.7,7.9-5.8c4.9-4.3,9.1-9.3,12.5-14.9
				c0.2-0.3,0.1-2.1,0.1-2.2c0-1.8,0-3.5,0-5.3s0-3.5,0-5.3c0-0.5-0.3-1.8-0.1-2.2c-3.3,5.6-7.5,10.6-12.5,14.9
				c-2.4,2.1-5,4-7.7,5.7c-1.4,0.9-2.7,1.7-4.2,2.4c-1.3,0.7-3,1.6-4.3,0.6c0.1,0-0.1,2.5-0.1,2.2c0,1.8,0,3.5,0,5.3s0,3.5,0,5.3
				C3054,3158.6,3053.8,3160.3,3054,3160.4L3054,3160.4z"/>
		</g>
	</g>
	<polyline class="st5" points="3169.2,2928.2 3169.2,1644.2 3736.7,1644.2 	"/>
</g>
</svg>
