<?xml version="1.0" encoding="utf-8"?>
<!-- Generator: Adobe Illustrator 26.5.0, SVG Export Plug-In . SVG Version: 6.00 Build 0)  -->
<svg version="1.1" id="CLOSET" xmlns="http://www.w3.org/2000/svg" xmlns:xlink="http://www.w3.org/1999/xlink" x="0px" y="0px"
	 viewBox="0 0 898.7 1367.4" style="enable-background:new 0 0 898.7 1367.4;" xml:space="preserve">
<style type="text/css">
	.st0{fill:#F7F7F7;stroke:#000000;stroke-width:4.2904;stroke-miterlimit:10;}
	.st1{fill:none;stroke:#000000;stroke-width:5.3747;stroke-miterlimit:10;}
	.st2{fill:#F7F7F7;stroke:#000000;stroke-width:6.0676;stroke-miterlimit:10;}
	.st3{fill:none;stroke:#000000;stroke-width:6.0676;stroke-miterlimit:10;}
	.st4{fill:none;stroke:#000000;stroke-width:3.6261;stroke-miterlimit:10;}
	.st5{fill:none;stroke:#000000;stroke-width:6.0825;stroke-miterlimit:10;}
	.st6{fill:none;stroke:#000000;stroke-width:4.334;stroke-miterlimit:10;}
	.st7{fill:none;stroke:#000000;stroke-width:3.4672;stroke-miterlimit:10;}
	.st8{fill:none;stroke:#000000;stroke-width:5.2008;stroke-miterlimit:10;}
	.st9{fill:none;}
</style>
<g>
	<rect id="EXTREMO-INFERIOR" x="385.1" y="409.5" class="st0" width="23.9" height="877.6"/>
	<polyline class="st1" points="409.2,409.5 675.4,182.7 661.4,183.1 385.1,409.5 	"/>
	
		<line id="EXTREMO-INFERIOR_00000066493160204181325770000008260171296335134393_" class="st2" x1="678.7" y1="180.6" x2="670.5" y2="1058.7"/>
	<line class="st3" x1="409" y1="1287.1" x2="671.5" y2="1056"/>
	<path class="st3" d="M586.3,164.1"/>
</g>
<g>
	<polyline class="st4" points="678.7,1100.2 432.8,1322.9 430,1325.3 	"/>
	<path class="st4" d="M553.4,1229.6"/>
	<line class="st4" x1="429.6" y1="1298.3" x2="429.6" y2="1348.1"/>
	<line class="st4" x1="678.7" y1="1076.1" x2="678.7" y2="1125.9"/>
</g>
<ellipse class="st3" cx="304.7" cy="166.2" rx="152.7" ry="150.3"/>
<line class="st5" x1="581.2" y1="250.9" x2="457.4" y2="189.6"/>
<line class="st3" x1="168.2" y1="98.8" x2="441.2" y2="98.8"/>
<line class="st3" x1="192.1" y1="266.7" x2="418.3" y2="266.7"/>
<line class="st6" x1="251.5" y1="109.4" x2="251.5" y2="256.1"/>
<path class="st7" d="M310,256"/>
<ellipse cx="584.1" cy="252.5" rx="8.3" ry="8.2"/>
<line class="st8" x1="355.2" y1="410.2" x2="353.3" y2="1286.5"/>
<path class="st8" d="M390.4,1266.7"/>
<path class="st8" d="M391.2,893.5"/>
<line class="st8" x1="374.5" y1="410.2" x2="334.9" y2="410.2"/>
<line class="st8" x1="368.8" y1="1286.5" x2="334.2" y2="1286.5"/>
<rect x="831.1" y="502.7" class="st9" width="0" height="6.4"/>
<line class="st8" x1="273.2" y1="109.4" x2="229.8" y2="109.4"/>
<line class="st8" x1="273.2" y1="256" x2="229.8" y2="256"/>
<g>
	<path d="M285,169.4l0.7-8.6h18.6v1.3l-10.6,28.4l-3.9-0.4l11.6-26H288l-1.7,5.5L285,169.4z"/>
	<path d="M314.3,189.6l0.2-1.3l3.7-0.8v-16.3l-3.8-1l0.1-1.3l6.6-0.7l0.3,0.3l-0.3,3.2h0.2c0.9-1.1,2-2,3.3-2.8
		c1.3-0.8,2.7-1.2,4.2-1.2c1.3,0,2.4,0.3,3.3,1c0.9,0.7,1.6,1.7,1.9,3h0.3c0.8-1.1,1.9-2,3.2-2.8c1.3-0.8,2.7-1.2,4.1-1.2
		c2.1,0,3.5,0.6,4.4,1.8c0.9,1.2,1.3,3,1.3,5.2v12.5l3.5,0.7l-0.3,1.4h-9.7l0.1-1.3l3.2-0.8v-11.9c0-1.6-0.4-2.9-1.1-3.7
		c-0.7-0.9-1.8-1.3-3.2-1.3c-1.8,0-3.6,1-5.5,2.9v14l3.4,0.7l-0.2,1.4h-9.7l0.2-1.3l3.2-0.8v-11.9c0-1.5-0.4-2.8-1.1-3.7
		s-1.8-1.4-3.1-1.4c-1.1,0-2.1,0.3-3.1,0.8c-1,0.5-1.9,1.2-2.5,2v14.2l3.5,0.7l-0.2,1.4H314.3z"/>
	<path d="M353.2,189.6l0.2-1.3l3.7-0.8v-16.3l-3.8-1l0.1-1.3l6.6-0.7l0.3,0.3l-0.3,3.2h0.2c0.9-1.1,2-2,3.3-2.8
		c1.3-0.8,2.7-1.2,4.2-1.2c1.3,0,2.4,0.3,3.3,1c0.9,0.7,1.6,1.7,1.9,3h0.3c0.8-1.1,1.9-2,3.2-2.8c1.3-0.8,2.7-1.2,4.1-1.2
		c2.1,0,3.5,0.6,4.4,1.8c0.9,1.2,1.3,3,1.3,5.2v12.5l3.5,0.7l-0.3,1.4h-9.7l0.1-1.3l3.2-0.8v-11.9c0-1.6-0.4-2.9-1.1-3.7
		c-0.7-0.9-1.8-1.3-3.2-1.3c-1.8,0-3.6,1-5.5,2.9v14l3.4,0.7l-0.2,1.4h-9.7l0.2-1.3l3.2-0.8v-11.9c0-1.5-0.4-2.8-1.1-3.7
		s-1.8-1.4-3.1-1.4c-1.1,0-2.1,0.3-3.1,0.8c-1,0.5-1.9,1.2-2.5,2v14.2l3.5,0.7l-0.2,1.4H353.2z"/>
</g>
<g>
	<path d="M198.8,918.5l0.1-1.5l6.7-1v-23.4h-6.3l0.1-1.5l9.4-1.6h0.7v26.5l6.5,0.7l-0.2,1.7H198.8z"/>
	<path d="M218.6,916.5c0-0.8,0.2-1.4,0.6-1.9c0.4-0.5,0.9-0.7,1.6-0.7c0.7,0,1.2,0.2,1.6,0.7c0.4,0.5,0.6,1.1,0.6,1.9
		c0,0.8-0.2,1.5-0.6,2c-0.4,0.5-1,0.8-1.6,0.8c-0.7,0-1.2-0.3-1.6-0.8C218.8,918,218.6,917.3,218.6,916.5z"/>
	<path d="M225.9,908.2c0-4.1,1.4-8,4.1-11.7c2.7-3.7,6-6.3,9.9-7.6l0.7,1.2c-5.7,2.5-9.2,7.1-10.5,13.5h0.2c1.8-1.6,3.8-2.4,6.2-2.4
		c2.3,0,4.2,0.8,5.6,2.4c1.4,1.6,2.1,3.6,2.1,6.1c0,2.7-0.9,4.9-2.8,6.7c-1.8,1.8-4.1,2.7-6.8,2.7c-1.5,0-2.9-0.3-4.1-0.9
		s-2.1-1.4-2.8-2.4c-0.7-1-1.2-2.2-1.5-3.4C226.1,911,225.9,909.7,225.9,908.2z M229.9,908.6c0,2.5,0.5,4.7,1.5,6.3
		c1,1.7,2.3,2.5,3.8,2.5c3.5,0,5.2-2.3,5.2-6.9c0-2-0.5-3.7-1.5-5.1c-1-1.4-2.3-2.1-4.1-2.1c-1,0-2,0.2-2.9,0.6
		c-0.9,0.4-1.5,0.8-1.8,1.3C230,906.1,229.9,907.2,229.9,908.6z"/>
	<path d="M246.7,916.7l5.8-5c1.5-1.3,2.8-2.5,3.8-3.5c1-1,1.9-2.1,2.7-3.2c0.8-1.1,1.4-2.3,1.8-3.4c0.4-1.1,0.6-2.4,0.6-3.6
		c0-2-0.4-3.7-1.3-5c-0.8-1.3-2.2-2-4-2c-1.2,0-2.3,0.3-3.1,0.8c-0.9,0.5-1.5,1.1-1.9,1.9l-1,5.9l-1.4-0.2l-0.2-6.6
		c0.7-0.9,1.9-1.8,3.6-2.6c1.7-0.8,3.4-1.1,5.2-1.1c2.6,0,4.6,0.7,6.1,2.2c1.5,1.4,2.2,3.6,2.2,6.3c0,0.6-0.1,1.3-0.2,1.9
		c-0.1,0.6-0.3,1.2-0.5,1.9c-0.3,0.6-0.5,1.2-0.8,1.7c-0.3,0.5-0.6,1.1-1.1,1.7c-0.5,0.6-0.9,1.2-1.3,1.6c-0.4,0.4-0.9,1-1.6,1.6
		c-0.7,0.6-1.2,1.2-1.6,1.5c-0.4,0.4-1,0.9-1.9,1.6s-1.5,1.2-1.9,1.5c-0.4,0.3-1.1,0.9-2,1.6l-1.9,1.5h12.2l2.3-5.9l1.3,0.2
		l-1.1,8.6h-18.7L246.7,916.7z"/>
	<path d="M276.8,908.6c0-3.5,0.9-6.4,2.8-8.5c1.9-2.2,4.2-3.2,6.9-3.2c1.9,0,3.3,0.4,4.2,1.2c0.9,0.8,1.4,1.7,1.4,2.8
		c0,1.4-0.8,2.2-2.3,2.4c-0.5-1.4-1.1-2.5-1.8-3.3c-0.7-0.8-1.6-1.2-2.7-1.2c-1.5,0-2.7,0.7-3.7,2.1c-1,1.4-1.5,3.4-1.5,5.9
		c0,2.9,0.6,5.3,1.9,7.2c1.3,1.9,3,2.8,5.2,2.8c2,0,3.8-0.6,5.3-1.9l0.5,1.1c-0.7,0.9-1.7,1.6-3.1,2.3c-1.4,0.6-2.9,1-4.4,1
		c-2.7,0-4.9-1-6.5-3S276.8,911.6,276.8,908.6z"/>
	<path d="M295.4,918.5l0.2-1.3l3.7-0.8v-16.3l-3.8-1l0.1-1.3l6.6-0.7l0.3,0.3l-0.3,3.2h0.2c0.9-1.1,2-2,3.3-2.8
		c1.3-0.8,2.7-1.2,4.2-1.2c1.3,0,2.4,0.3,3.3,1c0.9,0.7,1.6,1.7,1.9,3h0.3c0.8-1.1,1.9-2,3.2-2.8c1.3-0.8,2.7-1.2,4.1-1.2
		c2.1,0,3.5,0.6,4.4,1.8c0.9,1.2,1.3,3,1.3,5.2v12.5l3.5,0.7l-0.3,1.4H322l0.1-1.3l3.2-0.8v-11.9c0-1.6-0.4-2.9-1.1-3.7
		c-0.7-0.9-1.8-1.3-3.2-1.3c-1.8,0-3.6,1-5.5,2.9v14l3.4,0.7l-0.2,1.4H309l0.2-1.3l3.2-0.8v-11.9c0-1.5-0.4-2.8-1.1-3.7
		s-1.8-1.4-3.1-1.4c-1.1,0-2.1,0.3-3.1,0.8c-1,0.5-1.9,1.2-2.5,2v14.2l3.5,0.7l-0.2,1.4H295.4z"/>
</g>
<g>
	<path d="M564.5,1247.3l15.1-18.9l1.2,0.4c-0.1,2.9-0.2,6.9-0.2,12v5.4h6.2l-0.4,2.6h-5.8v6.5l5,0.6l-0.3,1.6h-14.5l0.2-1.4l6-0.9
		v-6.5H565L564.5,1247.3z M568.1,1246.2h8.8v-11.9L568.1,1246.2z"/>
	<path d="M589.1,1250.6c0-2.8,1.9-5.3,5.6-7.5v-0.2c-3-2-4.5-4.5-4.5-7.3c0-2.1,0.8-3.8,2.3-5.3c1.5-1.5,3.4-2.2,5.7-2.2
		c2.2,0,4,0.6,5.3,1.9c1.3,1.3,1.9,2.9,1.9,4.8c0,1.6-0.5,3-1.4,4.3s-2,2.3-3.4,3l-0.1,0.1c2.1,1.4,3.5,2.7,4.5,3.8
		c0.9,1.2,1.4,2.6,1.4,4.2c0,2.3-0.9,4.1-2.6,5.6c-1.8,1.5-4,2.2-6.8,2.2c-2.3,0-4.2-0.7-5.7-2.1
		C589.9,1254.6,589.1,1252.8,589.1,1250.6z M592.5,1249.8c0,2,0.6,3.5,1.9,4.7c1.2,1.2,2.6,1.8,4.1,1.8c1.5,0,2.7-0.4,3.6-1.2
		c0.9-0.8,1.3-1.9,1.3-3.3c0-1.3-0.6-2.5-1.8-3.7c-1.2-1.2-3-2.6-5.6-4.2c-1.1,0.8-2,1.7-2.6,2.6
		C592.8,1247.3,592.5,1248.5,592.5,1249.8z M593.2,1234.1c0,1.2,0.5,2.4,1.4,3.5c1,1.1,2.5,2.4,4.8,3.8c2.1-1.4,3.1-3.3,3.1-5.7
		c0-1.7-0.5-3.2-1.4-4.3c-1-1.2-2.1-1.8-3.4-1.8c-1.4,0-2.5,0.4-3.3,1.3C593.6,1231.8,593.2,1232.8,593.2,1234.1z"/>
	<path d="M616.7,1247.6c0-3.5,0.9-6.4,2.8-8.5c1.9-2.2,4.2-3.2,6.9-3.2c1.9,0,3.3,0.4,4.2,1.2c0.9,0.8,1.4,1.7,1.4,2.8
		c0,1.4-0.8,2.2-2.3,2.4c-0.5-1.4-1.1-2.5-1.8-3.3c-0.7-0.8-1.6-1.2-2.7-1.2c-1.5,0-2.7,0.7-3.7,2.1c-1,1.4-1.5,3.4-1.5,5.9
		c0,2.9,0.6,5.3,1.9,7.2c1.3,1.9,3,2.8,5.2,2.8c2,0,3.8-0.6,5.3-1.9l0.5,1.1c-0.7,0.9-1.7,1.6-3.1,2.3c-1.4,0.6-2.9,1-4.4,1
		c-2.7,0-4.9-1-6.5-3S616.7,1250.6,616.7,1247.6z"/>
	<path d="M635.3,1257.5l0.2-1.3l3.7-0.8v-16.3l-3.8-1l0.1-1.3l6.6-0.7l0.3,0.3l-0.3,3.2h0.2c0.9-1.1,2-2,3.3-2.8
		c1.3-0.8,2.7-1.2,4.2-1.2c1.3,0,2.4,0.3,3.3,1c0.9,0.7,1.6,1.7,1.9,3h0.3c0.8-1.1,1.9-2,3.2-2.8c1.3-0.8,2.7-1.2,4.1-1.2
		c2.1,0,3.5,0.6,4.4,1.8c0.9,1.2,1.3,3,1.3,5.2v12.5l3.5,0.7l-0.3,1.4h-9.7l0.1-1.3l3.2-0.8v-11.9c0-1.6-0.4-2.9-1.1-3.7
		c-0.7-0.9-1.8-1.3-3.2-1.3c-1.8,0-3.6,1-5.5,2.9v14l3.4,0.7l-0.2,1.4h-9.7l0.2-1.3l3.2-0.8v-11.9c0-1.5-0.4-2.8-1.1-3.7
		s-1.8-1.4-3.1-1.4c-1.1,0-2.1,0.3-3.1,0.8c-1,0.5-1.9,1.2-2.5,2v14.2l3.5,0.7l-0.2,1.4H635.3z"/>
</g>
</svg>
