<?xml version="1.0" encoding="utf-8"?>
<!-- Generator: Adobe Illustrator 27.2.0, SVG Export Plug-In . SVG Version: 6.00 Build 0)  -->
<svg version="1.1" id="CLOSET" xmlns="http://www.w3.org/2000/svg" xmlns:xlink="http://www.w3.org/1999/xlink" x="0px" y="0px"
	 viewBox="0 0 4736.6 1890" style="enable-background:new 0 0 4736.6 1890;" xml:space="preserve">
<style type="text/css">
	.st0{fill:#F7F7F7;stroke:#000000;stroke-width:14;stroke-miterlimit:10;}
	.st1{fill:none;stroke:#000000;stroke-width:14;stroke-miterlimit:10;}
	.st2{fill:none;stroke:#000000;stroke-width:12;stroke-miterlimit:10;}
	.st3{fill:none;}
	.st4{fill:none;stroke:#000000;stroke-width:10;stroke-miterlimit:10;}
	.st5{fill:none;stroke:#000000;stroke-width:8;stroke-miterlimit:10;}
</style>
<g>
	<rect id="EXTREMO-INFERIOR" x="1022.3" y="1458.9" class="st0" width="3279.8" height="85"/>
	<polyline class="st1" points="1022.3,1458.9 137.7,896.7 137.7,988.4 1018.9,1544.9 	"/>
	
		<line id="EXTREMO-INFERIOR_00000066493160204181325770000008260171296335134393_" class="st1" x1="130.9" y1="891.2" x2="3412.6" y2="905.7"/>
	<line class="st1" x1="4305.2" y1="1457.9" x2="3409" y2="904.6"/>
	<line class="st2" x1="1084.2" y1="1665.1" x2="4232.7" y2="1670.3"/>
	<path class="st2" d="M4232.8,1666.2"/>
	<path class="st2" d="M2892.1,1664"/>
	<line class="st2" x1="1084.2" y1="1602.6" x2="1084.2" y2="1720.3"/>
	<line class="st2" x1="4232.8" y1="1601.3" x2="4232.8" y2="1719"/>
	<polygon class="st3" points="2545.7,1758.9 2568.8,1758.9 2568.8,1758.9 	"/>
	<line class="st2" x1="960.4" y1="1596.2" x2="960.4" y2="1713.9"/>
	<polyline class="st1" points="960.4,1670.3 140.3,1145 130.9,1139.1 	"/>
	<path class="st1" d="M389.1,1303.1"/>
	<line class="st2" x1="130.9" y1="1083.9" x2="130.9" y2="1201.5"/>
	<g>
		<path d="M239.9,1495.5l-1.2-3.4l39.2-49.3l3.1,1c-0.4,7.5-0.6,18-0.6,31.3v14h16.2l-1,6.7h-15.2v17l13.1,1.6l-0.7,4.1h-37.6
			l0.4-3.6l15.7-2.4v-16.9L239.9,1495.5L239.9,1495.5z M248.1,1489.1h23v-30.8L248.1,1489.1z"/>
		<path d="M323.5,1520.1c-3.9,0-7.4-0.8-10.5-2.5s-5.7-4-7.5-7s-2.8-6.4-2.8-10.1c0-7.3,4.9-13.9,14.6-19.6v-0.4
			c-3.8-2.6-6.7-5.4-8.7-8.5s-3-6.6-3-10.6c0-3.5,0.9-6.7,2.7-9.6c1.8-3,4.3-5.3,7.5-7.1s6.7-2.6,10.7-2.6c3.9,0,7.3,0.8,10.1,2.3
			c2.8,1.5,5,3.6,6.5,6.3c1.5,2.6,2.2,5.6,2.2,8.9c0,4.1-1.2,7.9-3.5,11.3s-5.3,6.1-8.8,7.9l-0.2,0.4c3.6,2.4,6.4,4.6,8.6,6.6
			s3.8,4.2,4.9,6.4c1.1,2.3,1.7,4.9,1.7,7.7c0,3.9-1,7.3-3.1,10.4s-5,5.5-8.7,7.2S328.2,1520.1,323.5,1520.1z M320.7,1483.1
			c-2.9,2.2-5.2,4.4-6.7,6.7c-1.6,2.3-2.3,5.3-2.3,8.9c0,3.4,0.8,6.4,2.3,9c1.6,2.6,3.5,4.5,5.9,5.8s4.7,2,7.1,2c3.9,0,7-1,9.3-3.1
			s3.5-5,3.5-8.7c0-3.4-1.5-6.6-4.6-9.7C332.1,1490.8,327.3,1487.2,320.7,1483.1z M324.8,1446c-2.4,0-4.4,0.5-6.2,1.6
			s-3.1,2.5-4,4.3s-1.4,3.8-1.4,6c0,3.2,1.2,6.2,3.7,9.1s6.6,6.2,12.4,9.9c2.5-1.7,4.5-3.7,5.9-6c1.4-2.4,2.2-5.3,2.2-8.8
			c0-2.9-0.6-5.6-1.7-8s-2.7-4.4-4.6-5.8C329.1,1446.7,327,1446,324.8,1446z"/>
		<path d="M409.1,1520c-6.5,0-12.4-1.6-17.7-4.8s-9.5-7.8-12.6-13.7s-4.6-13-4.6-21.1c0-6.7,1.4-13.3,4.2-19.9
			c2.8-6.6,7.1-12,12.9-16.3s12.8-6.4,21.2-6.4c9.4,0,16.8,2.1,22.3,6.3l-2,21.3l-4.3-0.6l-2.3-15.2c-3.6-4.6-9.2-6.9-17-6.9
			c-4.5,0-8.6,1.5-12.4,4.3c-3.8,2.9-6.8,7-9,12.2s-3.3,11.2-3.3,18c0,7.6,1.2,14.1,3.7,19.5s5.9,9.5,10.3,12.3s9.4,4.2,15,4.2
			c4.2,0,8.3-1,12.3-3s7.4-4.6,10.4-7.6l1.8,3.6c-1.7,2.2-3.9,4.4-6.8,6.5s-6.2,3.9-10.1,5.3C417.3,1519.3,413.3,1520,409.1,1520z"
			/>
		<path d="M443.4,1518.4l0.5-3.4l10.7-2.4l4.9-67.2l-11.7-2.3l0.6-3.6h22.9l4.8,12.1l18.2,49.8l21.2-52.3l4.3-9.6h22.9l-0.4,3.6
			l-10.9,2.2l3.4,67.8l11.5,1.7l-0.4,3.8h-31.7l0.5-3.4l10.7-2.4l-3.6-63.2l-26.9,65.5l-5.6,0.9l-23.9-64.6l-4.5,61.8l11.6,1.7
			l-0.6,3.8h-28.5V1518.4z"/>
	</g>
	<circle class="st1" cx="4271.6" cy="489.6" r="414.5"/>
	<line class="st1" x1="3633.4" y1="1501.4" x2="4008.9" y2="810.2"/>
	<circle cx="3629.1" cy="1499.9" r="22.7"/>
	<line class="st1" x1="3901.1" y1="303.6" x2="4642.1" y2="303.6"/>
	<line class="st1" x1="3965.8" y1="766.6" x2="4580" y2="766.6"/>
	<line class="st4" x1="4127.1" y1="332.8" x2="4127.1" y2="737.4"/>
	<line class="st4" x1="4082.1" y1="332.8" x2="4169.6" y2="332.8"/>
	<line class="st4" x1="4083.4" y1="737.4" x2="4170.8" y2="737.4"/>
	<g>
		<path d="M4201.5,575l0.3-3.8l17.4-2.7v-60.7h-16.4l0.3-3.9l24.5-4.1h1.7v69l17,1.8l-0.6,4.4H4201.5z"/>
		<path d="M4258.7,577.1c-1.7,0-3.1-0.7-4.2-2s-1.6-3.1-1.6-5.2c0-2,0.5-3.6,1.6-4.9c1-1.2,2.4-1.8,4.2-1.8c1.7,0,3.2,0.6,4.3,1.8
			c1.1,1.2,1.7,2.9,1.7,4.9c0,2.1-0.5,3.8-1.6,5.1C4261.9,576.4,4260.5,577.1,4258.7,577.1z"/>
		<path d="M4289.2,576c-3.5,0-6.7-0.5-9.6-1.6c-2.9-1-5.6-2.7-8-5l1.8-17.8l4.3,0.9l1.1,12.7c1.7,2.1,3.7,3.6,5.9,4.6
			c2.2,1,4.7,1.5,7.3,1.5c3,0,5.6-0.7,7.8-2c2.2-1.3,3.9-3.2,5.1-5.6c1.2-2.4,1.8-5.2,1.8-8.3c0-6.3-2.6-11.2-7.8-14.8
			c-5.2-3.6-12.4-5.7-21.6-6.3l7.3-33.8l28.5-1.7l-1.3,9.5l-24.4,1.1l-2.8,16.6c7.2,0.5,13.2,1.9,17.9,4.2c4.7,2.3,8.1,5.3,10.3,9
			c2.2,3.7,3.3,7.8,3.3,12.4c0,4.3-1.2,8.3-3.5,12.1c-2.3,3.7-5.5,6.7-9.6,9C4298.9,574.9,4294.3,576,4289.2,576z"/>
		<path d="M4377.5,576.6c-6.5,0-12.4-1.6-17.7-4.8s-9.5-7.8-12.6-13.7s-4.6-13-4.6-21.1c0-6.7,1.4-13.3,4.2-19.9
			c2.8-6.6,7.1-12,12.9-16.3s12.8-6.4,21.2-6.4c9.4,0,16.8,2.1,22.3,6.3l-2,21.3l-4.3-0.6l-2.3-15.2c-3.6-4.6-9.2-6.9-17-6.9
			c-4.5,0-8.6,1.5-12.4,4.3c-3.8,2.9-6.8,7-9,12.2c-2.2,5.2-3.3,11.2-3.3,18c0,7.6,1.2,14.1,3.7,19.5s5.9,9.5,10.3,12.3
			s9.4,4.2,15,4.2c4.2,0,8.3-1,12.3-3s7.4-4.6,10.4-7.6l1.8,3.6c-1.7,2.2-3.9,4.4-6.8,6.5s-6.2,3.9-10.1,5.3
			C4385.7,575.9,4381.7,576.6,4377.5,576.6z"/>
		<path d="M4411.8,575l0.5-3.4l10.7-2.4l4.9-67.2l-11.7-2.3l0.6-3.6h22.9l4.8,12.1l18.2,49.8l21.2-52.3l4.3-9.6h22.9l-0.4,3.6
			l-10.9,2.2l3.4,67.8l11.5,1.7l-0.4,3.8h-31.7l0.5-3.4l10.7-2.4L4490,506l-26.9,65.5l-5.6,0.9l-23.9-64.6l-4.5,61.8l11.6,1.7
			l-0.6,3.8h-28.3V575z"/>
	</g>
	<path class="st5" d="M4285.9,737.2"/>
	<g>
		<path d="M2571.9,1759.9l1.9-24.1h52.2v3.6l-29.6,79.5l-10.9-1.2l32.4-72.7h-37.7l-4.6,15.5L2571.9,1759.9z"/>
		<path d="M2652.5,1818.8c-3.1,0-6-0.4-8.9-1.2c-2.8-0.8-5.2-1.8-7.2-3.1c-2-1.3-3.4-2.7-4.3-4.1l3.1-18l4.6,0.8l0.7,13.9
			c1,1.8,2.8,3.4,5.3,4.9c2.5,1.4,5.2,2.1,8,2.1c3.5,0,6.5-0.7,9.2-2.2c2.6-1.4,4.7-3.5,6.2-6.1c1.5-2.6,2.2-5.7,2.2-9.2
			c0-3.4-1-6.5-3-9.2c-2-2.7-4.7-4.8-8.2-6.4c-3.5-1.5-7.4-2.4-11.8-2.5l-0.4-3.4c5.2-2.3,9.9-5.2,14-8.7c4.1-3.5,6.2-8,6.2-13.5
			c0-2.4-0.5-4.6-1.4-6.8c-0.9-2.2-2.3-4-4.2-5.3c-1.9-1.4-4.1-2.1-6.8-2.1c-4.5,0-8.4,1.8-11.6,5.5l-2.9,15.3l-4.4-0.8l-0.5-17
			c2.1-2,5.2-3.9,9.3-5.6c4.1-1.7,8.6-2.6,13.6-2.6c3.8,0,7.3,0.7,10.4,2.1c3.1,1.4,5.5,3.4,7.3,6s2.7,5.6,2.7,9.1
			c0,3.5-0.9,6.6-2.7,9.5c-1.8,2.9-4.1,5.3-6.9,7.3c-2.8,2-5.7,3.6-8.8,4.7v0.7c4.1,0.6,7.8,1.8,11,3.5c3.3,1.7,5.8,4,7.7,6.7
			c1.9,2.8,2.8,5.9,2.8,9.5c0,4.8-1.4,9.2-4.2,13.2c-2.8,3.9-6.5,7-11.1,9.3C2662.6,1817.7,2657.7,1818.8,2652.5,1818.8z"/>
		<path d="M2748.6,1818.3c-7,0-13.4-1.7-19.1-5.1c-5.7-3.4-10.2-8.4-13.5-14.8c-3.3-6.4-5-14-5-22.7c0-7.2,1.5-14.3,4.5-21.4
			c3-7.1,7.6-12.9,13.8-17.5c6.2-4.6,13.8-6.9,22.8-6.9c10.1,0,18.1,2.3,24,6.8l-2.1,22.9l-4.6-0.7l-2.5-16.4
			c-3.8-5-9.9-7.5-18.3-7.5c-4.8,0-9.3,1.6-13.3,4.7c-4.1,3.1-7.3,7.5-9.6,13.2c-2.4,5.7-3.6,12.1-3.6,19.3c0,8.2,1.3,15.2,4,21
			c2.7,5.8,6.3,10.3,11,13.3c4.7,3,10.1,4.5,16.1,4.5c4.6,0,9-1.1,13.2-3.3s8-4.9,11.2-8.2l2,3.9c-1.8,2.4-4.2,4.7-7.3,7
			c-3.1,2.3-6.7,4.2-10.8,5.7C2757.4,1817.5,2753.1,1818.3,2748.6,1818.3z"/>
		<path d="M2785.5,1816.6l0.5-3.7l11.5-2.6l5.3-72.4l-12.6-2.5l0.6-3.8h24.6l5.1,13.1l19.6,53.7l22.8-56.3l4.6-10.4h24.6l-0.5,3.8
			l-11.7,2.3l3.7,73l12.4,1.8l-0.4,4.1h-34.1l0.5-3.7l11.6-2.6l-3.9-68l-28.9,70.5l-6.1,1l-25.7-69.6l-4.9,66.5l12.5,1.8l-0.7,4.1
			H2785.5z"/>
	</g>
</g>
</svg>
