<?xml version="1.0" encoding="utf-8"?>
<!-- Generator: Adobe Illustrator 27.2.0, SVG Export Plug-In . SVG Version: 6.00 Build 0)  -->
<svg version="1.1" id="CLOSET" xmlns="http://www.w3.org/2000/svg" xmlns:xlink="http://www.w3.org/1999/xlink" x="0px" y="0px"
	 viewBox="0 0 4736.6 1890" style="enable-background:new 0 0 4736.6 1890;" xml:space="preserve">
<style type="text/css">
	.st0{fill:#F7F7F7;stroke:#000000;stroke-width:14;stroke-miterlimit:10;}
	.st1{fill:none;stroke:#000000;stroke-width:14;stroke-miterlimit:10;}
	.st2{fill:none;stroke:#000000;stroke-width:12;stroke-miterlimit:10;}
	.st3{fill:none;}
	.st4{fill:none;stroke:#000000;stroke-width:10;stroke-miterlimit:10;}
	.st5{fill:none;stroke:#000000;stroke-width:8;stroke-miterlimit:10;}
</style>
<g>
	<rect id="EXTREMO-INFERIOR" x="1022.3" y="1458.9" class="st0" width="3279.8" height="85"/>
	<polyline class="st1" points="1022.3,1458.9 137.7,896.7 137.7,988.4 1018.9,1544.9 	"/>
	
		<line id="EXTREMO-INFERIOR_00000066493160204181325770000008260171296335134393_" class="st0" x1="130.9" y1="891.2" x2="3412.6" y2="905.7"/>
	<line class="st1" x1="4305.2" y1="1457.9" x2="3409" y2="904.6"/>
	<line class="st2" x1="1084.2" y1="1665.1" x2="4232.7" y2="1670.3"/>
	<path class="st2" d="M4232.8,1666.2"/>
	<path class="st2" d="M2892.1,1664"/>
	<line class="st2" x1="1084.2" y1="1602.6" x2="1084.2" y2="1720.3"/>
	<line class="st2" x1="4232.8" y1="1601.3" x2="4232.8" y2="1719"/>
	<rect x="2545.7" y="1758.9" class="st3" width="23.1" height="0"/>
	<g>
		<path d="M2512.9,1829.6l-0.4-4.7l15.1-12.9c5.3-4.5,9.6-8.6,12.8-12.3c3.3-3.6,5.8-7.4,7.5-11.2c1.7-3.8,2.6-7.9,2.6-12.3
			c0-5.2-1.1-9.5-3.3-13s-5.6-5.2-10.3-5.2c-3.2,0-5.9,0.7-8.2,2c-2.3,1.3-3.9,2.9-4.9,4.8l-2.6,15.3l-3.6-0.5l-0.6-17.1
			c1.2-1.6,3-3.1,5.4-4.6c2.4-1.5,5.1-2.7,8.2-3.6c3.1-0.9,6.2-1.4,9.3-1.4c6.7,0,12,1.9,15.9,5.6c3.9,3.8,5.8,9.3,5.8,16.5
			c0,5.3-1.5,10.3-4.4,15c-2.9,4.7-6.5,9.1-10.9,13c-4.3,4-10.3,9-18,15.1l-5,3.9h31.7l6-15.4l3.5,0.5l-3,22.4H2512.9z"/>
		<path d="M2590.2,1829.6l0.5-3.4l10.7-2.4l4.9-67.2l-11.7-2.3l0.6-3.6h22.9l4.8,12.1l18.2,49.8l21.2-52.3l4.3-9.6h22.9l-0.4,3.6
			l-10.9,2.2l3.4,67.8l11.5,1.7l-0.4,3.8h-31.7l0.5-3.4l10.7-2.4l-3.6-63.2l-26.9,65.5l-5.6,0.9l-23.9-64.6l-4.5,61.8l11.6,1.7
			l-0.6,3.8H2590.2z"/>
		<path d="M2699,1750.6h68l-2.2,21.3l-4.6-0.7l-1.7-16.1h-21.5v68.5l11.5,2l-0.8,4h-31.5l0.4-3.7l10.9-2.4v-68.4h-20.6l-2.9,16.6
			l-4.5-0.7L2699,1750.6z"/>
		<path d="M2794.3,1831.2c-4.4,0-8.5-0.9-12.3-2.6c-3.8-1.7-6.7-3.9-8.9-6.5l1.4-17.5l4.8,0.7l2.1,12.9c1.3,2.3,3.4,4.2,6.2,5.7
			c2.8,1.5,5.8,2.2,9.1,2.2c2.5,0,5-0.5,7.3-1.6c2.3-1,4.2-2.6,5.7-4.7c1.5-2.1,2.2-4.6,2.2-7.6c0-2.6-0.7-4.9-2.2-7
			c-1.5-2.1-3.3-3.9-5.5-5.5c-2.2-1.6-5.1-3.4-8.9-5.6c-4.4-2.6-7.9-4.9-10.5-6.9c-2.6-1.9-4.9-4.4-6.7-7.2c-1.8-2.9-2.8-6.2-2.8-10
			c0-4.3,1.1-8.1,3.3-11.3c2.2-3.2,5-5.6,8.5-7.3c3.5-1.7,7.2-2.5,11.1-2.5c3.5,0,6.9,0.6,10,1.7s5.9,2.8,8.2,5l-1.7,18.8l-4.6-0.6
			l-1.7-13.8c-0.9-1.7-2.5-3.2-4.9-4.6c-2.4-1.4-4.8-2-7.2-2c-2.3,0-4.4,0.5-6.3,1.5c-1.9,1-3.4,2.4-4.5,4.3
			c-1.1,1.9-1.7,4.2-1.7,6.9c0,2.9,0.8,5.4,2.3,7.7c1.6,2.3,3.5,4.2,5.8,5.8c2.3,1.6,5.4,3.6,9.4,6c4.3,2.5,7.8,4.8,10.3,6.6
			c2.6,1.9,4.7,4.2,6.5,6.9c1.8,2.7,2.7,5.9,2.7,9.4c0,4.3-1.2,8.2-3.6,11.6c-2.4,3.5-5.6,6.1-9.7,8.1
			C2803.8,1830.2,2799.2,1831.2,2794.3,1831.2z"/>
	</g>
	<line class="st2" x1="960.4" y1="1596.2" x2="960.4" y2="1713.9"/>
	<polyline class="st1" points="960.4,1670.3 140.3,1145 130.9,1139.1 	"/>
	<path class="st1" d="M389.1,1303.1"/>
	<line class="st2" x1="130.9" y1="1083.9" x2="130.9" y2="1201.5"/>
	<g>
		<path d="M239.9,1495.5l-1.2-3.4l39.2-49.3l3.1,1c-0.4,7.5-0.6,18-0.6,31.3v14h16.2l-1,6.7h-15.2v17l13.1,1.6l-0.7,4.1h-37.6
			l0.4-3.6l15.7-2.4v-16.9H239.9z M248.1,1489.1h23v-30.8L248.1,1489.1z"/>
		<path d="M323.5,1520.1c-3.9,0-7.4-0.8-10.5-2.5s-5.7-4-7.5-7c-1.8-3-2.8-6.4-2.8-10.1c0-7.3,4.9-13.9,14.6-19.6v-0.4
			c-3.8-2.6-6.7-5.4-8.7-8.5s-3-6.6-3-10.6c0-3.5,0.9-6.7,2.7-9.6c1.8-3,4.3-5.3,7.5-7.1s6.7-2.6,10.7-2.6c3.9,0,7.3,0.8,10.1,2.3
			c2.8,1.5,5,3.6,6.5,6.3c1.5,2.6,2.2,5.6,2.2,8.9c0,4.1-1.2,7.9-3.5,11.3c-2.3,3.4-5.3,6.1-8.8,7.9l-0.2,0.4
			c3.6,2.4,6.4,4.6,8.6,6.6s3.8,4.2,4.9,6.4c1.1,2.3,1.7,4.9,1.7,7.7c0,3.9-1,7.3-3.1,10.4c-2.1,3.1-5,5.5-8.7,7.2
			S328.2,1520.1,323.5,1520.1z M320.7,1483.1c-2.9,2.2-5.2,4.4-6.7,6.7c-1.6,2.3-2.3,5.3-2.3,8.9c0,3.4,0.8,6.4,2.3,9
			c1.6,2.6,3.5,4.5,5.9,5.8c2.4,1.3,4.7,2,7.1,2c3.9,0,7-1,9.3-3.1c2.3-2.1,3.5-5,3.5-8.7c0-3.4-1.5-6.6-4.6-9.7
			C332.1,1490.8,327.3,1487.2,320.7,1483.1z M324.8,1446c-2.4,0-4.4,0.5-6.2,1.6s-3.1,2.5-4,4.3c-0.9,1.8-1.4,3.8-1.4,6
			c0,3.2,1.2,6.2,3.7,9.1c2.5,2.9,6.6,6.2,12.4,9.9c2.5-1.7,4.5-3.7,5.9-6c1.4-2.4,2.2-5.3,2.2-8.8c0-2.9-0.6-5.6-1.7-8
			s-2.7-4.4-4.6-5.8C329.1,1446.7,327,1446,324.8,1446z"/>
		<path d="M409.1,1520c-6.5,0-12.4-1.6-17.7-4.8s-9.5-7.8-12.6-13.7s-4.6-13-4.6-21.1c0-6.7,1.4-13.3,4.2-19.9
			c2.8-6.6,7.1-12,12.9-16.3c5.8-4.3,12.8-6.4,21.2-6.4c9.4,0,16.8,2.1,22.3,6.3l-2,21.3l-4.3-0.6l-2.3-15.2
			c-3.6-4.6-9.2-6.9-17-6.9c-4.5,0-8.6,1.5-12.4,4.3c-3.8,2.9-6.8,7-9,12.2c-2.2,5.2-3.3,11.2-3.3,18c0,7.6,1.2,14.1,3.7,19.5
			c2.5,5.4,5.9,9.5,10.3,12.3c4.4,2.8,9.4,4.2,15,4.2c4.2,0,8.3-1,12.3-3s7.4-4.6,10.4-7.6l1.8,3.6c-1.7,2.2-3.9,4.4-6.8,6.5
			c-2.9,2.1-6.2,3.9-10.1,5.3C417.3,1519.3,413.3,1520,409.1,1520z"/>
		<path d="M443.4,1518.4l0.5-3.4l10.7-2.4l4.9-67.2l-11.7-2.3l0.6-3.6h22.9l4.8,12.1l18.2,49.8l21.2-52.3l4.3-9.6h22.9l-0.4,3.6
			l-10.9,2.2l3.4,67.8l11.5,1.7l-0.4,3.8h-31.7l0.5-3.4l10.7-2.4l-3.6-63.2l-26.9,65.5l-5.6,0.9l-23.9-64.6l-4.5,61.8l11.6,1.7
			l-0.6,3.8H443.4z"/>
	</g>
	<circle class="st1" cx="4271.6" cy="489.6" r="414.5"/>
	<line class="st1" x1="3633.4" y1="1501.4" x2="4008.9" y2="810.2"/>
	<circle cx="3629.1" cy="1499.9" r="22.7"/>
	<line class="st1" x1="3901.1" y1="303.6" x2="4642.1" y2="303.6"/>
	<line class="st1" x1="3965.8" y1="766.6" x2="4580" y2="766.6"/>
	<line class="st4" x1="4127.1" y1="332.8" x2="4127.1" y2="737.4"/>
	<line class="st4" x1="4082.1" y1="332.8" x2="4169.6" y2="332.8"/>
	<line class="st4" x1="4083.4" y1="737.4" x2="4170.8" y2="737.4"/>
	<g>
		<path d="M4201.5,575l0.3-3.8l17.4-2.7v-60.7h-16.4l0.3-3.9l24.5-4.1h1.7v69l17,1.8l-0.6,4.4H4201.5z"/>
		<path d="M4258.7,577.1c-1.7,0-3.1-0.7-4.2-2c-1.1-1.3-1.6-3.1-1.6-5.2c0-2,0.5-3.6,1.6-4.9c1-1.2,2.4-1.8,4.2-1.8
			c1.7,0,3.2,0.6,4.3,1.8c1.1,1.2,1.7,2.9,1.7,4.9c0,2.1-0.5,3.8-1.6,5.1C4261.9,576.4,4260.5,577.1,4258.7,577.1z"/>
		<path d="M4289.2,576c-3.5,0-6.7-0.5-9.6-1.6c-2.9-1-5.6-2.7-8-5l1.8-17.8l4.3,0.9l1.1,12.7c1.7,2.1,3.7,3.6,5.9,4.6
			c2.2,1,4.7,1.5,7.3,1.5c3,0,5.6-0.7,7.8-2c2.2-1.3,3.9-3.2,5.1-5.6c1.2-2.4,1.8-5.2,1.8-8.3c0-6.3-2.6-11.2-7.8-14.8
			c-5.2-3.6-12.4-5.7-21.6-6.3l7.3-33.8l28.5-1.7l-1.3,9.5l-24.4,1.1l-2.8,16.6c7.2,0.5,13.2,1.9,17.9,4.2c4.7,2.3,8.1,5.3,10.3,9
			c2.2,3.7,3.3,7.8,3.3,12.4c0,4.3-1.2,8.3-3.5,12.1c-2.3,3.7-5.5,6.7-9.6,9C4298.9,574.9,4294.3,576,4289.2,576z"/>
		<path d="M4377.5,576.6c-6.5,0-12.4-1.6-17.7-4.8s-9.5-7.8-12.6-13.7s-4.6-13-4.6-21.1c0-6.7,1.4-13.3,4.2-19.9
			c2.8-6.6,7.1-12,12.9-16.3c5.8-4.3,12.8-6.4,21.2-6.4c9.4,0,16.8,2.1,22.3,6.3l-2,21.3l-4.3-0.6l-2.3-15.2
			c-3.6-4.6-9.2-6.9-17-6.9c-4.5,0-8.6,1.5-12.4,4.3c-3.8,2.9-6.8,7-9,12.2c-2.2,5.2-3.3,11.2-3.3,18c0,7.6,1.2,14.1,3.7,19.5
			c2.5,5.4,5.9,9.5,10.3,12.3c4.4,2.8,9.4,4.2,15,4.2c4.2,0,8.3-1,12.3-3s7.4-4.6,10.4-7.6l1.8,3.6c-1.7,2.2-3.9,4.4-6.8,6.5
			c-2.9,2.1-6.2,3.9-10.1,5.3C4385.7,575.9,4381.7,576.6,4377.5,576.6z"/>
		<path d="M4411.8,575l0.5-3.4l10.7-2.4l4.9-67.2l-11.7-2.3l0.6-3.6h22.9l4.8,12.1l18.2,49.8l21.2-52.3l4.3-9.6h22.9l-0.4,3.6
			l-10.9,2.2l3.4,67.8l11.5,1.7l-0.4,3.8h-31.7l0.5-3.4l10.7-2.4L4490,506l-26.9,65.5l-5.6,0.9l-23.9-64.6l-4.5,61.8l11.6,1.7
			l-0.6,3.8H4411.8z"/>
	</g>
	<path class="st5" d="M4285.9,737.2"/>
</g>
</svg>
