<?xml version="1.0" encoding="utf-8"?>
<!-- Generator: Adobe Illustrator 27.2.0, SVG Export Plug-In . SVG Version: 6.00 Build 0)  -->
<svg version="1.1" id="CLOSET" xmlns="http://www.w3.org/2000/svg" xmlns:xlink="http://www.w3.org/1999/xlink" x="0px" y="0px"
	 viewBox="0 0 1425.7 1367.4" style="enable-background:new 0 0 1425.7 1367.4;" xml:space="preserve">
<style type="text/css">
	.st0{fill:#F7F7F7;stroke:#000000;stroke-width:6.0676;stroke-miterlimit:10;}
	.st1{fill:none;stroke:#000000;stroke-width:6.0676;stroke-miterlimit:10;}
	.st2{fill:none;stroke:#000000;stroke-width:4.334;stroke-miterlimit:10;}
	.st3{fill:none;stroke:#000000;stroke-width:3.4672;stroke-miterlimit:10;}
	.st4{fill:none;stroke:#000000;stroke-width:5.2008;stroke-miterlimit:10;}
	.st5{fill:none;}
</style>
<g>
	<rect id="EXTREMO-INFERIOR" x="673" y="389.7" class="st0" width="47.8" height="877.6"/>
	<polyline class="st1" points="720.7,389.7 1036.5,153 985,153 672.4,388.8 	"/>
	
		<line id="EXTREMO-INFERIOR_00000066493160204181325770000008260171296335134393_" class="st0" x1="1039.6" y1="151.2" x2="1031.4" y2="1029.3"/>
	<line class="st1" x1="721.3" y1="1268.1" x2="1032.1" y2="1028.3"/>
	<path class="st1" d="M808.2,220.3"/>
</g>
<g>
	<polyline class="st1" points="1035.5,1074.5 724.8,1322.7 721.3,1325.6 	"/>
	<path class="st1" d="M874.7,1216.6"/>
	<line class="st1" x1="720.8" y1="1294.8" x2="720.8" y2="1351.5"/>
	<line class="st1" x1="1035.5" y1="1040.9" x2="1035.5" y2="1097.6"/>
</g>
<ellipse class="st1" cx="543.7" cy="166.2" rx="152.7" ry="150.3"/>
<line class="st1" x1="789.7" y1="316.5" x2="666.6" y2="255.5"/>
<line class="st1" x1="407.2" y1="98.8" x2="680.2" y2="98.8"/>
<line class="st1" x1="431" y1="266.7" x2="657.3" y2="266.7"/>
<line class="st2" x1="490.5" y1="109.4" x2="490.5" y2="256.1"/>
<g>
	<path d="M517.8,197.2l0.1-1.4l6.4-1v-22h-6.1l0.1-1.4l9-1.5h0.6v25l6.3,0.6l-0.2,1.6L517.8,197.2z"/>
	<path d="M538.9,197.9c-0.6,0-1.2-0.2-1.5-0.7c-0.4-0.5-0.6-1.1-0.6-1.9c0-0.7,0.2-1.3,0.6-1.8c0.4-0.4,0.9-0.7,1.5-0.7
		c0.6,0,1.2,0.2,1.6,0.7c0.4,0.4,0.6,1,0.6,1.8c0,0.8-0.2,1.4-0.6,1.9C540.1,197.7,539.6,197.9,538.9,197.9z"/>
	<path d="M550.2,197.6c-1.3,0-2.5-0.2-3.6-0.6c-1.1-0.4-2.1-1-2.9-1.8l0.7-6.5l1.6,0.3l0.4,4.6c0.6,0.8,1.3,1.3,2.2,1.7
		c0.8,0.4,1.7,0.6,2.7,0.6c1.1,0,2.1-0.2,2.9-0.7c0.8-0.5,1.4-1.1,1.9-2c0.4-0.9,0.7-1.9,0.7-3c0-2.3-1-4.1-2.9-5.4
		c-1.9-1.3-4.6-2.1-8-2.3l2.7-12.2l10.5-0.6l-0.5,3.4l-9,0.4l-1,6c2.7,0.2,4.9,0.7,6.6,1.5c1.7,0.8,3,1.9,3.8,3.3
		c0.8,1.3,1.2,2.8,1.2,4.5c0,1.6-0.4,3-1.3,4.4c-0.9,1.4-2,2.4-3.6,3.2C553.7,197.2,552,197.6,550.2,197.6z"/>
	<path d="M582.7,197.8c-2.4,0-4.6-0.6-6.5-1.7c-2-1.2-3.5-2.8-4.6-5s-1.7-4.7-1.7-7.7c0-2.4,0.5-4.8,1.6-7.2c1-2.4,2.6-4.3,4.7-5.9
		c2.1-1.6,4.7-2.3,7.8-2.3c3.4,0,6.2,0.8,8.2,2.3l-0.7,7.7l-1.6-0.2l-0.8-5.5c-1.3-1.7-3.4-2.5-6.3-2.5c-1.7,0-3.2,0.5-4.6,1.6
		c-1.4,1.1-2.5,2.5-3.3,4.4c-0.8,1.9-1.2,4.1-1.2,6.5c0,2.7,0.5,5.1,1.4,7.1c0.9,2,2.2,3.5,3.8,4.5c1.6,1,3.4,1.5,5.5,1.5
		c1.6,0,3.1-0.4,4.5-1.1c1.4-0.7,2.7-1.7,3.8-2.8l0.7,1.3c-0.6,0.8-1.4,1.6-2.5,2.4c-1.1,0.8-2.3,1.4-3.7,1.9
		C585.7,197.5,584.2,197.8,582.7,197.8z"/>
	<path d="M595.3,197.2l0.2-1.2l3.9-0.9l1.8-24.4l-4.3-0.9l0.2-1.3h8.4l1.8,4.4L614,191l7.8-19l1.6-3.5l8.4,0l-0.2,1.3l-4,0.8
		l1.3,24.6l4.2,0.6l-0.1,1.4h-11.7l0.2-1.2l4-0.9l-1.3-22.9l-9.9,23.8l-2.1,0.3l-8.8-23.4l-1.7,22.4l4.3,0.6l-0.2,1.4L595.3,197.2z"
		/>
</g>
<path class="st3" d="M549,256"/>
<ellipse cx="790.2" cy="317.6" rx="8.3" ry="8.2"/>
<line class="st4" x1="629.8" y1="390.3" x2="627.9" y2="1266.7"/>
<path class="st4" d="M629.4,1266.7"/>
<path class="st4" d="M630.2,893.5"/>
<line class="st4" x1="652.8" y1="390.3" x2="609.5" y2="390.3"/>
<line class="st4" x1="653.3" y1="1266.7" x2="610" y2="1266.7"/>
<rect x="1053" y="558.9" class="st5" width="0" height="6.4"/>
<g>
	<path d="M488.2,884.8l0.1-1.4l6.4-1v-22h-6.1l0.1-1.4l9-1.5h0.6v25l6.3,0.6l-0.2,1.6H488.2z"/>
	<path d="M509.2,885.6c-0.6,0-1.2-0.2-1.5-0.7c-0.4-0.5-0.6-1.1-0.6-1.9c0-0.7,0.2-1.3,0.6-1.8c0.4-0.4,0.9-0.7,1.5-0.7
		c0.6,0,1.2,0.2,1.6,0.7c0.4,0.4,0.6,1,0.6,1.8c0,0.8-0.2,1.4-0.6,1.9C510.4,885.3,509.9,885.6,509.2,885.6z"/>
	<path d="M522.6,885.3c-2,0-3.6-0.5-4.9-1.4c-1.3-0.9-2.2-2.1-2.8-3.7c-0.6-1.5-0.9-3.2-0.9-5.1c0-2.5,0.6-5,1.8-7.5
		c1.2-2.5,2.8-4.7,4.9-6.6c2-1.9,4.3-3.3,6.8-4.1l0.7,1.2c-3,1.3-5.3,3.1-6.9,5.4c-1.6,2.3-2.6,4.7-3.2,7.4h0.2
		c1.7-1.5,3.7-2.3,6-2.3c1.5,0,2.8,0.3,3.9,1c1.1,0.7,2,1.6,2.6,2.8c0.6,1.2,0.9,2.6,0.9,4.1c0,1.7-0.4,3.2-1.2,4.5
		c-0.8,1.3-1.9,2.4-3.3,3.2C525.9,885,524.3,885.3,522.6,885.3z M518.1,872.4c-0.1,0.7-0.2,1.8-0.2,3.1c0,1.6,0.2,3,0.7,4.3
		c0.4,1.3,1,2.3,1.8,3c0.8,0.7,1.6,1.1,2.6,1.1c1.8,0,3-0.6,3.8-1.7c0.8-1.1,1.2-2.7,1.2-4.8c0-1.2-0.2-2.4-0.6-3.4
		c-0.4-1-1-1.8-1.8-2.4c-0.8-0.6-1.8-0.9-2.9-0.9c-1,0-1.9,0.2-2.8,0.6C519,871.5,518.4,872,518.1,872.4z"/>
	<path d="M543.8,885.5c-1.9,0-3.5-0.5-4.9-1.4c-1.4-0.9-2.5-2.5-3.4-4.6c-0.8-2.1-1.3-4.8-1.3-8.2c0-3,0.4-5.5,1.3-7.7
		c0.9-2.1,2-3.8,3.5-4.9c1.4-1.1,3.1-1.6,4.8-1.6c1.9,0,3.5,0.5,4.9,1.6c1.4,1.1,2.4,2.7,3.2,4.8c0.8,2.1,1.1,4.7,1.1,7.8
		c0,3.2-0.4,5.9-1.3,8c-0.9,2.1-2,3.7-3.4,4.7C547,885,545.5,885.5,543.8,885.5z M543.8,859c-1.9,0-3.4,1.1-4.2,3.2
		c-0.9,2.1-1.3,5.2-1.3,9.3c0,4.1,0.5,7.2,1.4,9.3c0.9,2.1,2.4,3.1,4.3,3.1c1.8,0,3.2-1,4-3.1c0.8-2,1.3-5.2,1.3-9.4
		c0-4-0.4-7-1.3-9.2C547,860,545.6,859,543.8,859z"/>
	<path d="M571.6,885.5c-1.7,0-3.3-0.4-4.6-1.3c-1.3-0.9-2.3-2.1-3-3.6c-0.7-1.5-1-3.2-1-5.1c0-2.2,0.4-4.2,1.3-5.8
		c0.8-1.7,2-3,3.4-3.9c1.4-0.9,3-1.4,4.7-1.4c1.2,0,2.3,0.2,3.1,0.5c0.8,0.4,1.4,0.8,1.8,1.4c0.4,0.6,0.6,1.2,0.6,1.8
		c0,1.3-0.7,2-2.2,2.3c-0.5-1.3-1.1-2.4-1.7-3.1c-0.7-0.7-1.5-1.1-2.6-1.1c-0.9,0-1.8,0.3-2.5,0.9c-0.7,0.6-1.3,1.5-1.8,2.6
		c-0.4,1.1-0.7,2.5-0.7,4.1c0,1.8,0.3,3.4,0.8,4.8c0.5,1.4,1.3,2.6,2.4,3.4c1,0.8,2.2,1.2,3.6,1.2c1.9,0,3.6-0.6,5.1-1.8l0.5,1.1
		c-0.4,0.5-1,1-1.7,1.5c-0.7,0.5-1.6,0.8-2.5,1.1C573.5,885.4,572.6,885.5,571.6,885.5z"/>
	<path d="M590.8,884.9h-9.9l0.2-1.2l3.6-0.7v-15.4l-3.7-0.9l0.1-1.2l6.3-0.7l0.3,0.3l-0.3,3.1h0.2c0.8-1,1.9-1.9,3.2-2.6
		c1.3-0.7,2.6-1.1,4-1.1c1.2,0,2.3,0.3,3.2,1c0.9,0.7,1.5,1.6,1.8,2.8h0.3c0.8-1,1.8-1.9,3.1-2.6c1.3-0.7,2.6-1.1,3.9-1.1
		c2,0,3.4,0.6,4.2,1.7c0.9,1.2,1.3,2.8,1.3,4.9v11.7l3.3,0.6l-0.3,1.3h-9.3l0.1-1.2l3-0.7v-11.2c0-1.5-0.4-2.7-1.1-3.5
		c-0.7-0.8-1.7-1.2-3.1-1.2c-1,0-2,0.3-2.9,0.8c-0.9,0.5-1.7,1.2-2.4,2v13.2l3.3,0.6l-0.2,1.3h-9.3l0.2-1.2l3.1-0.7v-11.2
		c0-1.4-0.4-2.6-1.1-3.5c-0.7-0.9-1.7-1.3-3-1.3c-1,0-2,0.2-3,0.7c-1,0.5-1.8,1.1-2.4,1.9v13.4l3.3,0.6L590.8,884.9z"/>
</g>
<g>
	<path d="M879.9,1240.3l-0.4-1.2l14.4-17.9l1.1,0.3c-0.1,2.7-0.2,6.5-0.2,11.3v5.1h6l-0.4,2.4h-5.6v6.2l4.8,0.6l-0.3,1.5h-13.8
		l0.2-1.3l5.8-0.9v-6.1H879.9z M882.9,1238h8.5v-11.2L882.9,1238z"/>
	<path d="M910.7,1249.2c-1.4,0-2.7-0.3-3.9-0.9c-1.2-0.6-2.1-1.4-2.8-2.5c-0.7-1.1-1-2.3-1-3.7c0-2.7,1.8-5,5.4-7.1v-0.2
		c-1.4-0.9-2.5-2-3.2-3.1c-0.7-1.1-1.1-2.4-1.1-3.8c0-1.3,0.3-2.4,1-3.5c0.7-1.1,1.6-1.9,2.7-2.6c1.2-0.6,2.5-1,4-1
		c1.4,0,2.7,0.3,3.7,0.8c1,0.6,1.8,1.3,2.4,2.3c0.5,1,0.8,2,0.8,3.2c0,1.5-0.4,2.9-1.3,4.1c-0.9,1.2-1.9,2.2-3.2,2.9l-0.1,0.1
		c1.3,0.9,2.4,1.7,3.2,2.4s1.4,1.5,1.8,2.3c0.4,0.8,0.6,1.8,0.6,2.8c0,1.4-0.4,2.7-1.1,3.8c-0.8,1.1-1.8,2-3.2,2.6
		C914,1248.9,912.4,1249.2,910.7,1249.2z M909.6,1235.8c-1.1,0.8-1.9,1.6-2.5,2.4c-0.6,0.8-0.9,1.9-0.9,3.2c0,1.2,0.3,2.3,0.9,3.3
		c0.6,0.9,1.3,1.6,2.2,2.1c0.9,0.5,1.7,0.7,2.6,0.7c1.4,0,2.6-0.4,3.4-1.1c0.8-0.8,1.3-1.8,1.3-3.1c0-1.2-0.6-2.4-1.7-3.5
		C913.8,1238.6,912.1,1237.3,909.6,1235.8z M911.2,1222.4c-0.9,0-1.6,0.2-2.3,0.6c-0.6,0.4-1.1,0.9-1.5,1.5
		c-0.3,0.7-0.5,1.4-0.5,2.2c0,1.2,0.5,2.2,1.4,3.3c0.9,1,2.4,2.2,4.6,3.6c0.9-0.6,1.6-1.3,2.2-2.2c0.5-0.9,0.8-1.9,0.8-3.2
		c0-1.1-0.2-2-0.6-2.9c-0.4-0.9-1-1.6-1.7-2.1C912.8,1222.6,912,1222.4,911.2,1222.4z"/>
	<path d="M938,1249.3c-1.7,0-3.3-0.4-4.6-1.3c-1.3-0.9-2.3-2.1-3-3.6c-0.7-1.5-1-3.2-1-5.1c0-2.2,0.4-4.2,1.3-5.8
		c0.8-1.7,2-3,3.4-3.9c1.4-0.9,3-1.4,4.7-1.4c1.2,0,2.3,0.2,3.1,0.5c0.8,0.4,1.4,0.8,1.8,1.4c0.4,0.6,0.6,1.2,0.6,1.8
		c0,1.3-0.7,2-2.2,2.3c-0.5-1.3-1.1-2.4-1.7-3.1c-0.7-0.7-1.5-1.1-2.6-1.1c-0.9,0-1.8,0.3-2.5,0.9c-0.7,0.6-1.3,1.5-1.8,2.6
		c-0.4,1.1-0.7,2.5-0.7,4.1c0,1.8,0.3,3.4,0.8,4.8c0.5,1.4,1.3,2.6,2.4,3.4c1,0.8,2.2,1.2,3.6,1.2c1.9,0,3.6-0.6,5.1-1.8l0.5,1.1
		c-0.4,0.5-1,1-1.7,1.5c-0.7,0.5-1.6,0.8-2.5,1.1C939.9,1249.2,938.9,1249.3,938,1249.3z"/>
	<path d="M957.2,1248.6h-9.9l0.2-1.2l3.6-0.7v-15.4l-3.7-0.9l0.1-1.2l6.3-0.7l0.3,0.3l-0.3,3.1h0.2c0.8-1,1.9-1.9,3.2-2.6
		c1.3-0.7,2.6-1.1,4-1.1c1.2,0,2.3,0.3,3.2,1c0.9,0.7,1.5,1.6,1.8,2.8h0.3c0.8-1,1.8-1.9,3.1-2.6c1.3-0.7,2.6-1.1,3.9-1.1
		c2,0,3.4,0.6,4.2,1.7c0.9,1.2,1.3,2.8,1.3,4.9v11.7l3.3,0.6l-0.3,1.3h-9.3l0.1-1.2l3-0.7v-11.2c0-1.5-0.4-2.7-1.1-3.5
		c-0.7-0.8-1.7-1.2-3.1-1.2c-1,0-2,0.3-2.9,0.8c-0.9,0.5-1.7,1.2-2.4,2v13.2l3.3,0.6l-0.2,1.3h-9.3l0.2-1.2l3.1-0.7v-11.2
		c0-1.4-0.4-2.6-1.1-3.5c-0.7-0.9-1.7-1.3-3-1.3c-1,0-2,0.2-3,0.7c-1,0.5-1.8,1.1-2.4,1.9v13.4l3.3,0.6L957.2,1248.6z"/>
</g>
<line class="st4" x1="512.1" y1="109.4" x2="468.8" y2="109.4"/>
<line class="st4" x1="512.1" y1="256" x2="468.8" y2="256"/>
</svg>
