<?xml version="1.0" encoding="utf-8"?>
<!-- Generator: Adobe Illustrator 27.2.0, SVG Export Plug-In . SVG Version: 6.00 Build 0)  -->
<svg version="1.1" xmlns="http://www.w3.org/2000/svg" xmlns:xlink="http://www.w3.org/1999/xlink" x="0px" y="0px"
	 viewBox="0 0 414.6 411.1" style="enable-background:new 0 0 414.6 411.1;" xml:space="preserve">
<style type="text/css">
	.st0{fill:none;stroke:#FFFFFF;stroke-width:4;stroke-miterlimit:10;}
	.st1{fill:none;stroke:#FFFFFF;stroke-miterlimit:10;}
	.st2{fill:#FFFFFF;}
</style>
<g id="Capa_3">
</g>
<g id="color">
</g>
<g id="Capa_1">
	<ellipse class="st0" cx="210.5" cy="205" rx="199.8" ry="200"/>
	<g>
		<g>
			<g>
				<path class="st1" d="M71.9,391.4"/>
			</g>
		</g>
		<g>
			<g>
				<g>
					<path class="st2" d="M101.6,171.9c0.7,0.7-8.9,4.1-19.8,14.9c-1.4,1.3-2.6,2.9-4,4.4c-1.2,1.7-2.5,3.4-3.5,5.3
						c-2.1,3.8-3.7,8.3-4,13.2c0,0.6-0.1,1.2-0.1,1.8c0,0.6,0.1,1.2,0.1,1.9c0,1.2,0.3,2.5,0.4,3.8c0.5,2.5,1.2,5,2.1,7.5
						c2,5,4.9,9.8,8.5,14.3c1.2,1.5,2.6,3,3.7,4.1l-2.9,2.5c-0.9-1.3-1.6-2.5-2.3-3.7c-0.7-1.2-1.4-2.5-1.9-3.8
						c-1.2-2.6-2.1-5.3-2.6-8.1c-0.5-2.8-0.5-5.7,0.3-8.4c0.7-2.7,2.4-5.2,4.4-6.9c2-1.7,4.2-3,6.5-3.8c0.6-0.2,1.1-0.4,1.7-0.6
						c0.6-0.1,1.1-0.3,1.7-0.4c0.6-0.1,1.1-0.3,1.6-0.4c0.5-0.1,1.1-0.2,1.6-0.3c2.1-0.4,4.2-0.5,6.2-0.7c2,0,3.9-0.1,5.7-0.1
						c1.8,0.1,3.5,0.1,5.2,0.2c1.6,0.1,3.1,0.3,4.6,0.4c2.8,0.4,5.3,0.7,7.2,1c3.9,0.7,6.1,1.1,6.1,1.1s-2.2-0.2-6.2-0.5
						c-2-0.2-4.4-0.2-7.3-0.4c-1.4,0-2.9,0-4.5-0.1c-1.6,0-3.3,0.1-5.1,0.1c-1.8,0-3.6,0.3-5.6,0.4c-1.9,0.3-3.9,0.5-5.9,1
						c-0.5,0.1-1,0.2-1.5,0.3c-0.5,0.2-1,0.3-1.5,0.5c-0.5,0.2-1,0.3-1.5,0.5c-0.5,0.2-1,0.4-1.5,0.6c-2,0.8-3.9,2-5.4,3.4
						c-1.6,1.5-2.7,3.3-3.2,5.5c-0.5,2.1-0.5,4.5,0,6.9c1,4.8,3.4,9.7,6.4,13.9l-2.9,2.5c-1.3-1.3-2.7-2.8-4-4.5
						c-3.8-4.7-6.9-9.9-8.9-15.4c-1-2.7-1.7-5.5-2.2-8.3c-0.1-1.4-0.4-2.8-0.3-4.2c0-0.7,0-1.4,0-2.1c0.1-0.7,0.1-1.4,0.2-2
						c0.5-5.4,2.5-10.3,4.9-14.3c1.2-2,2.6-3.8,4-5.5c1.5-1.6,2.9-3.1,4.4-4.4C92.4,175,102.3,172.6,101.6,171.9z"/>
				</g>
			</g>
		</g>
		<g>
			<g>
				<g>
					<path class="st2" d="M349,174.2c0,0-1.7,0.5-4.8,1.4c-3.1,0.8-7.6,2.1-13.3,3.1c-5.7,1-12.7,1.8-20.5,1
						c-3.9-0.4-7.9-1.4-11.9-2.7c-4-1.3-8-3-12-4.8c-4-1.8-7.9-3.5-11.7-5c-3.8-1.5-7.5-2.8-11.1-3.9c-7.2-2.2-13.8-3.7-19.4-4.8
						c-5.6-1-10.2-1.5-13.4-1.8c-1.6-0.2-2.8-0.2-3.7-0.3c-0.8-0.1-1.3-0.1-1.3-0.1s0.4,0,1.3-0.1c0.8,0,2.1-0.1,3.7-0.1
						c3.2-0.1,7.9,0,13.7,0.5c5.8,0.5,12.6,1.6,20.1,3.5c3.7,1,7.6,2.2,11.5,3.6c3.9,1.4,7.9,3.2,11.9,4.9c4,1.8,7.9,3.4,11.7,4.8
						c3.8,1.4,7.5,2.4,11.2,3c7.3,1.2,14.1,0.9,19.8,0.3c5.7-0.6,10.3-1.3,13.5-1.8C347.2,174.5,349,174.2,349,174.2z"/>
				</g>
			</g>
		</g>
		<g>
			<g>
				<g>
					<path class="st2" d="M368.1,200.1c0,0-1.7,0.4-4.7,1.3c-3,0.9-7.3,2.4-12.7,4.2c-5.4,1.8-11.9,4-19.6,4.7
						c-3.8,0.4-7.9,0.4-12.2-0.4c-4.2-0.7-8.5-2.4-12.3-4.8c-3.8-2.3-7.2-5-10.3-7.6c-3.1-2.6-6.1-5-9.1-7.2
						c-6-4.3-11.8-7.6-16.8-10.1c-5-2.5-9.3-4.1-12.3-5.2c-1.5-0.5-2.7-0.9-3.4-1.2c-0.8-0.3-1.2-0.4-1.2-0.4s0.4,0.1,1.2,0.2
						c0.8,0.2,2,0.4,3.6,0.8c3.1,0.7,7.5,1.9,12.9,4c5.3,2.1,11.5,5,17.9,9.1c3.2,2,6.4,4.5,9.6,7c3.2,2.5,6.5,5,10,7.2
						c3.5,2.2,7.2,3.7,11,4.5c3.8,0.8,7.6,0.9,11.2,0.7c7.3-0.4,13.8-2,19.3-3.3c5.5-1.4,10-2.4,13.1-3
						C366.3,200.3,368.1,200.1,368.1,200.1z"/>
				</g>
			</g>
		</g>
		<g>
			<g>
				<g>
					<path class="st2" d="M364.1,233.8c0,0-0.3,0.1-0.9,0.3c-0.6,0.2-1.4,0.5-2.5,0.8c-2.2,0.6-5.5,1.3-9.7,1.5
						c-4.2,0.3-9.2,0-14.6-1.1c-5.4-1.1-11.3-3.1-17-6c-5.7-3-10.7-6.5-14.8-10.1c-4.2-3.6-7.6-7.2-10.3-10.3
						c-2.7-3.1-4.7-5.8-6-7.7c-1.3-1.9-2-2.9-2-2.9s0.9,0.9,2.5,2.6c1.6,1.6,4,4,6.9,6.7c6,5.5,14.6,12.7,25.5,18.4
						c5.4,2.8,10.9,4.9,16,6.3c5.1,1.4,9.9,2.1,13.9,2.3c4,0.2,7.3,0.1,9.6-0.2c1.1-0.1,2-0.3,2.6-0.3
						C363.7,233.8,364.1,233.8,364.1,233.8z"/>
				</g>
			</g>
		</g>
		<g>
			<g>
				<g>
					<path class="st2" d="M283.2,216.5c0,0-0.2-0.2-0.6-0.6c-0.4-0.4-0.9-1.1-1.6-1.8c-1.4-1.6-3.5-3.7-6.4-6.1
						c-2.8-2.4-6.5-4.9-10.7-7.3c-4.2-2.4-9.1-4.6-14.4-6.6c-10.6-3.8-20.8-6-28.1-7.7c-3.7-0.8-6.7-1.5-8.7-1.9
						c-2.1-0.5-3.2-0.7-3.2-0.7s1.2,0.1,3.3,0.1c2.1,0.1,5.2,0.3,8.9,0.6c3.8,0.3,8.3,0.9,13.2,1.8c5,0.9,10.4,2.2,15.9,4.2
						c5.5,2,10.5,4.6,14.8,7.4c4.3,2.8,7.7,5.9,10.3,8.7c2.6,2.8,4.4,5.3,5.5,7.2c0.6,0.9,1,1.6,1.2,2.1
						C283.1,216.2,283.2,216.5,283.2,216.5z"/>
				</g>
			</g>
		</g>
		<g>
			<g>
				<g>
					<path class="st2" d="M300.1,262.2c0,0-0.3-0.1-0.8-0.3c-0.5-0.2-1.2-0.5-2.2-1c-1.8-1-4.3-2.9-6.8-5.8
						c-2.5-2.9-4.7-6.9-6.8-11.3c-1-2.2-2.1-4.5-3.2-6.9c-0.6-1.2-1.1-2.4-1.7-3.5c-0.6-1.2-1.3-2.4-2-3.5
						c-5.5-9.4-12.7-16.6-18.4-21.1c-2.9-2.3-5.3-3.9-7.1-5c-1.8-1.1-2.7-1.7-2.7-1.7s1.1,0.4,3,1.1c1.9,0.8,4.7,2,7.9,4
						c3.2,1.9,6.9,4.6,10.5,8c3.6,3.4,7.1,7.7,10.1,12.7c1.5,2.5,2.7,5.1,3.8,7.6c1,2.5,1.9,4.9,2.8,7.2c1.7,4.5,3.4,8.4,5.4,11.5
						c1.9,3,4,5.2,5.6,6.4c0.8,0.6,1.4,1.1,1.9,1.4C299.8,262,300.1,262.2,300.1,262.2z"/>
				</g>
			</g>
		</g>
		<g>
			<g>
				<g>
					<path class="st2" d="M336.4,250.3c0,0-0.2,0.1-0.5,0.3c-0.4,0.2-0.9,0.6-1.6,1c-1.4,0.8-3.6,1.7-6.5,2.2
						c-2.9,0.5-6.5,0.4-10.3-0.5c-3.8-0.9-7.8-2.7-11.5-5.4c-3.6-2.7-6.5-5.9-8.8-8.9c-2.3-3.1-4.1-6-5.4-8.5
						c-1.4-2.5-2.4-4.6-3.1-6c-0.7-1.4-1-2.2-1-2.2s0.6,0.7,1.6,1.9c1,1.2,2.4,3,4.2,5.2c3.5,4.4,8.4,10.4,15,15.4
						c3.3,2.4,6.8,4.2,10.1,5.4c3.4,1.1,6.6,1.7,9.3,1.7c2.7,0,5-0.4,6.5-0.8c0.8-0.2,1.3-0.4,1.7-0.5
						C336.2,250.4,336.4,250.3,336.4,250.3z"/>
				</g>
			</g>
		</g>
		<g>
			<g>
				<g>
					<path class="st2" d="M165.5,353.6c0,0-0.2-0.5-0.7-1.4c-0.2-0.5-0.5-1-0.8-1.7c-0.3-0.7-0.6-1.5-1-2.4
						c-1.4-3.7-2.7-9.3-2.7-16.4c-0.1-7.1,1.1-15.4,3.1-24.5c1.9-9,4.4-18.8,5.7-29.2c0.6-5.2,0.8-10.2,0.3-15
						c-0.5-4.8-1.7-9.3-3.3-13.5c-3.2-8.4-7.8-15.2-12.4-20.4c-2.3-2.6-4.6-4.7-6.6-6.5c-1.1-0.9-2-1.7-3-2.4
						c-1-0.7-1.8-1.4-2.6-1.9c-0.8-0.5-1.5-1-2.1-1.4c-0.6-0.4-1.2-0.7-1.6-1c-0.9-0.5-1.3-0.8-1.3-0.8s0.5,0.2,1.4,0.7
						c0.5,0.2,1,0.5,1.7,0.8c0.7,0.4,1.4,0.8,2.3,1.2c0.9,0.5,1.8,1.1,2.8,1.7c1,0.6,2.1,1.4,3.2,2.2c2.2,1.7,4.7,3.7,7.2,6.1
						c5,5,10.3,11.8,14,20.5c1.8,4.3,3.3,9.2,3.9,14.3c0.6,5.1,0.5,10.5-0.2,15.9c-1.3,10.8-4.2,20.5-6.3,29.4
						c-2.3,8.9-3.9,16.9-4.3,23.8c-0.4,6.9,0.3,12.4,1.3,16.2c0.3,0.9,0.5,1.8,0.7,2.5c0.2,0.7,0.5,1.3,0.6,1.8
						C165.3,353.1,165.5,353.6,165.5,353.6z"/>
				</g>
			</g>
		</g>
		<g>
			<g>
				<g>
					<path class="st2" d="M307.9,136.2c0,0-0.2,0.3-0.6,0.9c-0.4,0.6-1,1.4-1.9,2.4c-1.7,2-4.4,4.8-8.5,7.3c-4,2.6-9.6,4.7-16,5.3
						c-6.4,0.6-13.4-0.4-20.4-2.2c-7-1.8-13.4-4.1-19.2-5.9c-5.8-1.8-11.2-3-15.7-3.5c-4.6-0.5-8.3-0.3-10.9,0.1
						c-1.3,0.2-2.3,0.4-2.9,0.5c-0.7,0.1-1,0.2-1,0.2s0.3-0.1,1-0.4c0.6-0.3,1.6-0.6,2.9-1c2.5-0.7,6.3-1.4,11.1-1.4
						c4.8,0,10.4,0.8,16.5,2.3c6.1,1.4,12.5,3.5,19.3,5.3c6.8,1.8,13.3,2.9,19.2,2.7c5.9-0.2,11.2-1.7,15.3-3.7c4.1-2,7-4.4,9-6.1
						c1-0.9,1.7-1.6,2.2-2.1C307.7,136.5,307.9,136.2,307.9,136.2z"/>
				</g>
			</g>
		</g>
		<g>
			<g>
				<g>
					<path class="st2" d="M303.2,339.4c0,0-0.4-0.1-1-0.4c-0.3-0.1-0.8-0.3-1.3-0.5c-0.5-0.3-1-0.6-1.7-0.9
						c-2.4-1.4-5.8-4.1-8.8-8.3c-1.5-2.1-2.9-4.6-4.2-7.3c-1.3-2.7-2.4-5.8-3.4-9.1c-0.9-3.3-1.7-6.8-2.3-10.4
						c-0.6-3.6-1-7.4-1.3-11.2c-0.7-7.7-1-15-1.7-21.6c-0.6-6.6-1.6-12.4-2.9-17.2c-1.3-4.8-2.9-8.5-4.2-11
						c-1.4-2.5-2.1-3.8-2.1-3.8s0.2,0.3,0.7,0.9c0.4,0.6,1.1,1.4,2,2.6c1.5,2.4,3.7,5.9,5.5,10.8c1.8,4.8,3.3,10.7,4.3,17.4
						c1,6.7,1.6,14,2.3,21.6c0.7,7.6,1.4,14.8,2.9,21.2c0.7,3.2,1.6,6.1,2.7,8.9c1,2.7,2.2,5.2,3.4,7.3c2.4,4.3,5.3,7.2,7.5,8.9
						c0.6,0.4,1.1,0.8,1.5,1.1c0.5,0.3,0.9,0.5,1.2,0.7C302.9,339.2,303.2,339.4,303.2,339.4z"/>
				</g>
			</g>
		</g>
		<g>
			<g>
				<g>
					<path class="st2" d="M271.6,257.9c0,0-0.3-0.1-0.8-0.3c-0.5-0.2-1.2-0.5-2.2-1c-1.8-1-4.3-2.9-6.8-5.8
						c-2.5-2.9-4.7-6.9-6.8-11.3c-1-2.2-2.1-4.5-3.2-6.9c-0.6-1.2-1.1-2.4-1.7-3.5c-0.6-1.2-1.3-2.4-2-3.5
						c-5.5-9.4-12.7-16.6-18.4-21.1c-2.9-2.3-5.3-3.9-7.1-5c-1.8-1.1-2.7-1.7-2.7-1.7s1.1,0.4,3,1.1c1.9,0.8,4.7,2,7.9,4
						c3.2,1.9,6.9,4.6,10.5,8c3.6,3.4,7.1,7.7,10.1,12.7c1.5,2.5,2.7,5.1,3.8,7.6c1,2.5,1.9,4.9,2.8,7.2c1.7,4.5,3.4,8.4,5.4,11.5
						c1.9,3,4,5.2,5.6,6.4c0.8,0.6,1.4,1.1,1.9,1.4C271.4,257.8,271.6,257.9,271.6,257.9z"/>
				</g>
			</g>
		</g>
		<g>
			<g>
				<g>
					<path class="st2" d="M214,71.8c0,0-0.6,1.7-1.6,4.7c-1.1,3-2.6,7.4-5,12.7c-2.4,5.3-5.7,11.5-10.8,17.4c-2.6,3-5.6,5.7-9,8.3
						c-3.4,2.6-7,4.9-10.7,7.2c-3.7,2.3-7.4,4.5-10.7,6.8c-3.4,2.3-6.6,4.6-9.5,6.9c-5.9,4.6-10.9,9.3-14.9,13.3
						c-4,4.1-7.1,7.6-9.1,10c-1,1.2-1.8,2.2-2.4,2.9c-0.5,0.7-0.8,1-0.8,1s0.2-0.4,0.7-1.1c0.4-0.7,1.1-1.8,2-3.1
						c1.8-2.7,4.5-6.5,8.2-11c3.7-4.4,8.5-9.5,14.3-14.5c2.9-2.5,6.1-5,9.5-7.5c3.4-2.4,7.1-4.7,10.8-7c3.7-2.3,7.3-4.6,10.6-6.9
						c3.3-2.4,6.2-4.9,8.8-7.5c5.1-5.4,8.7-11.1,11.5-16.1c2.8-5,4.8-9.2,6.2-12.1C213.2,73.4,214,71.8,214,71.8z"/>
				</g>
			</g>
		</g>
		<g>
			<g>
				<g>
					<path class="st2" d="M266.9,39.7c0,0-0.9,2.1-2.2,5.9c-1.4,3.8-3.2,9.4-5.5,16.4c-2.3,6.9-5.1,15.2-9.7,23.9
						c-2.3,4.3-5.1,8.7-8.5,12.9c-3.4,4.2-7.8,8-12.7,11c-4.9,3-10,5.2-14.9,7.2c-4.9,2-9.5,3.8-13.8,5.9
						c-8.6,4.1-15.9,8.7-21.9,12.8c-6,4.1-10.5,7.8-13.6,10.5c-1.6,1.3-2.7,2.4-3.5,3.1c-0.8,0.7-1.2,1.1-1.2,1.1s0.4-0.4,1.1-1.2
						c0.7-0.8,1.8-1.9,3.2-3.4c2.9-2.9,7.2-7,12.9-11.6c5.7-4.6,12.9-9.6,21.6-14.1c4.3-2.3,9-4.4,13.8-6.4
						c4.8-2.1,9.7-4.2,14.3-7.1c4.6-2.8,8.6-6.2,11.9-10.1c3.3-3.8,6.1-8,8.5-12.1c4.7-8.2,7.9-16.3,10.7-23
						c2.7-6.8,5-12.2,6.7-15.9C265.8,41.7,266.9,39.7,266.9,39.7z"/>
				</g>
			</g>
		</g>
		<g>
			<g>
				<g>
					<path class="st2" d="M144.9,105.3c0,0,0.1,0.2,0.4,0.7c0.2,0.5,0.7,1.1,1.1,2.1c0.9,1.8,2.1,4.5,2.7,8.2
						c0.6,3.6,0.5,8.3-1.6,13c-1,2.3-2.5,4.6-4.3,6.6c-1.8,2-3.9,3.9-6.2,5.5c-4.5,3.3-9.1,5.9-13,8.4c-3.9,2.5-7.2,5-9.6,7.5
						c-2.4,2.5-3.8,5-4.6,6.8c-0.4,0.9-0.7,1.6-0.8,2.1c-0.2,0.5-0.3,0.8-0.3,0.8s0-0.3,0.1-0.8c0-0.5,0.2-1.3,0.4-2.3
						c0.5-2,1.5-4.8,3.7-7.8c2.2-3,5.4-6.1,9.2-9c3.8-2.9,8.3-5.7,12.5-8.8c2.1-1.6,4.1-3.2,5.8-5c1.7-1.7,3.1-3.6,4.1-5.5
						c2.1-3.9,2.7-8,2.6-11.4c-0.1-3.5-0.8-6.3-1.3-8.2c-0.2-1-0.5-1.7-0.7-2.2C144.9,105.6,144.9,105.3,144.9,105.3z"/>
				</g>
			</g>
		</g>
		<g>
			<g>
				<g>
					<path class="st2" d="M287.6,107.7c0,0-1.1,1.1-3.1,3c-2,1.9-5,4.7-9,7.8c-4,3.1-9.1,6.5-15.7,8.7c-3.3,1.1-6.8,1.7-10.5,2.1
						c-3.7,0.3-7.5,0.3-11.3,0.2c-7.7-0.2-14.8-0.6-21.1,0.3c-6.4,0.9-11.9,2.7-16.4,4.7c-4.5,2-7.9,4.2-10.1,5.8
						c-1.1,0.8-2,1.5-2.6,1.9c-0.6,0.5-0.9,0.7-0.9,0.7s0.3-0.3,0.8-0.8c0.5-0.5,1.3-1.3,2.3-2.3c2.1-1.9,5.2-4.5,9.6-7.1
						c4.4-2.5,10.1-4.9,16.8-6.2c6.7-1.3,14.2-1.1,21.8-0.9c7.6,0.2,14.7,0.1,20.8-1.5c6.1-1.6,11.3-4.5,15.5-7.1
						c4.2-2.6,7.4-5.1,9.7-6.7C286.3,108.7,287.6,107.7,287.6,107.7z"/>
				</g>
			</g>
		</g>
	</g>
</g>
<g id="LINEA_FENIX">
</g>
</svg>
