<?xml version="1.0" encoding="utf-8"?>
<!-- Generator: Adobe Illustrator 27.2.0, SVG Export Plug-In . SVG Version: 6.00 Build 0)  -->
<svg version="1.1" xmlns="http://www.w3.org/2000/svg" xmlns:xlink="http://www.w3.org/1999/xlink" x="0px" y="0px"
	 viewBox="0 0 249.1 340" style="enable-background:new 0 0 249.1 340;" xml:space="preserve">
<style type="text/css">
	.st0{fill:#E26D6D;}
	.st1{filter:url(#Adobe_OpacityMaskFilter);}
	.st2{opacity:0.18;mask:url(#SVGID_1_);}
	.st3{opacity:0.34;}
	.st4{fill:none;stroke:#000000;stroke-miterlimit:10;}
	.st5{opacity:0.16;}
	.st6{opacity:0.16;stroke:#000000;stroke-width:0.5;stroke-miterlimit:10;}
	.st7{opacity:0.29;}
	.st8{opacity:0.22;fill:#FFFFFF;}
	.st9{opacity:0.36;fill:#FFFFFF;}
	.st10{opacity:0.11;fill:#FFFFFF;}
	.st11{opacity:0.3;fill:#FFFFFF;}
	.st12{fill:none;}
	.st13{opacity:0.2;}
	.st14{opacity:0.18;}
	.st15{opacity:0.13;}
	.st16{opacity:0.25;}
	.st17{opacity:0.18;fill:#FFFFFF;}
	.st18{fill:#E4E5E3;stroke:#000000;stroke-miterlimit:10;}
	.st19{fill:#C1C1C1;stroke:#000000;stroke-miterlimit:10;}
	.st20{fill:none;stroke:#000000;stroke-width:0.25;stroke-miterlimit:10;}
	.st21{fill:#FFFFFF;}
</style>
<g id="Capa_3">
</g>
<g id="color">
</g>
<g id="Capa_1">
	<g>
		<path class="st0" d="M198.8,62.4c0,0-12.9-50.6-59.4-50.5C78.2,11,65.6,69.2,65.6,69.2s-3.8,33.9-5.6,35.1
			c-9.9,12.5-6.3,18.7-6.6,21.2c-0.5,9.9,4.9,17.7,4.9,17.7s-6,3.2-4.3,12c1.2,6.3,4.8,8.2,6.1,9.8c-7.1,4.6-5.4,8.8-4.8,12.9
			c0.5,2.1,1.4,4.2,2.2,6.2c-1.1,7.6-4.9,14.3,0,50.1c4.1,11.6,4.2,24.7,0.6,36.3c-1.9,6.4-3.8,12.4-3.1,19.2
			c0.6,6,2.7,11.9,5.3,17.3c3.1,6.4,6.6,12.7,10.3,18.8c0.3,0.2,0.5,0.5,0.7,0.8c0,0.1,0.1,0.1,0.1,0.2c0,0,0,0,0,0
			c1.1,0.5,2.2,1.2,3.3,1.8c0.2,0.1,0.4,0.1,0.6,0.2c0.6-0.1,1.2,0,1.9,0.2c0.2,0.1,0.3,0.1,0.5,0.2c0.9,0,1.8,0.3,2.7,0.8
			c-0.1-0.1-0.1-0.1-0.2-0.2c-0.7-1.2-2.2-2.9-3.2-4.3c-1.2-1.7-2-3.4-2.8-5.3c-0.2-0.4-0.3-0.7-0.4-1.1c-1.1-0.9-1.9-2.2-1.7-3.6
			c0.2-1.9-1-4.1-1.3-6c-0.4-2.1-0.6-4.4-1.1-6.4c-0.3-1.2-0.2-2.3,0.3-3.2c-1.8-12.8,4.6-23,7.8-34.9c-0.3-1.3,0-2.8,1.3-4
			c1.4-1.3,2.3-10.5,3-12.3c1.7-4.6-0.8,4.3,1.9,7.9c0.4,0.5-0.3-6.4,0.7-8c0.4-0.7-0.1-4.1,0.6-3.5c11.1-26.8,4.2,5.7,3.3,6.2
			c0,0.1,0,0.1,0,0.2c0,0-3.6,12.9-3,13.7c0.3,0.4,0.4-2.9,2.2-6.9c3-6.7,8.2-15.7,8.2-14.9c0.1,1.8-4.9,17-5.2,18.8
			c-0.5,2.8-0.3,5.8-0.5,8.7c-0.1,1.1-0.5,2-1,2.6c0.1,1.7,0.1,3.6,0.4,5.3c0.8,5,4.1,9.2,7.3,13c0.6,0.7,1.2,1.5,1.8,2.3
			c0.2-0.4,6.5,10.8,6.7,10.4c0.4-0.7-1.2,10.3-0.4,9.9c-1,1.3-5,7.4-3.3,7.1c2.4-0.5,11.8-5.6,13.4-12.3c2.1-8.3-4.4-15.1-4.6-15.6
			c-2.3-4.2-5.6-14.7-4.4-18.8c1.1-3.8,0.6-6.8,2.3-10.4c0.7-1.5,1.5-3,2.3-4.4c-0.1-0.3-0.2-0.7,0-1.1c0.5-1.2,1.4-2.2,2-3.4
			c0.6-1.2,1.9-1.3,2.6-2.4c0.7-1.2,1.6-2.6,2.3-3.8c0.6-1.1,1.1-2.1,1.7-3.1c0.1-0.2-0.3-1.2-0.1-1.3c0.1-0.4,0.4-0.7,0.8-1
			c0,0,0,0,0.1-0.1c0.1,0,0.1-0.1,0.1-0.1c0-0.1,0.1-0.1,0.1-0.2c0.1-0.2,0.2-0.4,0.3-0.6c0-0.1,0.1-0.2,0.1-0.3c0,0,0,0,0,0
			c0,0,0,0,0,0c0.3-0.8,2.7-2.6,2.8-2.9c0.2-0.5,5.2-15.4,5.5-21.2c0.1-1,1.6,6.9,1.6,7.9c0,0.3,0,0.6-0.1,0.9
			c0.1,0.1,0.2,0.3,0.2,0.4c0.1,0.2,0.2,0.5,0.2,0.7c0,0.2,0,0.3,0,0.5c0,0.1,0,0.2,0.1,0.3c0.1,0.3,0.1,0.7,0,1
			c0,0.1-0.1,0.2-0.1,0.3c0,0.6,0.1,1.3,0.2,1.9c0.1,0.6,0.3,1.3,0.3,1.9c0,0.4,0,0.8-0.1,1.3c0,0.3-0.1,0.5-0.2,0.8
			c0,0.1,0,0.2,0,0.4c0,0.6,0,1.3,0,1.9c0,0.6-0.1,1.3-0.2,1.9c0,0.3-0.1,0.6-0.1,0.9c0,0.2-0.1,0.4-0.2,0.5c0,0.2,0.1,0.3,0.1,0.5
			c-0.1,2-0.7,3.8-1.4,5.7c-0.7,1.8-1.5,3.6-2.4,5.3c-0.9,1.7-1.7,3.6-3,5c-0.5,0.6-1.1,1-1.7,1.5c0,0.1,0,0.2,0,0.4
			c-0.3,1.4-0.9,2.6-1.6,3.8c-0.6,1.1-1.1,2.2-1.4,3.4c-0.4,1.4-0.6,2.9-1,4.3c0,0,0,0,0,0c0.1,0.4,0,0.9-0.2,1.3c0,0,0,0,0,0
			c0,0.1-0.1,0.2-0.1,0.3c-0.1,0.2-0.1,0.4-0.1,0.6c0,0.1,0,0.1,0,0.1c0,0,0,0.1,0,0.1c0,0.2,0,0.4,0,0.6c0,0.7,0,1.5,0,2.3
			c0,0.1,0,0.2,0,0.2c0,0,0,0.1,0,0.1c0,0.2,0.1,0.5,0.1,0.7c0.1,0.4,0.2,0.8,0.3,1.2c0,0.2,0.1,0.4,0.1,0.6c0.1,0,0.2,0,0.2,0
			c5.4,13.1,13,9.9,18.1,9.9c-9.6-4.2-13.1-3.5-11.8-13.8c0-0.7,0.3-1.2,0.8-1.5c0.4-1.7,1.3-3.2,2.1-4.8c0.8-1.7,1.8-3.3,3-4.8
			c1.2-1.6,2.4-3,3.5-4.7c0.5-0.8,1.1-1.6,1.8-2.3c0.4-0.4,1.2-0.9,1.5-1.5c0.2-0.5,0.5-0.9,0.9-1.1c0.2-0.6,0.4-1.2,0.8-1.8
			c0.4-0.7,1-1.3,1.6-1.9c0.1-0.1,0.3-0.3,0.4-0.4c0.5-1.3,1-2.5,1.5-3.7c0.1-0.3,0.4-0.5,0.7-0.7c0.3-0.9,0.5-1.9,0.7-2.8
			c0.1-0.3,0.2-0.6,0.4-0.8c-0.1-1.1-0.1-2.3-0.1-3.4c0,0,0,0,0,0c0-0.1-0.1-0.1-0.1-0.2c-0.2-0.5-0.2-1-0.3-1.5
			c0-0.3-0.1-0.7-0.1-1c0-0.2,0-0.4,0.1-0.6c0-0.2-0.1-0.3-0.1-0.5v-0.5c0-0.3,0.1-0.7,0.3-0.9c0.1-0.1,0.2-0.3,0.3-0.4
			c0.2-0.2,0.5-0.4,0.8-0.5c0.2,0,0.3,0,0.5-0.1c0.3,0,0.5,0,0.7,0.2c0.2,0.1,0.4,0.2,0.6,0.4c0.2,0.2,0.3,0.4,0.4,0.6
			c0.1,0.2,0.2,0.5,0.2,0.7v0.5c0,0.2-0.1,0.4-0.1,0.6c0,0.2,0.1,0.3,0.1,0.5c0,0.3,0,0.6,0,0.8c0,0.2,0.1,0.5,0.2,0.7
			c0.1,0.2,0.1,0.4,0.1,0.5c0.1,0.2,0.2,0.5,0.2,0.7c0,0.3,0,0.7,0,1c0.4,0.3,0.7,0.8,0.7,1.4c0,1,0,2,0,3.1c0,0.1,0,0.3,0,0.4
			c0.1,0.2,0.2,0.5,0.2,0.9v0.6c0,0,0,0.1,0,0.1c0.8,2.2,0.1,4.8-0.7,6.9c-0.4,1-0.8,2-1.3,2.9c0.2-0.2,0.4-0.3,0.6-0.4
			c0.1-0.1,0.2-0.1,0.2-0.2c0.1-0.2,0.2-0.4,0.4-0.5c0.1-0.2,0.3-0.3,0.5-0.4c0,0,0.1-0.1,0.1-0.1c0,0,0,0,0,0c0,0,0,0,0,0
			c0.1-0.1,0.3-0.3,0.5-0.3c0,0,0,0,0,0c0.1-0.2,0.2-0.3,0.3-0.4c0.1-0.1,0.2-0.2,0.3-0.3c0.1-0.2,0.2-0.4,0.4-0.6
			c0.3-0.4,0.7-0.8,1-1.2c0.2-0.3,0.4-0.5,0.6-0.8c0.1-0.1,0.2-0.2,0.3-0.3c0.1-0.5,0.4-0.9,0.8-1.2c0.8-2.1,1.5-4.3,1.6-6.6
			c0.1-2.8-0.2-5.7-0.2-8.5c0-0.2,0-0.3,0.1-0.5c-0.2-0.3-0.2-0.6-0.2-1c0-0.5,0.1-1,0.4-1.4c-1.1-0.4-3.6-8.3-3.6-9.3
			c0-0.2,0-0.3,0-0.5c0,0,0-0.1,0-0.1c-0.1-0.3-0.1-0.5-0.2-0.8c-0.2-0.6-0.4-1.1-0.5-1.7c-0.2-0.7-0.2-1.4-0.3-2.1
			c0-0.1,0-0.2,0-0.3c0,0,0-0.1,0-0.1c0-0.1-0.1-0.2-0.1-0.4c0,0,0,0,0,0c-0.5-0.9-0.2-2,0.7-2.6c0.8-0.5,1.6,0.3,2,1.2
			c0.4,0.8,1.1,1.1,1.2,1.9c0,0.3,0.1,0.6,0.1,0.9c0,0,0,0.1,0,0.2c0,0.1,0,0.2,0.1,0.3c0.2,0.6,0.4,1.2,0.6,1.8
			c0.2,0.7,0.3,1.5,0.3,2.2c0,0.9,0.8,7.3,0.3,8.9c0.1,0-0.1,0.6,0,0.5c1.8-2.3,2.5-5.7,2.9-8.6c0.3-1.6,0.7-3.3,0.8-4.9
			c0.1-1.7,0-3.3-0.4-4.9c-0.1-0.2-0.1-0.4,0-0.6c-0.1-0.1-0.1-0.2-0.1-0.3c-0.5-1.4-1-2.7-1-4.1c-0.6-2.3-1.1-4.7-1.1-7.1
			c0-0.5,0.2-0.9,0.5-1.3c-0.1-0.6-0.2-1.2-0.2-1.8c-0.2-2.4-0.1-4.7-0.1-7.1c0-1.1,0.9-1.8,1.9-1.9c1,0,1.9,0.9,1.9,1.9
			c0,1.1,0,2.2,0,3.4c0.7,0.3,1.2,1,1.2,1.8c0,0,0,0,0,0.1c0.2,0.8,0.5,1.5,0.8,2.3c0.3,0.9,0.6,1.8,0.9,2.7c0,0,0,0,0,0
			c0.5,0.3,0.9,0.7,1,1c1,4.1-0.1,9.2,0.2,8.9c0.9-1.8,1.4-4.1,1.6-4.6c0.2-0.5,0.3-1,0.4-1.4c0.1-0.6,0.1-0.7,0.2-1.3
			c0.1-1.1,0.3-2.3,0.2-3.4c0-0.1,0-0.2,0-0.3c-0.1-0.1-0.2-0.2-0.2-0.3c0.1-1-0.5-2.5-0.6-3.1c-0.1-0.5-0.2-0.9-0.3-1.4
			c-0.1-0.7-0.2-1.4-0.3-2.2c0-0.1,0-0.2,0-0.3c-0.2-1.2-0.5-2.4-0.3-3.7c0.2-1.5,0.5-3.1,0.8-4.6c0.3-1.4,0.6-2.8,1-4.2
			c0.3-1.1,1-2.2,1-3.4c0-0.4,0.1-0.7,0.3-0.9c-0.1-0.5-0.2-1-0.1-1.6c0.1-0.9,0.3-1.8,0.2-2.7c0-0.8-0.2-1.6-0.4-2.3
			c-0.4-1.7-0.7-3.3-1.3-4.9c-1.1-3.4-2.5-6.7-3.3-10.2c-0.2-1.1-0.4-2.1-0.6-3.2c-0.2-0.6-0.4-1.2-0.6-2.1
			c-0.7-0.3-1.3-0.9-1.3-1.7c-0.1-3.7-0.1-7.6,1.7-10.9c0.2-3.1,1.8-6,3.8-8.4c1.1-1.3,2.3-2.5,3.6-3.6c1.5-1.2,2.7-2.6,3.9-4.1
			c1.2-1.4,2.5-2.8,4-4c0.6-0.5,1.3-1,1.9-1.5C204.6,88.2,198.8,62.4,198.8,62.4z M84.5,237c0-0.2,0-0.5-0.1-0.7
			c-0.1-0.1-0.2-0.2-0.2-0.3c-0.1-0.4-0.1-0.7-0.2-1.1c0,0,0,0,0,0c-0.2-0.6-0.3-1.2-0.4-1.9c-0.3-1.2-0.7-2.4-0.8-3.7c0,0,0,0,0,0
			c0,0,0,0,0-0.1c0-0.1,0-0.1,0-0.2c0-0.6,0.9-0.7,0.9-0.1c0,0.1,0,0.1,0,0.2c0.2,0.8,0.5,1.6,0.7,2.4c0.2,0,0.3,0.1,0.4,0.3
			c0.3,1.1,0.3,2.3,0.3,3.5c0.1,0.5,0.2,1,0.2,1.6C85.4,237.5,84.5,237.6,84.5,237z"/>
		<defs>
			<filter id="Adobe_OpacityMaskFilter" filterUnits="userSpaceOnUse" x="131.5" y="18.9" width="69.5" height="192.3">
				
					<feColorMatrix  type="matrix" values="-1 0 0 0 1  0 -1 0 0 1  0 0 -1 0 1  0 0 0 1 0" color-interpolation-filters="sRGB" result="source"/>
				<feFlood  style="flood-color:white;flood-opacity:1" result="back"/>
				<feBlend  in="source" in2="back" mode="normal"/>
			</filter>
		</defs>
		<mask maskUnits="userSpaceOnUse" x="131.5" y="18.9" width="69.5" height="192.3" id="SVGID_1_">
			<g class="st1">
			</g>
		</mask>
		<path class="st2" d="M160.7,175.3c0.2,0.6,0.5,1.1,0.8,1.6c0.7,1.1,1.8,2,2.8,2.8c0.6,0.4,1.6,1.1,2.2,1.6c0-1.1,0.8-1.1,0.9-3.3
			c0-0.5,0.2-0.8,0.6-1c-0.1-0.5-0.2-1-0.2-1.6c0.1-0.9,0.3-1.8,0.2-2.7c0-0.8-0.2-1.6-0.4-2.3c-0.4-1.7-0.7-3.3-1.3-4.9
			c-1.1-3.4-2.5-6.7-3.3-10.2c-0.4-1.7-0.7-3.4-0.9-5.1c-0.8-0.2-1.6-0.8-1.6-1.8c0-1.4-0.1-2.8,0-4.2c-0.1-0.6-0.2-1.1-0.2-1.7
			c-0.3-2.4-0.2-5,0.5-7.3c1.2-4.1,4.4-7.3,7.5-10.4c4.7-4.6,9.3-9.3,14-13.9c1.5-1.5,3.5-2.8,5.3-4.1c0.5-0.6,0.9-1.3,1.3-2
			c0.4-0.7,1-0.9,1.7-0.9c0.1-0.2,0.3-0.4,0.4-0.6c0.9-1.5,0.8-3.3,1.2-5c0.7-2.9,2.9-5.2,4.5-7.7c6-8.8,4.5-20.4,1.8-30.7
			c-1.5-5.7-3.2-11.2-5.7-16.2c-1.1-1.7-2.1-3.4-3-5.2c-1.1-1.6-2.2-3.1-3.6-4.5c-2.2-2.4-4.6-4.7-7.1-6.8c-3.5-3-7.4-5.9-11.9-7
			c-4.9-4.4-10.5,3-7,7.1c0.5,0.5,1,1,1.3,1.7c0.8,1.9-1,3.7-2.3,5.2c-2.5,3-3.2,8-0.1,10.3c1.2,0.9,2.9,2,2.1,3.2
			c-0.2,0.4-0.7,0.5-1,0.8c-3.1,1.8-3.4,6.9-6.8,8.4c-1.3,0.6-2.9,0.5-4.2,1.1c-2.6,1.1-3.6,4.1-5.1,6.5c-2.1,3.1-5.4,5.1-8.2,7.5
			c-2.8,2.4-5.3,5.9-4.7,9.6c0.6,3.6,4,6.6,3.4,10.2c-0.3,1.7-1.4,3.1-2,4.7c-1.8,4.9,2.3,10.9,7.5,11c3.3,0,6.8-1.9,9.7-0.2
			c1.8,1.1,2.7,3.3,2.6,5.5c-0.1,2.1-0.9,4.1-1.7,6.1c-2.3,5.5-4.5,11-6.8,16.5c-0.7,1.6-1.4,3.4-1.3,5.1c0.1,2,1.1,3.7,1.4,5.7
			c0.3,1.5,0.1,3-0.1,4.5c-0.7,6-0.6,14.4-3.9,19.6c11.2-11.7,17.1-6.8,19.1,1.8c1.2,3.2,1.8,6.9,0.9,10.3c-0.6,2.1-1.4,4.2-1.5,6.5
			c-0.1,3.8,2.1,7.3,3.5,10.8c1.5,3.8,2.1,7.9,1.9,11.9c0.8-2.1,1.6-4.2,1.8-6.4c0.2-2.2-0.2-4.6-1.4-6.4c-0.9-1.3-2.3-2.5-2.5-4.1
			c-0.2-1.9,1.3-3.6,1-5.5c-0.6-0.1-1.1-0.3-1.6-0.6c-0.5-0.9,0-2.3,1-2.6c0.3-0.1,0.6-0.2,0.7-0.4c0.2-0.2,0.2-0.5,0.2-0.7
			c0.1-1.6,0.2-3.2,0.3-4.8"/>
		<path class="st3" d="M147.2,159.7"/>
		<path class="st3" d="M159.3,169.8c0.1,0-0.7-3,2.2-1.5c3,1.6,5.1,13,5.1,13l0.3-2.1l0.8-3.8l-0.2-4.1l-1.9-5.8
			c-1.9-8.4-5-16.8-3.6-25.3c1.1-6.6,5-12.7,10.6-16.4c1.9-1.3,3-3.3,4.5-5.1c1-1.3,2.4-2.2,3.5-3.4c1.9-1.9,3-4.5,4.7-6.5
			c1.4-1.6,3.1-3,4.5-4.6c1.3-1.7,2.3-3.5,3.1-5.4c1.7-4,3.4-7.9,5.1-11.9c0.6-1.5,1.3-2.9,1.7-4.5c0.9-3.4,0.7-7,0.4-10.5
			c-0.1-2.1-0.3-4.2-0.4-6.3c-0.1-1.7-0.2-3.4-0.7-5c-0.9-3.1-3.1-5.6-4.1-8.7c-0.6-1.9-0.9-4.7-1-6.7c-0.9,0.6-1.3,1.8-1.4,2.9
			c-0.1,1.1,0,2.3-0.2,3.4c-0.3,1.1-0.9,2.1-1,3.1c-0.3,1.8,0.6,3.6,1,5.3c0.7,3,0,6.4-1.9,8.9c-0.9,1.1-2,2.2-2.4,3.5
			c-0.6,1.8,0.1,3.7-0.3,5.6c-0.4,2.1-2.2,3.6-4,4.9c-2.4,1.8-4.9,3.4-7.6,4.9c-0.8,0.4-1.6,0.9-2,1.7c-1,1.9,0.9,4,1.3,6.1
			c0.4,2.6-1.5,4.9-2,7.4c-0.2,1.2-0.1,2.4-0.3,3.5c-0.3,1.8-1.1,3.5-1.9,5.1c-0.8,1.6-1.9,3.3-3.6,3.5c-1.1-1.1-2.3-2.8-2.1-4.3
			c-0.5-0.4-1.2,0.2-1.6,0.7c-4.9,6.6-9.3,13.5-13.4,20.6c-1.9,3.2-3.7,6.7-3.7,10.5c0,1.1,0.1,2.3,0.5,3.4c0.3,1.1,0.8,2.2,1.2,3.3
			c1.1,3.4,0.7,7.1-1,10.2c-0.5,1-1.2,2-1.6,3.1c-0.2,0.5-0.4,1.1-0.7,1.6c-0.2,0.3-0.4,0.6-0.7,0.8c-0.6,0.6-1.1,1.2-1.7,1.8
			c-0.3,0.3-0.5,0.7-0.8,1.1C141.8,168,156,153.3,159.3,169.8"/>
		<g>
			<g>
				<g>
					<path class="st4" d="M70.1,178.9"/>
				</g>
			</g>
			<g>
				<g>
					<path class="st4" d="M66.6,211"/>
				</g>
			</g>
			<g>
				<g>
					<path class="st4" d="M65.1,211"/>
				</g>
			</g>
			<g>
				<g>
					<path class="st4" d="M-214.9,292.3"/>
				</g>
			</g>
			<g>
				<g>
					<path class="st4" d="M82.8,182.1"/>
				</g>
			</g>
		</g>
		<g>
			<g>
				<path class="st4" d="M125.1,198.4"/>
			</g>
		</g>
		<path class="st5" d="M128.1,195.3c-0.2-2.1-0.7-4.1-1.4-6C127.2,191.2,127.7,193.2,128.1,195.3z"/>
		<path class="st6" d="M66.4,111.2c2.3,0.8,4.8,1.4,6.4,3.1c1.8,1.8,2.1,4.6,2.2,7.1c0,0.9,0,1.9,0.4,2.7c0.8,1.8,3.5,3.1,2.8,4.9
			c-0.6,1.7-2.9,1.4-4.7,1.5c-2.7,0.2-5.4,2-8,1.3c-0.8-0.2-1.5-0.6-2.2-0.9c-1.1-0.5-2.3-0.7-3.4-0.8c-0.8,0-1.6,0.1-2.3,0.5
			c-0.6,0.5-1,1.4-0.6,2.1c0.4,0.7,1.6,0.8,1.9,0c0.9,0.5,0.8,1.8,0.9,2.8c0.2,2.8,3,5,5.8,4.6c-1.5,1.5-3.5,2.4-5.6,2.7
			c0.1,2,1.6,3.8,3.5,4.2c-1.9,1.4-3.8,2.7-5.7,4.1c1.3,0.8,2.3,2,2.8,3.4c1.5-0.2,3-0.4,4.5-0.6c0.4-0.1,0.8-0.1,1.2,0
			c0.5,0.1,1,0.5,1.4,0.8c1.7,1.3,3.4,2.6,4.4,4.5c0.6,1.2,1.2,2.7,2.5,2.6c1.2-0.1,1.7-1.6,1.5-2.7c-0.3-1.1-1-2.1-1.3-3.3
			c-0.2-1-0.1-2,0.1-3c0.5-3.5,1-7,1.5-10.6c0.3-2.1,0.6-4.2,0.9-6.4c0.2-1.4,0.5-3.1,1.8-3.8c0.9-0.5,2.1-0.5,2.8-1.2
			c0.6,1.2,2.1,1.6,3.3,2.1c3.4,1.7,5.2,5.5,6.5,9c0.8,2.4,1.8,5,4.1,6.1c-1.2-1.1-2.1-2.5-2.7-3.9c5.1,5,12.6,7.6,19.8,6.6
			c1.4-0.2,3.2-1,3-2.4c-2.3-0.1-4.6-0.2-6.9-0.1c1.5-1.6,3.9-1.5,6.1-1.5c2.2,0,4.7-0.3,5.7-2.2c-4-0.1-8.1-0.3-12.1-0.4
			c1.7-1.9,5.1-0.8,7-2.5c1-0.9,1.2-2.3,1.4-3.6c-2.3-1.2-4.8,1.3-7.4,1.4c-1.6,0.1-3.4-0.8-4.6,0.2c-2.7-2.5-5.4-5.1-8.2-7.6
			c-0.5-0.5-1.1-1-1.4-1.7c-0.3-0.7-0.1-1.6,0.5-2c0.6-0.4,1.5-0.1,2.1,0.4c0.5,0.5,0.8,1.3,1.1,2c0.9,1.9,2.2,3.5,3.9,4.8
			c1.5,1.1,3.6,1.9,5.2,0.9c0.6-0.4,1-0.9,1.5-1.4c1.5-1.3,4-1.2,5.3-2.7c0.5-0.5,0.8-1.2,1.3-1.7c1.5-1.5,4-1,6.1-0.3
			c-0.5,1.1-1.5,2-2.6,2.5c1.3-0.3,2.7-0.1,3.9,0.4c3.4-0.4,6.8-0.7,10.1-1.1c-2-0.8-4.2-1.3-6.4-1.3c2-1.9,4.9-2.8,7.5-2.2
			c-1.6-1.1-3.6-1.5-5.5-1.3c0.4-0.7,0.9-1.4,1.3-2.1c-3.5,2.4-8.2,2.1-12.3,1.1s-8.1-2.9-12.3-3.4c-0.6-0.1-1.1-0.1-1.6,0.1
			c-0.6,0.2-1,0.7-1.5,1c-2.5,1.9-6.2,1-9.2,2c-1.5,0.5-2.8,1.5-4.3,1.9c-3,0.7-5.9-1.4-8.1-3.5c-1.3-1.2-2.5-2.6-3.1-4.3
			c-1.1-3.3,0.9-6.9,3.3-9.5c1.2-1.3,2.5-2.4,3.9-3.4c3.8-2.7,8.4-4.4,13-4c1.8,0.1,3.7,0.6,5.2-0.4c-1-0.9-2.5-1.3-3.8-1
			c1.2-1,2.4-2.1,3.6-3.1c-1.2-0.4-2.5-0.2-3.7-0.1c-5.7,0.8-11.3,1.9-16.8,3.4c-1.5,0.4-3.1,0.9-4.4,1.9c-1.2,1-2.1,2.7-1.6,4.2
			c-2-1.1-4.1-1.9-6.3-2.4c-2,0-7.6-1.6-8.9,0.6C60.5,108.3,64.9,110.6,66.4,111.2z"/>
		<path class="st5" d="M124.8,181.3"/>
		<line class="st5" x1="123.2" y1="176.2" x2="124.8" y2="181.3"/>
		<path class="st5" d="M124.9,178.6c-0.4-1.8-1.8-6.1-2.8-7.6c-1.5-2.3-1.4-1.6-2.9-3.9c-1.2-1.8-3.1-3.4-4.7-4.9
			c-0.9-0.9-2-1.7-2.7-2.8c-0.7-1-2.1-3.6-3-5.2c-1.1-1.9,0.8,4.2,1.1,5c1.5,3.9,2.4,7.9,5.2,9C119.1,168.5,124.9,178.6,124.9,178.6
			"/>
		<path class="st7" d="M76.4,111.5c-1.7-2.7-5.2-3.3-8.4-3.7c-1.2-0.1-2.6-0.2-3.4,0.7c3.6-0.3,6.7,2.2,9.4,4.6
			c0.9,0.8,1.9,1.8,2.2,3c0.1,0.7,0,1.5,0,2.2c0.1,1.3,1,2.5,1.7,3.7c1.1,1.9,1.6,4.1,1.4,6.3c0,0.5-0.1,1-0.3,1.5
			c-0.7,1.3-2.5,1.6-3.9,1.8c-0.8,0.1-1.6,0.3-2,1c-0.3,0.4-0.3,1-0.3,1.5c-0.1,2.8-1.2,5.6-3,7.7c-1.7,2-4.2,3.6-6.9,3.2
			c1,1.3,2.8,1.9,4.5,1.6c1.1-0.2,2.6-0.5,2.9,0.6c0.2,0.5-0.2,1.1-0.7,1.4c-0.5,0.3-1,0.3-1.6,0.4c-2.2,0.2-4.8,0.5-6,2.4
			c3.8,0.2,7.6-0.8,10.7-2.8c-0.9,1.5-1.8,3.1-2.2,4.8s0.1,3.7,1.6,4.8c-1.2-1.5-0.7-3.7,0.3-5.3c1-1.6,2.3-3,3-4.8
			c1.7-4.3-1.2-9.5,0.8-13.7c0.6-1.4,1.7-2.5,2.9-3.4c0.9-0.7,1.8-1.4,2.9-1.6c1.6-0.3,3.8,0.1,4.7,1.6c0.9,1.5,1.8,3,2.7,4.6
			c1.4,2.4,2.9,4.8,4.3,7.2c0.5,0.9,1.1,1.8,1.8,2.6c1.3,1.2,3,1.9,4.3,3.1c0.8,0.7,1.4,1.5,2.3,2c1.7,0.9,3.8,0.3,5.7,0.5
			c-0.8-0.6-1.8-0.9-2.7-1.4c-2.3-1.2-3.9-3.2-5.4-5.2c5.2-0.2,10.3,2.8,15.4,2.2c-1.5-1.2-3.7-1-5.6-1.2c-2.7-0.2-5.3-1.3-7.4-3.1
			c0.8-0.6,1.9-0.6,2.9-0.6c2.5,0.1,5,0.1,7.5,0.2c0.4,0,0.9,0,1.3-0.2c0.4-0.2,0.6-0.7,0.4-1.1c-1.5,0.2-3,0.4-4.5,0.7
			c-1,0.2-2.1,0.3-3.1,0.1c-0.7-0.2-1.4-0.5-2-0.9c-3.5-2.1-6.3-5.2-9-8.4c-0.4-0.5-0.9-1-1.1-1.7s-0.1-1.4,0.5-1.8
			c-0.4-0.7-1.5-0.4-2.2-0.2c-3.2,1.2-7,0.8-9.8-1.2c-0.6-0.4-1.3-1.1-1.1-1.9c-1.5-2.2-3.9-4.2-4.5-6.8c-0.6-2.6,0-5.7,2.1-7.3
			c0.4-0.3,0.7-0.5,1.1-0.8c0.7-0.7,0.8-1.7,1.3-2.5c1.1-2,3.5-2.7,5.7-3.2c2.1-0.5,4.2-1.1,6.4-1.6c-0.9-1.3-3.3-1.3-4.1,0.1
			c-0.2,0.3-0.3,0.6-0.6,0.8c-0.4,0.3-0.9,0.2-1.3,0.1c-0.8-0.1-1.6,0-2.4,0.2c-1.8,0.4-3.5,1.3-5,2.5
			C78.4,108.1,77.3,109.2,76.4,111.5z"/>
		<path class="st7" d="M150.5,135.9c2.5-9.5,12.6-15.6,15-25.2c-3.4,1.6-6.3,4.4-8,7.8c-0.5,0.9-0.8,1.8-1.4,2.7
			c-0.9,1.5-2.3,2.7-3.5,4c-2.3,2.7-3.9,5.9-5.4,9.1c-1.1,2.3-2.3,4.7-2.1,7.2c0.2,2.7,1.8,5.1,2.2,7.8c0.4,2.5,1.2,6.5,0.8,9
			c-0.4,1.9-1.4,2.2-2.3,4.4c4.7-4.3,4.7-7.6,4.6-11.5C150.2,146.1,149.2,140.9,150.5,135.9z"/>
		<path class="st5" d="M70.9,161.3c0,0.4-0.3,0.9-0.5,1.2c-1.1,1.8-2.2,3.5-3.3,5.3c-1,1.7-2.1,3.3-3.1,5c-0.2,0.4-0.5,0.8-0.7,1.2
			c-0.2,0.4-0.4,0.7-0.6,1.1c-1,1.8-1.5,3.8-1.6,5.8c0,0.2,0,0.4,0,0.5c-0.1,0.5-0.4,1-0.5,1.5c-0.1,0.5,0,1.1-0.1,1.6
			c-0.1,1.2-0.8,2.4-0.3,3.4c-0.6-1-1.1-2-1.4-3.1c-0.3-1.1-0.3-2.3,0.2-3.3c0.1-0.3,0.3-0.6,0.4-0.9c0.1-0.5,0-1-0.2-1.5
			c-0.2-0.5-0.4-0.9-0.7-1.4c-0.2-0.3-0.4-0.6-0.4-1c0-0.3,0.1-0.5,0.2-0.7c0.8-1.4,1.7-2.7,2.8-3.9c0.9-1,1.9-1.9,2.3-3.2
			c0.1-0.4,0.2-0.7,0.4-1c0.2-0.3,0.5-0.5,0.7-0.8c0.7-0.6,1.1-1.4,1.6-2.2c0.2-0.4,0.5-0.8,0.6-1.2c0.1-0.4,0.1-0.9,0.4-1.2
			c0.2-0.2,0.4-0.3,0.5-0.5c0.3-0.4,0-1.2,0.5-1.3c-0.4-0.3-0.8-0.7-1.2-1C68.1,159.7,71,159.7,70.9,161.3z"/>
		<path class="st8" d="M77,154.4c0.2-0.8,0.6-1.4,1-2.1c2.6-5.4,0-12.2,2.2-17.8c0.4-0.8,1.5-0.2,2.1,0.4c1.2,1.3,2.4,2.6,3.6,3.9
			c0.9,0.9,1.8,2,2,3.2c0.2,1.3-0.6,2.8-1.9,2.8c1.5,1.8,3.1,3.5,4.6,5.3c0.3,0.3,0.6,0.7,1,0.9c0.5,0.3,1.1,0.3,1.7,0.3
			c4.2,0.2,8.4,1.9,11.6,4.6c-2.7,1.8-6.2,1.5-9.5,1.3c-3.2-0.2-6.9-0.1-9.2,2.2c-0.2,0.2-0.4,0.4-0.4,0.6c0,0.3,0.3,0.6,0.5,0.8
			c0.6,0.8,0.1,1.9-0.7,2.6c-0.7,0.6-1.7,1-2.3,1.7c-1.3,1.3-1.8,3.8-3.7,3.8c-1.4,0-2.3-1.8-2.1-3.2c0.2-1.9,1-3,0.7-4.9
			C77.8,158.7,76.4,156.6,77,154.4z"/>
		<path class="st9" d="M80.4,142.2c-0.1,0.7-0.1,1.4-0.1,2.2c0,1.2,0.2,2.4,0.2,3.6c-0.1,1-0.3,2.1-0.6,3.1
			c-0.5,1.9-1.1,3.8-1.6,5.8c-0.1,0.5-0.3,1-0.1,1.5c0.1,0.3,0.4,0.6,0.6,0.8c1.1,1.7-0.2,4.2,0.9,5.9c0.9-0.4,1.2-1.5,1.4-2.4
			c0.1-1,0.1-2,0.5-2.9c0.1-0.3,0.3-0.6,0.4-0.9c0.1-0.3,0-0.7,0-1c-0.2-1.5-0.6-3.1,0-4.5c0.2-0.5,0.5-0.9,0.7-1.4
			c0.3-0.8,0.3-1.7,0.3-2.6c0-1.1,0-2.1,0-3.2c0-0.5,0-1,0.3-1.4c0.2-0.2,0.4-0.4,0.6-0.6c0.8-0.9,0.4-2.3,0-3.5
			c-0.3-0.8-1.2-3.3-2.3-2.9C80.2,138.1,80.4,141.3,80.4,142.2z"/>
		<path class="st8" d="M69.5,75.1c1.6,1.6,4.4,0.8,6-0.8c1.6-1.6,2.5-3.8,4.1-5.4c1.2-1.2,2.8-2,4-3.3c3.3-3.4,3.1-9.4,6.9-12.2
			c0.9,2.2,4.2,3,6,1.4c0.9-0.8,1.4-2,1.9-3.1c2-4.3,6.6-8.5,10.9-6.5c0.9,1.5,1.8,3.1,2.7,4.6c1.8-0.8,3.6-1.6,5.3-2.4
			c6.9-3.1,14.4-6.2,21.6-4.3c2.7,0.7,5.2,2.2,8,2.7c3.9,0.6,3-1.2,4.9-4.1c1-1.6,2-3.2,3-4.8c0.3-0.4,0.5-0.8,0.6-1.3
			c0.1-0.4,0.1-0.7,0.1-1.1c0-2.4,0-4.9,0-7.3c0-0.6,0-1.2-0.3-1.7c-0.2-0.4-0.5-0.8-0.9-1.1c-1.3-1.3-2.7-2.7-4-4
			c-0.5-0.5-1.1-1.1-1.8-1.4c-0.7-0.3-1.4-0.5-2.1-0.6c-10.9-2.1-20.9,0.2-31.9,0.2c-8.5,1.7-16.6,5.3-23.4,10.7
			c-4,3.1-7.5,6.8-10.4,10.9c-3.2,4.6-10,10.9-9.1,16.8c0.3,2.3,1.7,3.7,1.5,6.2C73,66.9,70.7,71.4,69.5,75.1z"/>
		<path class="st3" d="M142.2,168.3c9.8-12.9,6.3-18.9,4.7-27.7c-0.2-5.3,14.5-24.1,14.1-26c-0.4-1.9-0.2-4.3,1.5-5.3
			c-2-3.1-4-6.2-6.1-9.4c1.8-0.2,2.3-2.7,1.4-4.2c-0.9-1.5-2.6-2.3-4.1-3.3c-3-1.8-5.6-5.8-3.5-8.5c1.1-1.4,2.9-1.8,4.4-2.8
			c3.9-2.5,4.7-8,8.3-10.8c1.9-1.5,4.5-2.1,6.2-3.7c1.2-1.1,2-2.7,2.6-4.3c1.9-5,2.4-10.5,1.5-15.8c-0.3-1.7-0.7-3.4-0.2-5
			c0.6-1.9,2.2-3.2,3.4-4.7c2.8-3.8,2.3-9.6-0.9-13c9.7,9,16.8,21.1,20.6,33.8c0.4,1.5,0.8,3,1.5,4.4c0.3,0.7,0.7,1.4,1,2.1
			c0.4,1,0.5,2,0.7,3.1c0.5,3.3,0.7,6.6,0.7,9.9c0,3.2-2.1,6.8-2.4,10c-0.1,1.6-0.3,1.7-1,3.2c-0.8,1.7-0.4,4.3-1.7,5.7
			c-1.9,1.9-3.4,4.2-4.4,6.7c-0.2,0.5-0.4,0.9-0.6,1.4c-0.4,0.1-0.8,0.4-1.1,0.9c-1,1.7-2.2,3.2-3.4,4.8c-0.3,0.4-0.7,0.8-1,1.2
			c-1.1,0.8-2.3,1.5-3.5,2.2c-0.9,0.5-1.1,1.9-1.6,3c-0.6,0.5-1.2,0.9-1.8,1.4c-0.4,0.3-0.8,0.7-1.2,1.1c-0.2,0.1-0.3,0.3-0.5,0.5
			c-0.8,0.8-1.5,1.6-2.3,2.4c-0.1,0.1-0.2,0.3-0.3,0.4c-0.5,0.3-1.1,0.5-1.6,0.6c-0.2,0.9-0.6,1.6-1.1,2.3c-0.3,0.3-0.6,0.5-0.9,0.8
			c-0.9,0.8-1.8,1.6-2.7,2.5c-1.3,1-2.5,2.1-3.2,3.5c-0.4,0.8-0.7,1.7-0.8,2.6c-0.4,1.1-0.7,2.3-0.8,3.4c-1.7,3.3-1.8,7.2-1.7,10.9
			c0,1,0.8,1.6,1.6,1.8c0.2,1.7,0.5,3.4,0.9,5.1c0.8,3.5,2.3,6.8,3.3,10.2c0.5,1.6,0.9,3.3,1.3,4.9c0.2,0.8,0.4,1.6,0.4,2.3
			c0,0.1,0,0.3,0,0.4c0.2,1,0.3,2.1-0.2,3.1c0-0.1-0.1-0.2-0.1-0.3c-0.1,1.2-0.2,2-0.8,3.3c-0.5,1-0.7,2.2-0.9,3.3
			c0-5.5-1-9.9-4.2-14.4c-0.2,0-0.4,0-0.6,0c0.1,1.4,0.9,2.7,1.3,4c0.4,1.3,0.4,2.8,0.4,4.1c0,2.3,0,4.7,0,7c0,0.4,0,0.8-0.3,1.1
			c-0.4,0.4-1.1,0.3-1.5,0.7c-0.5,0.4-0.5,1.2-0.4,1.8c0.1,0.9,0.2,1.9,0.4,2.8c0.3,2.3,0.5,4.7,1.4,6.8c0.8,1.8,2,3.4,2.5,5.3
			c0.4,1.5,0.2,3.1,0,4.7c-0.2,1.8-0.4,3.6-0.6,5.4c-0.3,0.1-0.4-0.4-0.4-0.7c0.3-4.6-1.5-9-3.2-13.3c-1.7-4.3-3.2-8.9-2.2-13.4
			c0.3-1.5,0.9-3,1.3-4.5C159.9,180.1,159.5,157.9,142.2,168.3"/>
		<path class="st8" d="M128.1,145.2c-0.6,1.9-1.5,3.8-3.2,4.9c-1.4,0.9-3.5,1.5-3.4,3.2c0,1.1,1.2,1.9,2.3,1.9c1.1,0,2.1-0.5,3.1-1
			c1-0.5,2-1,3-1.5c0.4-0.2,0.8-0.4,1.2-0.3c0.3,0.1,0.6,0.3,0.8,0.6c1.4,1.8,0.8,4.5,1.6,6.6c0.3,0.8,0.8,1.5,1.3,2.2
			c1.3,1.7,2.5,3.5,3.8,5.2c0.8-1.8,1.6-3.8,1-5.6c-0.2-0.5-0.4-1-0.7-1.5c-0.6-1-1.2-2.1-1.8-3.1c-0.3-0.5-0.6-1.1-0.6-1.8
			c0.2-1.5,2.2-1.8,3.2-3c0.8-0.9,0.9-2.3,0.8-3.6c0-1.5-0.1-3-0.1-4.5c0-0.4,0-0.9-0.2-1.3c-0.2-0.4-0.6-0.8-0.9-1.1
			c-1.1-1.2-1.8-2.7-1.8-4.3c-1,1.3-1.6,3-1.4,4.6c-1.9-0.3-3.7-3.5-5.7-2.6C128.8,140,128.7,143.7,128.1,145.2z"/>
		<path class="st8" d="M78.9,81.4c1.6-2.2,1.3-5.5,3-7.6c2.3-2.8,7.2-2.3,9.2-5.3c0.6-0.9,0.8-1.9,1.4-2.8c1.2-1.9,3.6-2.5,5.8-3
			c6.5-1.4,13.1-2.7,19.7-3.7c1.5-0.2,3.1-0.5,4.1-1.7c0.5-0.6,0.8-1.3,1.1-2c1.8-3.3,5.5-5.1,9.2-5.6s7.4,0.3,11.1,1
			c-1.4,4.4-4.3,8.4-8.1,11.1c-2,1.4-4.4,2.6-5.6,4.8c-0.8,1.4-1.1,3.1-2.2,4.4c-0.7,0.7-1.6,1.2-2.3,2c-1.7,1.8-1.6,4.6-1.4,7
			c0.3,3.3,0.5,6.6,2.1,9.5c0.7,1.4,1.7,2.7,1.8,4.2c0.1,2.2-1.8,4-2.1,6.2c-0.4,2.8,1.6,5.2,3.7,7.1c3,2.6,6.5,4.8,10.2,6.5
			c-2.1,3.4-7.5,4.1-10.5,1.4c-0.5-0.5-1-1-1.7-1.3c-0.6-0.2-1.3,0-2,0c-2.3,0-4-1.8-6-3c-1.9-1.2-5-1.6-6,0.5
			c-0.4,0.9-0.3,1.9-0.6,2.9c-0.9,2.9-5,2.6-7.9,3.1c-5.4,1-9.9,6.2-15.3,5.3c-1.4-0.2-2.8-1-3.2-2.3c-0.4-1.3,0.7-3.1,2.1-2.8
			c-2.4-0.8-2.9-4.3-1.5-6.3c1.4-2,4.1-2.8,6.6-3c2.5-0.1,5,0.3,7.5,0c2.5-0.3,5.1-1.3,6.2-3.6c-1.2,0.1-2-1.5-1.8-2.7
			c0.3-1.2,1.1-2.2,1.8-3.3c0.6-1.1,1-2.5,0.2-3.5c-0.7-0.9-2-0.9-3.1-0.9c-7.9,0.1-15.9,1.4-23.5,3.7c-1.4,0.4-2.9,0.9-3.9,2
			c-0.5,0.5-0.8,1-1.3,1.5c-5.2,5.3-7.6-3.8-6.3-7.6C71.1,89.4,72.1,80,78.9,81.4z"/>
		<path class="st8" d="M68.8,129.3c-0.4,0.2-0.8,0.3-1.2,0.4c-1.9,0.2-2.9-2.5-4.7-3c-0.8-0.2-1.8,0-2.4,0.7
			c-0.1,0.2-0.3,0.4-0.5,0.5c-0.3,0.2-0.6,0.2-0.9,0.2c-0.6,0-1.1,0-1.6-0.2c-0.5-0.3-0.9-0.8-0.7-1.4c0.1-0.2,0.3-0.4,0.4-0.7
			c0.6-0.9,0.5-2.3-0.2-3.1c-0.3-0.3-0.7-0.6-1-0.9c-0.7-0.8-0.6-2-0.5-3c0-0.4,0.1-0.8,0.3-1.2c0.2-0.3,0.4-0.6,0.7-0.8
			c1-0.9,1.9-1.8,2.9-2.7c0.3-0.3,0.6-0.5,0.7-0.9c0.2-0.4,0.2-0.9,0.4-1.2c0.4-0.8,1.7-0.9,2.2-0.3c0.5,0.6,0.5,1.6,1.2,2.1
			c0.5,0.4,1.3,0.1,1.9,0.1c1.1,0,2.2,0.7,2.9,1.5c1.4,1.4,2.3,3.2,2.6,5.2c0.2,1.2,0.2,2.5,1,3.4c0.4,0.4,0.9,0.6,1.3,0.9
			c1.2,0.8,3.2,2.6,1.1,3.5c-0.9,0.4-2,0.2-3,0.3C70.9,128.7,69.8,128.9,68.8,129.3z"/>
		<path class="st9" d="M94.2,75.4c-0.6,0.5-1.3,1-2,1.3c-0.9,0.3-2,0.3-2.9,0.7c-1,0.5-1.6,1.6-2.1,2.6c-2.7,5.3-6.3,11.1-12.1,12.3
			c4,1.3,8.7,0,11.3-3.3c0.6-0.8,1.1-1.6,1.9-2.2c0.8-0.6,1.9-0.7,2.8-0.8c5.5-0.8,11.4-1.5,16.5,0.8c2.5,1.1,4.9,3.4,4.8,6.2
			c-0.1,2.6-2.1,5.5-0.4,7.3c1.2,1.2,3.4,0.7,4.5-0.5c1.1-1.3,1.5-3,1.8-4.7c0.9-4.7,1.4-10.5-2.4-13.5c3-2.5,1.5-7.5,3.3-10.9
			c1.2-2.1,3.4-3.3,5.5-4.7s4-3.3,3.9-5.7c-5.7,2.6-10.8,3.8-16.9,5.1C105.5,66.8,99.3,71.4,94.2,75.4z"/>
		<path class="st9" d="M60.3,121.6c-0.6-0.7-1.2-1.4-1.7-2.2c-0.1-0.2-0.3-0.4-0.3-0.6c0-0.3,0.3-0.6,0.6-0.7c0.3-0.1,0.7,0,1,0.1
			c0.7,0.2,1.3,0.5,1.9,0.9c-0.4-0.3,1-1.5,1.3-1.6c0.9-0.1,1.7,1.2,2.2,1.8c0.8,1.1,2.7,2.6,2.6,4.1c0,1.8-1.3,1.5-2.5,0.6
			c-0.9-0.7-1.2-1.3-2.4-1.5C61.8,122.2,61.3,122.8,60.3,121.6z"/>
		<path class="st9" d="M94.6,116.2c0.8-0.3,1.4-0.8,2.2-1c1.1-0.2,2.2,0.1,3.3-0.1c1-0.2,1.8-0.8,2.8-0.8c0.6,0,1.2,0.2,1.7-0.1
			c0.3-0.2,0.5-0.6,0.9-0.7c0.3-0.1,0.5,0.1,0.8,0.1c0.6,0,0.9-0.7,1.2-1.2c0.3-0.5,1.1-1,1.5-0.5c-0.1-0.8-0.2-1.7-0.9-2.1
			c-0.3-0.1-0.6-0.2-0.9-0.2c-2.2-0.3-4.7-0.5-6.3,1.1c-0.6,0.6-1.1,1.5-2,1.8c-1.7,0.5-2.8-0.9-4.4,0.5c-0.9,0.8-1.8,2.2-2.3,3.3
			C93,116.7,93.9,116.5,94.6,116.2z"/>
		<path class="st3" d="M150.2,157.8"/>
		<path class="st10" d="M125.6,198.4c0-5.3,0-10.8-2.3-15.5c-1.4-2.9-3.5-5.4-5.8-7.6c-2.3-2.2-4.2-4.7-6.2-7.3
			c-1.3-1.6-2.6-3.3-3-5.3c-0.2-1.1-0.2-2.2-0.9-3.1c-0.4-0.5-1-0.8-1.5-1c-4.3-1.4-8.7,2.3-13.2,2c-0.6,0-1.2-0.1-1.8,0
			c-0.6,0.2-1.1,0.7-1,1.3c0.1,0.4,0.3,0.7,0.2,1c-0.1,0.3-0.5,0.4-0.8,0.6c-0.8,0.5-0.9,1.6-1.1,2.5c-0.9,4.9-8,10.1-11.6,4.3
			c-0.8-1.4-0.6-3.3-1.6-4.5c-1-1.2-3.2-1.1-4.1,0.2c-0.3,4.5-5,7.6-6.3,11.9c-0.5,1.8-0.5,3.6-0.4,5.5c0.2,5.6,1.4,11.7-1.6,16.8
			c-0.7,1.2-1.1,1.7-2.2,2.3c-1.7,0.9-1.8-0.2-2.2,2.5c-0.5,3.8-0.7,7.5-0.6,11.3c0.2,5.3,1.1,10.6,2,15.9
			c0.9,5.1,1.7,10.3,2.6,15.4c0.5,3.1,1.1,6.2,2.6,8.8c1.1,1.9,2.9,3.5,5.1,3.6c2.1,0.1,4.2-2.1,3.6-4.1c-3-4.3-1.7-9.6-1.3-14.6
			c0.3-3.6-1.1-6-2.1-9.4c-0.4-1.2-0.4-6.8-1.3-7.2c-2.5-1.2-2.9-5-0.5-6.5c2.1-1.3,1.1-2.4,0.1-4.3c-0.8-1.6-1.8-3.1-2.4-4.8
			c-1.6-4.5,0.7-8,2.3-12.2c2.6-6.4,4-15.4,10.4-18.8c0,0,0-0.1,0-0.1l0.4-0.1c1.2-0.6,2.6-1,4.2-1.1c0.2,0,0.3,0,0.4,0
			c1.8-0.4,3.6-0.8,5.4-1.3c3.2-0.7,6.6-1.4,9.5,0c1.2,0.6,2.2,1.5,3,2.5c2.5,3.2,3.5,7.3,4.2,11.3c0.5,2.8,1,5.7,1.4,8.6
			c0.9,6.2,1.7,12.5,1,18.8c-0.2,1.9-0.4,3.6-0.1,5.5c0.1,0.5,0.1,0.9,0.2,1.4c0.3,1.9,0.5,3.8,0.2,5.7c-0.5,3.6-2.9,6.8-3.3,10.4
			c-0.2,1.6,0,3.2-0.3,4.7c-0.7,3.7-1.7,4.5-4.7,6.8c-1.1,3.7-4.2,8.9-5.4,12.7c1.8-0.6,4,0.1,4.8,1.8c0.1-0.2,0.3-0.5,0.4-0.7
			c3.4-5.7,8.3-11.7,14.9-12.1c-0.2-1.6,1.4-5.9,1.2-7.5c1.8-1.1,1.9-3.6,1.7-5.7c-0.2-2.1-0.3-4.5,1.2-6c0.8-0.8,2-1.1,2.8-1.9
			c1.2-1.1,1.5-2.9,1.7-4.5c0.8-6.4-0.7-13.1,1-19.3C125.6,204.9,125.6,201.7,125.6,198.4z"/>
		<path class="st8" d="M111.3,185.1c0.3,0.2,0.5,0.5,0.6,0.8c0.4,0.9-0.6,1.8-0.7,2.8c-0.2,1.4,1.1,2.5,1.7,3.7
			c0.5,1,0.6,2.1,0.2,3.2c0.9,0.7,2.3-0.2,2.8-1.2c0.6-1,0.7-2.2,1.5-3.1c0.2-0.3,0.6-0.5,0.7-0.9c0.1-0.3,0.1-0.7,0.1-1.1
			c-0.1-1.6-0.2-3.2-0.4-4.8c0-0.4-0.1-0.8-0.2-1.2c-0.3-0.7-1-1.1-1.6-1.6c-2.2-1.8-1.6-4.6-3.3-6.6c-1.4-1.7-3.7-2.7-5.8-1.8
			C100.7,176.4,108.7,183,111.3,185.1z"/>
		<path class="st8" d="M110.7,199.4c-0.1,0.4-0.3,0.7-0.2,1.1c0.1,1,1.6,1.3,2.1,2.2c0.5,1-0.1,2.5,0.8,3.1c0.5,0.3,1.3,0,1.7-0.4
			c0.9-1,0.9-2.6,0.4-3.8c-0.5-1.2-1.5-2.2-2.5-3.1c-0.7-0.7-1.4-1.4-2.1-2C111.3,197.4,111.1,198.4,110.7,199.4z"/>
		<path class="st8" d="M118.6,201.7c0.5,0.6,0,1.5-0.3,2.2c-0.7,1.4-0.9,3-0.7,4.6c0.6-0.6,1.1-1.3,1.7-1.9c0.6-0.7,1.2-1.4,1.6-2.2
			c0.8-1.7,0.5-3.8,0.1-5.6c-0.3-1.5-0.8-2.9-0.7-4.4c-0.4-0.4-1.1-0.6-1.7-0.5c-1.3,0.2-2.4,1.9-3.7,1.4c1,1.9,2.3,3.7,3.9,5.2
			c-0.1,0.5-0.1,1-0.2,1.5"/>
		<path class="st8" d="M111.9,209.5c-0.3,0.6-0.6,1.1-0.6,1.8c-0.2,1.7,1.2,3.6,0.3,5.1c-0.3,0.5-1,0.8-1.2,1.4
			c-0.2,0.7,0.3,1.4,0.4,2.2c0.3,1,0,2,0.1,3c0.1,0.8,0.5,1.6,0.8,2.4c0.5,1.8,0.2,3.7,0.1,5.5c0,0.1,0,0.3,0.1,0.4
			c0.1,0.1,0.3,0.1,0.4,0.1c0.9-0.1,1.6-0.9,1.9-1.8c0.3-0.9,0.3-1.8,0.4-2.7c0-0.4,0.1-0.8,0-1.2c-0.1-0.5-0.4-0.9-0.6-1.4
			c-0.3-0.7-0.5-1.4-0.5-2.2c0-0.3,0-0.6,0.2-0.9c0.3-0.4,0.8-0.5,1.3-0.4c0.5,0.1,0.9,0.4,1.3,0.6c0.8-1.6,1.2-3.5,0.9-5.3
			c1.6,0.2,3.5,0.4,4.8-0.7c0.8-0.7,1.1-1.7,1.5-2.7c0.2-0.7,0.5-1.4,0.7-2c0.1-0.3,0.2-0.5,0.2-0.8c0-0.4-0.3-0.7-0.4-1.1
			c-0.4-1-0.2-2.5-1.2-3c-0.7,1.2-1.8,3.4-3.1,4.1c-1.1,0.6-2.1-0.1-2.7-1.1c-0.5-0.8-0.8-1.7-1.9-2
			C113.1,206.2,112.6,208.2,111.9,209.5z"/>
		<path class="st8" d="M117.5,224.5c0,0.2,0,0.5-0.2,0.6c-0.3,0.3-1-0.1-1.4,0.2c0.7,1.6,0,3.4-0.2,5.1c0,0.5,0,1,0.3,1.3
			c0.5,0.4,1.3-0.1,1.5-0.7c0.2-0.6,0.1-1.2,0.2-1.9s0.5-1.3,1.1-1.3c0.7,0,1.2,0.7,1.4,1.4c0.5-0.4,0.7-1.1,0.8-1.7s0-1.3,0.2-1.9
			c0.3-0.7,0.8-1.1,1.2-1.7c1-1.4,1.6-7.4-1.6-6.4c-2.4,0.8-0.2,5.4-3.3,5.5C117.5,223.4,117.6,224,117.5,224.5z"/>
		<path class="st8" d="M111.2,234.9c-0.5,0.6-0.8,1.3-1.2,1.9c-0.6,0.8-1.7,1.3-1.9,2.3c-0.2,1.1,0.9,2.1,0.9,3.2
			c0,1.1-1,1.8-1.7,2.7c-1,1.2-1.6,2.8-1.4,4.4c-1.3,0.8-1,3.3-2.4,3.9c-0.4,0.2-0.8,0.2-1.2,0.3c-1.7,0.7-1.4,3.3-2.7,4.7
			c-0.5,0.5-1.2,0.8-1.7,1.2c-0.5,0.5-0.8,1.4-0.3,1.8c1.4,0.6,2.7-0.9,3.3-2.2c0.6-1.4,1.1-3.1,2.6-3.4c0.7-0.2,1.4,0,2-0.5
			c0.8-0.7,0.5-2.3,1.4-2.8c0.3-0.2,0.8-0.2,1.2-0.2c0.9,0,1.7,0,2.6,0.1c0.2,0,0.5,0,0.6-0.2c0.2-0.2,0.1-0.5,0.1-0.8
			c-0.2-0.7-0.4-1.5-0.6-2.2c0.9,0.6,2.3,0.2,2.7-0.8c0.4-1-0.2-2.3-1.3-2.5c-1-0.2-3.7,1.3-3.3-1.6c0.3-2.2,3-2,4.5-2.6
			c1.7-0.7,2.1-1.7,1.5-3.6C114.3,236.6,112.9,233,111.2,234.9z"/>
		<path class="st11" d="M115.8,185.4c-0.2-0.9-0.7-1.7-1.4-2.4c-0.7-0.8-1.4-1.4-2.2-2c0.1-0.8-0.4-1.6-0.9-2.2
			c-0.2-0.3-0.5-0.6-0.7-0.9c-0.6-0.8-1.3-1.6-2.2-2.1c-0.4,0.8-0.4,1.8,0.1,2.5c0.4,0,0.7,0.2,0.8,0.6c-0.7,0.5-0.3,1.8,0.5,1.8
			c0.2,0,0.5,0,0.7,0.1c0.2,0.1,0.3,0.3,0.4,0.4c0.4,0.6,0.5,1.4,0.9,2s0.9,1.3,1.6,1.3c0.4,0,0.9-0.1,1,0.3c0.1,0.1,0,0.3,0,0.4
			c-0.1,0.8-0.2,1.6-0.7,2.3c-0.1,0.2-0.3,0.4-0.4,0.6c-0.1,0.2-0.1,0.4-0.1,0.5c0,1.2,0.3,2.5,0.9,3.4c0.3-0.9,1.1-1.4,1.4-2.3
			C116.1,188.4,116.1,186.7,115.8,185.4z"/>
		<path class="st11" d="M118.7,196c-0.1-0.3-0.5-0.6-0.9-0.5c-0.4,0.3-0.4,0.8-0.3,1.2s0.5,0.7,0.9,1c0.6,0.6,1.2,1.1,1.9,1.7
			c-0.1-1.1-0.2-2.3-0.9-3.2"/>
		<path class="st9" d="M115.7,210.3c-0.2-0.3-0.5-0.8-0.9-0.8c-0.2,0-0.3,0.1-0.4,0.2c-1,0.7-1.7,1.9-2,3.1c0.5,0.4,1.1,0.8,1.4,1.4
			c0.3,0.6,0.3,1.4-0.2,1.8c-0.2,0.1-0.3,0.3-0.4,0.4c-0.2,0.3,0.1,0.8,0.4,0.9c0.4,0.1,0.8,0,1.1-0.2c0.8-0.5,1.1-1.5,1.6-2.4
			c0.3-0.7,1-1.4,1.7-1.1c1.2,0.5,1.4-1.3,0.8-2C118,210.8,116.5,211.4,115.7,210.3z"/>
		<path class="st12" d="M111.4,240.3c0.6,0,1.1-0.6,1.4-1.1c0.3-0.5,0.4-1.1,0.4-1.7c0-0.5,0-1.1-0.4-1.4s-1-0.4-1.3,0
			c-0.5,0.4-0.6,1.2-0.6,1.8c0,0.2,0,0.5,0,0.7c0,0.6,0.1,1.3,0.7,1.5"/>
		<path class="st8" d="M98,172.6c0.5-0.1,1-0.3,1.5-0.2c1.2,0.2,2.2,1.8,3.4,1.3c0.4-0.2,0.6-0.5,0.9-0.8c1.1-1.2,2.7-1.6,4.3-1.7
			c0.8,0,1.7,0,2.4-0.5s1-1.6,0.3-2c-0.5-0.4-1.3-0.1-1.8-0.4c-0.9-0.4-0.8-1.7-0.6-2.6c0.2-1.2,0.3-2.6-0.2-3.7
			c-0.5-1.2-1.8-2.1-3-1.8c0.5,0.6,0.6,1.4,0.4,2.1c-1.2-0.5-2.7-0.4-3.8,0.2c-0.3,0.2-0.6,0.4-0.9,0.4c-0.3,0-0.6,0-0.9-0.1
			c-1.2-0.4-2.3-0.8-3.5-0.8s-2.5,0.5-3.1,1.6c-0.5,1-0.4,2.2-0.7,3.3c-0.4,1.7-1.7,2.4-3.3,3c-1.1,0.4-2.8,1.5-2.2,3.1
			C87.9,175.5,96.2,173.1,98,172.6z"/>
		<path class="st8" d="M68.5,192c0.1-1.2,0-2.5,0.2-3.7c0.4-2.2,1.6-4.1,2.9-5.9c1.3-1.9,2.6-3.9,4.5-5.3c2.4-1.8,5.4-2.5,8.4-3.1
			c-3.3-0.6-7.1-1.6-8.4-4.7c-0.4-0.9-0.5-1.9-1.2-2.5c-1-0.9-2.7-0.5-3.6,0.5c-0.9,1-1.1,2.4-1.2,3.7c0,0.5,0,0.9-0.2,1.4
			c-0.2,0.6-0.6,1.1-1.1,1.6c-1.8,2.1-3.1,4.5-3.9,7.1c-0.8,2.6-1.1,5.4-0.7,8.1c0.3,2,1,4,0.4,5.9c-0.9,2.6-3.8,3.7-6.4,4.6
			c0.6-0.2,3.3,1.8,4.3,1.9c1.2,0.1,1.9,0,2.8-0.8C67.4,198.9,68.4,194.7,68.5,192z"/>
		<path class="st8" d="M64.1,214.2c-0.3-1-0.2-2-0.3-3c-0.2-2.7-1.6-6.8-4-8.1c0,1.8,0.6,3.7,1.1,5.5c-0.4,0.1-0.8,0.1-1.1,0.2
			c0.1,3.4,0.1,6.7,0.2,10.1c0,2,0.1,3.9,0.2,5.9c0.2,3.3,0.7,6.7,1.9,9.8c1,2.5,2.4,5.1,1.9,7.7c-0.1,0.7-0.4,1.3-0.4,2
			c0,0.7,0.2,1.4,0.3,2.1c0.1,0.4,0.1,0.7,0.2,1.1c1.6,2.7,2.9,5.8,3.7,9c0.2,0.7,0.4,1.5,0.5,2.2c0-0.9-0.1-1.9,0.4-2.7
			c0.4-0.7,1.1-1.2,1.6-1.9c0.9-1.4,0.4-3.4,0-5.1c-0.6-2.5-0.7-5.1-1.3-7.7c-0.8-3.5-2.3-6.7-4.5-9.5c1.1,0.4,2.2,0.9,3.3,1.3
			c0-1.7-0.4-3.4-1.1-4.9c-0.2-0.4-0.4-0.9-0.8-1c-0.3-0.1-0.7,0-1-0.2c-0.4-0.2-0.7-0.6-0.9-1.1c-0.8-1.6-1.5-3.3-1.2-5
			c0.4-1.7,2.5-2.8,3.6-1.5c-0.1-1.1-0.2-2.1-0.3-3.2C65.1,216.1,64.4,215.2,64.1,214.2z"/>
		<path class="st9" d="M71.5,179.4c0.5-0.7,0.9-1.5,1.4-2.1c0.6-0.9,1.5-1.5,2.5-1.9c0.8-0.3,1.7-0.5,2.5-0.9c0.1,0,0.2-0.1,0.2-0.2
			c0.1-0.1-0.1-0.3-0.2-0.4c-1.4-1.4-2.8-2.7-4.2-4.1c-0.3-0.3-0.6-0.6-1.1-0.6c-0.7,0.1-0.9,1-0.7,1.7s0.6,1.3,0.5,2
			c-0.1,0.2-0.2,0.4-0.3,0.6c-0.6,0.9-1.3,1.8-2,2.6c-1,1.1-1.9,2.2-2.8,3.4c-0.3,0.4-0.6,0.9-0.7,1.5c-0.1,0.4,0,0.8,0,1.2
			c0.1,1.4-0.3,2.7-0.3,4.1c0,1.2,0.3,2.9,1.4,3.6c0-1.7-0.6-3.6-0.3-5.2C68,182.2,70.1,181.3,71.5,179.4z"/>
		<path class="st9" d="M96.2,168.8c-0.1,0.2-0.3,0.4-0.5,0.6c-0.3,0.2-0.7,0.2-1.1,0.3c-1.2,0.2-2.2,1.1-2.7,2.2
			c1.3-0.1,2.5-0.3,3.8-0.4c0.4,0,0.7-0.1,1-0.2c0.7-0.2,1.4-0.8,2.1-0.9c0.7,0,1.3,0.4,1.9,0.7c0.7,0.2,1.6,0.1,1.7-0.6
			c0.1-0.7-0.8-1.5-0.3-2.1c1.1-0.3,2.3,0.6,3.2-0.1c0.4-0.3,0.5-0.8,0.6-1.2c0.1-0.3,0.2-0.6,0.3-1c0.1-0.3,0.1-0.8-0.2-1
			c-0.3-0.1-0.5,0.1-0.8,0.1c-0.5,0.1-1-0.6-0.7-1.1c-0.4-0.5-1.1-0.2-1.7,0c-1.3,0.7-2.7,0.8-4.1,1.3
			C97.6,166.1,96.9,167.8,96.2,168.8z"/>
		<path class="st9" d="M65.2,235.9c-0.6,2.2-0.1,4.7,1.2,6.5c-1,2.4-0.8,5.3,0.5,7.6c-0.1,0.2-0.2,0.5-0.3,0.7
			c0.7,1.5,1.3,3.1,1.8,4.7c0.2-0.6,0.3-1.2,0.5-1.8c1.2-3.3-0.6-5.1-1.5-8.1c-0.1-1.8-0.1-3.5-0.2-5.3
			C67.1,238.5,66.7,236.4,65.2,235.9z"/>
		<path class="st9" d="M60.3,219c0.1-0.6,0.6-1,1.1-1.1c0.6-0.1,1.2,0,1.7,0.1c0.5-0.4,0.4-1.2,0.3-1.8c-0.6-2.5-1.5-5-2.7-7.3
			c-0.4,1.5-0.3,3.2,0.1,4.7c0.1,0.3,0.2,0.6,0.1,0.9c-0.1,0.4-0.5,0.6-0.8,0.9c-1.1,1.1-0.8,3-0.4,4.5c0.2,0.9,0.4,1.8,0.7,2.8
			c0.1,0.6,0.3,1.3,0.3,1.9c0.1,1.1-0.3,2.3,0,3.4c0.3,1.1,1.1,1.9,1.8,2.8c0.1-0.6,0.2-1.2,0.2-1.8c0,0.3,1.5-0.3,1.6-0.4
			c0.6-0.4,1-1.2,1.1-2c0.1-1.3-0.1-1.3-1.2-1.7c-1.1-0.3-2.2-0.1-2.9-1.2C60.9,222.9,60.2,219.8,60.3,219z"/>
		<g>
			<g>
				<g>
					<path d="M128.3,290.2c0,0-0.3-0.1-0.9-0.2c-0.6-0.1-1.5-0.4-2.5-0.9c-2.1-1-4.8-3.4-6.5-7.4c-0.8-2-1.3-4.4-1.2-6.9
						c0-2.5,0.6-5.2,1.5-7.9c0.9-2.7,2.2-5.3,3.7-7.9c1.5-2.6,3.1-5.2,4.5-7.9c1.4-2.7,2.6-5.4,3.3-8.1c0.7-2.7,1-5.4,0.9-8.1
						c-0.1-2.6-0.5-5.1-0.8-7.5c-0.4-2.4-0.7-4.6-1-6.7c-0.5-4.1-0.6-7.5-0.5-9.8c0.1-2.3,0.2-3.6,0.2-3.6s0.1,1.3,0.3,3.6
						c0.2,2.3,0.7,5.6,1.5,9.6c0.4,2,1,4.2,1.5,6.5c0.5,2.4,1.1,4.9,1.3,7.8c0.2,2.8,0.1,5.8-0.6,8.9c-0.7,3-1.9,6-3.5,8.8
						c-1.5,2.8-3.2,5.4-4.7,7.9c-1.5,2.5-2.8,4.9-3.8,7.4c-2,4.8-2.4,9.7-1.2,13.5c1.2,3.8,3.5,6.3,5.4,7.5c0.9,0.6,1.8,1,2.3,1.2
						C128,290.1,128.3,290.2,128.3,290.2z"/>
				</g>
			</g>
		</g>
		<g>
			<g>
				<g>
					<path d="M127.9,286.4c0,0-0.1,0-0.3-0.1c-0.2-0.1-0.4-0.2-0.8-0.4c-0.6-0.4-1.5-1.3-2-2.7c-0.6-1.4-0.8-3.3-0.6-5.4
						c0.1-1.1,0.4-2.2,0.8-3.3c0.3-1.2,0.8-2.3,1.3-3.6c1.1-2.4,2.6-4.9,4.4-7.5c1.7-2.6,3.7-5.2,5.7-8c1.9-2.8,3.9-5.8,5.2-9.1
						c0.7-1.6,1.2-3.4,1.5-5.2c0.1-0.9,0.2-1.8,0.2-2.7c0-0.9,0-1.9-0.1-2.8c-0.3-3.8-1-7.6-1.7-11.3c-0.7-3.7-1.4-7.2-2-10.7
						c-1.1-6.8-1.7-13.1-1.8-18.3c0-0.7,0-1.3,0-1.9c0-0.6,0-1.2,0.1-1.8c0-1.2,0.1-2.3,0.1-3.3c0.2-2.1,0.3-3.9,0.5-5.3
						c0.5-2.9,0.7-4.5,0.7-4.5s-0.1,1.6-0.3,4.5c-0.1,1.5,0,3.2-0.1,5.3c0,1,0.1,2.1,0.1,3.3c0,0.6,0.1,1.2,0.1,1.8
						c0.1,0.6,0.1,1.2,0.2,1.9c0.4,5.2,1.3,11.3,2.7,18c0.7,3.4,1.5,6.9,2.3,10.6c0.8,3.7,1.6,7.5,1.9,11.6c0.1,1,0.1,2.1,0.1,3.1
						c0,1-0.2,2.1-0.3,3.1c-0.4,2-1,4-1.8,5.7c-1.6,3.6-3.7,6.7-5.8,9.4c-2.1,2.8-4.2,5.3-6,7.7c-1.8,2.4-3.4,4.7-4.7,7
						c-0.6,1.1-1.1,2.2-1.5,3.3c-0.5,1.1-0.8,2.1-1,3.1c-0.4,2-0.3,3.8,0.1,5.1c0.4,1.4,1.1,2.3,1.7,2.8c0.3,0.3,0.5,0.4,0.7,0.5
						C127.8,286.4,127.9,286.4,127.9,286.4z"/>
				</g>
			</g>
		</g>
		<g>
			<g>
				<g>
					<path d="M145.2,259.7c0,0,0.1-0.2,0.4-0.5c0.2-0.3,0.6-0.8,0.9-1.5c0.8-1.4,1.7-3.4,2.1-6.1c0.1-0.7,0.2-1.4,0.2-2.1
						c0-0.7-0.1-1.4-0.2-2.2c-0.3-1.5-0.7-3.2-1.3-4.9c-1.1-3.5-2.6-7.2-4-11.3c-0.7-2-1.4-4.1-1.8-6.2c-0.3-2-0.6-3.9-0.9-5.8
						c-0.5-3.7-0.9-7-1.2-9.8c-0.3-2.8-0.4-5.1-0.5-6.7c-0.1-1.6-0.1-2.4-0.1-2.4s0.8,3.4,2,8.9c0.6,2.7,1.4,6,2.2,9.6
						c0.4,1.8,0.8,3.7,1.2,5.7c0.4,1.8,1.1,3.8,1.8,5.8c1.4,4,2.7,7.9,3.6,11.6c0.4,1.8,0.8,3.6,0.9,5.4c0,0.9,0,1.7-0.1,2.6
						c-0.1,0.8-0.3,1.6-0.5,2.3c-0.8,2.8-2.2,4.8-3.2,6c-0.5,0.6-0.9,1.1-1.2,1.4C145.4,259.6,145.2,259.7,145.2,259.7z"/>
				</g>
			</g>
		</g>
		<g>
			<g>
				<g>
					<path d="M148.3,173.1c-0.1,0,1.2,0.6,2.5,2.6c0.6,1,1,2.4,1.3,4c0.1,0.8,0.2,1.7,0.3,2.6c0.1,0.9,0.2,1.8,0.3,2.9
						c0.2,2.1,0,4.4-0.3,6.8c-0.3,2.4-0.7,4.9-0.9,7.5c-0.5,5.3-0.5,11.1,0.4,17c0.5,3,1.1,5.9,1.8,8.7c0.7,2.8,1.4,5.6,1.9,8.3
						c0.5,2.7,0.7,5.4,0.6,7.8c-0.2,2.5-0.7,4.8-1.5,6.7c-1.6,3.9-3.9,6.5-5.6,8c-0.9,0.8-1.6,1.3-2.1,1.6c-0.5,0.3-0.8,0.5-0.8,0.5
						s0.2-0.2,0.7-0.6c0.4-0.4,1.1-1,1.8-1.9c1.5-1.7,3.4-4.4,4.5-8.2c0.6-1.9,0.9-4,0.9-6.3c0-2.3-0.4-4.7-1-7.3
						c-0.6-2.6-1.4-5.2-2.2-8.1c-0.8-2.8-1.5-5.8-2-9c-1-6.3-0.8-12.4,0.1-17.8c0.4-2.7,0.9-5.2,1.4-7.5c0.5-2.3,0.7-4.5,0.8-6.4
						c0-1,0-2,0-2.9c0-0.9,0-1.8,0-2.6c0-1.6-0.3-2.9-0.8-3.9C149.4,173.8,148.2,173.1,148.3,173.1z"/>
				</g>
			</g>
		</g>
		<g>
			<g>
				<g>
					<path d="M155.9,231.8c0,0,0.1-0.2,0.3-0.7c0.2-0.4,0.4-1.1,0.6-2c0.4-1.7,0.9-4.3,1-7.4c0.1-1.6,0.1-3.3-0.1-5.1
						c-0.1-0.4-0.1-0.9-0.3-1.3c-0.1-0.4-0.3-0.9-0.4-1.4c-0.3-1-0.6-1.9-0.9-3c-0.6-2-1.3-4.3-1.5-6.8c-0.1-1.3-0.1-2.5,0-3.7
						c0.1-1.2,0.2-2.5,0.3-3.7c0.7-5,2-9.5,3.4-13.6c0.3-1,0.7-2,0.9-2.9c0.2-0.9,0.4-1.8,0.4-2.7c0.1-1.8,0-3.5-0.2-5
						c-0.5-3.1-1.3-5.6-1.8-7.3c-0.5-1.7-0.8-2.7-0.8-2.7s0.5,0.9,1.2,2.5c0.8,1.6,1.9,4,2.8,7.2c0.4,1.6,0.8,3.4,0.8,5.4
						c0,1-0.1,2-0.2,3.1c-0.2,1.1-0.5,2.1-0.7,3.1c-1,4.1-2.2,8.6-2.8,13.3c-0.2,1.2-0.3,2.3-0.3,3.5c-0.1,1.2-0.1,2.3-0.1,3.3
						c0.1,2.1,0.6,4.3,1.1,6.3c0.2,1,0.5,2,0.7,3c0.1,0.5,0.2,1,0.3,1.5c0.1,0.5,0.2,1.1,0.2,1.6c0.1,2-0.2,3.8-0.4,5.4
						c-0.6,3.2-1.4,5.7-2,7.4c-0.3,0.8-0.7,1.5-0.9,1.9C156,231.6,155.9,231.8,155.9,231.8z"/>
				</g>
			</g>
		</g>
		<g>
			<g>
				<g>
					<path d="M155.2,232.7c0,0,0-0.2,0.1-0.6c0-0.4,0.1-0.9,0.1-1.6c0-1.4-0.3-3.4-0.8-5.8c-0.5-2.4-1.3-5.3-2.6-8.2
						c-0.7-1.4-1.7-3-2.3-4.8c-0.6-1.8-0.8-3.8-0.8-5.8l0-0.4c0-0.1,0-0.4,0-0.5l0.1-0.7c0-0.5,0.1-0.9,0.1-1.4
						c0.1-0.9,0.2-1.8,0.3-2.7c0.2-1.8,0.4-3.5,0.7-5.2c0.3-1.7,0.6-3.2,0.9-4.6c0.1-0.4,0.1-0.7,0.2-1.1l0.1-0.3c0,0,0-0.1,0-0.2
						c0-0.2,0-0.3,0.1-0.5c0.1-0.7,0.2-1.3,0.2-2c0.1-0.6,0.2-1.2,0.2-1.8c0-0.5,0-1.1,0-1.6c-0.1-1-0.1-1.9-0.1-2.6
						c-0.1-1.4-0.1-2.2-0.1-2.2s0.1,0.8,0.4,2.1c0.1,0.7,0.3,1.5,0.4,2.5c0.1,0.5,0.2,1,0.2,1.6c0,0.6,0,1.2,0,1.8c0,0.6,0,1.3,0,2
						c0,0.2,0,0.3,0,0.5c0,0.1,0,0.2,0,0.3l0,0.3c0,0.4-0.1,0.7-0.1,1.1c-0.2,1.5-0.4,3-0.6,4.6c-0.2,1.6-0.3,3.3-0.4,5.1
						c-0.1,0.9-0.1,1.8-0.2,2.7c0,0.5-0.1,0.9-0.1,1.4l-0.1,0.7c0,0.2,0,0.1,0,0.3l0,0.4c0,1.9,0.1,3.7,0.6,5.2
						c0.5,1.6,1.3,3.1,2,4.7c0.7,1.6,1.1,3.2,1.4,4.6c0.3,1.5,0.5,2.8,0.7,4.1c0.3,2.5,0.3,4.6,0.1,6c-0.1,0.7-0.2,1.2-0.3,1.6
						C155.2,232.5,155.2,232.7,155.2,232.7z"/>
				</g>
			</g>
		</g>
		<g>
			<g>
				<g>
					<path d="M160,180.8c0,0,0,0.4-0.1,1.2c-0.1,0.8-0.2,1.8-0.3,3.2c-0.1,1.3,0,2.9,0.3,4.6c0.3,1.7,0.8,3.5,1.6,5.3
						c0.7,1.8,1.6,3.6,2.2,5.3c0.6,1.7,1,3.3,1.2,4.7c0.1,1.4,0,2.5-0.2,3.3c-0.2,0.7-0.4,1.1-0.4,1.1s0.1-0.4,0.1-1.2
						c0-0.7-0.1-1.8-0.5-3.1c-0.4-1.2-1-2.7-1.7-4.3c-0.7-1.6-1.7-3.3-2.5-5.2c-0.8-2-1.3-4-1.4-5.9c-0.1-1.9,0.1-3.5,0.4-4.9
						c0.3-1.3,0.7-2.4,0.9-3.1C159.9,181.2,160,180.8,160,180.8z"/>
				</g>
			</g>
		</g>
		<g>
			<g>
				<g>
					<path d="M164.6,211c0,0,0.1-0.2,0.3-0.7c0.2-0.5,0.4-1.2,0.6-2.2c0.2-1,0.5-2.3,0.6-3.8c0.1-1.5,0.3-3.3-0.2-5.1
						c-0.4-1.9-1.1-4-1.3-6.5c-0.1-2.5,0.2-5.1,0.7-7.9c0.3-1.4,0.6-2.9,1-4.3c0.3-1.5,0.9-3,1-4.5c0.3-3.1-0.7-6.4-1.8-9.8
						c-0.5-1.7-1.3-3.4-1.9-5.2c-0.7-1.8-1.3-3.7-1.8-5.7c-1-3.9-1.7-8.2-1.5-12.7c0.1-2.2,0.5-4.5,1.2-6.8c0.7-2.2,1.8-4.4,3.3-6.4
						c1.4-2,3.3-3.8,5.1-5.3c1.8-1.6,3.5-3.3,5.3-5c6.9-7,13.7-15.2,18.5-24.9c2.4-4.9,4.2-10.1,5-15.7c0.8-5.5,0.5-11.3-1.1-16.9
						l3.3-0.8c0.2,1.2,0.3,2.5,0.6,3.5l-3.4,0.8c-0.4-2.6-1-5.2-1.9-7.8c-0.8-2.6-1.9-5.2-3.2-7.7c-2.5-5.1-5.8-9.9-9.6-14.5
						c-0.9-1.2-1.9-2.3-2.9-3.4c-1-1.1-2-2.3-3-3.2c-2.2-2-4.6-3.8-7.1-5.4c-5.1-3.2-10.9-5.6-17-7.3c-1.2-0.4-2.4-0.7-3.6-1L148,14
						c-0.6-0.1-1.2-0.2-1.8-0.3l-1.8-0.3c-0.6-0.1-1.2-0.1-1.8-0.2l-1.8-0.2l-1.8-0.1c-4.8-0.3-9.6,0-14.3,0.8
						c-9.4,1.6-18.1,5.5-25.6,10.6C91.7,29.4,85.3,36,80.3,43.1c-2.6,3.5-4.7,7.2-6.6,11c-1.9,3.8-3.5,7.6-4.8,11.5
						c-2.6,7.7-4.2,15.5-4.9,23c-0.4,3.8-0.7,7.6-1.5,11.3c-0.8,3.7-2.1,7.2-4.3,10.2c-0.6,0.7-1.1,1.4-1.8,2.1
						c-0.3,0.3-0.6,0.7-1,0.9l-0.8,0.7c-0.1,0-0.1,0.1-0.1,0.2l-0.1,0.4c-0.1,0.4-0.2,0.8-0.2,1.2c-0.1,0.8-0.2,1.6-0.3,2.4
						c-0.3,3.2-0.4,6.3-0.1,9.3c0.3,3,0.8,5.8,1.7,8.4c0.4,1.3,0.9,2.6,1.5,3.8c0.3,0.6,0.6,1.2,0.9,1.8c0.4,0.7,0.9,1.5,1.3,2.2
						c-0.4,0.3-0.7,0.6-1.1,0.8l-0.5,0.4c-0.2,0.1-0.2,0.2-0.4,0.3c-0.4,0.4-0.8,0.9-1.1,1.4c-0.6,1-1,2.1-1.3,3.2
						c-0.1,0.6-0.3,1.1-0.4,1.7c-0.1,0.3-0.1,0.6-0.2,0.8c-0.1,0.2,0,0.4,0,0.7c0,1.1,0.2,2.1,0.4,3.1c0.5,1.9,1.3,3.7,2.3,5.1
						c0.5,0.7,1,1.4,1.6,2c0.2,0.3,0.6,0.7,1,1c0.3,0.3,0.7,0.7,1.1,1c-0.7,0.6-1.7,1.3-2.3,1.8c-0.6,0.5-1.2,1.1-1.7,1.7
						c-1,1.2-1.6,2.5-1.8,3.8c-0.4,2.6,0.4,4.9,0.9,6.6c0.6,1.7,1,3,1.3,3.9c0.3,0.9,0.4,1.3,0.4,1.3s-0.2-0.4-0.5-1.3
						c-0.3-0.9-0.8-2.1-1.4-3.9c-0.6-1.7-1.4-3.9-1.1-6.7c0.2-1.4,0.8-2.8,1.8-4.1c0.5-0.6,1-1.3,1.7-1.8c0.3-0.3,0.6-0.5,0.9-0.8
						c0.3-0.2,0.6-0.4,0.8-0.7c-0.3-0.2-0.5-0.4-0.8-0.7c-0.3-0.2-0.5-0.4-0.8-0.8c-0.6-0.6-1.2-1.3-1.7-2.1c-1.1-1.5-2-3.3-2.6-5.3
						c-0.3-1-0.5-2.1-0.5-3.3l0-0.4c0-0.2,0-0.4,0.1-0.5c0.1-0.3,0.1-0.5,0.2-0.8c0.1-0.6,0.2-1.1,0.4-1.7c0.3-1.2,0.6-2.4,1.3-3.6
						c0.3-0.6,0.8-1.1,1.2-1.6c0.1-0.1,0.3-0.3,0.3-0.4l0.3-0.2c0.2-0.2,0.3-0.3,0.5-0.4c-0.2-0.4-0.5-0.8-0.7-1.2
						c-0.3-0.6-0.7-1.2-1-1.8c-0.6-1.2-1.2-2.5-1.7-3.9c-1-2.7-1.6-5.7-2-8.8c-0.4-3.1-0.4-6.3-0.1-9.6c0.1-0.8,0.2-1.7,0.3-2.5
						c0-0.4,0.1-0.8,0.2-1.3l0.1-0.8l0.1-0.5c0-0.1,0.2-0.2,0.3-0.3l1.1-1c0.3-0.2,0.6-0.6,0.8-0.9c0.3-0.3,0.6-0.6,0.8-0.9l0.7-1
						c1.9-2.7,3-5.9,3.7-9.4c0.7-3.5,1-7.2,1.3-11c0.5-7.7,2-15.8,4.6-23.8c1.3-4,2.9-8,4.8-11.9c1.9-3.9,4.1-7.8,6.7-11.5
						c5.2-7.4,11.7-14.3,19.5-19.9c7.8-5.5,17-9.7,27-11.4c5-0.9,10.1-1.2,15.2-0.9l1.9,0.1l1.9,0.2c0.6,0.1,1.3,0.1,1.9,0.2
						l1.9,0.3c0.6,0.1,1.3,0.2,1.9,0.3l1.9,0.5c1.2,0.3,2.5,0.6,3.7,1c6.3,1.8,12.4,4.3,17.9,7.8c2.8,1.7,5.3,3.7,7.7,5.9
						c1.2,1.1,2.3,2.3,3.3,3.5c1,1.2,2,2.4,3,3.6c3.9,4.8,7.3,9.9,9.9,15.3c1.3,2.7,2.5,5.4,3.3,8.2c0.9,2.8,1.5,5.6,1.9,8.5
						l-3.4,0.8c-0.6-1.7-0.6-3.1-0.7-4l3.3-0.8c1.7,6.1,1.9,12.3,1,18.3c-0.9,5.9-2.9,11.5-5.5,16.5c-2.6,5.1-5.6,9.7-8.9,13.9
						c-3.3,4.2-6.9,8-10.5,11.5c-1.8,1.7-3.6,3.4-5.5,5c-1.9,1.6-3.5,3-4.9,4.9c-2.7,3.5-4,7.8-4.3,12c-0.3,4.2,0.2,8.3,1.2,12.1
						c0.5,1.9,1,3.8,1.6,5.6c0.6,1.8,1.3,3.5,1.8,5.3c1,3.5,2.1,7,1.6,10.4c-0.1,0.8-0.3,1.7-0.6,2.4c-0.2,0.8-0.4,1.5-0.6,2.2
						c-0.4,1.5-0.8,2.9-1.1,4.3c-0.6,2.8-0.9,5.4-0.9,7.8c0.1,2.4,0.7,4.5,1.1,6.5c0.2,1,0.3,1.9,0.3,2.8c0,0.9-0.1,1.7-0.2,2.4
						c-0.2,1.5-0.5,2.8-0.7,3.7c-0.3,1-0.5,1.7-0.7,2.2C164.7,210.8,164.6,211,164.6,211z"/>
				</g>
			</g>
		</g>
		<g>
			<g>
				<g>
					<path d="M84.3,256.9c0,0-0.1-0.2-0.4-0.6c-0.3-0.4-0.6-1-0.8-1.8c-0.5-1.7-0.6-4.3-0.1-7.4c0.1-0.4,0.1-0.8,0.2-1.2
						c0.1-0.3,0.1-0.8,0.2-1.2c0.1-0.8,0.3-1.7,0.4-2.6c0.3-1.8,0.6-3.7,0.9-5.7c0.1-1,0.2-2,0.1-2.9c-0.1-0.9-0.4-1.9-0.8-2.9
						c-0.7-2-1.6-4.2-2.5-6.3c-1.8-4.3-3.4-8.6-4.2-12.7c-0.9-4.1-0.8-7.9-0.2-11c0.6-3.1,1.8-5.4,2.7-6.8c0.5-0.7,0.9-1.2,1.2-1.6
						c0.3-0.3,0.5-0.5,0.5-0.5s-0.1,0.2-0.4,0.6c-0.3,0.4-0.6,0.9-1,1.7c-0.8,1.5-1.7,3.8-2,6.8c-0.3,3-0.1,6.6,0.8,10.5
						c1,3.9,2.6,8,4.4,12.3c0.9,2.2,1.7,4.3,2.4,6.4c0.4,1.1,0.7,2.2,0.8,3.4c0.1,1.2,0,2.3-0.2,3.3c-0.4,2-0.8,3.9-1.2,5.7
						c-0.2,0.9-0.4,1.7-0.6,2.6c-0.1,0.4-0.2,0.8-0.3,1.2c-0.1,0.4-0.2,0.7-0.3,1.1c-0.8,2.9-0.9,5.4-0.6,7.1
						c0.2,0.8,0.4,1.5,0.6,1.9C84.2,256.7,84.3,256.9,84.3,256.9z"/>
				</g>
			</g>
		</g>
		<g>
			<g>
				<g>
					<path d="M86.6,271.1c0,0-0.1-0.3-0.2-0.8c-0.1-0.5-0.4-1.3-0.5-2.2c-0.4-2-0.6-4.9,0.1-8.5c0.4-1.8,1.1-3.7,1.8-5.6
						c0.7-2,1.3-4.1,1.8-6.3c1-4.5,1.3-9.6,0.9-15c-0.5-5.3-1.8-10.3-3.4-14.6c-1.6-4.4-3.2-8.5-3.5-12.1c-0.4-3.6,0.2-6.6,1-8.5
						c0.4-0.9,0.8-1.6,1.1-2c0.3-0.4,0.5-0.7,0.5-0.7s-0.1,0.2-0.4,0.7c-0.2,0.5-0.6,1.2-0.9,2.1c-0.6,1.9-1,4.8-0.3,8.2
						c0.6,3.5,2.3,7.3,4.1,11.7c1.8,4.4,3.3,9.5,3.8,15.1c0.5,5.5,0,10.9-1.2,15.5c-0.6,2.3-1.3,4.5-2.2,6.4
						c-0.8,1.9-1.6,3.7-2.1,5.4c-1,3.4-1,6.3-0.8,8.2c0.1,1,0.2,1.7,0.3,2.3C86.5,270.8,86.6,271.1,86.6,271.1z"/>
				</g>
			</g>
		</g>
		<g>
			<g>
				<g>
					<path d="M89.4,223c0,0,0.3,0.4,0.6,1.2c0.4,0.8,0.8,2,1.1,3.6c0.3,1.6,0.4,3.5,0,5.6c-0.2,1.1-0.6,2.2-1.1,3.2
						c-0.5,1.1-1.1,2.1-1.7,3.1c-2.3,4.2-3.4,8.4-3.8,11.5c-0.2,1.6-0.3,2.8-0.3,3.7c0,0.9,0,1.4,0,1.4s-0.1-0.5-0.1-1.4
						c-0.1-0.9-0.1-2.2,0-3.8c0.2-3.2,1-7.6,3.4-11.9c0.6-1.1,1.2-2.1,1.7-3c0.5-1,0.9-2,1.1-3c0.5-2,0.5-3.9,0.3-5.4
						c-0.2-1.6-0.5-2.8-0.8-3.6C89.6,223.4,89.4,223,89.4,223z"/>
				</g>
			</g>
		</g>
		<g>
			<g>
				<g>
					<path d="M98.2,235.2c0,0,0,0.5-0.1,1.3c-0.1,0.8-0.2,2-0.6,3.5c-0.4,1.5-1.1,3.1-1.9,4.9c-0.9,1.8-1.9,3.7-3,5.7
						c-1.1,2-2.3,3.8-3.2,5.5c-0.9,1.7-1.6,3.3-1.9,4.7c-0.3,1.4-0.4,2.6-0.3,3.4c0.1,0.8,0.2,1.3,0.2,1.3s-0.2-0.4-0.3-1.3
						c-0.2-0.8-0.2-2.1,0-3.6c0.2-1.5,0.8-3.2,1.7-5c0.9-1.8,2-3.6,3.1-5.6c1-2,2.2-3.9,3.1-5.6c0.9-1.7,1.7-3.3,2.2-4.7
						c0.5-1.4,0.8-2.5,1-3.4C98.1,235.7,98.2,235.2,98.2,235.2z"/>
				</g>
			</g>
		</g>
		<path class="st7" d="M73,141c-1.3,1.4-3.4,1.9-4.9,3.1c0.4,0.3,1,0.5,1.5,0.4c-1.1,0.2-2.1,0.4-3.2,0.5c1.3,1.3,3.7,1.4,5.2,0.3
			c0,0.4,0,0.9,0,1.3c-0.2,0-0.4,0-0.6,0c-0.7,1.3-2.2,1.9-3.6,2.4c-1,0.3-2,0.7-3,1c1.6,0.2,3.3,0.4,4.8-0.2
			c1.5-0.6,2.5-1.9,3.8-2.9c0.1-0.1,0.2-0.2,0.4-0.1c0.3,0,0.3,0.5,0.2,0.8c-0.6,1.4-1.1,2.8-1.7,4.2c1.1-1.1,2.1-2.2,2.8-3.6
			c1.2-2.4,1.1-5.1,1-7.7c0-0.5,0-1.1-0.1-1.6c-0.1-0.6-0.4-1.2-0.5-1.7c-0.2-0.9,0-1.9,0.4-2.8c-0.8,0.9-1.3,1.9-1.3,3.2
			C74.2,138.8,73.9,140,73,141z"/>
		<path class="st7" d="M91.8,129.3c-0.4,0.3-0.2,1,0.1,1.4c0.3,0.4,0.8,0.8,0.7,1.4c-0.5-0.1-1.1-0.1-1.6-0.2c0,0.3,0,0.7-0.2,1
			c-0.2,0.3-0.6,0.4-0.8,0.3c-0.1-0.1-0.2-0.2-0.3-0.2c-0.2,0-0.3,0.1-0.4,0.3c-0.3,0.3-0.5,0.7-0.5,1.1c0,0.4,0.2,0.8,0.4,1.2
			c0.7,1.2,1.4,2.4,2.2,3.5c0.6,0.8,1.2,1.7,1.8,2.5c0.6,0.8,1.2,1.6,1.8,2.4c0.6,0.7,1.2,1.5,2,1.8c-0.9-1.3-1.7-2.7-2.6-4
			c-0.5-0.8-1.1-1.9-0.7-2.8c0.6,2.1,1.9,4,3.7,5.2c-0.8-1.6-1.5-3.3-2.3-4.9c-0.3-0.7-0.7-1.5-0.5-2.3c3,4.2,7.4,7.3,12.4,8.6
			c-1.4-0.7-2.8-1.4-4.2-2.1c-1-0.5-2.1-1.1-2.1-2.2c0.3-0.1,0.7-0.2,1-0.1c-0.2-0.5-0.8-0.7-1.3-0.9s-1.1-0.6-1-1.1
			c0.3-0.1,0.5-0.1,0.8-0.2c-0.5,0.1-2.1-2-2.4-2.4c-0.8-0.9-1.5-1.8-2.1-2.8C94.5,132,93.5,130.6,91.8,129.3z"/>
		<path class="st10" d="M62.6,268c-0.6,1.6-1.3,3.2-1.4,4.9c-0.1,1.1,0.1,2.2-0.1,3.3c-0.2,0.9-0.6,1.7-1,2.5
			c-2.2,4.7-2.5,10.3-0.9,15.2c0.4,1.3,0.9,2.5,1.1,3.8c0.2,1.4-0.1,2.9,0.1,4.3c0.1,1.4,0.6,2.7,1.1,4c1.8,4.8,3.8,9.6,7.1,13.6
			c0.4-2.1,0-4.4-0.9-6.4c0.3-0.1,0.6-0.2,0.9-0.3c-1.9-5.6-0.4-11.8-1.3-17.7c-0.7-4.3-2.6-8.5-2-12.9c0.7,0.6,1.3,1.3,1.7,2.1
			c1-0.1,1.7-1.1,1.8-2.1c0.1-1-0.1-2-0.2-3c-0.7-7.1,6.1-13.1,6.3-20.2c-1.6,1-3.3,1.8-5.2,2.1c-0.4,0.1-0.8,0.1-1.2,0
			c-1.4-0.3-1.7-2.1-2.1-3.4c-0.4-1.5-1.2-3-2.3-4.2c0.4,0.4,0.2,3.1,0.3,3.7c0.2,1.2,0.7,2.4,0.8,3.5
			C65.2,263.2,63.5,265.9,62.6,268z"/>
		<path class="st8" d="M72.8,262.3c-2.2,0.9-4.7,0.8-6.8-0.2c-0.7,0.6-0.6,1.6-0.6,2.5c0,1.6-0.8,3.2-1.3,4.7
			c-0.9,2.3-1.5,4.8-1.8,7.3c-0.1,0.9-0.2,1.8-0.5,2.6c-0.4,1.2-1.2,2.2-1.7,3.4c-1.2,2.7-0.8,5.9-0.3,8.8c0.7,4.5,1.4,9,2.1,13.5
			c0.1,0.8,0.3,1.7,0.6,2.5c0.3,0.7,0.7,1.4,1.1,2c1,1.5,1.9,3.1,2.9,4.6c0.9-3.2-0.8-6.5-0.9-9.9c-0.1-2.6,0.7-5.1,0.6-7.7
			c-0.2-3-1.6-5.7-2-8.7c-0.3-2.4,0.2-4.8,0.7-7.2c1-0.1,2,0.4,2.4,1.2c-0.1-2.5-0.1-5.1-0.2-7.6c0.4-0.1,0.9,0,1.3,0.2
			c1.1-1.9,1-3.8,1.5-5.8C70,267.2,71.7,262.7,72.8,262.3z"/>
		<path class="st3" d="M80.7,192.7c0.5-0.5,1-0.9,1.3-1.5c-0.7,0-1.4,0.5-1.6,1.1c-0.4,0.1-0.6-0.4-0.6-0.8c-0.1-1-0.4-1.2-1.3-0.7
			c-2.2,1.1-3.3,3.5-4.3,5.7c-0.3,0.6-0.6,1.2-0.7,1.9c-0.1,0.9,0,1.8,0.2,2.7c0.4,3.1,0.2,6.3-0.7,9.3c-0.3,1.1-0.8,2.2-0.9,3.4
			c-0.4,3.5,1.9,6.6,2.8,9.9c0.6,2,0.6,4.2,0.2,6.2c-0.2,0.7-0.4,1.5-0.3,2.2c0.1,0.7,0.5,1.4,0.8,2.1c0.6,1.2,0.8,2.6,0.9,3.9
			c0.4,3.8,0.5,7.7,0.1,11.5c-0.5,5.8-2,11.6-3.4,17.3c-0.5,2.1-1.1,4.3-1.6,6.4c1.4-2,2.8-3.8,3.6-6.1c1.5-4.1,3-8.1,4.4-12.2
			c1.4-3.9,2.8-7.9,3.5-12c0.4-2.6,0.5-5.1,0.6-7.7c0.1-1.5,0.1-3.1,0-4.6c-0.2-2.2-0.9-4.4-1.9-6.4c0.2-3.5-0.4-6.8-1.9-9.9
			c-0.5-1-1.2-1.9-1.6-2.9c-0.5-1.3-0.7-2.7-0.8-4.1c-0.3-3.3-0.8-7.3,0.5-10.4c1-2.4,2.6-4.4,4.2-6.5c0.1-0.2,0.3-0.4,0.2-0.6
			c0-0.2-0.3-0.4-0.5-0.2c-0.2-0.3,0.3-0.8,0.1-1.1c0-0.1-0.2-0.3-0.2-0.4c-0.2-0.3-0.2-0.6-0.2-1c0.1-0.9,0.9-1.6,1.8-1.9
			c0.9-0.3,1.8-0.2,2.8-0.1c1,0.1,1.9,0.2,2.9,0.3c0-0.1,0-0.3,0-0.4c1.8-0.3,3.7-0.1,5.5,0.4c-0.4,0.1-0.9-0.1-1.3-0.3
			c-1.8-0.8-3.6-1.2-5.6-1.4c-0.9-0.1-1.8,0-2.7,0c-0.5,0-1.1,0-1.5,0.3c-0.6,0.4-0.9,1.1-1.5,1.5c-0.2,0.2-0.5,0.3-0.7,0.4
			c-0.6,0.6-0.5,1.5-0.4,2.4c0.1,0.9,0.1,1.8-0.4,2.5c-0.1,0.2-0.4,0.4-0.6,0.3c-0.2-0.1-0.3-0.2-0.4-0.4c-0.1-0.1-0.3-0.3-0.5-0.2
			c-0.1,0.1-0.3,0.1-0.4,0.2c-0.1,0.1,0,0.3,0.2,0.4s0.3,0.1,0.4,0.3c0.1,0.1,0.1,0.2,0.1,0.3c0.1,0.2,0.1,0.3,0.2,0.4
			c0.1,0.1,0.2,0.2,0.3,0.2c0.1,0,0.2,0,0.3,0C80.4,192.8,80.6,192.9,80.7,192.7z"/>
		<path class="st13" d="M105.3,205.1c-0.7-2.7-1.8-5.3-2.4-8.1c-0.3-1.3-0.7-2.4-1.2-3.7c0.2-1.1-0.3-2.3-1.1-2.9c0,0,0,0.1,0,0.1
			c-0.1,1.5-0.5,2.9-1.2,4.3c-0.1,0.2-0.2,0.4-0.3,0.5c0.4,0.8,0.7,1.7,0.8,2.6c0.1,0.7,0.1,1.5,0.5,2.1c0.2,0.4,0.6,0.7,0.8,1.1
			c0.2,0.3,0.2,0.7,0.3,1.1c0.4,4.1,0.5,8.2,0.3,12.3c-0.1,1.2-0.2,2.4-0.6,3.4c-0.2,0.4-0.4,0.9-0.5,1.3c-0.1,1,0.7,1.9,0.9,2.9
			c0.2,1.2-0.6,2.4-1.2,3.5c-0.7,1.4-0.9,2.8-1.1,4.4c-0.1-1.5-0.4-2.9-0.9-4.3c-2.3-6.2-4.1-12.6-5.5-19c-0.4-2-0.8-4-0.7-6.1
			c0.1-1.8,0.7-3.6,0.8-5.4c0,0,0,0-0.1-0.1c-0.4-0.4-0.9-0.8-1.2-1.2c-0.1-0.1-0.2-0.2-0.2-0.3c-0.2,0.4-0.4,0.7-0.5,0.8
			c-0.1,0.2-0.3,0.4-0.4,0.6c-0.1,0.4-0.2,0.7-0.3,1c-1.4,4.3,0.4,8.8,1,13.3c0.5,3,0.4,6.2,1,9.2c0.9,4,3.1,7.6,3.8,11.6
			c0.9,5.4-0.9,10.9-2.9,15.9c-0.7,1.7-1.4,3.4-2.2,5.1c3.6-4.6,7-10.5,8-16.4c-0.1,2.1-0.4,4.1-1.3,5.9c2.4-1.5,3.8-4.2,4.9-6.8
			C106.5,225,107.9,214.6,105.3,205.1z"/>
		<path class="st13" d="M90.8,241.6c1.2-4.4,0.6-9-0.1-13.5c-0.3-2-0.5-3.9-1-5.9c-1.2-4.6-3.7-8.7-5.2-13.1
			c-1.5-4.4-1.9-9.5,0.7-13.3c0,0,0,0,0,0c-0.1,0.1-0.2,0.1-0.4,0.2c-2.4,3.7-3.1,8.3-2.6,12.7c0.5,4.5,2.1,8.8,3.8,13.1
			c1,2.5,2.1,5,2.7,7.7c0.5,2.7,0.5,5.5-0.6,8c-0.3,0.7-0.7,1.4-1,2.1c0,0,0,0,0,0c0.6-0.6,1.5-0.9,2.2-1.4c1.4-1,2.1-2.8,1.9-4.5
			C91.4,236.1,91.3,238.9,90.8,241.6z"/>
		<path class="st3" d="M79.1,195.9c0.4-1.4,1.8-2.3,2.2-3.7c-1.1,1.1-2.2,2.2-3.2,3.4c-0.3,0.3-0.5,0.7-0.8,1
			c-0.4,0.6-0.6,1.3-0.9,2c-0.5,1.4-1,2.7-1.2,4.2c-0.2,1.5-0.2,3-0.2,4.4c0,3.6,0,7.3,0,10.9c0,0.4,0.1,0.8,0.4,0.9
			c0.2,0.1,0.4,0,0.6,0.1c0.2,0.1,0.3,0.3,0.3,0.5c0.7,4.2,1.5,8.3,2.2,12.5c0.2,1.2,0.4,2.5,0.5,3.7c0.1,0.9,0.1,1.8,0.4,2.6
			c0.1,0.1,0.2,0.2,0.3,0.1c-0.3,3.1-0.9,6.4-1.2,9.6c-0.1,1-0.2,2-0.4,3c-0.2,0.9-0.5,1.8-0.7,2.7c-0.3,1.5-0.3,3.1-0.3,4.6
			l4.9-11.5c1.7-3.9,3.4-8.3,2.2-12.4c-0.3-1.1-0.9-2.2-1.2-3.4c-0.2-0.9-0.3-1.8-0.4-2.7c-0.5-4-1.5-7.8-2.6-11.7
			c-0.4-1.5-1-2.7-1.5-4.1c-0.3-0.9-0.6-1.9-0.7-2.9c-0.2-1.4-0.1-2.8-0.3-4.2c-0.1-1.2-0.4-2.4-0.5-3.6c-0.1-2.4,0.8-4.6,1.8-6.8"
			/>
		<path class="st3" d="M105.5,206.7c-0.7-4.3-1.4-8.6-3-12.5c-0.3-0.6-0.5-1.2-1-1.6c-0.5-0.4-1.1-0.6-1.8-0.5
			c-0.1,0.4-0.2,0.8-0.2,1.2c0.1,0.1,0.2,0.1,0.2,0.2c0.5,0.4,0.8,0.9,1.1,1.5c1.5,2.6,2.4,5.7,2.5,8.6c0.3,7.3,0.6,14.7-0.7,21.8
			c-0.2,1.1-0.5,2.3-1.1,3.3c-0.3,0.5-0.8,1-1.1,1.5c-0.3,0.5-0.5,1.1-0.7,1.7c-0.1-0.3-0.2-0.7-0.3-1c-0.1-0.6-0.1-1.1-0.1-1.7
			c0.1-4-1.2-7.9-2.6-11.8c-0.4-1.1-0.7-2.2-1.1-3.2c-0.3-0.6-0.5-1.3-0.8-1.9c-1.5-4-2.2-8.3-2.1-12.6c0-1,0.1-2.1,0.1-3.1
			c-0.2-0.2-0.3-0.4-0.4-0.6c-0.2-0.4-0.3-0.7-0.5-1.1c-0.1,1.1-0.2,2.1-0.4,3.1c-0.3,1.1,0.1,2.4,0.1,3.5
			c-0.2,5.3,1.8,10.4,2.2,15.7c0,0.3,0,0.6,0.2,0.8c0.1,0.1,0.3,0.2,0.4,0.3c0.8,0.7,0.1,2.1,0.5,3.2c0.3,0.8,1.2,1.3,1.6,2.1
			c0.3,0.7,0,1.5,0,2.2c-0.1,1.8,1.2,3.3,1.6,5.1c0.6,2.7-1.2,5.6-0.3,8.2c0.1,0,0.2-0.1,0.3-0.1c-0.4,1.7-0.7,3.4-0.8,5.2
			c-0.1,1.3-0.1,2.7,0.1,4c0.7-1.7,1.3-3.5,2-5.2c0.3-0.8,0.6-1.6,1-2.3c0.4-0.8,0.9-1.4,1.4-2.2c1.6-2.5,2.8-5.3,3.2-8.2
			c0.2-1.5,0.2-3,0.5-4.5c0.2-0.8,0.4-1.6,0.6-2.3c0.5-2.3,0.1-5.1,0.4-7.5C106.5,212.9,106,209.8,105.5,206.7z"/>
		<path class="st3" d="M90.8,225.7c-1.8-5.1-4.2-10.4-5.7-15.7c-0.3-1-0.6-2-0.9-3c-0.4-1.4-0.8-2.7-0.8-4.1c0-1.6,0.5-3.2,1-4.8
			c0.2-0.5,0.4-1.1,0.6-1.6c-0.2-0.3-0.4-0.6-0.6-1c-1.2,3.2-1.9,6.6-1.9,10.1c0,1.9,0.2,3.9,0.8,5.7c0.5,1.4,1.2,2.7,1.8,4
			c1.1,2.5,1.8,5.2,2.4,7.9c0.8,3.4,1.7,6.8,2.5,10.2c0.6-1.1,1-2.3,1.2-3.5c0.1-0.7,0.2-1.4,0.1-2.1
			C91.3,227.1,91.1,226.4,90.8,225.7z"/>
		<path class="st3" d="M154.7,213.6c0,0.2,0,0.4,0,0.6c-1.1-0.2-1.6-1.5-1.5-2.6c0-1.1,0.4-2.2,0.3-3.2c-0.2,0.8-0.4,1.6-0.6,2.3
			c-1.2-3.4-1.1-7.2-0.7-10.8c0.3-3.4,0.9-6.8,1.6-10.1c0.2-1,0.4-2,0.4-3c-0.1-1.7-1.1-3.4-0.7-5.1c0.2-0.6,0.5-1.1,0.5-1.7
			c0-0.4-0.2-0.9-0.3-1.3c-0.4-1.1-0.4-2.3-0.6-3.5c-0.2-1.2-0.8-2.4-1.9-2.8c0.3,0.4,0.4,0.9,0.5,1.4c0,0.1,0,0.3-0.1,0.3
			c-0.1,0.1-0.3,0.1-0.4,0.1c-1-0.1-2-0.5-2.8-1c1.5,1.4,2.3,3.5,2.8,5.6s0.5,4.1,0.5,6.2c0,2.8,0,5.5,0.1,8.3
			c0,0.8-0.5,1.4-0.7,2.2c-0.9,3.1-0.1,6.4-0.5,9.6c-0.1,1.2-0.5,2.4-0.4,3.6c0,1.9,0.9,3.8,1.7,5.5c1.5,3.3,2.8,6.7,3.8,10.2
			c0.3-0.9,0.5-1.8,0.4-2.7c-0.2-1.4-1.4-2.8-1.1-4.2c0-0.2,0.1-0.4,0.1-0.6c0-0.1-0.1-0.3-0.2-0.4
			C154.2,215.9,154.4,214.4,154.7,213.6z"/>
		<path class="st9" d="M68.3,268.4c0.3-0.7,0.6-1.3,0.9-2c0.2-0.4,0.3-0.8,0.3-1.2s-0.2-0.9-0.6-1c-0.6-0.2-1.2,0.5-1.3,1.2
			c0,0.2,0,0.5-0.1,0.7c-0.1,0.2-0.3,0.4-0.5,0.3c-0.2-0.4-0.4-0.8-0.6-1.2c-0.5,3.1-1.4,6.1-2.6,9c-0.4,0.9-0.8,1.8-0.6,2.7
			c0.1,0.4,0.4,0.9,0.8,0.7c0.1-0.3,0.2-0.7,0.3-1c0,0.7,0.1,1.4,0.1,2.1c0,0.1,0,0.3,0.1,0.4c0.1,0.1,0.2,0.1,0.3,0.1
			c0.4,0,0.7,0.1,1.1,0.1c0.4-0.8,0.3-1.8-0.1-2.6c-0.3-0.5-0.7-1-0.7-1.6c0,0.1,0.5-0.5,0.5-0.6c0.2-0.4,0.1-0.8,0.3-1.2
			c0.3-0.7,0.9-1,1.5-1.4C69.1,271,67.6,269.9,68.3,268.4z"/>
		<path class="st9" d="M64.3,302.4c-0.2-0.5-0.4-1-0.3-1.6c0.1-0.7,0.8-1.2,1-1.9c0.1-0.4,0-0.7,0-1.1c0-0.4,0.2-0.8,0.5-0.9
			c-0.2-1.4-1.6-2.5-1.5-3.9c0-0.5,0.3-1.1,0.2-1.6c-0.1-0.4-0.5-0.8-0.8-1.1c-0.5-0.6-0.9-1.3-1.1-2c-0.1-0.3-0.2-0.7-0.1-1
			c0.1-0.6,0.6-1.1,0.9-1.6c0.7-1,0.9-2.2,0.5-3.3c-0.2-0.2-0.5-0.1-0.7,0c-0.2,0.2-0.3,0.4-0.4,0.6c-0.4,0.8-0.8,1.6-1.2,2.5
			c-0.4,0.9-0.8,1.8-0.7,2.8c0.1,0.7,0.5,1.4,0.6,2.1c0.1,1.2-0.7,2.6,0,3.7c0.3-0.6,0.6-1.3,0.7-2c0.7,0.8,1,2,0.7,3
			c-0.1,0.3-0.2,0.6-0.5,0.7c-0.1,0.1-0.3,0.1-0.4,0.2c-0.2,0.2-0.3,0.5-0.3,0.7c0,0.8,0.5,1.7,1.1,2.2c0.1,0.1,0.3,0.2,0.4,0.4
			c0.1,0.2,0.1,0.3,0,0.5c-0.2,1.7-0.7,3.4-0.2,5.1c0.3,1,1,1.8,1.4,2.8c0.8,2,1-0.4,1-1.3C65,305,64.7,303.7,64.3,302.4z"/>
		<path class="st10" d="M99.3,268.2c0-0.2-0.1-0.4-0.1-0.6c0.1-0.4,0.5-0.5,0.8-0.7c0.6-0.4,0.8-1.1,1.2-1.7c0.4-0.7,1-1.3,1.6-1.8
			c1.7-1.6,3.5-3.3,5.2-4.9c0.7,0.9,0.2,2.2-0.3,3.3c-1.7,3.2-3.6,6.3-5.9,9.1c-0.2,0.3-0.4,0.5-0.5,0.9c-0.1,0.4,0.2,0.9,0.4,1.3
			c1,2.1,0.7,4.5,0.7,6.7c-0.1,2.3,0.1,4.8,1.6,6.5c0.3,0.3,0.7,0.7,0.9,1.1c0.2,0.4,0.3,0.9,0.3,1.4c0.7,4.6,4.9,7.9,7,12
			c0.3,0.6,0.6,1.2,0.6,1.9c0.2,1.4-0.4,2.8-0.6,4.3c-0.1,0.9,0,1.8-0.1,2.6c-0.3,1.3-1.1,2.4-1.9,3.5c-0.8,1.1-1.7,2.2-2.5,3.3
			c-0.5-0.3-0.8-0.9-0.6-1.4c0.2-0.6,0.9-1.2,0.6-1.7c-0.1-0.2-0.3-0.3-0.4-0.5c-0.5-0.6,0-1.4,0.7-1.8c0.6-0.4,1.4-0.5,2-0.9
			c1.2-0.9,1.1-2.6,1-4c0-0.3-0.1-0.5-0.2-0.7c-0.7-0.9-2.3,0.9-3.2,0.2c-0.3-1-0.2-2.1,0.2-3.1c0.1-0.3,0.3-0.6,0.2-0.9
			c-0.1-0.3-0.3-0.5-0.5-0.7c-0.6-0.5-1.2-1-1.8-1.5c-0.2-0.2-0.5-0.4-0.4-0.7c0-0.3,0.5-0.5,0.7-0.8c0.4-0.5-0.2-1.3-0.8-1.5
			c-0.6-0.2-1.3-0.1-1.9-0.3c-1-0.3-1.6-1.2-2-2.2c-0.4-0.9-0.7-1.9-1.3-2.8c-0.6-0.8-1.5-1.3-2.2-2c-0.7-0.7-1.2-1.8-0.7-2.7
			c0.9,0.1,1.8,0.6,2.4,1.3c0.2,0.2,0.4,0.5,0.7,0.6c0.4,0.2,0.9-0.1,1.2-0.5c0.2-0.4,0.3-0.9,0.3-1.3c0.1-0.9,0.1-1.8-0.3-2.5
			c-0.4-0.8-1.3-1.3-2.1-1c-0.3,0.1-0.6,0.4-0.8,0.6c-0.6,0.5-1.5,0.7-2.2,0.4c-0.7-0.4-1-1.5-0.3-1.9c0.1-0.1,0.3-0.2,0.4-0.3
			c0.4-0.5-0.4-1.1-1-1.3c-1.2-0.6-2-1.9-1.9-3.2c1-0.4,1.9,0.8,3,0.9c1.1,0.1,1.9-1,2-2.1c0.1-0.5,0-1.1-0.3-1.5
			c-0.4-0.6-1.1-0.8-1.8-1c-0.7-0.2-1.4-0.3-1.9-0.8c-0.7-0.6-0.6-1.3-0.1-1.9c0.3-0.4,1.3-1.4,1.7-1.6
			C96.8,268.9,99.5,270.3,99.3,268.2z"/>
		<path class="st8" d="M104.5,266c0.2-0.3,0.3-0.7,0.2-1c-0.1-0.1-0.1-0.2-0.1-0.3c0-0.2,0.2-0.2,0.4-0.3c1.5-0.6,2.5-2.1,2.6-3.6
			c-0.5,0-1,0.3-1.3,0.6c-1.4,1.2-2.9,2.5-3.9,4.1c-0.5,0.7-0.9,1.6-1.7,1.9c-0.1,0.7-0.3,1.4-0.6,2c-0.1,0.2-0.1,0.4-0.2,0.5
			c-0.1,0.4-0.3,0.7-0.6,0.9c-0.4,0.3-1.1,0.3-1.6,0.1s-1.1-0.3-1.6-0.2c-0.5,0.1-1,0.8-0.7,1.3c0.3,0.5,1,0.3,1.6,0.3
			c0.8,0.1,1.5,0.6,1.9,1.3c0.4,0.7,0.6,1.5,0.6,2.3c0,0.3,0.1,0.7-0.1,1c-0.1,0.4-0.4,0.6-0.7,0.9c-0.5,0.4-1,0.9-1.5,1.3
			c-0.3,0.2-0.6,0.5-0.4,0.9c0.2,0.6,1.6,0.3,1.6,1c0,0.4-0.5,0.8-0.3,1.2c0.4,0.1,0.8,0.1,1.1-0.2c0.1-0.1,0.3-0.2,0.5-0.3
			c0.7-0.1,0.8,1.1,1.5,1.3c0.6-0.6,0.6-1.5,0.6-2.3c-0.1-0.8-0.3-1.6,0-2.4c0.1-0.6,0.5-1.2,0.2-1.7c-0.2-0.2-0.4-0.4-0.4-0.7
			c0-0.1,0.2-0.2,0.2-0.4c0.2-0.4-0.4-0.8-0.7-1.1c-0.5-0.5-0.6-1.4-0.6-2.1c0-0.6,0.1-1.4,0.8-1.6c0.2-0.1,0.3,0,0.5-0.1
			c0.2-0.1,0.3-0.3,0.4-0.5c0.4-0.6,1.1-1,1.5-1.6C103.8,267.7,104.1,266.8,104.5,266z"/>
		<path class="st8" d="M104,288.9c-0.1-0.6-0.2-1.2-0.3-1.8c-0.2-0.6-0.6-1.2-1.2-1.3c-0.1,0.9-0.2,1.7-0.3,2.6c0,0.1,0,0.3-0.1,0.4
			c-0.1,0.1-0.3,0.1-0.5,0.1c-0.6,0-1.2,0-1.8,0c-0.3,0.9,0.2,2.1,1.2,2.4c0.2,0.1,0.5,0.1,0.7,0.3c0.4,0.4,0.1,1.1,0.3,1.7
			c0.1,0.3,0.2,0.5,0.4,0.7c0.4,0.5,0.9,1.1,1.6,1.1c0.2,0,0.5,0,0.7,0c0.3,0.1,0.6,0.4,0.8,0.6c0.5,0.6,1,1.3,1.4,1.9
			c0.1,0.2,0.2,0.4,0.1,0.5c-0.3,0.1-0.5,0.5-0.4,0.9c0.1,0.3,0.4,0.6,0.7,0.8c1.1,1,2,2.4,1.5,3.8c0.9-0.3,2.1,0.3,2.4,1.2
			c0,0.1,0.1,0.2,0.2,0.3c0.2,0.1,0.5-0.2,0.5-0.4c0.3-0.8,0.5-1.8,0-2.4c-0.2-0.2-0.5-0.4-0.7-0.5c-0.9-0.8-0.7-2.2-1.2-3.2
			c-0.3-0.5-0.8-1-1.2-1.4c-0.7-0.8-1.2-1.8-1.5-2.8c-1,0.1-2-0.1-2.8-0.6c-0.4-0.3-0.8-0.8-0.5-1.2c0.5-0.1,0.8,0.6,1.3,0.7
			c1.2,0.1,0.6-1.3,0.3-1.7C104.9,290.9,104.2,290,104,288.9z"/>
		<path class="st9" d="M99.5,280.7c0,0,0.1-0.1,0.1-0.1c0.2-0.3,0.4-0.6,0.6-0.9c0.1,0.1,0.3,0,0.4-0.2c0.1-0.1,0-0.3,0-0.5
			c0-0.5,0-1,0.2-1.5c-0.4-0.1-0.8,0.1-1.1,0.5c-0.3,0.4-0.3,1.4-0.9,1.1c-0.1,0.3-0.2,0.6-0.1,0.9
			C98.8,280.2,99.2,280.8,99.5,280.7z"/>
		<path class="st9" d="M102.4,268.8c0.4-0.5,0.7-1,1-1.6c0.2-0.4,0.4-0.7,0.7-1.1c-0.3,0.1-0.6,0.2-0.8,0.4c-0.1-0.2,0-0.4,0.2-0.6
			c0.1-0.2,0.3-0.3,0.3-0.6c-0.2-0.1-0.5,0-0.7,0.2c-0.2,0.2-0.3,0.4-0.5,0.6c-0.3,0.5-0.7,1.1-1,1.6c-0.1,0.2-0.3,0.4-0.3,0.7
			c0,0.2,0.2,0.5,0.5,0.4c0,0-0.1,0.4-0.1,0.5C101.9,269.3,102.2,269,102.4,268.8z"/>
		<path class="st9" d="M106,263.2c0-0.1-0.2-0.1-0.2-0.2c0-0.1,0-0.1,0.1-0.2c0.1-0.1,0.3-0.2,0.5-0.3c0.2-0.1,0.3-0.3,0.3-0.5
			c-0.3-0.1-0.7,0.1-1,0.3c-0.3,0.2-1.1,0.6-0.8,1C105.1,263.9,106.1,263.5,106,263.2z"/>
		<path class="st14" d="M144.8,191.2c-1.3,2.7-1.8,5.9-1.4,8.9c0.5,4.1,2.7,8,2.2,12.1c-0.1,1.2-0.5,2.4-0.5,3.5
			c0,1.4,0.4,2.8,0.8,4.2c1.5,4.8,3,9.7,4.4,14.5c1.2,3.9,2.4,7.8,2.3,11.9s-1.6,8.3-5,10.6c-0.1-2.6,1.9-4.9,2.3-7.5
			c0.3-2-0.3-4.1-1-6c-1.7-5.1-3.4-10.3-5.1-15.4c-0.5-1.6-1-3.1-1.2-4.7c-0.2-1.4-0.1-2.9-0.4-4.3c-0.4-2.4-1.4-4.7-2.2-7
			c-2.7-7.7-2.6-16-2.4-24.1c0.1-2.8-0.2-6,0.7-8.7c-0.1-0.3-0.6-0.6-0.8-0.8c-0.3-0.3-0.8-0.7-1.2-0.9c-0.1-0.1-0.2-0.1-0.3-0.1
			c-0.5-0.1-1.2,0.3-1.3,0.8c-0.1,0.4-0.1,0.8-0.1,1.3c0,0.4-0.1,0.9-0.5,1.1c-0.3,0.2-0.7,0.1-1,0.1c-0.6,0-1.2,0.3-1.6,0.8
			c-1.9,2-0.6,5.3,0,7.6c0.8,2.7,1.2,5.5,1.6,8.3c0.8,5.3,1.7,10.7,2.3,16.1c0.3,2.8,2,5.9,2.8,8.6c0.2,0.6,0.4,1.2,0.4,1.8
			c0.1,1.9-1.2,3.6-2.9,4.5c-0.3,0.2-0.6,0.3-0.8,0.6c-0.2,0.2-0.2,0.5-0.2,0.8c-0.1,1.4,0.3,2.8,1.1,4c0.6-1.3,1.3-2.5,1.9-3.8
			c1.3,4.3,1.2,9,0.1,13.4c-1.1,4.4-3.1,8.5-5.4,12.4c-1.3,2.3-2.8,4.5-4.7,6.3c-1.4,1.4-3.2,2.7-3.8,4.6c-0.4,1.4-0.1,3-0.3,4.5
			c-0.2,2-1.4,3.9-2,5.8c-1.7,5.4,1.6,11.9,7,13.7c-2,0.4-4-0.9-5.4-2.3c-3.6-3.7-5.1-9.1-4.9-14.2c0.1-1.9,0.3-3.7,0.8-5.5
			c2.4-8.3,10-14.3,12.1-22.6c0.9-3.5,0.8-7.1,0.6-10.7c-0.1-3.6-1.2-7.6-1.8-11.2c-0.7-4.6-1.3-9.2-1.8-13.8
			c-0.2-1.3-0.3-2.7-0.5-4c-0.3-2.5-0.6-5-0.7-7.6c-0.3-4.6,0-9.4-1.4-13.8c-0.2-0.7-0.5-1.3-0.6-2c-0.2-1-0.2-2-0.3-3
			c-0.4-5-2.1-10.1-5.8-13.6c2.5,4,6.1,7.4,10.3,9.5c0.3,0.1,0.5,0.2,0.8,0.3c2.1,0.4,4.5-0.9,4.8-1.1c1.6-1.2,3.3-2.3,4.8-3.7
			c-0.3,0.4-0.6,0.8-1,1.2c-0.7,0.8-1.4,1.6-2.2,2.2c-0.4,0.3-0.9,0.6-1.1,1c0,0.1-0.1,0.2,0,0.4c0,0.1,0.1,0.2,0.2,0.2
			c0.4,0.4,1,0.7,1.5,0.6c0.7-0.1,1.1-0.8,1.4-1.4c-0.1,0.2,0,0.5,0.2,0.6c0.2,0.1,0.4,0.2,0.6,0.2c2.1,0.2,4.2-0.3,6.3,0
			c0,0-0.1,0-0.1,0c0.4,1.7-1.3,3.3-1,5.1c0.1,0.5,0.3,0.9,0.2,1.3c-0.1,0.6-0.7,1.1-0.6,1.7c0.1,0.7,1.2,0.9,1.6,1.5
			c0.2,0.3,0.2,0.6,0.2,0.9c0.1,1,0.2,2-0.2,2.9c-0.5,0.9-1.5,1.7-1.4,2.7"/>
		<path class="st14" d="M148.6,172.7c0.5,0.9,1.9,0.5,2.5-0.3s0.9-1.8,1.7-2.4c0.3,0.7,1.1,1.5,1.7,1c0.2-0.2,0.3-0.5,0.4-0.8
			s0.6-0.5,0.7-0.2c0.4,4.3,0.4,8.7,0.2,13c-0.3-0.5-0.5-0.9-0.8-1.4c-1,1.8,0,4.1,0.2,6.2c0.1,1.4-0.2,2.7-0.6,4
			c-0.8,2.7-1.9,5.4-2,8.2c0,1.3,0.2,2.6-0.2,3.9c-0.2,0.6-0.4,1.1-0.5,1.7c-0.2,1,0.2,2,0.6,3c1,2.5,2.1,4.9,2.9,7.5
			c1.6,5,1.9,10.4,0.8,15.6c-0.3-0.4-1.1,0-1,0.5c0-2.4,0-4.7,0-7.1c0-1.2,0-2.5-0.4-3.7c-0.3-0.8-0.8-1.5-1.3-2.2
			c-2.9-4.2-4.5-9.3-4.1-14.4c0.1-1.2,0.3-2.4,0.5-3.6c0.8-4.5,1.7-9,1.8-13.5c0.1-2.7-0.1-5.4-0.7-8c-0.3-1.3-0.7-2.6-1.2-3.8
			C149.6,174.8,148.7,173.7,148.6,172.7z"/>
		<path class="st15" d="M76.4,198.8c-0.3,1.4-0.3,2.9-0.3,4.3c0,2.1,0,4.1,0,6.2c0,1.8,0,3.6,0.5,5.4c0.5,1.7,1.4,3.4,2.9,4.4
			c0-0.9-0.2-1.8-0.5-2.6c0.4,0.1,0.8-0.3,1-0.6s0.1-0.8,0-1.3c-0.3-2.2-0.5-4.5-0.8-6.7c-0.1-0.7-0.2-1.3,0-2
			c0.2-0.6,0.6-1.3,1.3-1.4c0,1.1,0,2.3-0.2,3.4c1.5-1,1.7-3.1,1.8-4.9c0.8-0.1,1.2,0.9,1.4,1.7c0.8,3.5,1.9,6.9,3.3,10.1
			c0.3,0.8,0.7,1.6,1.2,2.3c0.4,0.6,1,1.1,1.3,1.7c0.5,0.9,0.7,1.9,1,2.8c0.4,0.9,1,1.9,2,2c0.1-1.7-0.2-3.5-0.8-5.1
			c-0.4-1-0.9-2.2-0.6-3.2c0.1-0.4,0.3-0.8,0.5-1.2c0.3-0.9,0.1-1.9,0.2-2.9s0.4-2.1,1.4-2.4c1.3,2.6,2.6,5.1,3.8,7.7
			c0.4,0.8,0.8,1.5,1,2.4c0.5,1.5,0.6,3.4,1.9,4.3c0.3-2.9,0.2-5.9-0.2-8.8c-0.1-0.9-0.3-1.7-0.1-2.6c0.2-1,0.8-1.9,0.7-2.8
			c-0.1-0.6-0.5-1.2-1-1.6c-0.5-0.5-1.1-0.9-1.7-1.2c-0.5-0.2-1-0.4-1.4-0.7c-1-0.7-1.3-2-0.8-3.1c0.1-0.2,0.3-0.5,0.5-0.6
			c0.5-0.2,1.1,0.1,1.5,0.5c0.4,0.4,0.9,0.8,1.4,0.8c0.1-0.8,0.1-1.7-0.1-2.5c0.5,0.5,1.1,0.9,1.8,1c0.2,0.1,0.5,0.1,0.7,0.2
			c0.2,0.1,0.3,0.4,0.4,0.5c0.5,0.7,2.3,1.8,2.4,0.3c0-0.4-0.2-0.6-0.1-1c0.1-0.5,0.6-0.8,0.7-1.3c0.2-1.4,0.5-2.9,0.1-4.3
			c-0.1-0.4-0.3-0.8-0.4-1.2c-0.1-0.6-0.1-1.3-0.2-1.9c-0.1-0.5-0.4-1-0.6-1.4c-0.5-1-0.8-2-1.1-3c-0.2-0.7-0.3-1.4-0.1-2.1
			c0.2-0.8,0.7-1.5,0.5-2.2c-0.3-1.2-2.3-1.6-2.3-2.8c0-0.2,0-0.4,0-0.5c-0.2-0.3-0.7-0.1-1.1-0.1c-1.2,0.1-1.8-1.9-3.1-1.9
			c-0.5,0-0.9,0.3-1.3,0.4c-0.6,0.1-1.2-0.1-1.8-0.2c-0.6-0.1-1.2-0.1-1.8,0c-1.4,0.1-2.8,0.3-4.2,0.5c-1.3,0.3-2.7,0.6-3.9,1.3
			c2.1,0.1,4.3,0.1,6.3-0.5c0.9-0.2,1.8-0.6,2.7-0.6c0.7,0,1.5,0.2,2.2,0.4c1.9,0.5,3.9,1.1,5.3,2.6c0.4,0.4,0.7,0.9,0.8,1.5
			s-0.4,1.2-1,1.2c-0.3,0-0.9,0-0.9,0.3c0,0.2,0.3,0.4,0.5,0.5c0.1,0.2,0.2,0.4,0.2,0.6c0.1,0.9,0.4,1.8,0.8,2.7
			c-2.3,0.9-4.8,0.7-7.1,1.2c-0.7,0.1-1.4,0.3-2,0.4c-2.1,0.3-3.8,0.3-5.8-0.3c-0.3-0.1-0.6-0.2-0.9-0.4c-0.3-0.3-0.6-0.8-1-0.8
			c-0.1-0.3,0.2-0.6,0.5-0.9c0.3-0.2,0.5-0.6,0.3-0.9c-0.6,0.2-1.2,0.4-1.7,0c-0.6-0.4-0.4-1.4,0.2-1.9c0.6-0.4,1.4-0.5,2.1-0.5
			c1,0,2,0,2.9,0.4c0.6,0.2,1.4,0.6,1.9,0.1c0.1-0.1,0.2-0.2,0.3-0.3c0.2-0.2,0.6-0.2,0.9-0.2c1.5,0.1,2.9,0.3,4.3,0.8
			c0.5,0.2,1,0.3,1.5,0.5c0-0.6-0.6-1-1.1-1.3c-3.5-1.6-7.5-1.4-11.3-1.1c-0.4,0-0.7,0.1-1,0.2c-0.4,0.3-0.7,0.8-1.1,1
			c-0.3,0.2-0.8,0.2-1,0.6c-0.1,0.2-0.1,0.4-0.1,0.5c0.1,1.4,0.5,2.8-0.1,4.1c-0.3,0.6-0.8,1-1.1,1.5c-0.4,0.6-0.8,1.3-1.3,1.9
			C77.6,195.9,76.8,197.3,76.4,198.8z"/>
		<path class="st16" d="M61.7,194.6c0.1-0.7,0.2-1.4,0.3-2.1c-1.1,0.3-2.2-0.6-2.6-1.7c-0.4-1.1-0.1-2.2,0.1-3.4
			c0.3-1.4,0.5-2.7,0.8-4.1c0.9-4.9,2-10,5.1-13.9c2.2-2.7,5.4-5.1,5.4-8.6c-3,4.3-6.2,8.3-9.7,12.1c-1.5,1.6-3.1,3.9-1.9,5.8
			c0.2,0.3,0.5,0.6,0.6,0.9c0.4,1.2-1.2,2.5-0.7,3.7c-0.8-0.3-1.4,0.7-1.7,1.5c-1.4,4-1.5,10.3-2.4,14.2c2.4-0.1,0.9-3.4,2.1-4.6
			C58.6,193,60.2,195.8,61.7,194.6z"/>
		<path class="st3" d="M111.6,161c0.4,0.7,0.8,1.4,1.3,2c1.9,2.4,4.8,3.8,6.9,6.1c2,2.2,3.2,5.1,4.2,7.9c0.3-0.4,0.3-1.1,0.1-1.6
			c-0.2-0.5-0.5-1-0.8-1.5c-0.5-0.9-0.8-1.9-1.3-2.8c-0.5-0.9-1.1-1.7-1.7-2.5c-1-1.3-2-2.6-3.1-3.8c-0.8-0.8-1.6-1.6-2.3-2.4
			c-1-1.1-1.9-2.3-2.9-3.6c-0.5-0.7-1.1-1.4-1.6-2.2c-0.3-0.4-1.1-1.8-1.5-1.9C109.4,156.9,110.6,159.1,111.6,161z"/>
		<path class="st3" d="M101.8,183.8c0-0.2,0-0.4-0.1-0.5c-0.1-0.1-0.2-0.1-0.3-0.2c-0.1-0.1-0.2-0.2-0.3-0.3
			c-0.6-0.7-1.7-0.8-2.5-1.2c0.6,0.4,1.1,0.7,1.5,1.4c0.4,0.7,0.6,1.8,1.7,1.8C101.8,184.4,101.8,184.1,101.8,183.8z"/>
		<path class="st8" d="M87.2,235.2c0.5-0.4,0.5-1.2,0.5-1.9c-0.1-2-0.3-4-0.8-5.9c-0.3-1.1-0.7-2.2-1.1-3.3c-1-2.7-2-5.3-3.1-8
			c-0.3-0.9-0.7-1.8-0.7-2.7c0-1.3-1-2.7-0.7-4.1c0-0.1,0.1-0.3,0-0.4c-0.1-0.1-0.3-0.2-0.4-0.1c-0.1,0-0.1,0.1-0.1,0.2
			c-0.1,0.7-0.3,1.4-0.4,2.1c-0.1,0.6-0.3,1.2-0.2,1.9c0,0.6,0.2,1.2,0.4,1.8c0.4,1.1,0.7,2.1,1.1,3.2c0.5,1.4,1,2.9,1.5,4.3
			C84.9,226.4,87.4,230.6,87.2,235.2z"/>
		<path class="st9" d="M82.9,218.4c-0.5-1.4-1-2.8-1.1-4.3c0-1,0-2.1-0.7-2.8c-0.2,0.3-0.3,0.7-0.3,1c0.1,3.2,1.1,6.2,2.4,9.1
			s2.7,5.7,3.6,8.8c0.1-0.8,0.2-1.6,0-2.4c-0.1-0.3-0.3-0.6-0.4-0.9c-0.3-0.7-0.4-1.5-0.6-2.3c-0.2-0.6-0.6-0.9-0.9-1.4
			C84,221.8,83.5,219.9,82.9,218.4z"/>
		<path class="st8" d="M95.1,237.5c0.3-0.9,0.7-1.8,0.8-2.8c0.1-1.7-0.6-3.4-1.2-5.1c-0.6-1.9-1.1-3.8-1.4-5.8
			c-0.2,0.5-0.3,1-0.5,1.4c-0.5-0.1-0.9-0.4-1.2-0.8c-0.5,0.8,0.4,1.7,0.7,2.6c0.2,0.4,0.1,0.9,0.2,1.4c0,1.8,0.4,3.6,1.1,5.2
			c0.1,0.2,0.2,0.5,0.2,0.8s-0.4,0.5-0.6,0.3c0.1,1.8,0.2,3.6-0.2,5.4c-0.2,0.8-0.5,1.5-0.7,2.2c-0.3,1.1-0.7,2.6-0.4,3.7
			c0.6-0.7,0.7-2,1-2.9C93.6,241.1,94.4,239.3,95.1,237.5z"/>
		<path class="st9" d="M94.9,235.8c0.1-0.3,0.2-0.5,0.3-0.8c0.2-0.9-0.1-1.7-0.3-2.6c-0.2-0.6-0.4-1.2-0.5-1.7c-0.3-1-0.6-2-1-2.9
			c0,0.4,0,0.9-0.1,1.3c-0.1,0.2-0.1,0.3-0.1,0.5c0,0.2,0.1,0.4,0.1,0.5c0.2,0.5,0.5,1.1,0.5,1.6c0,0.2,0,0.4,0,0.6
			c0.1,0.2,0.2,0.4,0.3,0.6c0.3,0.4,0.5,0.8,0.6,1.3c0.1,0.5,0,1-0.3,1.3c-0.2,0-0.4,0-0.6,0c0.2,0.8,0.3,1.6,0.4,2.5
			C94.4,237.3,94.6,236.4,94.9,235.8z"/>
		<path class="st17" d="M141.4,227.1c0.7,2.1,1.3,4.7-0.1,6.5c-0.2,0.2-0.4,0.4-0.5,0.7c-0.2,0.3-0.2,0.7-0.2,1
			c0,0.6,0.1,1.2,0.2,1.8c1-0.1,1.7-1.3,1.4-2.2c-1,2.2-0.2,4.7-0.4,7.1c-0.2,3.1-1.8,5.9-3.4,8.5c-1.1,1.8-2.2,3.6-3.3,5.4
			c-1.5,2.3-3.1,4.6-4.7,6.9c-1.5,2.2-3.1,4.4-4.6,6.6c-0.2,0.3-0.6,0.7-0.9,0.5c0-0.8,0.1-1.6,0.1-2.5c0-0.9,0.1-1.9,0.6-2.7
			c0.4-0.6,0.9-1.1,1.5-1.5c1.7-1.3,3.5-2.6,4.7-4.3c0.5-0.7,0.8-1.5,1.3-2.2c0.5-0.8,1.1-1.5,1.6-2.3c3.8-5.3,4.6-12.2,5.4-18.7
			c0.1-0.8,0.2-1.5,0.3-2.3c0.2-1.6,0.5-3.2,0.7-4.8c-0.4,0.8-0.8,1.5-1.2,2.3c0.1-0.7-0.3-1.3-0.9-1.7c-0.6-0.3-1.3-0.4-1.9-0.5
			c1.6-0.4,2.6-2.1,2.8-3.7c0.2-1.6-0.3-3.3-0.8-4.8c-1.7-5.5-3.9-11-4.1-16.8c-0.1-1.4,0-2.9-0.1-4.3c-0.1-1.3-0.5-2.5-0.7-3.8
			c-0.4-1.8-0.6-3.6-0.7-5.4c0-0.7-0.1-1.5-0.3-2.2c-0.2-0.4-0.4-0.8-0.6-1.3c-0.9-2,0.2-4.6,2.3-5.4c0.8-1,1.3-2.3,1.4-3.6
			c0.8,1-0.2,2.6,0.6,3.6c0.1,0.1,0.3,0.3,0.4,0.4c0.1,0.2,0,0.5-0.1,0.8c-1.5,4.6-1.1,9.6-0.7,14.4c0.4,4.4,0.7,8.7,1.8,13
			c0.3,1.3,0.7,2.5,1,3.8c0.3,1.5,0.4,3.1,0.6,4.6c0.1,1.2,0.5,2.6,0.8,3.8c0.1,0.6,0.2,1.2,0.3,1.9
			C140.8,225,141,226.1,141.4,227.1z"/>
		<path class="st3" d="M133.4,228.5c-0.1-1,1.2-1.9,0.9-2.8c-0.1-0.4-0.5-0.6-0.7-1c-0.4-0.7-0.2-1.6,0.3-2.2c0.5-0.6,1.2-0.9,2-1.3
			c-0.6,0.1-1.3,0-1.9-0.3c-0.2-0.1-0.3-0.2-0.4-0.4c0-0.2,0.1-0.3,0.1-0.5c0.2-0.5,0.1-1.2-0.1-1.7c-0.4-1.1-0.9-2-1.6-2.9
			c-0.3-0.4-0.7-0.9-0.6-1.4c0.1-0.6,0.9-0.9,1.1-1.5c0.3-0.7-0.4-1.4-0.6-2.2c-0.2-0.7-0.1-1.4-0.4-2.1c-0.2-0.4-0.5-0.8-0.7-1.1
			c-0.7-1.1-0.9-2.6-0.4-3.8c0.1-0.4,0.3-0.7,0.4-1.1c0.2-1.4-1.6-2.5-1.6-4c0-0.8,0.6-1.6,0.5-2.4c0-0.3-0.1-0.6-0.2-0.9
			c-0.4-1.3-0.3-3.1,0.4-4.3c0.1,0,0.1,0.1,0,0.2s-0.2,0-0.2-0.1c-0.8-0.6-0.9-1.7-0.8-2.7s0.2-2-0.1-2.9c-0.1-0.4-0.4-0.7-0.5-1
			c-0.4-1-0.3-2.1,0.2-3c0.5-0.9,1.5-1.5,2.5-1.8c0.3-0.1,0.7-0.2,0.9-0.5c0.1-0.2,0.1-0.5,0.1-0.7c0-1,0.9-1.9,1.9-2
			c-1,0.1-1.9,0.7-2.5,1.5c-0.2,0.3-0.4,0.6-0.6,0.7c-0.3,0.2-0.7,0.2-0.9-0.1c-0.1-0.2-0.1-0.4-0.2-0.6c-0.1-0.1-0.3-0.1-0.5-0.2
			c-2.4-0.2-4.5-1.8-5.4-4c0.2,0.7,0.4,1.4,0.6,2.1c0.4,1.6,0.9,3.1,0.9,4.8c0,0.8,0,1.6,0.1,2.3c0.1,1.2,0.6,2.3,0.9,3.5
			c0.5,2,0.5,4.2,0.5,6.3c-0.1,4.2,1.1,8.6,1.6,12.8c0.3,3.2,0.7,6.4,1.7,9.4c0.8,2.4-0.7,5.3,0,7.7c0.2,0.8,0.6,1.6,0.9,2.3
			c1.1,3,1.5,6.2,1.9,9.4c0.1,0.8,0.2,1.7,0.2,2.6c0,1.9-1.1,3.7-1.2,5.6c0,0.7,0,1.4,0,2.1c-0.1,0.7-0.3,1.4-0.5,2
			c-1.6,4.6-4,9-6.9,12.8c-1.5,1.9-2,4.1-3.1,6.3c-1,2.2-2.1,4.5-2,7c0,0.9,0.1,1.8,0.2,2.7c0,1.4-0.3,2.8-0.2,4.2
			c0.2,2.1,1.3,4,2.4,5.8c0.2-3.4-1.1-6.7-0.9-10.1c0-0.5,0.1-1.1,0.5-1.5c0.3-0.4,0.8-0.7,0.7-1.1c-0.1-0.2-0.3-0.4-0.4-0.6
			c-0.5-0.6-0.4-1.6,0.1-2.1c0.2-0.2,0.5-0.3,0.7-0.6c0.3-0.4,0.2-1.1,0.2-1.6c-0.1-1.7,0.8-3.3,2-4.5c1.2-1.2,2.6-2.1,4-3.2
			c-0.2,0.2-0.6,0.3-0.8,0.2c-0.2-1,0.3-2,1.2-2.5c0.3-0.2,0.6-0.3,0.9-0.5c0.6-0.5,0.7-1.4,0.2-2c-0.3-0.4-0.5-1.1-0.3-1.6
			c0.2-0.5,0.7-0.9,1.2-0.8c0.2,0,0.4,0.2,0.7,0.2c0.3,0,0.5-0.1,0.7-0.3c0.6-0.4,1.1-0.8,1.5-1.4c-1.2-0.3-1.8-1.8-1.2-2.8
			c0.2-0.3,0.5-0.6,0.7-0.9c0.2-0.4,0.3-0.8,0.5-1.1c0.3-0.7,0.8-1.3,1-2c0.2-0.7,0.3-1.4,0.3-2.1c0.1-1.8,0.2-3.6,0.2-5.5
			c0-1,0.1-2-0.1-3C134.5,231.9,133.6,230.3,133.4,228.5z"/>
		<path class="st3" d="M140.6,212.9c0.3-4.3-1.5-8.5-1.8-12.8c-0.1-1.7,0-3.4-0.1-5.2c-0.1-1.5-0.4-2.9-0.5-4.4
			c-0.2-3.4,1.3-6.8,1.2-10.2c0-0.9-0.4-1.9-1-2.6c1.7,0.1,3.3,0.1,5,0.2c-0.6,0.7-1.1,1.5-1.5,2.3c-0.1,0.2-0.2,0.5-0.2,0.8
			c0,0.3,0.2,0.6,0.4,0.9c0.2,0.5,0.3,1.1,0.3,1.7c0,1.5,0,3.1,0.1,4.6c-0.5-0.3-1.1-0.6-1.6-0.9c0.3,2.9,0.7,5.8,0.7,8.7
			c0,2.9-0.4,5.9,0.8,8.6c0.2,0.5,0.5,1,0.3,1.4c0.4-1.5,0.4-3.1-0.1-4.6c-0.3,3.6,1.7,7.1,1.5,10.7c-0.1,1.6-0.6,3.4,0.2,4.8
			c0-0.3,0.1-0.6,0.1-0.8c-0.3,1.3-0.1,2.9,0.3,4.2c0.8,3,1.7,5.9,2.5,8.9c0.1-1.1,0.2-2.2,0.1-3.3c-0.1,1.6-0.1,3.3,0.1,4.9
			s0.9,3.2,2,4.3c0.2,0.2,0.5,0.5,0.5,0.8c0,0.2-0.1,0.3-0.1,0.5c-0.5,1.6,0.1,3.4,0.4,5.1c0.3,1.7,0.4,3.5,0.1,5.3
			c-0.5-1-0.8-2.1-1-3.1c-0.8-3.1-1.8-6.1-3-9.1c-1.2-2.8-2.6-5.5-3-8.4c-0.3-2.2-0.1-4.5-0.7-6.6
			C141.9,217.4,140.4,215,140.6,212.9z"/>
		<path class="st18" d="M108.9,123.8c-0.4,0.1-0.8,0.1-1.3,0.2c-0.1,0-0.2,0.1-0.4,0.1c-0.2,0.1-0.4,0.2-0.7,0.2
			c-0.2,0.1-0.5,0.1-0.8,0.2c-0.5,0.4-1,0.7-1.7,0.9c-0.4,0.3-0.8,0.5-1.3,0.6c-0.7,0.4-1.5,0.8-2.4,0.9c-0.1,0.4-0.1,0.7-0.1,1.1
			c0,3.4,2.7,6.1,6.1,6.1s6.1-2.7,6.1-6.1c0-1.5-0.5-3-1.3-4.1C110.4,123.9,109.6,124,108.9,123.8z"/>
		<path class="st19" d="M107.4,124c-0.2-0.2-2.4,0.6-3.8,1.7c-0.2,0.4-0.4,0.9-0.4,1.4c0,1.8,1.5,3.3,3.3,3.3s3.3-1.5,3.3-3.3
			C109.7,125.6,108.7,124.4,107.4,124z"/>
		<path class="st18" d="M69.7,131.9C69.7,131.9,69.7,131.9,69.7,131.9C69.7,131.9,69.7,131.9,69.7,131.9c-0.1,0-0.1,0-0.2,0
			c-0.4,0.1-0.9,0.1-1.3,0.1c-0.9,0-1.7-0.1-2.5-0.4c-1.1-0.2-2-0.5-2.8-1.1c-0.6,0.8-1,1.8-1,2.9c0,2.7,2.2,4.9,4.9,4.9
			c2.7,0,4.9-2.2,4.9-4.9c0-0.6-0.1-1.2-0.3-1.7C70.9,131.8,70.3,131.9,69.7,131.9z"/>
		<path class="st19" d="M68.2,132c-0.9,0-1.7-0.1-2.5-0.4c-0.4-0.1-0.8-0.1-1.1-0.3c-0.2,0.4-0.4,0.8-0.4,1.3c0,1.5,1.2,2.6,2.6,2.6
			s2.6-1.2,2.6-2.6c0-0.3-0.1-0.5-0.1-0.8C69,132,68.6,132,68.2,132z"/>
		<g>
			<g>
				<g>
					<path d="M116.7,139.3c0,0-0.1,0.1-0.2,0.2c-0.1,0.2-0.3,0.4-0.6,0.7c-0.5,0.5-1.4,1.2-2.7,1.8c-1.3,0.6-2.9,1-4.7,0.9
						c-1.8-0.1-3.8-0.6-5.7-1.6c-3.7-2-6.1-5.1-7.6-7.3c-0.8-1.1-1.4-2-1.8-2.7c-0.4-0.6-0.6-1-0.6-1s1.1,1.3,2.8,3.3
						c1.7,2,4.2,4.8,7.7,6.7c1.7,0.9,3.6,1.5,5.3,1.7c1.7,0.1,3.3-0.1,4.5-0.5c1.2-0.4,2.2-1,2.7-1.5c0.3-0.2,0.5-0.4,0.6-0.6
						C116.6,139.3,116.7,139.3,116.7,139.3z"/>
				</g>
			</g>
		</g>
		<g>
			<g>
				<g>
					<path d="M114.8,148c0,0-0.1,0.1-0.3,0.2c-0.2,0.1-0.5,0.3-0.9,0.5c-0.8,0.4-1.9,0.8-3.5,1c-1.5,0.2-3.4,0.2-5.4-0.3
						c-2-0.5-4.1-1.4-5.9-2.9c-1.8-1.5-3.3-3.3-4.3-5c-1.1-1.7-1.7-3.4-2.2-4.9c-0.5-1.4-0.7-2.6-0.9-3.5c-0.2-0.8-0.2-1.3-0.2-1.3
						s0.1,0.5,0.4,1.3c0.2,0.8,0.6,2,1.2,3.3c1.1,2.7,3.2,6.5,6.7,9.3c3.5,2.8,7.7,3.7,10.7,3.5c1.5-0.1,2.7-0.4,3.4-0.7
						c0.4-0.1,0.7-0.3,0.9-0.4C114.7,148.1,114.8,148,114.8,148z"/>
				</g>
			</g>
		</g>
		<g>
			<g>
				<g>
					<path d="M120.5,144.2c0,0-0.3,0.2-0.8,0.4c-0.5,0.3-1.2,0.6-2.2,1c-1,0.4-2.2,0.7-3.5,0.9c-1.4,0.2-2.9,0.3-4.4,0.1
						c-1.6-0.2-3-0.5-4.3-1c-1.3-0.5-2.4-1-3.3-1.6c-0.9-0.5-1.5-1-2-1.4c-0.4-0.4-0.7-0.6-0.7-0.6s0.3,0.2,0.8,0.5
						c0.5,0.3,1.2,0.7,2.1,1.1c0.9,0.4,2,0.8,3.3,1.2c1.3,0.3,2.7,0.6,4.2,0.8c1.5,0.1,2.9,0.1,4.3,0c1.3-0.1,2.5-0.3,3.5-0.5
						c1-0.2,1.8-0.5,2.3-0.7C120.2,144.3,120.5,144.2,120.5,144.2z"/>
				</g>
			</g>
		</g>
		<g>
			<g>
				<g>
					<path d="M61.5,144.1c0,0,0.3,0.2,0.8,0.4c0.5,0.3,1.3,0.6,2.3,0.8c1.9,0.4,4.9,0.4,7.4-1.2c2.5-1.6,3.9-4.2,4.3-6.1
						c0.2-1,0.3-1.8,0.3-2.4c0-0.6,0-0.9,0-0.9s0.1,0.3,0.2,0.9c0.1,0.6,0.2,1.4,0.1,2.5c-0.1,1-0.4,2.3-1.1,3.5
						c-0.7,1.2-1.7,2.5-3.1,3.4c-1.4,0.9-3,1.3-4.4,1.4c-1.4,0.1-2.7-0.1-3.7-0.5c-1-0.3-1.7-0.8-2.2-1.1
						C61.8,144.3,61.5,144.1,61.5,144.1z"/>
				</g>
			</g>
		</g>
		<g>
			<g>
				<g>
					<path d="M74.6,161.4c0,0-0.1-0.3-0.3-0.8c-0.2-0.5-0.5-1.3-0.7-2.2c-0.3-1-0.5-2.1-0.7-3.4c-0.1-1.3,0-2.9,0.4-4.3
						c0.5-1.5,1.1-2.8,1.7-3.9c0.5-1.2,1-2.2,1.2-3.2c0.2-0.9,0.3-1.7,0.3-2.3c0-0.5-0.1-0.8-0.1-0.8s0.1,0.3,0.2,0.8
						c0.1,0.5,0.2,1.4,0.1,2.4c-0.1,1-0.4,2.2-0.9,3.4c-0.5,1.2-1.1,2.5-1.5,3.9c-0.9,2.8-0.5,5.5-0.2,7.4c0.1,1,0.3,1.8,0.4,2.3
						C74.6,161.1,74.6,161.4,74.6,161.4z"/>
				</g>
			</g>
		</g>
		<g>
			<g>
				<g>
					<path d="M61.3,176.7c0,0,0.4-1,1.2-2.6c0.8-1.6,2-3.7,3.6-5.8c1.6-2.2,3.3-3.8,4.1-5.3c0.4-0.7,0.6-1.4,0.6-1.9
						c0-0.2,0-0.4,0-0.6c0-0.1,0-0.2,0-0.2s0,0.1,0,0.2c0,0.1,0.1,0.3,0.1,0.6c0,0.5,0,1.2-0.3,2.1c-0.6,1.7-2.2,3.6-3.8,5.7
						C63.7,173.1,61.3,176.7,61.3,176.7z"/>
				</g>
			</g>
		</g>
		<g>
			<g>
				<g>
					<path d="M124.8,181.7c0,0,0-0.1,0-0.4c0-0.2,0-0.6,0-1c0-0.9-0.2-2.1-0.6-3.6c-0.4-1.5-1.2-3.2-2.3-4.9c-1.1-1.8-2.4-3.6-4-5.3
						c-1.6-1.8-3.1-3.5-4.5-5.1c-1.4-1.6-2.5-3.1-3.4-4.5c-0.8-1.3-1.4-2.5-1.8-3.3c-0.3-0.8-0.5-1.3-0.5-1.3s0.2,0.4,0.6,1.2
						c0.4,0.8,1.1,1.9,2,3.1c0.9,1.3,2.1,2.7,3.6,4.2c1.4,1.5,3,3.2,4.6,5c1.6,1.8,3,3.7,4,5.6c1,1.9,1.7,3.7,2,5.2
						c0.3,1.6,0.4,2.9,0.3,3.8c0,0.4-0.1,0.8-0.1,1C124.8,181.6,124.8,181.7,124.8,181.7z"/>
				</g>
			</g>
		</g>
		<g>
			<g>
				<g>
					<path d="M60.2,150.3c0,0,0.2,0,0.7,0c0.4,0,1-0.1,1.8-0.2c1.5-0.2,3.5-0.7,5.6-1.6c2.1-0.9,3.8-2,5-3c0.6-0.5,1.1-0.9,1.4-1.2
						c0.3-0.3,0.5-0.5,0.5-0.5s-0.1,0.2-0.4,0.6c-0.2,0.4-0.6,0.9-1.1,1.4c-1,1.2-2.7,2.6-5,3.5c-2.2,0.9-4.4,1.2-6,1.2
						c-0.8,0-1.4-0.1-1.8-0.2C60.4,150.4,60.2,150.3,60.2,150.3z"/>
				</g>
			</g>
		</g>
		<g>
			<g>
				<g>
					<path d="M64.9,108.6c0,0,0.7,0,1.7,0.1c1,0.1,2.5,0.4,4,1.1c1.5,0.7,2.7,1.6,3.4,2.4c0.7,0.8,1.1,1.3,1.1,1.3s-0.5-0.4-1.4-1
						c-0.9-0.6-2.1-1.2-3.5-1.9c-1.4-0.7-2.7-1.2-3.7-1.5C65.6,108.8,64.9,108.6,64.9,108.6z"/>
				</g>
			</g>
		</g>
		<g>
			<g>
				<g>
					<path d="M96,148.8c0,0-0.2-0.1-0.6-0.3c-0.4-0.2-1-0.6-1.6-1.3c-1.2-1.2-2.3-3.3-3.1-5.7c-1.6-4.8-2.4-8.8-2.4-8.8
						s1.7,3.7,3.3,8.5c0.8,2.4,1.6,4.4,2.6,5.7c0.5,0.7,0.9,1.1,1.3,1.4C95.8,148.6,96,148.8,96,148.8z"/>
				</g>
			</g>
		</g>
		<g>
			<g>
				<path class="st20" d="M83.8,179.4"/>
			</g>
		</g>
		<g>
			<g>
				<g>
					<path d="M100.8,183.4c0,0-0.2-0.2-0.6-0.5c-0.4-0.3-1-0.8-1.8-1.2c-0.8-0.4-1.9-0.8-3-1c-1.2-0.2-2.5-0.1-3.9,0.1
						c-2.8,0.4-5.4,1-7.3,0.9c-1,0-1.7-0.2-2.2-0.3c-0.5-0.2-0.8-0.3-0.8-0.3s0.3,0,0.8,0.1c0.5,0,1.3,0.1,2.2,0
						c1.9-0.1,4.3-0.9,7.2-1.3c1.5-0.2,2.9-0.2,4.2,0.1c1.3,0.3,2.3,0.8,3.1,1.4c0.8,0.5,1.4,1.1,1.7,1.5
						C100.6,183.1,100.8,183.4,100.8,183.4z"/>
				</g>
			</g>
		</g>
		<g>
			<g>
				<g>
					<path d="M93.2,185.1c0,0-0.6-0.2-1.6-0.4c-1-0.2-2.3-0.4-3.7-0.4c-1.5,0-2.8,0.1-3.7,0.3c-1,0.2-1.6,0.4-1.6,0.4
						s0.5-0.4,1.4-0.8c0.9-0.4,2.3-0.8,3.9-0.8c1.6,0,3,0.5,3.9,0.9C92.7,184.7,93.2,185.1,93.2,185.1z"/>
				</g>
			</g>
		</g>
		<g>
			<g>
				<path class="st20" d="M55.3,190.6"/>
			</g>
		</g>
		<g>
			<g>
				<g>
					<path d="M139.8,170.8c0,0,0.6-0.8,1.6-2.2c1-1.4,2.5-3.5,3.9-6.2c1.4-2.7,2.8-6.2,2.4-10.1c-0.2-1.9-0.8-4-1.3-6.2
						c-0.3-1.1-0.5-2.3-0.5-3.5c-0.1-1.2,0.1-2.5,0.4-3.8c0.7-2.5,1.9-4.6,3-6.5c1.2-1.9,2.3-3.7,3.5-5.5c2.3-3.5,4.4-6.5,6.2-9
						c3.7-5,6.1-8,6.1-8s-2,3.3-5.3,8.6c-1.6,2.7-3.6,5.8-5.6,9.4c-1,1.8-2.1,3.6-3.3,5.6c-1.1,1.9-2.2,3.9-2.7,6.1
						c-1.2,4.3,1.1,8.5,1.2,12.9c0.1,2.2-0.3,4.2-0.9,6c-0.6,1.8-1.5,3.3-2.3,4.7c-1.7,2.7-3.4,4.6-4.5,5.9
						C140.5,170.1,139.8,170.8,139.8,170.8z"/>
				</g>
			</g>
		</g>
		<g>
			<g>
				<g>
					<path d="M77.3,115.6c0,0,0.1,0.3,0.2,0.8c0.1,0.3,0.1,0.6,0.2,1c0.1,0.4,0.2,0.8,0.4,1.2c0.3,0.9,0.8,1.9,1.3,3
						c0.6,1.1,1.3,2.2,2.2,3.3c0.9,1.1,1.8,2.1,2.8,2.9c0.9,0.8,1.8,1.5,2.7,2c0.4,0.3,0.8,0.5,1.1,0.7c0.3,0.2,0.6,0.3,0.9,0.5
						c0.5,0.2,0.8,0.4,0.8,0.4s-0.3,0-0.9-0.1c-0.3,0-0.6-0.1-1-0.2c-0.4-0.1-0.8-0.2-1.3-0.4c-1-0.3-2.1-0.8-3.2-1.6
						c-1.1-0.8-2.3-1.8-3.3-3c-1-1.3-1.7-2.6-2.2-3.9c-0.5-1.3-0.7-2.5-0.8-3.5c-0.1-0.5,0-1-0.1-1.4c0-0.4,0-0.7,0.1-1
						C77.3,115.9,77.3,115.6,77.3,115.6z"/>
				</g>
			</g>
		</g>
		<g>
			<g>
				<g>
					<path d="M101.9,102.4c0,0-0.4,0-1-0.1c-0.3,0-0.7-0.1-1.2-0.1c-0.5,0-1-0.1-1.6,0c-1.2,0-2.5,0.1-4,0.4
						c-1.5,0.3-3.1,0.8-4.7,1.5c-1.6,0.7-3,1.6-4.3,2.5c-1.2,0.9-2.3,1.8-3,2.7c-0.4,0.4-0.7,0.8-1,1.2c-0.3,0.4-0.5,0.7-0.7,1
						c-0.4,0.5-0.6,0.8-0.6,0.8s0.2-0.3,0.5-0.9c0.1-0.3,0.3-0.7,0.6-1c0.3-0.4,0.5-0.9,0.9-1.3c0.7-1,1.7-2,2.9-3
						c1.2-1,2.7-1.9,4.4-2.7c1.7-0.7,3.4-1.2,4.9-1.4c1.6-0.2,3-0.2,4.2-0.1c0.6,0,1.1,0.1,1.6,0.2c0.5,0.1,0.9,0.2,1.2,0.3
						C101.5,102.3,101.9,102.4,101.9,102.4z"/>
				</g>
			</g>
		</g>
		<g>
			<g>
				<g>
					<path d="M132,124.4c0,0-0.4,0.5-1.3,1.1c-0.8,0.6-2.1,1.3-3.5,1.8c-1.5,0.5-2.9,0.6-3.9,0.6c-1,0-1.6-0.1-1.6-0.1
						s0.7-0.1,1.6-0.3c1-0.2,2.3-0.6,3.7-1c1.4-0.5,2.7-0.9,3.6-1.3C131.4,124.6,132,124.4,132,124.4z"/>
				</g>
			</g>
		</g>
		<g>
			<g>
				<g>
					<path d="M135.6,127.7c0,0-0.4,0.2-1,0.4c-0.6,0.2-1.5,0.3-2.5,0.2c-1-0.1-1.9-0.5-2.4-0.8c-0.6-0.3-0.9-0.6-0.9-0.6
						s1.8,0.2,3.4,0.4C133.8,127.5,135.6,127.7,135.6,127.7z"/>
				</g>
			</g>
		</g>
		<g>
			<g>
				<g>
					<path d="M132.4,131.5c0,0-0.8,0.1-1.9,0.3c-1.2,0.2-2.8,0.6-4.4,1.2c-1.7,0.6-3.1,1.3-4.2,2c-1,0.6-1.7,1-1.7,1
						s0.1-0.1,0.3-0.4c0.2-0.3,0.6-0.6,1-1c0.9-0.8,2.3-1.8,4.1-2.5c1.8-0.7,3.5-0.8,4.7-0.8c0.6,0,1.1,0.1,1.4,0.1
						C132.2,131.5,132.4,131.5,132.4,131.5z"/>
				</g>
			</g>
		</g>
		<g>
			<g>
				<g>
					<path d="M57,132c0,0-0.1-0.3-0.1-0.8c0-0.3,0.1-0.7,0.5-1c0.4-0.3,0.9-0.4,1.4-0.5c1-0.1,2.2,0,3.4,0.2
						c1.2,0.2,2.6,0.6,3.9,0.9c2.6,0.6,5.1,0.6,6.9,0.3c1.8-0.2,2.9-0.6,2.9-0.6s-0.9,0.8-2.7,1.5c-1.8,0.7-4.6,1.3-7.6,0.6
						c-1.5-0.4-2.7-0.8-3.9-1.2c-1.2-0.4-2.2-0.7-3.1-0.8c-0.4-0.1-0.8,0-1.1,0c-0.3,0.1-0.4,0.3-0.5,0.5C57,131.7,57.1,132,57,132z
						"/>
				</g>
			</g>
		</g>
		<g>
			<g>
				<g>
					<path d="M119.9,128.5c0,0-0.5,0.1-1.3-0.2c-0.8-0.3-1.9-0.8-3.1-1.5c-1.3-0.7-2.7-1.5-4.4-1.9c-1.7-0.5-3.6-0.3-5.3,0.6
						c-0.4,0.2-1,0.5-1.5,0.7c-0.5,0.2-1,0.4-1.5,0.6c-1,0.4-2,0.7-2.9,0.9c-1.9,0.5-3.6,0.7-5.1,0.8c-2.9,0.2-4.7-0.1-4.7-0.1
						s1.8-0.2,4.6-0.9c2.8-0.7,6.5-1.7,10.2-3.8c0.6-0.3,1.1-0.5,1.7-0.7c0.3-0.1,0.6-0.2,0.9-0.2c0.3,0,0.6-0.1,0.9-0.1
						c1.2,0,2.3,0.2,3.2,0.5c1.9,0.7,3.4,1.8,4.5,2.7c1.1,0.9,2,1.6,2.7,2C119.4,128.5,119.9,128.5,119.9,128.5z"/>
				</g>
			</g>
		</g>
		<circle class="st21" cx="108.7" cy="127.7" r="1"/>
		<circle cx="106.4" cy="127.2" r="1.1"/>
		<circle cx="66.9" cy="132.9" r="1"/>
		<circle class="st21" cx="68.6" cy="134" r="0.8"/>
		<path class="st9" d="M79.7,48.1c-1.1,1.2-2,3-1.3,4.5c4.9-1.8,9.5-4.4,13.5-7.7c1.7-1.4,3.4-3,5.6-3.5c2.9-0.7,6.4,0.5,8.6-1.5
			c1.6-1.5,1.8-4.2,3.8-5.3c2.2-1.2,4.8,0.6,7.1,1.6c4,1.8,8.6,1.1,12.9,0.5c3.7-0.6,7.4-1.1,11.1-1.7c1.5-0.2,3-0.5,4.1-1.4
			c1.1-0.9,1.6-2.8,0.6-3.9c-1-1.1-3.1-0.9-3.9-2.2c-0.7-1.2,0.2-2.6,1.1-3.7c-6.4-0.8-13-1-19.4-0.8c-1.8,0.1-4.2,0.7-4.3,2.5
			c-5.7-0.9-11.9,2.6-14.1,8c-5-0.7-13.5-1.2-17.9,1.9c-1.8,1.3-2.3,3.2-2.9,5.3C83.1,44,82.1,45.4,79.7,48.1z"/>
		<path class="st8" d="M66.2,157.9c0.9-0.6,2,0.2,2.7,0.9c-0.4-0.8-0.8-1.7-1.5-2.2c-1.3-0.9-3-0.4-4.6-0.5c-2.5-0.2-4.6-2-6.5-3.7
			c-0.3,1.4,0.2,3,1.3,4c0.3,0.3,0.7,0.6,0.9,0.9c0.2,0.3,0.4,0.8,0.5,1.2c0.5,1.2,1.1,2.3,2,3.3c0.2,0.3,0.5,0.5,0.8,0.7
			c0.2,0.1,0.5,0.2,0.7,0.3c0.9,0.5,0.8,1.9,0.2,2.7s-1.5,1.3-2.3,1.9c-0.8,0.6-1.6,1.4-1.7,2.4c0,0.3,3.3-1.3,3.5-1.5
			c1.1-0.8,2-2.1,2.5-3.3C65.7,163.3,64.6,159,66.2,157.9z"/>
		<g>
			<g>
				<g>
					<path d="M97.8,322.9c0,0,0.5-0.2,1.5-0.5c1-0.3,2.4-0.9,4.1-1.7c1.7-0.8,3.8-2,5.8-3.8c2-1.8,3.9-4.2,4.9-7.3
						c1-3.1,1.1-6.9-0.7-10c-0.9-1.6-2.3-3.1-3.7-4.9c-1.4-1.8-2.6-4-3.4-6.3c-1.6-4.7-1.8-9.9-0.9-15c0.9-5.2,3.1-10.2,5.6-14.9
						c2.6-4.7,5.5-9.1,8-13.3c2.6-4.2,4.8-8.3,6.4-12.4c1.6-4.1,2.3-8.2,2.6-12.2c0.2-4,0-7.7-0.2-11.1c-0.3-3.4-0.6-6.5-0.8-9.3
						c-0.2-2.7-0.4-5.1-0.4-7.1c-0.1-1.9-0.1-3.5,0-4.5c0-1,0.1-1.6,0.1-1.6s0,0.5,0.1,1.6c0.1,1,0.2,2.5,0.4,4.4
						c0.2,1.9,0.6,4.2,1.1,7c0.5,2.7,1,5.8,1.6,9.2c0.5,3.4,1,7.3,1,11.4c0,4.2-0.6,8.7-2.2,13.2c-1.5,4.5-3.8,8.9-6.3,13.2
						c-2.5,4.4-5.3,8.7-7.8,13.2c-2.5,4.5-4.5,9.1-5.4,13.8c-0.9,4.6-0.9,9.3,0.3,13.3c0.6,2,1.5,3.9,2.7,5.6
						c1.2,1.7,2.6,3.3,3.6,5.3c1.1,2,1.5,4.2,1.4,6.3c-0.1,2.1-0.5,4-1.2,5.7c-1.4,3.4-3.7,5.9-6,7.6c-2.3,1.7-4.5,2.7-6.3,3.4
						c-1.8,0.7-3.3,1.1-4.3,1.3C98.3,322.8,97.8,322.9,97.8,322.9z"/>
				</g>
			</g>
		</g>
		<g>
			<g>
				<g>
					<path d="M96.4,331.6c0,0-0.1-0.1-0.3-0.3c-0.1-0.1-0.2-0.2-0.4-0.3c-0.1-0.1-0.2-0.3-0.4-0.5c-0.3-0.4-0.5-1.1-0.4-1.9
						c0.1-0.8,0.5-1.6,1-2.4c1-1.7,2.9-3.3,4.6-5.2c1.6-2,3-4.8,3.5-7.9c0.6-3.2,0.2-6.8-1.5-10.1c-1.7-3.4-4.5-6.5-7.3-10.1
						c-1.4-1.8-2.8-3.9-3.8-6.2c-1-2.3-1.8-4.7-2.2-7.3c-0.9-5.1-0.7-10.5,0.2-15.8c0.2-1.3,0.5-2.6,0.8-3.9
						c0.3-1.3,0.7-2.6,1.1-3.8c0.8-2.5,1.8-4.8,2.8-7.1c2-4.5,3.9-8.8,5.6-12.9c1.7-4.1,3-8.1,4-11.9c0.9-3.8,1.4-7.4,1.5-10.8
						c0.2-6.7-1-12.1-2-15.7c-0.6-1.8-1-3.2-1.4-4.1c-0.4-0.9-0.5-1.4-0.5-1.4s0.2,0.5,0.7,1.4c0.5,0.9,1.1,2.2,1.8,4
						c1.4,3.5,3.1,9,3.4,15.9c0.1,3.5-0.1,7.3-0.9,11.3c-0.7,4-2,8.2-3.5,12.5c-1.5,4.3-3.4,8.7-5.3,13.2c-0.9,2.3-1.8,4.5-2.6,6.9
						c-0.4,1.2-0.7,2.3-1,3.5c-0.3,1.2-0.6,2.4-0.8,3.7c-0.9,4.9-1.1,9.9-0.4,14.4c0.4,2.3,1,4.5,1.8,6.5c0.8,2,2,3.9,3.2,5.7
						c2.5,3.6,5.4,7,7.1,10.9c0.8,2,1.3,4,1.5,6c0.1,2-0.1,3.9-0.5,5.6c-0.9,3.5-2.5,6.3-4.5,8.4c-1,1-2,1.7-2.9,2.5
						c-0.9,0.8-1.6,1.5-2.2,2.2c-0.5,0.7-1,1.4-1.1,2.1c-0.1,0.7,0,1.3,0.2,1.7c0.1,0.2,0.2,0.4,0.3,0.6c0.1,0.1,0.2,0.3,0.3,0.4
						C96.3,331.6,96.4,331.6,96.4,331.6z"/>
				</g>
			</g>
		</g>
		<g>
			<g>
				<g>
					<path d="M80.3,330c0,0-0.5-0.1-1.6-0.2c-1-0.2-2.6-0.4-4.5-1.1c-0.9-0.4-2-0.9-2.9-1.7c-1-0.8-1.9-1.7-2.9-2.9
						c-0.9-1.1-1.8-2.4-2.8-3.7c-0.9-1.3-1.9-2.7-2.9-4.3c-1-1.6-1.8-3.2-2.7-5c-0.9-1.8-1.7-3.6-2.5-5.6c-1.6-4-2.9-8.4-3.6-13.2
						c-0.3-2.4-0.5-4.9-0.4-7.5c0.1-2.6,0.4-5.2,0.9-7.7c1-5.1,2.5-10.2,3.3-15.4c0.8-5.1,0.5-10.3-0.2-15.2
						c-0.7-5-1.6-9.8-2.3-14.6c-1.3-9.4-1.7-18-1.3-25.2c0.3-7.2,1.3-12.9,2.1-16.8c0.4-2,0.7-3.5,1-4.5c0.2-1,0.4-1.6,0.4-1.6
						s-0.1,0.5-0.2,1.6c-0.2,1-0.3,2.6-0.6,4.5c-0.4,4-0.9,9.7-0.8,16.8c0.1,7.1,0.9,15.4,2.6,24.6c0.8,4.6,1.9,9.4,2.7,14.5
						c0.4,2.6,0.7,5.2,0.8,8c0.1,2.7-0.1,5.6-0.5,8.4c-0.8,5.6-2.4,10.7-3.4,15.6c-0.5,2.4-0.9,4.8-1,7.2c-0.1,2.4-0.1,4.7,0.1,6.9
						c0.4,4.5,1.5,8.8,2.8,12.7c1.3,3.9,2.8,7.5,4.4,10.6c0.8,1.5,1.7,3,2.5,4.4c0.8,1.4,1.6,2.6,2.4,3.8c1.6,2.3,3.3,3.9,5.1,4.8
						c1.7,0.9,3.3,1.3,4.3,1.5C79.8,329.9,80.3,330,80.3,330z"/>
				</g>
			</g>
		</g>
		<g>
			<g>
				<g>
					<path d="M83.6,333.8c0,0-0.3-0.3-0.9-0.9c-0.6-0.6-1.5-1.4-2.6-2.6c-2.2-2.3-5.1-5.9-7.6-11.2c-2.4-5.2-4.1-12.1-4.2-19.7
						c-0.1-7.6,1.2-16,3.4-24.4c2.2-8.4,5-16.2,7.4-23.2c0.3-0.9,0.6-1.7,0.9-2.6l0.2-0.6l0.1-0.3l0.1-0.1l0.1-0.3
						c0.2-0.4,0.3-0.8,0.5-1.2c0.3-0.8,0.5-1.6,0.7-2.3c0.2-0.8,0.4-1.6,0.5-2.3c0.5-3.1,0.4-6.1,0.1-8.9c-0.6-5.5-1.7-10-2.2-13.1
						c-0.6-3.1-0.9-4.8-0.9-4.8s0.5,1.7,1.4,4.7c0.9,3,2.5,7.3,3.6,13c0.5,2.8,0.9,6,0.6,9.5c0,0.9-0.2,1.7-0.4,2.6
						c-0.2,0.9-0.4,1.8-0.7,2.7c-0.1,0.4-0.3,0.9-0.4,1.3l-0.1,0.3l-0.1,0.2c0,0,0,0,0,0c0,0,0,0,0,0.1l-0.2,0.7
						c-0.3,0.9-0.5,1.8-0.8,2.7c-2.1,7.2-4.6,14.9-6.7,23.2c-2.1,8.2-3.6,16.2-3.9,23.4c-0.3,7.3,0.8,13.8,2.7,19
						c1.9,5.2,4.4,9,6.2,11.5c0.9,1.3,1.7,2.2,2.3,2.8C83.3,333.4,83.6,333.8,83.6,333.8z"/>
				</g>
			</g>
		</g>
		<g>
			<g>
				<g>
					<path d="M93.5,247.5c0,0,1.2-2.9,3.3-7.5c1-2.3,1.7-5.2,1.8-8.4c0.1-3.2-0.6-6.8-1.6-10.4c-1.1-3.5-2.9-6.9-3.7-10.3
						c-0.8-3.3-1.2-6.4-1.2-9c0-2.6,0.4-4.6,0.6-6c0.2-1.4,0.4-2.2,0.4-2.2s0,0.8-0.1,2.2c-0.1,1.4-0.2,3.5,0,6
						c0.2,2.5,0.8,5.4,1.8,8.6c0.9,3.1,2.7,6.3,4,10.1c1.1,3.8,1.6,7.6,1.4,11.1c-0.3,3.5-1.3,6.5-2.6,8.7
						C95.2,244.9,93.5,247.5,93.5,247.5z"/>
				</g>
			</g>
		</g>
		<path class="st9" d="M101.2,289.9c0,0.3,0.2,0.5,0.4,0.7c0.2,0.1,0.5,0.2,0.7,0.3c0.2,0.1,0.5,0.3,0.5,0.5c0,0.1-0.1,0.3-0.1,0.4
			c-0.1,0.1-0.1,0.3,0,0.4s0.3,0.2,0.4,0c0-0.1,0-0.1,0-0.2c0-0.1,0.2-0.2,0.3-0.3c0.1,0,0.3,0,0.4,0c0.2,0,0.5,0.1,0.7,0.1
			c0.2-0.5-0.1-1.1-0.5-1.4c-0.1,0-0.2-0.1-0.3-0.2c-0.3-0.3,0-0.8-0.2-1.2c-0.2-0.5-0.8,0.5-1.1,0.6
			C102.3,289.8,101.1,289.5,101.2,289.9z"/>
	</g>
</g>
<g id="LINEA_FENIX">
</g>
</svg>
