<?xml version="1.0" encoding="utf-8"?>
<!-- Generator: Adobe Illustrator 27.2.0, SVG Export Plug-In . SVG Version: 6.00 Build 0)  -->
<svg version="1.1" id="TORNILLOSMAD" xmlns="http://www.w3.org/2000/svg" xmlns:xlink="http://www.w3.org/1999/xlink" x="0px"
	 y="0px" viewBox="0 0 10752.6 14626.3" style="enable-background:new 0 0 10752.6 14626.3;" xml:space="preserve">
<style type="text/css">
	.st0{fill:none;stroke:#000000;stroke-width:33.1929;stroke-miterlimit:10;}
	.st1{fill:none;stroke:#000000;stroke-width:12;stroke-miterlimit:10;}
	.st2{fill:none;stroke:#000000;stroke-width:32.8472;stroke-miterlimit:10;}
	.st3{font-family:'Neuton-Light';}
	.st4{font-size:300.1666px;}
	.st5{font-size:400.1666px;}
	.st6{fill:none;stroke:#000000;stroke-width:40.6474;stroke-miterlimit:10;}
	.st7{fill:none;stroke:#000000;stroke-width:37.3313;stroke-miterlimit:10;}
	.st8{font-size:437.1815px;}
	.st9{font-size:437.1666px;}
	.st10{fill:none;stroke:#000000;stroke-width:42.9378;stroke-miterlimit:10;}
	.st11{fill:none;stroke:#000000;stroke-width:66.7304;stroke-miterlimit:10;}
</style>
<path class="st0" d="M10921.3,6374.3"/>
<text transform="matrix(1 0 0 1 465.5412 16840.6016)" style="font-family:'MyriadPro-Regular'; font-size:12px;">S</text>
<g>
	<path class="st1" d="M5582.1,9048.9"/>
</g>
<g>
	<path class="st2" d="M959,10915.9l31.2,1667.2c0,0,31.7,538.5,371,665.2s1552,357.5,1552,357.5s945.7,117.6,1248.9-303.2
		c104.1-348.4,0-466.1,0-466.1s-81.4-140.3-298.6-162.9l-1312.2-307.7c0,0-158.4-4.5-140.3-262.4c-9-267,9-1194.6,9-1194.6v-574.7
		c0,0-104.1-548.7-506.8-570.1c-671.9-83.7-948,1104.1-948,1104.1L959,10915.9z"/>
	<path class="st2" d="M1952.5,9767.9c0,0-509.9-101.9-790.4,1134.9c11.2,1381.7,27.1,1938.2,27.1,1938.2s-11.3,117.6,92.8,162.9
		s533.9,156.1,533.9,156.1l1110.9,239.8c0,0,1012.9,68.1,1281.3-357.3"/>
	
		<ellipse transform="matrix(0.2685 -0.9633 0.9633 0.2685 -9425.2041 9869.543)" class="st2" cx="1785.7" cy="11140.5" rx="608.9" ry="284.1"/>
	
		<ellipse transform="matrix(0.226 -0.9741 0.9741 0.226 -9531.3379 10228.7461)" class="st2" cx="1670.8" cy="11112" rx="405.7" ry="163.3"/>
	<ellipse class="st2" cx="3021.8" cy="12976.7" rx="520.4" ry="170.4"/>
	<ellipse class="st2" cx="3035.2" cy="13076.3" rx="350.1" ry="70.9"/>
</g>
<text transform="matrix(1 0 0 1 3542.1499 10293.6309)"><tspan x="0" y="0" class="st3 st4">Two of the supports angle on each </tspan><tspan x="0" y="360.2" class="st3 st4">side to hold the shelf are 2, </tspan><tspan x="0" y="720.4" class="st3 st4">the same it’s </tspan><tspan x="0" y="1080.6" class="st3 st4">measures is the 2 cm long </tspan><tspan x="0" y="1440.8" class="st3 st4">for 2 high each support </tspan><tspan x="0" y="1921" class="st3 st4">has 2 screws.</tspan><tspan x="1364.7" y="1921" class="st3 st5"> </tspan></text>
<line class="st2" x1="1210" y1="12938.6" x2="2444.9" y2="12295.9"/>
<g>
	<line class="st6" x1="745.4" y1="10005.6" x2="745.4" y2="13246.6"/>
	<line class="st6" x1="663.2" y1="10005.6" x2="846.8" y2="10005.6"/>
	<line class="st6" x1="653.6" y1="13246.6" x2="837.2" y2="13246.6"/>
</g>
<g>
	<line class="st7" x1="1210.5" y1="13809.7" x2="3944.2" y2="13804.9"/>
	<line class="st7" x1="1210.8" y1="13891.9" x2="1210" y2="13708.2"/>
	<line class="st7" x1="3944.6" y1="13896.7" x2="3943.8" y2="13713"/>
	<text transform="matrix(1.5441 7.010123e-03 -1.082000e-02 0.9999 1955.1764 13716.5586)" class="st3 st8"> </text>
</g>
<text transform="matrix(1 0 0 1 2145.7051 14220.8418)" class="st3 st9">2 CM</text>
<text transform="matrix(0 1 -1 0 385.3678 11189.4346)" class="st3 st9">2 CM</text>
<g>
	<g>
		<g>
			<path class="st0" d="M902.3,3952.5"/>
			
				<ellipse transform="matrix(0.9994 -3.558623e-02 3.558623e-02 0.9994 -165.5283 78.303)" class="st0" cx="2116.9" cy="4689.1" rx="212" ry="277.8"/>
			
				<ellipse transform="matrix(0.9994 -3.558623e-02 3.558623e-02 0.9994 -165.5283 78.303)" class="st0" cx="2116.9" cy="4689.1" rx="179" ry="234.5"/>
			<g>
				<polygon class="st0" points="2192,4564.6 2151,4603.5 2111,4596.5 2080.2,4549.6 2031.4,4598 2055.2,4635.3 2062.5,4680.4 
					2047.2,4708.9 2020.6,4734.4 2059.4,4795 2097.7,4759.8 2137.1,4766.3 2168.7,4817.5 2216.7,4769.2 2182.7,4708 2188.9,4668.2 
					2229.8,4625.8 				"/>
			</g>
			<path class="st0" d="M2350.9,4281.6c0,0,41.1,460.3,31.5,714.2c-297.6,307.9-595.9-34.1-619.1-190.9
				c-1.8-69.3-12.5-496.5-18-712.3c0,0,21.9-97.7,114.4-134.4c92.6-36.6,673-263.6,705.9-262.3c162-54,727.1,50.1,572.8,252.6
				c-592.1,210.2-765.6,266.1-765.6,266.1S2343.2,4241.7,2350.9,4281.6z"/>
			<path class="st0" d="M3148.6,3933.7c-40.4-34-135.5-203.7-575.2-154.9c-331.7,105.4-704.6,269.4-704.6,269.4
				s-66.9,8.3-56.6,111.2c10.3,102.9,12.9,642.9,12.9,642.9s109,310.5,468.5,267.1"/>
			<path class="st0" d="M2354.3,4243.2"/>
			<path class="st0" d="M1822.9,4083.7"/>
			<ellipse class="st0" cx="2609.4" cy="3973" rx="154.3" ry="47.6"/>
			<polygon class="st0" points="902.3,3431.7 902.3,3952.5 4397.1,2360.7 4397.9,1836.7 			"/>
			<line class="st0" x1="902.3" y1="3952.5" x2="1745.3" y2="4121.7"/>
			<path class="st0" d="M5876.6,4911.5c392.7,74.6,784.7,148.6,1177.7,223.5"/>
			<path class="st0" d="M2354.3,4243.2c76,14.9,150,28.9,229,42.9c29,6,55,10,84,17c4,1,7,1,11,1c388,76,734,139,1122,213
				c693,133,1337,255,2006.4,381.1"/>
			<path class="st0" d="M1811.1,4139.5"/>
			<line class="st0" x1="1812" y1="4121.7" x2="2354.3" y2="4243.2"/>
			<path class="st0" d="M6260.1,4993.5"/>
			<path class="st0" d="M5728.6,4834.1"/>
			<g>
				
					<ellipse transform="matrix(0.9994 -3.558623e-02 3.558623e-02 0.9994 -190.8384 223.2799)" class="st0" cx="6176.9" cy="5472.6" rx="212" ry="277.8"/>
				
					<ellipse transform="matrix(0.9994 -3.558623e-02 3.558623e-02 0.9994 -190.8384 223.2799)" class="st0" cx="6176.9" cy="5472.6" rx="179" ry="234.5"/>
				<g>
					<polygon class="st0" points="6252.1,5348.1 6211.1,5387 6171,5380 6140.3,5333.1 6091.4,5381.5 6115.2,5418.8 6122.5,5463.9 
						6107.3,5492.4 6080.6,5517.9 6119.4,5578.5 6157.7,5543.3 6197.2,5549.8 6228.7,5601 6276.7,5552.7 6242.7,5491.5 
						6248.9,5451.7 6289.8,5409.3 					"/>
				</g>
				<path class="st0" d="M6410.9,5065.1c0,0,41.1,460.3,31.5,714.2c-297.6,307.9-595.9-34.1-619.1-190.9
					c-1.8-69.3-12.5-496.5-18-712.3c0,0,21.9-97.7,114.4-134.4c92.6-36.6,673-263.6,705.9-262.3c162-54,727.1,50.1,572.8,252.6
					c-592.1,210.2-765.6,266.1-765.6,266.1S6403.2,5025.2,6410.9,5065.1z"/>
				<path class="st0" d="M7208.6,4717.2c-40.4-34-135.5-203.7-575.2-154.9c-331.7,105.4-704.6,269.4-704.6,269.4
					s-66.9,8.3-56.6,111.2s12.9,642.9,12.9,642.9s109,310.5,468.5,267.1"/>
				<ellipse class="st0" cx="6669.4" cy="4756.5" rx="154.3" ry="47.6"/>
			</g>
			<path class="st0" d="M5716.9,4889.9"/>
		</g>
		<polyline class="st0" points="9955.9,3804.4 7054.3,5126.1 7054.3,8378.9 899.3,7529.3 899.3,1666.3 902.3,483.4 		"/>
		<polyline class="st0" points="7054.3,2526.9 7054.3,1666.3 902.3,483.4 465.5,730.3 465.5,1666.3 465.5,7535.4 465.5,7655.1 
			899.3,7529.3 		"/>
		<line class="st0" x1="4397.1" y1="2360.7" x2="9955.9" y2="3804.4"/>
		<line class="st0" x1="4397.1" y1="1836.7" x2="9955.9" y2="3280.5"/>
		<polyline class="st0" points="465.5,7655.1 6755.1,8537.1 7054.3,8378.9 		"/>
	</g>
	<line class="st0" x1="9943.8" y1="3788.5" x2="9944.7" y2="3264.6"/>
</g>
<polyline class="st10" points="1732.8,4465.3 1509.4,4465.3 1509.4,9879.3 "/>
<g id="TORNILLOSMET3">
	<path d="M8796.1,9438.8c-104.4-83.5-234.6-123.1-289.8-247.4c141.3-54.5,259.5,43,400.7,71.6c-106.5-82.8-235-122-287.6-247
		c143.9-55.8,262.1,46,401.3,71.6c-102.5-81.1-232.1-118.4-289.1-249.3c53.2-6,104.5-26,160.1-5.6c75.8,27.8,152.4,53.6,230.8,76.8
		c-92.8-81.9-224.8-118-277.8-243.9c143.1-56.3,260,44.9,399.8,71c-102.7-84.4-235.3-121.2-288.1-246.6
		c141-55.4,257.5,42.4,391.2,61.9c-32-20.5-64-40.9-95.9-61.5c-32.2-20.8-65.2-40.4-95.8-63.2c-10.8-8.1-15.8-24-23.4-36.3
		c4.7-3.4,9.4-6.7,14.1-10.1c100.6,64.4,203.7,125.3,300.2,195.3c32.2,23.4,47.4,70.3,74.4,112.8c-34.8,4.8-67.4,6.9-98.6,14.5
		c-16.5,4-32.8,15.3-45.3,27.3c-30.2,29.1-30.7,59.1,2.1,88.7c11.5,10.4,19.1,25.1,32.6,43.5c-36.7,5.2-69.6,8-101.5,15.2
		c-15.4,3.5-32.1,12.2-42.6,23.7c-26.6,29.2-40.4,60.6-1.1,92.9c11.8,9.7,18.9,25.2,32.4,44c-36.6,5-69.1,7.6-100.7,14.6
		c-15.3,3.4-31.6,12.3-42.7,23.5c-31.4,31.5-34.7,64.3,1.4,96.8c10.2,9.2,16.3,23,28.3,40.7c-36.9,5.3-69.4,8-100.8,15.2
		c-15.3,3.5-31.5,12.8-42.4,24.1c-29.1,29.9-36.1,61.4,0.5,93c11.4,9.8,18.2,25,31,43.3c-38.1,5.3-70.9,7.9-102.6,15.2
		c-15.2,3.5-30.7,13.5-41.9,24.7c-30.8,30.5-32.9,62,1.5,93.2c11.1,10.1,18.8,24,31.2,40.3c-18.7,3.4-32.3,7.8-46,8.1
		c-57.7,1.2-105.6,16.8-128.1,76.9c-3,7.9-12.1,14.9-20,19.3c-111.4,61.4-223.1,122.2-342.3,187.4c7-104.4,10.5-201.8,21.1-298.4
		c7.9-71.5,5.8-136.4-60.4-185.6C8537.3,9310.4,8655.5,9411.7,8796.1,9438.8z"/>
	<path d="M8937.9,8193.7c42-106.9,119.7-157.6,232.8-155.9c97.3,1.5,187.8,26.3,277.4,76.4c-36.6,57.1-71.4,111.4-107.9,168.3
		c45,28.8,85.7,54.9,130.1,83.4c35.9-56,70.8-110.4,108.9-169.8c106.3,85.9,189.8,180,212.2,315.6c12,72.6-23.2,129.1-67.3,185.9
		C9462.8,8530.1,9201.9,8362.9,8937.9,8193.7z"/>
	<circle class="st11" cx="8974" cy="9048.9" r="1348"/>
</g>
<polyline class="st10" points="6187.8,5750.2 6187.8,9293.1 7648.1,9293.1 "/>
<line class="st2" x1="2416.4" y1="11112" x2="3385.3" y2="11112"/>
<text transform="matrix(1 0 0 1 8523.0205 11014.0312)"><tspan x="0" y="0" class="st3 st4">4 screw </tspan><tspan x="-482.3" y="360.2" class="st3 st4">black in totality </tspan><tspan x="-515.7" y="720.4" class="st3 st4">the measures 1/4 </tspan><tspan x="399.8" y="1200.6" class="st3 st5"> </tspan></text>
<text transform="matrix(1 0 0 1 7625.1167 12125.8789)"><tspan x="0" y="0" class="st3 st4">philips head for the piece </tspan><tspan x="593.2" y="360.2" class="st3 st4">supports angle</tspan></text>
</svg>
