<?xml version="1.0" encoding="utf-8"?>
<!-- Generator: Adobe Illustrator 26.5.0, SVG Export Plug-In . SVG Version: 6.00 Build 0)  -->
<svg version="1.1" id="CIRCULO-SELECCION-3" xmlns="http://www.w3.org/2000/svg" xmlns:xlink="http://www.w3.org/1999/xlink"
	 x="0px" y="0px" viewBox="0 0 6114.4 529.4" style="enable-background:new 0 0 6114.4 529.4;" xml:space="preserve">
<style type="text/css">
	.st0{fill:#FFFFFF;}
</style>
<g id="UNO">
	<g>
		<circle class="st0" cx="663.3" cy="274.6" r="138"/>
		<path d="M663.3,140.1c35.9,0,69.7,14,95.1,39.4c25.4,25.4,39.4,59.2,39.4,95.1s-14,69.7-39.4,95.1c-25.4,25.4-59.2,39.4-95.1,39.4
			s-69.7-14-95.1-39.4c-25.4-25.4-39.4-59.2-39.4-95.1s14-69.7,39.4-95.1C593.6,154.1,627.4,140.1,663.3,140.1 M663.3,133.1
			c-78.1,0-141.5,63.4-141.5,141.5s63.4,141.5,141.5,141.5c78.1,0,141.5-63.4,141.5-141.5S741.4,133.1,663.3,133.1L663.3,133.1z"/>
	</g>
	<g id="PRIMERO">
		<path d="M623.3,344l0.5-7.3l33.4-5.1V214.7h-31.6l0.6-7.4l47.1-7.8h3.3v132.7l32.7,3.4l-1.1,8.4H623.3z"/>
	</g>
</g>
<g id="DOS">
	<g>
		
			<ellipse transform="matrix(0.1602 -0.9871 0.9871 0.1602 1067.0229 1803.345)" class="st0" cx="1593.3" cy="274.6" rx="138" ry="138"/>
		<g>
			<path d="M1593.3,140.1c35.9,0,69.7,14,95.1,39.4c25.4,25.4,39.4,59.2,39.4,95.1s-14,69.7-39.4,95.1
				c-25.4,25.4-59.2,39.4-95.1,39.4s-69.7-14-95.1-39.4c-25.4-25.4-39.4-59.2-39.4-95.1s14-69.7,39.4-95.1
				C1523.6,154.1,1557.4,140.1,1593.3,140.1 M1593.3,133.1c-78.1,0-141.5,63.4-141.5,141.5s63.4,141.5,141.5,141.5
				c78.1,0,141.5-63.4,141.5-141.5S1671.4,133.1,1593.3,133.1L1593.3,133.1z"/>
		</g>
	</g>
	<g id="SEGUNDO">
		<path d="M1542.8,335.4l29.1-24.9c7.6-6.5,13.9-12.3,18.9-17.4s9.5-10.5,13.5-16.1s7-11.4,8.9-17.1c1.9-5.7,2.8-11.8,2.8-18.2
			c0-10-2.1-18.3-6.3-25c-4.2-6.6-10.8-9.9-19.8-9.9c-6.1,0-11.3,1.3-15.7,3.8c-4.4,2.5-7.5,5.6-9.5,9.3l-5,29.4l-7-1l-1.2-32.8
			c3.5-4.7,9.5-9,17.9-12.8c8.5-3.8,17.1-5.7,26-5.7c12.9,0,23,3.6,30.5,10.9c7.5,7.2,11.2,17.8,11.2,31.7c0,3.2-0.3,6.3-0.8,9.4
			c-0.5,3.1-1.4,6.2-2.7,9.3c-1.3,3.1-2.6,5.9-3.8,8.5c-1.3,2.6-3.1,5.4-5.6,8.5c-2.5,3.1-4.6,5.8-6.3,8c-1.8,2.2-4.3,4.9-7.8,8.1
			c-3.4,3.2-6.1,5.8-8.2,7.6c-2,1.9-5.1,4.5-9.3,7.9s-7.3,6-9.3,7.6c-2.1,1.7-5.4,4.3-9.9,8l-9.6,7.6h60.9l11.6-29.7l6.7,1
			l-5.7,43.1h-93.6L1542.8,335.4z"/>
	</g>
</g>
<g id="TRES">
	<g>
		<circle class="st0" cx="2558.3" cy="274.6" r="138"/>
		<g>
			<path d="M2558.3,140.1c35.9,0,69.7,14,95.1,39.4c25.4,25.4,39.4,59.2,39.4,95.1s-14,69.7-39.4,95.1
				c-25.4,25.4-59.2,39.4-95.1,39.4s-69.7-14-95.1-39.4c-25.4-25.4-39.4-59.2-39.4-95.1s14-69.7,39.4-95.1
				C2488.6,154.1,2522.4,140.1,2558.3,140.1 M2558.3,133.1c-78.1,0-141.5,63.4-141.5,141.5s63.4,141.5,141.5,141.5
				c78.1,0,141.5-63.4,141.5-141.5S2636.4,133.1,2558.3,133.1L2558.3,133.1z"/>
		</g>
	</g>
	<g id="TERCERO">
		<path d="M2516,333.1l5.5-32.1l8.2,1.3l1.2,24.9c1.9,3.3,5,6.1,9.5,8.7c4.4,2.5,9.2,3.8,14.3,3.8c9.4,0,16.9-2.8,22.6-8.5
			c5.7-5.7,8.6-13.2,8.6-22.8c0-9.3-3.9-16.9-11.6-22.8c-7.7-5.9-17.5-9-29.4-9.3l-0.7-6.1c2-0.9,3.9-1.7,5.5-2.5
			c1.6-0.8,3.8-1.9,6.4-3.4c2.6-1.5,5-3,7-4.5c2-1.5,4.1-3.3,6.4-5.5c2.3-2.2,4.2-4.4,5.6-6.7c1.5-2.3,2.7-4.9,3.7-7.8
			s1.5-6,1.5-9.2c0-6.7-1.9-12.6-5.8-17.7c-3.9-5.1-9.3-7.7-16.4-7.7c-8.1,0-14.9,3.3-20.6,9.8l-5.2,27.3l-7.8-1.3l-0.9-30.3
			c3.7-3.6,9.3-6.9,16.5-9.9c7.3-3.1,15.4-4.6,24.2-4.6c10.4,0,19.1,2.8,26,8.4c6.9,5.6,10.4,13.1,10.4,22.3c0,4.7-1,9.2-3,13.5
			c-2,4.3-4.6,8.1-7.9,11.2s-6.8,5.9-10.5,8.2c-3.7,2.3-7.5,4.2-11.4,5.6v1.2c11.3,1.6,20.5,5.5,27.7,11.7
			c7.2,6.2,10.7,14,10.7,23.4c0,8.6-2.5,16.5-7.6,23.6c-5,7.1-11.7,12.7-19.9,16.6c-8.2,3.9-17,5.9-26.4,5.9
			c-8.2,0-15.7-1.5-22.6-4.5C2523,340.7,2518.4,337.2,2516,333.1z"/>
	</g>
</g>
<g id="CUATRO">
	<g>
		<circle class="st0" cx="3488.3" cy="274.6" r="138"/>
		<g>
			<path d="M3488.3,140.1c35.9,0,69.7,14,95.1,39.4c25.4,25.4,39.4,59.2,39.4,95.1s-14,69.7-39.4,95.1
				c-25.4,25.4-59.2,39.4-95.1,39.4s-69.7-14-95.1-39.4c-25.4-25.4-39.4-59.2-39.4-95.1s14-69.7,39.4-95.1
				C3418.6,154.1,3452.4,140.1,3488.3,140.1 M3488.3,133.1c-78.1,0-141.5,63.4-141.5,141.5s63.4,141.5,141.5,141.5
				s141.5-63.4,141.5-141.5S3566.4,133.1,3488.3,133.1L3488.3,133.1z"/>
		</g>
	</g>
	<g id="CUARTO">
		<path d="M3426.3,293.5l75.3-94.7l6,1.8c-0.7,14.5-1.1,34.5-1.1,60.2v27h31.1l-2,12.8h-29.2v32.7l25.1,3.1l-1.3,7.8H3458l0.9-7
			l30.2-4.6v-32.5h-60.4L3426.3,293.5z M3444.4,287.8h44.2v-59.3L3444.4,287.8z"/>
	</g>
</g>
<g id="CINCO">
	<g>
		<circle class="st0" cx="4472.3" cy="274.6" r="138"/>
		<g>
			<path d="M4472.3,140.1c35.9,0,69.7,14,95.1,39.4c25.4,25.4,39.4,59.2,39.4,95.1s-14,69.7-39.4,95.1
				c-25.4,25.4-59.2,39.4-95.1,39.4s-69.7-14-95.1-39.4c-25.4-25.4-39.4-59.2-39.4-95.1s14-69.7,39.4-95.1
				C4402.6,154.1,4436.4,140.1,4472.3,140.1 M4472.3,133.1c-78.1,0-141.5,63.4-141.5,141.5s63.4,141.5,141.5,141.5
				s141.5-63.4,141.5-141.5S4550.4,133.1,4472.3,133.1L4472.3,133.1z"/>
		</g>
	</g>
	<g id="QUINTO">
		<path d="M4430.9,335.8l3.4-34.3l8.2,1.7l2.2,24.4c6.4,7.9,14.9,11.8,25.4,11.8c8.7,0,15.6-2.8,20.8-8.4s7.7-13,7.7-22.2
			c0-12-5-21.5-15.1-28.4c-10.1-6.9-23.9-10.9-41.6-12l14-64.9l54.8-3.3l-2.6,18.2l-47,2.1l-5.4,31.9c10.5,0.7,19.7,2.4,27.6,5.2
			c7.9,2.8,14.3,6.5,19,10.9c4.7,4.5,8.2,9.5,10.6,15c2.3,5.5,3.5,11.5,3.5,18.1c0,12.8-4.9,23.8-14.8,33
			c-9.9,9.2-22.2,13.9-36.8,13.9C4451,348.5,4439.7,344.3,4430.9,335.8z"/>
	</g>
</g>
<g id="SEIS">
	<g>
		<circle class="st0" cx="5437.3" cy="274.6" r="138"/>
		<g>
			<path d="M5437.3,140.1c35.9,0,69.7,14,95.1,39.4c25.4,25.4,39.4,59.2,39.4,95.1s-14,69.7-39.4,95.1
				c-25.4,25.4-59.2,39.4-95.1,39.4s-69.7-14-95.1-39.4c-25.4-25.4-39.4-59.2-39.4-95.1s14-69.7,39.4-95.1
				C5367.6,154.1,5401.4,140.1,5437.3,140.1 M5437.3,133.1c-78.1,0-141.5,63.4-141.5,141.5s63.4,141.5,141.5,141.5
				s141.5-63.4,141.5-141.5S5515.4,133.1,5437.3,133.1L5437.3,133.1z"/>
		</g>
	</g>
	<g id="SEXTO">
		<path d="M5390.5,292.6c0-20.4,6.8-40,20.3-58.6c13.6-18.6,30.1-31.3,49.7-38.1l3.5,6.1c-28.5,12.7-46,35.3-52.5,67.7h1.1
			c8.8-8.1,19.2-12.2,31.1-12.2c11.7,0,21.1,3.9,28.2,11.8c7.1,7.9,10.6,18.1,10.6,30.5c0,13.4-4.6,24.6-13.9,33.4
			c-9.2,8.9-20.5,13.3-33.9,13.3c-7.7,0-14.5-1.5-20.4-4.4s-10.5-6.9-13.9-12c-3.4-5.1-6-10.8-7.6-17.1
			C5391.3,306.8,5390.5,300,5390.5,292.6z M5410.4,294.4c0,12.7,2.5,23.3,7.6,31.7c5,8.4,11.3,12.6,18.8,12.6
			c17.3,0,26-11.5,26-34.5c0-10-2.4-18.5-7.3-25.3s-11.7-10.3-20.5-10.3c-5.2,0-10,1-14.5,3c-4.4,2-7.5,4.2-9.2,6.7
			C5410.6,282.1,5410.4,287.5,5410.4,294.4z"/>
	</g>
</g>
</svg>
