<?xml version="1.0" encoding="utf-8"?>
<!-- Generator: Adobe Illustrator 27.2.0, SVG Export Plug-In . SVG Version: 6.00 Build 0)  -->
<svg version="1.1" id="TORNILLOSMAD" xmlns="http://www.w3.org/2000/svg" xmlns:xlink="http://www.w3.org/1999/xlink" x="0px"
	 y="0px" viewBox="0 0 8712 11211.7" style="enable-background:new 0 0 8712 11211.7;" xml:space="preserve">
<style type="text/css">
	.st0{fill:none;stroke:#000000;stroke-width:31.3001;stroke-miterlimit:10;}
	.st1{fill:none;stroke:#000000;stroke-width:33.8288;stroke-miterlimit:10;}
	.st2{fill:none;stroke:#000000;stroke-width:20.1481;stroke-miterlimit:10;}
	.st3{fill:none;stroke:#000000;stroke-width:40.2634;stroke-miterlimit:10;}
	.st4{fill:none;stroke:#000000;stroke-width:12.4385;stroke-miterlimit:10;}
	.st5{fill:none;stroke:#000000;stroke-width:57.5141;stroke-miterlimit:10;}
	.st6{fill:none;stroke:#000000;stroke-width:19.6573;stroke-miterlimit:10;}
	.st7{font-family:'MyriadPro-Regular';}
	.st8{font-size:12px;}
	.st9{font-family:'Neuton-Light';}
	.st10{font-size:300px;}
	.st11{fill:none;stroke:#000000;stroke-width:45.2086;stroke-miterlimit:10;}
	.st12{fill:none;stroke:#000000;stroke-width:56.6669;stroke-miterlimit:10;}
	.st13{stroke:#000000;stroke-width:14.475;stroke-miterlimit:10;}
	
		.st14{clip-path:url(#SVGID_00000076565829364385407500000014617370651367497895_);fill:none;stroke:#000000;stroke-width:78.2961;stroke-miterlimit:10;}
	.st15{clip-path:url(#SVGID_00000076565829364385407500000014617370651367497895_);}
	.st16{fill:none;stroke:#000000;stroke-width:54.2083;stroke-miterlimit:10;}
	.st17{fill:none;stroke:#000000;stroke-width:58.5876;stroke-miterlimit:10;}
	.st18{fill:none;stroke:#000000;stroke-width:34.8942;stroke-miterlimit:10;}
	.st19{fill:none;stroke:#000000;stroke-width:69.7316;stroke-miterlimit:10;}
	.st20{fill:none;stroke:#000000;stroke-width:21.542;stroke-miterlimit:10;}
	
		.st21{clip-path:url(#SVGID_00000076565829364385407500000014617370651367497895_);fill:none;stroke:#000000;stroke-width:33.1425;stroke-miterlimit:10;}
	
		.st22{clip-path:url(#SVGID_00000076565829364385407500000014617370651367497895_);fill:none;stroke:#000000;stroke-width:21.542;stroke-miterlimit:10;}
	.st23{fill:none;stroke:#000000;stroke-width:78.2961;stroke-miterlimit:10;}
	.st24{fill:none;stroke:#000000;stroke-width:57.132;stroke-miterlimit:10;}
</style>
<g id="MAQUETA_2">
	<polygon class="st0" points="490.9,8634.6 490.9,10973.6 3716.8,10253.7 3696.7,7954.4 	"/>
	<polygon class="st1" points="276.1,8492.7 276.1,10841.3 478.8,10975.1 3716.8,10253.7 3696.7,7954.4 3451.1,7812.6 	"/>
	<path class="st2" d="M3309.8,7009.7"/>
	<line class="st1" x1="490.9" y1="8634.6" x2="276.1" y2="8492.7"/>
	<polygon class="st1" points="3173.5,7872.1 807,6497.5 1068.3,6436.3 3451.1,7812.6 	"/>
	<line class="st3" x1="807" y1="6486.7" x2="807" y2="8379"/>
	<line class="st3" x1="3436.4" y1="8004" x2="3436.4" y2="10317.3"/>
	<path class="st3" d="M3492.3,10317.3"/>
	<path class="st3" d="M3492.3,8004"/>
	<circle class="st4" cx="3580.6" cy="10059.8" r="88.3"/>
	<polygon class="st4" points="3552.1,10099.6 3569.4,10086.5 3586.2,10088.8 3599,10104.5 3619.7,10088.3 3609.8,10075.8 
		3606.9,10060.8 3613.5,10051.2 3624.7,10042.7 3608.7,10022.5 3592.5,10034.2 3575.9,10032.1 3562.8,10015 3542.5,10031.2 
		3556.6,10051.6 3553.8,10065 3536.4,10079.1 	"/>
</g>
<polyline class="st5" points="3658,9187.9 5808.6,9187.9 5808.6,9565.2 "/>
<circle class="st6" cx="3566.1" cy="8213.7" r="58.1"/>
<polyline class="st5" points="4438.9,8213.7 6807,8213.7 6807,5812.5 "/>
<text transform="matrix(1 0 0 1 3507.9109 9980.1094)" class="st7 st8">S</text>
<text transform="matrix(1 0 0 1 4023.6731 9874.0078)"><tspan x="0" y="0" class="st9 st10">An opening is made in the wood </tspan><tspan x="0" y="360" class="st9 st10">to facilitate the entry of the wood screw</tspan></text>
<g>
	<text transform="matrix(1 0 0 1 2525.0901 6442.9902)" class="st9 st10">install 3 inch screw</text>
</g>
<circle class="st11" cx="3578.8" cy="8197.5" r="860.1"/>
<path class="st4" d="M3481.4,9187.9c0-48.8,39.5-88.3,88.3-88.3s88.3,39.5,88.3,88.3s-39.5,88.3-88.3,88.3
	S3481.4,9236.7,3481.4,9187.9"/>
<polygon class="st4" points="3541.1,9227.7 3558.5,9214.7 3575.3,9217 3588.1,9232.6 3608.8,9216.4 3598.9,9203.9 3596,9188.9 
	3602.5,9179.3 3613.8,9170.8 3597.8,9150.6 3581.5,9162.4 3565,9160.2 3551.9,9143.2 3531.6,9159.3 3545.6,9179.8 3542.9,9193.1 
	3525.5,9207.3 "/>
<g>
	<path id="TORN_00000027563718454701775710000011445158023535972276_" d="M3964.4,8261.5c-0.8,7.3-3.5,12.7-9.5,16.5
		c-9.7,6-21.9,3-27.6-7c-0.3-0.3-0.5-0.5-0.5-0.8c-1.6-7.3-6.2-8.7-13-7.8c-6.2,0.5-12.7,0.3-19.2,0.3c-0.3,1.4-0.5,2.4-0.8,3.8
		c-1.9,8.1-8.1,14.1-16.2,15.7c-7.8,1.4-15.7-2.4-20-9.2c-0.3-0.3-0.5-0.8-0.8-1.4c-1.6-7.3-6.5-8.7-13.3-8.1
		c-7,0.8-14.3,0.3-21.6,0.5c-7.6,0-14.6-1.4-21.4-4.3c-22.4-9.7-44.6-19.2-67.1-28.7c-3.5-1.4-6.2-3.5-6.2-7.6
		c0-4.3,2.7-6.5,6.2-8.1c22.4-10.3,45.2-20.8,67.6-31.1c4.6-2.2,9.7-3.2,14.6-4.9c1.1-3,1.9-6.5,3.8-9.5c3.8-6.5,9.7-9.5,17.3-9.5
		s14.1,3.5,16.8,10.5c2.7,7.3,7,8.9,14.1,8.1c6.2-0.8,12.4-0.3,18.9-0.3c0.8-6.8,3.2-12.2,8.9-16c10-6.8,24.1-3.5,28.7,7.8
		c2.7,6.5,6.2,8.1,12.7,7.6c6.5-0.5,13.3-0.3,18.7-0.3c2.4-4.9,3.8-9.2,6.2-12.4c9.2-11.1,26.5-9.2,32.2,3.5c3,7,6.8,8.7,13.8,8.1
		c6.2-0.5,12.4-0.3,18.1-0.3c1.9-4.3,3-8.1,5.1-11.4c8.4-11.9,26-10.8,33,1.6c0.3,0.5,0.5,0.8,0.5,1.4c1.4,7,5.9,8.1,12.4,7.6
		c6.2-0.5,12.4-0.3,18.4-0.5c0.3,0,0.8,0,1.4-0.3c0.3-0.8,0.5-1.9,0.5-3c1.6-8.4,7.8-14.6,16.2-16c8.1-1.4,16,2.4,20.3,9.5
		c0.3,0.5,0.5,0.8,0.5,1.4c1.6,7,6,7.8,12.7,7.8c43.8-1.1,87.4-1.6,131.2-1.9c14.9-0.3,28.7-3.5,41.7-10.5c16.2-8.7,32.5-17.3,49-26
		c11.6-6.2,22.4,0.3,22.7,13.3c0.3,42.5,0.5,84.9,0.5,127.1c0,13.3-10.8,20-22.7,14.1c-18.1-8.9-36-17.9-53.8-26.5
		c-10-4.9-20.8-7.3-31.9-7c-35.7,0.3-71.7,0.8-107.4,1.4c-0.3,0-0.5,0-1.1,0.3c-0.3,0.8-0.5,1.9-0.5,3c-1.6,8.4-7.8,14.6-16.2,16
		c-8.1,1.4-16-2.2-20.3-9.5c-0.3-0.5-0.8-1.1-1.1-1.9c-1.4-6.2-5.4-7.8-11.6-7.3c-6.8,0.8-13.5,0.3-20,0.3
		c-1.4,3.5-2.2,7.3-4.1,10.3c-7.8,12.4-25.7,12.4-33.5-0.3c-0.3-0.5-0.8-1.1-0.8-1.6c-1.6-7-6.2-8.4-12.7-7.8
		c-6.5,0.8-13,0.3-18.4,0.3c-2.7,4.9-4.1,9.7-7,13c-8.9,10.3-26,8.4-31.6-4.3c-3.2-7.3-7.3-8.9-14.3-8.1
		C3976.9,8262.1,3970.7,8261.5,3964.4,8261.5z M4287.4,8184.7c-48.1,0.5-96,1.1-144.2,1.9c0.5,1.4,1.1,2.7,1.9,4.1
		c8.4,17.9,16.5,35.4,24.6,53.3c1.4,3,3,4.1,6.2,4.1c32.2-0.5,64.1-1.1,96.3-1.4c5.1,0,10.3-0.5,15.4-0.8
		C4287.6,8225.3,4287.6,8204.5,4287.4,8184.7z M4299.3,8181.5c0,22.4,0,44.4,0.3,65.5c8.4,3.2,16.8,6,24.9,9.5
		c8.1,3.5,15.7,7.6,23.3,11.4c-0.3-36.2-0.3-71.9-0.5-107.9C4331.2,8167.7,4316.6,8178,4299.3,8181.5z M3847.3,8252.6
		c0-0.8,0-1.1-0.3-1.4c-9.2-19.5-18.1-39.2-27.3-58.7c-0.5-0.8-2.4-1.9-3.5-1.6c-4.1,1.1-8.4,1.9-12.2,3.8
		c-19.2,8.7-38.1,17.6-57.3,26.2c-1.1,0.5-2.2,1.1-3.8,1.9c1.6,0.8,2.4,1.1,3.5,1.6c17.6,7.6,35.7,14.6,52.7,23
		C3814.9,8255,3831.1,8252.1,3847.3,8252.6z M4379.3,8145.2c-2.2,0.3-3.8,0-5.1,0.5c-4.6,2.2-8.9,4.3-13.3,7
		c-1.1,0.5-2.2,2.4-2.2,3.8c0,38.1,0.3,76.5,0.5,114.7c0,1.4,1.1,3,2.4,3.8c4.1,2.4,8.4,4.3,12.7,6.5c4.3,2.2,6.5,0.5,6.5-4.3
		c0-5.4,0-10.5,0-16c-0.3-37.1-0.3-73.8-0.5-110.9C4380.1,8148.7,4379.6,8147.4,4379.3,8145.2z M3950.4,8267.8c3-3,3.5-6.8,1.4-11.4
		c-7.8-16.8-15.4-33.3-23.3-50c-4.6-10.3-9.5-20.3-14.3-30.6c-2.4-5.1-7-7.3-11.9-5.1c-4.9,2.2-6.5,7.3-4.1,12.7
		c7.8,16.8,15.7,33.5,23.5,50.3c4.9,10.3,9.5,20.6,14.3,30.8C3939,8270.5,3945.8,8272.1,3950.4,8267.8z M3842.5,8174.2
		c-3.5-3.5-8.1-3.8-11.6-1.6c-4.1,2.7-4.9,7-2.7,11.9c12.4,26.8,24.9,53.6,37.6,80.3c2.7,5.7,7.6,7.6,12.4,5.4
		c4.6-2.2,6.2-7.3,3.8-12.7c-12.4-26.8-24.9-53.6-37.3-80.1C3843.8,8176.1,3843,8174.7,3842.5,8174.2z M4090.8,8265.6
		c3-3,3.5-6.5,1.4-10.8c-12.4-26.5-24.6-53-37.1-79.5c-3-6.5-7.6-8.9-12.7-6.5c-5.1,2.4-6.2,7.6-3.2,14.1c0.3,0.3,0.3,0.5,0.5,1.1
		c6.5,14.1,13,27.9,19.5,41.9c5.7,12.2,11.4,24.6,17.3,36.8C4079.4,8268.6,4086.4,8269.9,4090.8,8265.6z M4148.4,8264.5
		c3,2.7,6.2,3.5,9.5,2.2c5.1-1.9,7-7.3,4.3-13c-12.4-26.8-24.9-53.6-37.6-80.3c-2.4-5.4-7.3-7.6-12.2-5.4c-4.9,2.2-6.5,7.3-3.8,13
		c12.4,26.8,24.9,53.6,37.6,80.3C4147,8262.3,4147.8,8263.7,4148.4,8264.5z M3982.8,8172c-3.5-3.2-7.8-3.8-11.4-1.6
		c-4.1,2.4-5.1,7.3-2.7,12.2c8.7,18.9,17.6,37.6,26.2,56.5c3.8,8.4,7.6,16.8,11.6,24.9c2.2,4.6,7.3,6.2,11.6,4.1
		c4.3-2.2,6-7,4.1-11.9c-0.3-0.5-0.5-1.4-0.8-1.9c-12.2-26.2-24.6-52.7-36.8-79C3984.2,8174.2,3983.1,8172.8,3982.8,8172z
		 M4073.4,8186.6c0,0.5-0.3,0.8-0.3,0.8c9.2,20,18.4,39.8,27.6,59.5c0.3,0.8,1.6,1.6,2.4,1.6c8.1,0,16.2,0,25.2,0
		c-1.4-3-2.4-5.4-3.5-7.8c-8.1-17.3-16-34.3-24.1-51.7c-0.5-1.4-2.2-3-3.2-3C4089.4,8186.3,4081.6,8186.6,4073.4,8186.6z
		 M3988,8250.7c-0.8-1.6-1.1-2.7-1.4-3.5c-7.6-16.2-15.1-32.2-22.4-48.4c-1.6-3.5-2.4-8.1-5.1-9.7s-7.3-0.5-11.1-0.5
		c-4.9,0-9.7,0.3-15.1,0.3c9.5,20.6,18.9,40.6,28.4,60.6c0.3,0.8,1.4,1.6,1.9,1.6C3970.9,8250.7,3979.3,8250.7,3988,8250.7z
		 M3862.2,8189.9c9.7,20.6,18.9,40.6,28.1,60.3c0.5,0.8,2.2,1.6,3.2,1.6c5.4,0,10.8,0,16.2-0.3c2.4,0,4.9-0.3,7.6-0.3
		c-9.5-20.6-18.9-40.3-28.1-60.3c-0.3-0.8-1.6-1.6-2.2-1.6C3879.3,8189.6,3871.1,8189.6,3862.2,8189.9z M4058.3,8249.9
		c-9.7-20.8-18.9-40.8-28.4-60.6c-0.3-0.8-1.4-1.9-2.2-1.9c-8.1,0-16.5,0-24.6,0c0,0.8,0,1.1,0,1.4c9.2,19.7,18.4,39.5,27.6,59.2
		c0.3,0.8,1.6,1.6,2.4,1.6C4041.3,8249.9,4049.4,8249.9,4058.3,8249.9z"/>
</g>
<g>
	<circle class="st12" cx="1879.7" cy="1504.8" r="1328.4"/>
	<g>
		<path id="TORN_00000008868560371966364810000008916400167913707701_" class="st13" d="M1901.2,1862.2c20.4,13,32.5,28.8,35,51.8
			c3.5,37.4-22.9,69-60.7,71.3c-1.2,0.4-2.4,0.8-3.2,0.4c-23.9-5.8-34.6,5.9-42,27c-7.4,19.2-17.6,37.9-27,57.1
			c3.6,2.8,6.4,5.1,10,7.9c21.2,17.3,29.8,44.3,22.9,70.6c-7.4,25.1-29.9,42.8-56.1,45.8c-1.2,0.4-3.2,0.4-5.2,0.4
			c-23.9-5.8-35,6.7-43.1,27.4c-7.8,21.9-19.9,42.7-29.7,64.7c-11,22.4-25.1,41.2-43.7,56.9c-61.2,52.2-121.3,104-181.7,156.7
			c-9.1,8.4-19.4,13.3-31.4,7.4c-12.8-6.3-15.3-17.4-15-30.1c2.1-81.2,3.8-163.6,6-244.7c0.3-16.7,4.5-33.5,6.8-50.2
			c-7.2-7.5-16.4-15-22.5-24.9c-13.7-20.6-13.9-42.5-2.9-64.8c11-22.4,30.7-36.5,55.4-34.3c25.5,2.6,36.5-7.9,44.3-29.8
			c6.6-19.5,17.2-37.1,26.6-56.3c-18.8-12.2-31.3-27.2-34.2-49.5c-5.5-39.3,24.4-76.2,64.7-73.3c23.1,1.4,33-6.6,40.8-26.6
			c7.8-20,18.4-39.5,26.2-55.5c-10.9-14.2-21.7-24.5-27.8-36.4c-19.5-43.2,11.2-91.6,57-90c25.1,1.4,35.3-7.5,43.9-29
			c7.4-19.2,17.2-37.1,25.4-53.9c-10-11.9-19.7-20.5-26.1-31.6c-23-42,5.6-92.4,52.5-95.1c2,0,3.2-0.4,4.8,0.4
			c22.7,6.2,32.6-5.8,40.4-25.8c7.4-19.2,17.2-37.1,25-55.1c0.4-0.8,1.2-2.4,1.2-4.4c-2-2-4.8-4.3-8-5.9
			c-22.4-16.9-31.8-44.3-23.7-71c7.7-25.9,30.3-43.6,57.3-46.2c2,0,3.2-0.4,4.8,0.4c23.1,5.4,31.8-6.2,41.6-26.2
			c60.2-131,121.6-260.4,184.2-390.2c20.7-44.3,31.1-89.8,29.1-138.3c-2.1-60.5-4.2-120.9-5.9-182.2c-1.5-43.4,33.3-65.9,72-47.9
			c125.8,60.6,251.7,121.3,376.3,182.3c39.1,19.2,43.5,60.9,8.7,87.5c-52.6,40.6-104.8,80.4-156.2,120.6c-28.9,22.5-51.7,51-67,84.1
			c-50.9,105.9-101.3,212.9-151.4,319.1c-0.4,0.8-0.8,1.6-0.8,3.6c2,2,4.8,4.3,8,5.9c22.4,16.9,31.8,44.3,23.7,71
			c-7.7,25.9-29.5,44-57.3,46.2c-2,0-4.4,0.8-7.2,0.5c-20.3-5-31,4.6-38.4,23.8c-7.4,21.1-18.8,40.3-28.2,59.5
			c8.4,9.1,18.4,17,24.5,26.9c25.4,41.2-0.4,93.9-49.3,98.7c-2,0-4.4,0.8-6,0c-23.1-5.4-33.8,6.2-41.6,26.2
			c-7,20.3-18,38.7-25.8,54.7c10.5,15,22.9,26.1,28.2,39.6c17.4,41.2-12.8,88.8-58.6,87.2c-26.3-1-36.9,8.7-44.7,30.6
			C1920.8,1826.3,1910.2,1843.9,1901.2,1862.2z M2141.6,797.2c-68.1,143-135.7,285.2-203,428.6c4.8,0.4,9.6,0.7,14.7,0.3
			c64.9,1.1,128.5,2.5,193,4.4c10.7,0.3,16.3-2.9,21-12.5c45-95.9,89.6-190.9,135.3-286.4c7.4-15.2,13.3-31.1,19.9-46.7
			C2261.8,855.1,2200.3,824.9,2141.6,797.2z M2149.2,757.3c66.3,32.5,131,64.2,193.7,93.9c21.7-20.1,41.8-40.9,64-59.8
			c22.1-18.9,45.1-35.4,67.2-52.3c-107.4-51.6-212.9-103.3-319.6-154.5C2154.6,643.1,2163.9,701.1,2149.2,757.3z M1705.4,2195.3
			c-2.4-1.2-3.2-1.6-4.4-1.2c-70.8-1-142.1-3.2-212.9-4.2c-3.2,0.4-9.1,4.5-9.9,8c-2.7,13.5-6.5,27.5-6.4,41.4
			c-2.2,69.2-3.2,138.1-5.5,207.3c0,4,0.1,8,0.1,13.9c4.7-3.6,6.7-5.6,9.9-8c47.8-41,94.8-84.3,144.2-122.5
			C1665.6,2294.7,1680.3,2242.4,1705.4,2195.3z M2158,468.4c-2.3,6.8-5.5,11.2-5.8,16c-0.3,16.7-0.1,32.6,1.6,49.3
			c0,4,4.1,9.9,8.1,11.9c112.7,55.2,226.5,110,339.5,164.3c4,2,10.4,1.1,14.7-1.7c13.1-8.5,24.9-18.5,37.6-28.2
			c12.7-9.7,11-18.4-3.4-25.4c-16-7.8-31.2-15.3-47.1-23.1c-109.8-52.8-218.5-106-328.4-158.9C2169.6,471.1,2164.8,470.7,2158,468.4
			z M1899.2,1912.8c-4.5-13.1-14.9-20.2-31.6-20.4c-60.9-1.1-120.6-2.6-181.5-3.7c-37-1.3-73.6-1.4-111-1.9
			c-18.7-0.2-31.7,10.2-32.4,27.7s12.2,29.7,31.7,30.4c60.9,1.1,121.8,2.2,182.7,3.3c37.4,0.5,74.4,1.8,111.8,2.3
			C1890.8,1950.3,1905.4,1932.6,1899.2,1912.8z M1466.7,2096.2c-15.5,5.3-22.9,18.5-21.6,32c2.1,15.9,13.7,24.6,31.2,25.2
			c97.1,2,194.2,4,291.7,5.2c20.7,0.2,33.3-11.4,34-28.9c0.3-16.7-12.6-28.9-32.1-29.6c-97.1-2-194.2-4-290.5-5.6
			C1474.2,2094.9,1469,2095.4,1466.7,2096.2z M2096,1495c-4.5-13.1-14.1-19.8-30-19.6c-96.3-1.6-192.2-4-288.5-5.6
			c-23.5-0.6-37.3,9.5-37.6,28.2c-0.2,18.7,13.4,29.3,36.8,29.9c1.2-0.4,2,0,4,0c50.9,1.2,101.1,2,152,3.1
			c44.2,0.8,89.1,2.1,133.7,2.1C2088.3,1532.9,2102.5,1514,2096,1495z M2176.1,1323.3c12.3-4.9,19.4-13.3,20.1-24.8
			c1.8-17.9-11.4-31.3-32.1-31.6c-97.1-2-194.2-4-291.7-5.2c-19.5-0.6-32.9,10.6-33.6,28.1s12.2,29.7,32.9,30
			c97.1,2,194.2,4,291.7,5.2C2167.8,1324.1,2172.9,1323.7,2176.1,1323.3z M1663.4,1678.4c-14.7,5.7-22.5,17.7-21.2,31.2
			c1.3,15.5,14.1,25.7,32,25.6c68.4,1.8,136.5,2.5,204.9,4.3c30.2,0.9,60.5,1.9,90.3,1.6c16.7,0.3,28.9-12.6,28.8-28.5
			c-0.1-15.9-12.2-27.8-29.3-29.2c-2,0-4.8-0.4-6.8-0.3c-95.1-2-191.4-3.6-286.5-5.6C1671.7,1677.5,1666.2,1678.8,1663.4,1678.4z
			 M1837.6,1431.9c1.6,0.8,2,2,2,2c72.4,1.8,144.1,3.2,215.7,4.6c2.8,0.4,7.1-2.4,8.3-4.8c11.7-24,23.5-47.9,36.4-74.3
			c-10.7-0.3-19.5-0.6-28.3-1c-62.9-1.1-124.6-2.6-187.4-3.6c-4.8-0.4-11.9,2.1-13.5,5.3C1859.9,1384.3,1849.4,1407.9,1837.6,1431.9
			z M1903.3,1777.1c-6,0-9.6-0.7-12.3-1.1c-58.9-1.1-117-1.8-175.5-3.7c-12.7-0.3-27.5-4.5-36.2,1.1c-8.7,5.6-12.2,20.8-17.6,32
			c-7,14.4-13.3,29.2-21.1,45.1c74.4,1.8,147.2,2.8,220.1,3.8c2.8,0.4,6.8-1.6,7.5-3.2C1878.6,1827.4,1890.8,1802.6,1903.3,1777.1z
			 M1541.6,2060.5c74.8,1,147.2,2.8,218.9,4.2c3.2-0.4,7.9-4,9.5-7.2c7.8-16,15.7-32,22.7-48.3c3.5-7.2,6.2-14.8,10.2-22.8
			c-74.4-1.8-146.4-2.4-218.9-4.2c-2.8-0.4-7.1,2.4-7.9,4C1565.4,2009.8,1553.7,2033.8,1541.6,2060.5z M2002.7,1568.2
			c-75.6-1.4-148-3.2-220.1-3.8c-2.8-0.4-7.5,1.3-8.7,3.7c-11.7,24-23.9,48.7-35.6,72.7c2.4,1.2,3.2,1.6,4,2
			c71.6,1.4,143.3,2.8,214.9,4.2c2.8,0.4,7.1-2.4,8.3-4.8C1978,1618.5,1989.7,1594.5,2002.7,1568.2z"/>
	</g>
</g>
<text transform="matrix(1 0 0 1 465.5412 15483.1729)" class="st7 st8">S</text>
<g>
	<g>
		<defs>
			<circle id="SVGID_1_" cx="6669.5" cy="4322.8" r="1489.7"/>
		</defs>
		<clipPath id="SVGID_00000095336312708795112370000000318178519812757907_">
			<use xlink:href="#SVGID_1_"  style="overflow:visible;"/>
		</clipPath>
		
			<circle style="clip-path:url(#SVGID_00000095336312708795112370000000318178519812757907_);fill:none;stroke:#000000;stroke-width:78.2961;stroke-miterlimit:10;" cx="6669.5" cy="4322.8" r="1489.7"/>
		
			<g id="MAQUETA_2_00000147928318659568292320000000926973453584356778_" style="clip-path:url(#SVGID_00000095336312708795112370000000318178519812757907_);">
			<polygon class="st16" points="1321.6,5079.9 1321.6,9130.8 6908.5,7883.9 6873.6,3901.9 			"/>
			<polygon class="st17" points="949.6,4834.1 949.6,8901.7 1300.6,9133.4 6908.5,7883.9 6873.6,3901.9 6448.4,3656.3 			"/>
			<path class="st18" d="M6203.5,2265.7"/>
			<line class="st17" x1="1321.6" y1="5079.9" x2="949.6" y2="4834.1"/>
			<polygon class="st17" points="5967.6,3759.3 1869,1378.7 2321.5,1272.7 6448.4,3656.3 			"/>
			<line class="st19" x1="1869" y1="1360" x2="1869" y2="4637.2"/>
			<line class="st19" x1="6422.9" y1="3987.7" x2="6422.9" y2="7994.1"/>
			<path class="st19" d="M6519.6,7994.1"/>
			<path class="st19" d="M6519.6,3987.7"/>
			<circle class="st20" cx="6672.6" cy="7548.1" r="153"/>
			<polygon class="st20" points="6623.2,7617 6653.3,7594.5 6682.3,7598.5 6704.4,7625.5 6740.3,7597.5 6723.2,7575.9 
				6718.2,7549.8 6729.5,7533.3 6749,7518.5 6721.2,7483.5 6693.1,7503.9 6664.5,7500.2 6641.8,7470.6 6606.6,7498.7 6630.9,7534 
				6626.2,7557.1 6596.1,7581.7 			"/>
		</g>
		
			<circle style="clip-path:url(#SVGID_00000095336312708795112370000000318178519812757907_);fill:none;stroke:#000000;stroke-width:33.1425;stroke-miterlimit:10;" cx="6650.6" cy="4350.9" r="98"/>
		
			<path style="clip-path:url(#SVGID_00000095336312708795112370000000318178519812757907_);fill:none;stroke:#000000;stroke-width:21.542;stroke-miterlimit:10;" d="
			M6500.7,6038.1c0-84.5,68.5-153,153-153c84.5,0,153,68.5,153,153s-68.5,153-153,153C6569.2,6191.1,6500.7,6122.6,6500.7,6038.1"/>
		
			<polygon style="clip-path:url(#SVGID_00000095336312708795112370000000318178519812757907_);fill:none;stroke:#000000;stroke-width:21.542;stroke-miterlimit:10;" points="
			6604.3,6107 6634.3,6084.5 6663.4,6088.5 6685.5,6115.6 6721.4,6087.5 6704.3,6065.9 6699.3,6039.8 6710.6,6023.3 6730.1,6008.5 
			6702.3,5973.5 6674.2,5993.9 6645.5,5990.2 6622.9,5960.6 6587.7,5988.7 6612,6024 6607.3,6047.1 6577.2,6071.7 		"/>
		<g style="clip-path:url(#SVGID_00000095336312708795112370000000318178519812757907_);">
			<path id="TORN_00000009559298278080145380000003084399977688869546_" d="M7337.4,4433.8c-1.4,12.6-6.1,22-16.4,28.6
				c-16.9,10.3-37.9,5.2-47.8-12.2c-0.5-0.5-0.9-0.9-0.9-1.4c-2.8-12.6-10.8-15-22.5-13.6c-10.8,0.9-22,0.5-33.3,0.5
				c-0.5,2.3-0.9,4.2-1.4,6.6c-3.3,14.1-14.1,24.4-28.1,27.2c-13.6,2.3-27.2-4.2-34.7-15.9c-0.5-0.5-0.9-1.4-1.4-2.3
				c-2.8-12.6-11.2-15-23-14.1c-12.2,1.4-24.8,0.5-37.5,0.9c-13.1,0-25.3-2.3-37-7.5c-38.9-16.9-77.3-33.3-116.2-49.7
				c-6.1-2.3-10.8-6.1-10.8-13.1c0-7.5,4.7-11.2,10.8-14.1c38.9-17.8,78.2-36.1,117.1-53.9c8-3.7,16.9-5.6,25.3-8.4
				c1.9-5.2,3.3-11.2,6.6-16.4c6.6-11.2,16.9-16.4,30-16.4s24.4,6.1,29,18.3c4.7,12.6,12.2,15.5,24.4,14.1
				c10.8-1.4,21.5-0.5,32.8-0.5c1.4-11.7,5.6-21.1,15.5-27.6c17.3-11.7,41.7-6.1,49.7,13.6c4.7,11.2,10.8,14.1,22,13.1
				s23-0.5,32.3-0.5c4.2-8.4,6.6-15.9,10.8-21.5c15.9-19.2,45.9-15.9,55.7,6.1c5.2,12.2,11.7,15,23.9,14.1
				c10.8-0.9,21.5-0.5,31.4-0.5c3.3-7.5,5.2-14.1,8.9-19.7c14.5-20.6,45-18.7,57.1,2.8c0.5,0.9,0.9,1.4,0.9,2.3
				c2.3,12.2,10.3,14.1,21.5,13.1c10.8-0.9,21.5-0.5,31.9-0.9c0.5,0,1.4,0,2.3-0.5c0.5-1.4,0.9-3.3,0.9-5.2
				c2.8-14.5,13.6-25.3,28.1-27.6c14.1-2.3,27.6,4.2,35.1,16.4c0.5,0.9,0.9,1.4,0.9,2.3c2.8,12.2,10.3,13.6,22,13.6
				c75.9-1.9,151.3-2.8,227.2-3.3c25.8-0.5,49.7-6.1,72.1-18.3c28.1-15,56.2-30,84.8-45c20.1-10.8,38.9,0.5,39.3,23
				c0.5,73.5,0.9,147.1,0.9,220.2c0,23-18.7,34.7-39.3,24.4c-31.4-15.5-62.3-30.9-93.2-45.9c-17.3-8.4-36.1-12.6-55.3-12.2
				c-61.8,0.5-124.1,1.4-186,2.3c-0.5,0-0.9,0-1.9,0.5c-0.5,1.4-0.9,3.3-0.9,5.2c-2.8,14.5-13.6,25.3-28.1,27.6
				c-14.1,2.3-27.6-3.7-35.1-16.4c-0.5-0.9-1.4-1.9-1.9-3.3c-2.3-10.8-9.4-13.6-20.1-12.6c-11.7,1.4-23.4,0.5-34.7,0.5
				c-2.3,6.1-3.7,12.6-7,17.8c-13.6,21.5-44.5,21.5-58.1-0.5c-0.5-0.9-1.4-1.9-1.4-2.8c-2.8-12.2-10.8-14.5-22-13.6
				c-11.2,1.4-22.5,0.5-31.9,0.5c-4.7,8.4-7,16.9-12.2,22.5c-15.5,17.8-45,14.5-54.8-7.5c-5.6-12.6-12.6-15.5-24.8-14.1
				C7358.9,4434.7,7348.1,4433.8,7337.4,4433.8z M7896.6,4300.7c-83.4,0.9-166.3,1.9-249.7,3.3c0.9,2.3,1.9,4.7,3.3,7
				c14.5,30.9,28.6,61.4,42.6,92.3c2.3,5.2,5.2,7,10.8,7c55.7-0.9,111-1.9,166.8-2.3c8.9,0,17.8-0.9,26.7-1.4
				C7897.1,4371,7897.1,4334.9,7896.6,4300.7z M7917.2,4295.1c0,38.9,0,76.8,0.5,113.4c14.5,5.6,29,10.3,43.1,16.4
				s27.2,13.1,40.3,19.7c-0.5-62.8-0.5-124.6-0.9-186.9C7972.5,4271.2,7947.2,4289,7917.2,4295.1z M7134.5,4418.3
				c0-1.4,0-1.9-0.5-2.3c-15.9-33.7-31.4-67.9-47.3-101.6c-0.9-1.4-4.2-3.3-6.1-2.8c-7,1.9-14.5,3.3-21.1,6.6
				c-33.3,15-66,30.4-99.3,45.4c-1.9,0.9-3.7,1.9-6.6,3.3c2.8,1.4,4.2,1.9,6.1,2.8c30.4,13.1,61.8,25.3,91.3,39.8
				C7078.3,4422.5,7106.4,4417.4,7134.5,4418.3z M8055.9,4232.4c-3.7,0.5-6.6,0-8.9,0.9c-8,3.7-15.5,7.5-23,12.2
				c-1.9,0.9-3.7,4.2-3.7,6.6c0,66,0.5,132.6,0.9,198.6c0,2.3,1.9,5.2,4.2,6.6c7,4.2,14.5,7.5,22,11.2c7.5,3.7,11.2,0.9,11.2-7.5
				c0-9.4,0-18.3,0-27.6c-0.5-64.2-0.5-127.9-0.9-192C8057.3,4238.4,8056.4,4236.1,8055.9,4232.4z M7313,4444.5
				c5.2-5.2,6.1-11.7,2.3-19.7c-13.6-29-26.7-57.6-40.3-86.7c-8-17.8-16.4-35.1-24.8-52.9c-4.2-8.9-12.2-12.6-20.6-8.9
				c-8.4,3.7-11.2,12.6-7,22c13.6,29,27.2,58.1,40.8,87.1c8.4,17.8,16.4,35.6,24.8,53.4C7293.3,4449.2,7305,4452,7313,4444.5z
				 M7126.1,4282.5c-6.1-6.1-14.1-6.6-20.1-2.8c-7,4.7-8.4,12.2-4.7,20.6c21.5,46.4,43.1,92.7,65.1,139.1
				c4.7,9.8,13.1,13.1,21.5,9.4c8-3.7,10.8-12.6,6.6-22c-21.5-46.4-43.1-92.7-64.6-138.6C7128.5,4285.8,7127,4283.4,7126.1,4282.5z
				 M7556.1,4440.8c5.2-5.2,6.1-11.2,2.3-18.7c-21.5-45.9-42.6-91.8-64.2-137.7c-5.2-11.2-13.1-15.5-22-11.2
				c-8.9,4.2-10.8,13.1-5.6,24.4c0.5,0.5,0.5,0.9,0.9,1.9c11.2,24.4,22.5,48.2,33.7,72.6c9.8,21.1,19.7,42.6,30,63.7
				C7536.4,4445.9,7548.6,4448.3,7556.1,4440.8z M7655.9,4438.9c5.2,4.7,10.8,6.1,16.4,3.7c8.9-3.3,12.2-12.6,7.5-22.5
				c-21.5-46.4-43.1-92.7-65.1-139.1c-4.2-9.4-12.6-13.1-21.1-9.4c-8.4,3.7-11.2,12.6-6.6,22.5c21.5,46.4,43.1,92.7,65.1,139.1
				C7653.5,4435.2,7654.9,4437.5,7655.9,4438.9z M7369.2,4278.7c-6.1-5.6-13.6-6.6-19.7-2.8c-7,4.2-8.9,12.6-4.7,21.1
				c15,32.8,30.4,65.1,45.4,97.9c6.6,14.5,13.1,29,20.1,43.1c3.7,8,12.6,10.8,20.1,7s10.3-12.2,7-20.6c-0.5-0.9-0.9-2.3-1.4-3.3
				c-21.1-45.4-42.6-91.3-63.7-136.8C7371.6,4282.5,7369.7,4280.1,7369.2,4278.7z M7526.1,4304c0,0.9-0.5,1.4-0.5,1.4
				c15.9,34.7,31.9,68.9,47.8,103c0.5,1.4,2.8,2.8,4.2,2.8c14.1,0,28.1,0,43.6,0c-2.3-5.2-4.2-9.4-6.1-13.6
				c-14.1-30-27.6-59.5-41.7-89.5c-0.9-2.3-3.7-5.2-5.6-5.2C7553.8,4303.5,7540.2,4304,7526.1,4304z M7378.1,4415
				c-1.4-2.8-1.9-4.7-2.3-6.1c-13.1-28.1-26.2-55.7-38.9-83.8c-2.8-6.1-4.2-14.1-8.9-16.9c-4.7-2.8-12.6-0.9-19.2-0.9
				c-8.4,0-16.9,0.5-26.2,0.5c16.4,35.6,32.8,70.3,49.2,104.9c0.5,1.4,2.3,2.8,3.3,2.8C7348.6,4415,7363.1,4415,7378.1,4415z
				 M7160.3,4309.6c16.9,35.6,32.8,70.3,48.7,104.5c0.9,1.4,3.7,2.8,5.6,2.8c9.4,0,18.7,0,28.1-0.5c4.2,0,8.4-0.5,13.1-0.5
				c-16.4-35.6-32.8-69.8-48.7-104.5c-0.5-1.4-2.8-2.8-3.7-2.8C7189.8,4309.2,7175.8,4309.2,7160.3,4309.6z M7499.9,4413.6
				c-16.9-36.1-32.8-70.7-49.2-104.9c-0.5-1.4-2.3-3.3-3.7-3.3c-14.1,0-28.6,0-42.6,0c0,1.4,0,1.9,0,2.3
				c15.9,34.2,31.9,68.4,47.8,102.6c0.5,1.4,2.8,2.8,4.2,2.8C7470.4,4413.6,7484.4,4413.6,7499.9,4413.6z"/>
		</g>
	</g>
	<circle class="st23" cx="6669.5" cy="4322.8" r="1489.7"/>
</g>
<line class="st5" x1="3578.8" y1="7337.3" x2="3569.7" y2="6605.7"/>
<text transform="matrix(1 0 0 1 3578.8035 710.9275)"><tspan x="0" y="0" class="st9 st10">screw black the measures 8 mm phillips </tspan><tspan x="0" y="360" class="st9 st10">head wood AGGLOMERATE or MDF </tspan><tspan x="0" y="720" class="st9 st10">with screews 5 CM long</tspan></text>
<line class="st24" x1="6552.6" y1="4350.9" x2="3769.7" y2="4350.9"/>
<g>
	<text transform="matrix(1 0 0 1 56.5509 3976.4502)"><tspan x="0" y="0" class="st9 st10">making the holes (3 holes) with a #8 </tspan><tspan x="441.9" y="360" class="st9 st10">countersink drill bit in this </tspan><tspan x="715.4" y="720" class="st9 st10">case equal thickness of </tspan><tspan x="1457.4" y="1080" class="st9 st10">the screw</tspan></text>
</g>
<polyline class="st24" points="3208.1,1770.4 8344.1,1770.4 8344.1,4322.8 8159.1,4322.8 "/>
</svg>
